<?xml version="1.0" standalone="no"?>
<!DOCTYPE svg PUBLIC "-//W3C//DTD SVG 1.1//EN" "http://www.w3.org/Graphics/SVG/1.1/DTD/svg11.dtd" >
<svg xmlns="http://www.w3.org/2000/svg" xmlns:xlink="http://www.w3.org/1999/xlink" version="1.1">
<metadata></metadata>
<defs>
<font id="silka_monobold" horiz-adv-x="1392" >
<font-face units-per-em="2048" ascent="1638" descent="-410" />
<missing-glyph horiz-adv-x="500" />
<glyph />
<glyph />
<glyph unicode="&#xd;" />
<glyph unicode=" " />
<glyph unicode="!" d="M522 143q0 72 51 121t123 49q76 0 125 -48.5t49 -121.5q0 -75 -48.5 -122.5t-125.5 -47.5q-73 0 -123.5 48t-50.5 122zM535 897v537h325v-537l-69 -469h-187z" />
<glyph unicode="&#x22;" d="M348 1434h285l-25 -486h-235zM758 1434h284l-24 -486h-236z" />
<glyph unicode="#" d="M176 377v233h174l33 211h-145v234h180l57 379h246l-57 -379h165l58 379h246l-58 -379h139v-234h-174l-32 -211h145v-233h-180l-58 -377h-245l57 377h-166l-57 -377h-246l57 377h-139zM596 610h166l33 211h-166z" />
<glyph unicode="$" d="M135 467h309q3 -67 46 -116.5t118 -67.5v303q-52 11 -89.5 21.5t-86 29t-83 40t-70 55.5t-57.5 74.5t-36 98t-14 125.5q0 169 116 287t320 139v113h170v-113q196 -23 316 -138.5t127 -313.5h-324q-3 118 -119 155v-278q58 -11 96 -20t93 -27.5t91.5 -39t77.5 -54.5 t65 -75t40 -99.5t16 -129.5q0 -188 -126.5 -313.5t-352.5 -145.5v-151h-170v151q-221 23 -348 155.5t-125 334.5zM496 1038q0 -43 28.5 -70t83.5 -46v241q-54 -15 -83 -48t-29 -77zM778 276q68 12 105 47t37 89q0 52 -36 82t-106 51v-269z" />
<glyph unicode="%" d="M100 1020v209q0 100 73 165.5t181 65.5t181 -65.5t73 -165.5v-209q0 -100 -73 -166t-181 -66t-181 66t-73 166zM193 244l876 1028l125 -111l-877 -1026zM276 1024q0 -34 22 -56t56 -22q35 0 57.5 22t22.5 56v199q0 34 -22.5 55.5t-57.5 21.5q-34 0 -56 -21.5t-22 -55.5 v-199zM782 207v207q0 101 73 166t183 65q108 0 181 -65.5t73 -165.5v-207q0 -102 -73 -168t-181 -66q-110 0 -183 66t-73 168zM958 211q0 -34 22.5 -56t57.5 -22t57.5 22t22.5 56v199q0 33 -22.5 55t-57.5 22t-57.5 -22t-22.5 -55v-199z" />
<glyph unicode="&#x26;" d="M43 410q0 238 244 376q-125 155 -125 301q0 162 110 267.5t295 105.5q167 0 281.5 -106.5t116.5 -263.5q1 -64 -17 -118.5t-53 -98t-78 -77t-100 -65.5l-8 -4l215 -244q72 147 34 326h277q30 -145 -2 -286t-117 -259l234 -264h-377l-64 74q-167 -101 -360 -101 q-101 0 -190 27t-160.5 79t-113.5 137.5t-42 193.5zM350 412q0 -71 58 -118.5t145 -47.5q86 0 170 41l-262 301q-57 -34 -84 -76.5t-27 -99.5zM453 1079q0 -29 12.5 -57.5t26.5 -47t45 -54.5l26 14q61 32 89 67.5t28 81.5q0 47 -30 79t-83 32q-51 0 -82.5 -33t-31.5 -82z " />
<glyph unicode="'" d="M553 1434h285l-25 -486h-235z" />
<glyph unicode="(" d="M297 635q0 162 45 312.5t125 270t183 214t224 159.5l224 -166q-81 -47 -150.5 -102.5t-133 -129.5t-108.5 -156.5t-71.5 -186t-26.5 -215.5q0 -139 39.5 -263.5t109.5 -221.5t154.5 -172t186.5 -134l-224 -166q-121 65 -224 159.5t-183 214.5t-125 270t-45 313z" />
<glyph unicode=")" d="M295 -156q102 59 186 134t154.5 172t109.5 221.5t39 263.5q0 112 -26.5 215.5t-71 186t-108 156.5t-133 129.5t-150.5 102.5l223 166q121 -65 224.5 -159.5t183 -214t125 -270t45.5 -312.5t-45.5 -312.5t-125 -270.5t-183 -214.5t-224.5 -159.5z" />
<glyph unicode="*" d="M340 1001v150l225 -27l2 13l-176 139l107 106l139 -180l10 6l-24 226h149l-24 -226l10 -6l139 180l107 -106l-177 -139l2 -13l226 27v-150l-228 23l-2 -14l179 -136l-107 -106l-141 176l-11 -6l27 -221h-149l26 221l-10 6l-141 -176l-107 106l176 136l-2 14z" />
<glyph unicode="+" d="M195 514v246h374v385h256v-385h373v-246h-373v-385h-256v385h-374z" />
<glyph unicode="," d="M522 -268l39 536h309l-120 -536h-228z" />
<glyph unicode="-" d="M403 492v268h584v-268h-584z" />
<glyph unicode="." d="M522 143q0 72 51 121t123 49q76 0 125 -48.5t49 -121.5q0 -75 -48.5 -122.5t-125.5 -47.5q-73 0 -123.5 48t-50.5 122z" />
<glyph unicode="/" d="M229 -221l625 1757h307l-626 -1757h-306z" />
<glyph unicode="0" d="M195 451v532q0 111 42.5 203t113 150.5t160 91t185.5 32.5t186 -32.5t161 -91t114 -150.5t43 -203v-532q0 -111 -43 -203t-114 -151t-161 -91.5t-186 -32.5t-185.5 32.5t-160 91.5t-113 151t-42.5 203zM516 471q0 -88 50.5 -140t129.5 -52q81 0 132 52t51 140v492 q0 88 -51.5 140t-131.5 52q-79 0 -129.5 -52t-50.5 -140v-492zM596 721q0 43 29.5 71.5t72.5 28.5t72 -28.5t29 -71.5t-29 -71.5t-72 -28.5t-72.5 28.5t-29.5 71.5z" />
<glyph unicode="1" d="M180 975v239q200 0 279.5 53t79.5 167h297v-1153h376v-281h-1011v281h313v694h-334z" />
<glyph unicode="2" d="M207 993q0 91 31.5 174.5t90 149t151 104.5t206.5 39q226 0 362 -124.5t136 -311.5q0 -142 -67 -240.5t-202 -179.5l-286 -168q-53 -33 -76 -66t-23 -73v-16h652v-281h-973v252q0 141 64 240t208 188l267 164q57 36 84.5 74.5t27.5 93.5q0 65 -47 108t-129 43 q-80 0 -129 -50.5t-49 -119.5h-299z" />
<glyph unicode="3" d="M201 442h299q3 -70 51.5 -115.5t128.5 -45.5q84 0 135 49.5t51 124.5q0 71 -51.5 122.5t-140.5 51.5h-201v243l287 261v14h-533v289h926v-281l-297 -268v-13q146 -28 240 -143.5t94 -275.5q0 -96 -34.5 -182.5t-98 -153t-161 -105.5t-214.5 -39q-114 0 -207.5 39.5 t-152 105.5t-90 149t-31.5 173z" />
<glyph unicode="4" d="M150 252v270l356 912h332l-338 -883v-12h274v295h322v-295h145v-287h-145v-252h-322v252h-624z" />
<glyph unicode="5" d="M199 436h299q6 -69 55 -113t129 -44q85 0 136.5 52t51.5 128q0 77 -52 129.5t-142 52.5q-99 0 -154 -74h-305l57 869h832v-289h-553l-21 -291h11q92 64 205 64q128 0 231 -64.5t158 -169.5t55 -227q0 -100 -36 -188.5t-100.5 -154t-160.5 -103.5t-209 -38 q-219 0 -350.5 132t-136.5 329z" />
<glyph unicode="6" d="M182 467q0 146 74 278l381 689h375l-312 -506l9 -8q27 10 65 10q56 0 114.5 -16.5t116.5 -53t103.5 -89t73.5 -131.5t28 -173q0 -142 -73 -256.5t-190.5 -176t-252.5 -61.5q-136 0 -252 60.5t-188 175t-72 258.5zM506 467q0 -80 53.5 -134t134.5 -54q82 0 136.5 54.5 t54.5 133.5q0 80 -54.5 136t-136.5 56q-81 0 -134.5 -56t-53.5 -136z" />
<glyph unicode="7" d="M219 1147v289h955v-277l-490 -1159h-354l491 1133v14h-602z" />
<glyph unicode="8" d="M172 408q0 233 209 350v16q-70 47 -114 123t-44 176q0 173 133 280t338 107q210 0 341.5 -106.5t131.5 -280.5q0 -100 -44 -176t-113 -123v-16q209 -120 209 -350q0 -194 -145.5 -313.5t-379.5 -119.5t-378 119t-144 314zM496 432q0 -73 54 -122.5t144 -49.5 q91 0 146 49.5t55 122.5q0 81 -56 129.5t-145 48.5q-87 0 -142.5 -48.5t-55.5 -129.5zM532 1030q0 -64 46 -107.5t116 -43.5t117 44t47 107q0 64 -46 108t-118 44t-117 -44t-45 -108z" />
<glyph unicode="9" d="M182 967q0 142 73 256.5t190.5 175.5t252.5 61q101 0 194 -36t163.5 -99t112.5 -156.5t42 -201.5q0 -149 -73 -279l-381 -688h-375l311 506l-8 8q-27 -10 -66 -10q-56 0 -114.5 16.5t-116.5 53t-103.5 89t-73.5 131.5t-28 173zM508 967q0 -81 54 -137t136 -56 q81 0 135 56.5t54 136.5t-54 134t-135 54q-82 0 -136 -54.5t-54 -133.5z" />
<glyph unicode=":" d="M522 143q0 72 51 121t123 49q76 0 125 -48.5t49 -121.5q0 -75 -48.5 -122.5t-125.5 -47.5q-73 0 -123.5 48t-50.5 122zM522 842q0 72 51 121t123 49q76 0 125 -48.5t49 -121.5q0 -75 -49 -123.5t-125 -48.5q-73 0 -123.5 49t-50.5 123z" />
<glyph unicode=";" d="M522 -268l39 536h309l-120 -536h-228zM526 842q0 72 51 121t123 49q76 0 125 -48.5t49 -121.5q0 -75 -49 -123.5t-125 -48.5q-73 0 -123.5 49t-50.5 123z" />
<glyph unicode="&#x3c;" d="M264 492v294l866 328v-266l-583 -203v-12l583 -203v-266z" />
<glyph unicode="=" d="M195 301v246h1003v-246h-1003zM195 702v248h1003v-248h-1003z" />
<glyph unicode="&#x3e;" d="M264 164v266l582 203v12l-582 203v266l866 -328v-294z" />
<glyph unicode="?" d="M231 1022q0 91 30 170t86.5 139t144.5 94.5t196 34.5q221 0 347 -118t126 -306q0 -211 -223 -358l-102 -72q-68 -48 -68 -125v-53h-285v86q0 98 39.5 166t120.5 125l113 80q46 35 69 69.5t23 81.5q0 63 -42.5 103.5t-119.5 40.5q-79 0 -120.5 -44.5t-43.5 -113.5h-291z M451 143q0 72 51 121t123 49q76 0 125 -48.5t49 -121.5q0 -75 -48.5 -122.5t-125.5 -47.5q-73 0 -123.5 48t-50.5 122z" />
<glyph unicode="@" d="M117 868q-1 122 46 221.5t127.5 163t185 97.5t220.5 34q257 0 413.5 -137.5t156.5 -345.5v-768h-234v82h-12q-27 -40 -80.5 -70t-132.5 -30q-160 -3 -257 114t-97 295q0 177 96.5 295t257.5 117q79 -1 132.5 -31t80.5 -69h12v65q0 41 -10 77.5t-34.5 72t-61.5 61.5 t-96 41.5t-134 15.5q-165 0 -253.5 -86t-88.5 -223v-643q0 -145 90.5 -223t253.5 -78h500v-213h-500q-120 0 -220.5 27.5t-182.5 86t-128.5 160.5t-47.5 240zM692 524q0 -85 47 -138.5t125 -53.5q77 -2 124.5 51t47.5 143q0 86 -47 139t-125 52q-77 0 -124.5 -53.5 t-47.5 -139.5z" />
<glyph unicode="A" d="M41 0l444 1434h416l451 -1434h-346l-72 254h-490l-71 -254h-332zM526 543h326l-154 538h-18z" />
<glyph unicode="B" d="M170 0v1434h561q207 0 325 -106.5t118 -274.5q0 -95 -42.5 -170.5t-117.5 -120.5v-12q85 -39 147 -122t62 -208q0 -128 -63.5 -225.5t-164.5 -146t-221 -48.5h-604zM479 272h209q88 0 139.5 46t51.5 135q0 83 -56.5 127.5t-140.5 44.5h-203v-353zM479 858h207 q80 0 126 45t46 117q0 66 -47 107.5t-123 41.5h-209v-311z" />
<glyph unicode="C" d="M147 489v455q0 224 152 370t397 146q244 0 395 -143t154 -379h-323q-5 89 -65.5 150t-160.5 61q-104 0 -164.5 -65t-60.5 -156v-422q0 -92 60.5 -156.5t164.5 -64.5q100 0 160 59t66 148h323q-3 -233 -155.5 -376t-393.5 -143q-245 0 -397 146t-152 370z" />
<glyph unicode="D" d="M166 0v1434h512q245 0 397 -145t152 -369v-412q0 -223 -151.5 -365.5t-397.5 -142.5h-512zM477 281h201q105 0 165 62t60 155v432q0 93 -60.5 158t-164.5 65h-201v-872z" />
<glyph unicode="E" d="M229 0v1434h914v-277h-590v-297h502v-276h-502v-305h610v-279h-934z" />
<glyph unicode="F" d="M242 0v1434h909v-277h-586v-330h529v-276h-529v-551h-323z" />
<glyph unicode="G" d="M147 489v455q0 224 152 370t397 146q244 0 395 -138t154 -370h-323q-5 85 -65 141t-161 56q-104 0 -164.5 -65t-60.5 -156v-434q0 -94 60.5 -159t164.5 -65q104 1 164 65.5t60 156.5v47h-269v243h592v-295q0 -228 -152 -371t-395 -143q-245 0 -397 146t-152 370z" />
<glyph unicode="H" d="M115 0v1434h323v-555h516v555h326v-1434h-326v567h-516v-567h-323z" />
<glyph unicode="I" d="M166 0v276h364v881h-364v277h1061v-277h-373v-881h373v-276h-1061z" />
<glyph unicode="J" d="M182 461h307q0 -86 51.5 -138.5t147.5 -52.5q102 0 150.5 64.5t48.5 157.5v661h-455v281h778v-957q0 -231 -139 -366.5t-381 -135.5q-241 0 -374.5 132t-133.5 354z" />
<glyph unicode="K" d="M109 0v1434h323v-547h12l433 547h399l-477 -564l485 -870h-375l-334 606l-143 -170v-436h-323z" />
<glyph unicode="L" d="M172 0v1434h326v-1143h723v-291h-1049z" />
<glyph unicode="M" d="M90 0v1434h381l219 -973h12l220 973h381v-1434h-271v801h-12l-178 -801h-291l-178 801h-13v-801h-270z" />
<glyph unicode="N" d="M121 0v1434h356l469 -856h12v856h314v-1434h-361l-465 856h-12v-856h-313z" />
<glyph unicode="O" d="M147 489v455q0 224 152 370t397 146t397 -146t152 -370v-455q0 -224 -152 -370t-397 -146t-397 146t-152 370zM471 506q0 -92 60.5 -156.5t164.5 -64.5t165 64.5t61 156.5v422q0 91 -61 156t-165 65t-164.5 -65t-60.5 -156v-422z" />
<glyph unicode="P" d="M166 0v1434h561q215 0 357.5 -134.5t142.5 -345.5q0 -138 -67.5 -249t-181.5 -172.5t-251 -61.5h-235v-471h-326zM492 745h202q89 0 146 58t57 151q0 92 -57 147.5t-146 55.5h-202v-412z" />
<glyph unicode="Q" d="M147 489v455q0 224 152 370t397 146t397 -146t152 -370v-455q0 -127 -52 -233.5t-146 -175.5l186 -326h-354l-113 223q-46 -4 -70 -4q-245 0 -397 146t-152 370zM471 506q0 -92 60.5 -156.5t164.5 -64.5t165 64.5t61 156.5v422q0 91 -61 156t-165 65t-164.5 -65 t-60.5 -156v-422z" />
<glyph unicode="R" d="M135 0v1434h563q222 0 365 -131.5t143 -341.5q0 -140 -69.5 -250t-182.5 -168l303 -543h-358l-246 479h-192v-479h-326zM461 756h209q91 0 149 54t58 151q0 89 -57 142.5t-152 53.5h-207v-401z" />
<glyph unicode="S" d="M135 467h311q3 -87 72 -142t187 -55q101 0 158 37.5t57 104.5q0 42 -25.5 71.5t-68.5 46t-99 29.5t-118 26.5t-124 31.5t-118 50t-99 77t-68.5 118.5t-25.5 167.5q0 186 137.5 308t376.5 122q232 0 378 -117.5t155 -338.5h-322q-3 76 -57.5 121.5t-153.5 45.5 q-91 0 -141.5 -37t-50.5 -96q0 -40 26 -68t70 -44t101 -28t120.5 -25t126.5 -30.5t120 -49.5t101 -76t70 -116t26 -165q0 -205 -149.5 -334t-411.5 -129q-260 -1 -412 135q-150 134 -149 353v6z" />
<glyph unicode="T" d="M125 1153v281h1143v-281h-410v-1153h-326v1153h-407z" />
<glyph unicode="U" d="M113 545v889h325v-887q0 -126 66 -197t192 -71t193 71t67 199v885h324v-887q0 -257 -160.5 -415.5t-423.5 -158.5t-423 158t-160 414z" />
<glyph unicode="V" d="M78 1434h360l250 -996h17l253 996h357l-422 -1434h-397z" />
<glyph unicode="W" d="M53 1434h281l106 -932h17l106 932h266l109 -932h16l107 932h278l-204 -1434h-306l-124 969h-17l-123 -969h-307z" />
<glyph unicode="X" d="M66 0l426 735l-404 699h365l239 -439h13l237 439h365l-404 -699l424 -735h-373l-252 481h-12l-252 -481h-372z" />
<glyph unicode="Y" d="M55 1434h355l276 -537h16l279 537h356l-483 -877l4 -272h293v-285h-909v285h303v270z" />
<glyph unicode="Z" d="M139 0v283l686 858v16h-661v277h1075v-281l-688 -858v-16h692v-279h-1104z" />
<glyph unicode="[" d="M434 -305v1868h524v-252h-221v-1362h221v-254h-524z" />
<glyph unicode="\" d="M229 1536h308l624 -1757h-305z" />
<glyph unicode="]" d="M434 -51h221v1362h-221v252h524v-1868h-524v254z" />
<glyph unicode="^" d="M193 610l370 824h266l371 -824h-266l-232 539h-12l-231 -539h-266z" />
<glyph unicode="_" d="M139 -59h1112v-256h-1112v256z" />
<glyph unicode="`" d="M496 1546h303l100 -311h-215z" />
<glyph unicode="a" d="M131 535q0 255 137 414t355 159q113 0 190.5 -46.5t114.5 -103.5h16v123h318v-1081h-314v123h-16q-16 -23 -37.5 -45t-57.5 -47.5t-89.5 -41.5t-116.5 -16q-224 0 -362 154t-138 408zM453 541q0 -126 68.5 -203.5t180.5 -77.5t180 79.5t68 201.5q0 127 -70 203.5 t-180 76.5t-178.5 -77.5t-68.5 -202.5z" />
<glyph unicode="b" d="M133 0v1536h318v-578h16q37 57 113.5 103.5t191.5 46.5q218 0 354 -159t136 -414q0 -254 -138 -408t-360 -154q-63 0 -117.5 16t-90 41.5t-57.5 47.5t-36 45h-17v-123h-313zM444 541q0 -122 68 -201.5t180 -79.5q110 0 179 77.5t69 203.5q0 124 -69 202t-179 78t-179 -76 t-69 -204z" />
<glyph unicode="c" d="M137 541q0 159 69.5 287.5t201.5 204t303 75.5q224 0 372.5 -123t171.5 -323h-321q-23 72 -81 115.5t-142 43.5q-113 0 -181.5 -80t-68.5 -200q0 -121 69.5 -201t182.5 -80q78 0 137 41t80 107h323q-27 -194 -174.5 -314.5t-367.5 -120.5q-170 0 -302 76t-202 205 t-70 287z" />
<glyph unicode="d" d="M133 535q0 255 136 414t354 159q115 0 191.5 -46.5t113.5 -103.5h16v578h318v-1536h-314v123h-16q-14 -23 -36 -45t-57.5 -47.5t-90 -41.5t-117.5 -16q-222 0 -360 154t-138 408zM455 541q0 -126 68.5 -203.5t178.5 -77.5q112 0 180 79.5t68 201.5q0 128 -69 204t-179 76 t-178.5 -77.5t-68.5 -202.5z" />
<glyph unicode="e" d="M147 535q0 254 154 413.5t401 159.5q130 0 234.5 -45.5t171 -123.5t102 -179t35.5 -215v-92h-796q8 -104 78.5 -170t179.5 -66q90 0 152 37t87 92h287q-37 -172 -179 -272.5t-358 -100.5q-155 0 -280.5 72t-197 201t-71.5 289zM455 664h495q-9 88 -76.5 145t-171.5 57 q-98 0 -167 -59.5t-80 -142.5z" />
<glyph unicode="f" d="M160 834v247h342v70q0 177 113.5 281t299.5 104h304v-262h-265q-73 0 -109 -36.5t-36 -100.5v-56h422v-247h-418v-834h-317v834h-336z" />
<glyph unicode="g" d="M133 547q0 255 137.5 408t350.5 153q117 0 196 -48t113 -102h16v123h316v-1069q0 -108 -34.5 -199.5t-102 -161.5t-177.5 -109.5t-252 -39.5q-121 0 -219 33t-159.5 89.5t-95.5 127.5t-38 150h289q13 -65 69 -104.5t154 -39.5q250 0 250 254v125h-16q-16 -24 -39 -46.5 t-59.5 -47.5t-90 -40t-114.5 -15q-141 0 -252.5 66.5t-176.5 194.5t-65 298zM455 547q0 -125 68 -199t179 -74q113 0 180.5 76t67.5 197q0 127 -68.5 200.5t-179.5 73.5t-179 -75t-68 -199z" />
<glyph unicode="h" d="M195 0v1536h317v-573h16q34 61 108.5 103t176.5 42q177 0 281 -107.5t104 -279.5v-721h-317v623q0 84 -50 137t-129 53q-82 0 -136 -58.5t-54 -144.5v-610h-317z" />
<glyph unicode="i" d="M195 0v248h356v586h-318v247h635v-833h330v-248h-1003zM522 1374q0 78 52 125t135 47q84 0 135 -46.5t51 -125.5t-51 -125.5t-135 -46.5q-83 0 -135 47t-52 125z" />
<glyph unicode="j" d="M301 -190h293q70 0 109.5 39t39.5 108v877h-401v247h719v-1126q0 -197 -112 -311.5t-294 -114.5h-354v281zM717 1374q0 79 51.5 125.5t134.5 46.5q84 0 136.5 -46.5t52.5 -125.5t-52.5 -125.5t-136.5 -46.5q-83 0 -134.5 46.5t-51.5 125.5z" />
<glyph unicode="k" d="M168 0v1536h317v-823h13l309 368h389l-348 -389l375 -692h-355l-237 451l-146 -162v-289h-317z" />
<glyph unicode="l" d="M186 1288v248h664v-1159q0 -49 24 -73.5t68 -24.5h264v-279h-336q-160 0 -249 90.5t-89 249.5v948h-346z" />
<glyph unicode="m" d="M74 0v1081h274v-151h17q16 81 68 129.5t136 48.5q83 0 140.5 -48t72.5 -134h19q24 83 81.5 132.5t151.5 49.5q124 0 200.5 -89.5t76.5 -244.5v-774h-289v664q0 149 -109 149q-50 0 -78 -39t-28 -106v-668h-227v664q0 149 -111 149q-51 0 -77.5 -38.5t-26.5 -106.5v-668 h-291z" />
<glyph unicode="n" d="M199 0v1081h301v-118h16q36 61 112 103t179 42q176 0 281.5 -108t105.5 -279v-721h-317v623q0 84 -48 137t-127 53q-83 0 -134.5 -59.5t-51.5 -147.5v-606h-317z" />
<glyph unicode="o" d="M113 541q0 119 42.5 223t117.5 180t184.5 120t238.5 44q128 0 237.5 -44t184.5 -120t117.5 -180t42.5 -223t-42.5 -223.5t-118 -180.5t-185 -120t-236.5 -44q-170 0 -304 75.5t-206.5 204.5t-72.5 288zM434 541q0 -124 74 -202.5t188 -78.5q113 0 186.5 79t73.5 202 t-73.5 201.5t-186.5 78.5q-114 0 -188 -78.5t-74 -201.5z" />
<glyph unicode="p" d="M131 -471v1552h315v-120h17q14 22 36 44t57.5 47t89 40.5t116.5 15.5q224 0 362 -153.5t138 -407.5q0 -255 -137 -414.5t-355 -159.5q-116 0 -192.5 46t-112.5 104h-16v-594h-318zM442 541q0 -127 70 -204t180 -77t179 78t69 203q0 127 -68.5 203.5t-181.5 76.5 t-180.5 -78.5t-67.5 -201.5z" />
<glyph unicode="q" d="M131 547q0 254 138 407.5t360 153.5q63 0 117.5 -15.5t90 -40.5t57.5 -47t36 -44h16v120h314v-1552h-318v594h-16q-16 -24 -40 -47t-61 -48t-90 -40t-114 -15q-218 0 -354 159.5t-136 414.5zM453 541q0 -125 68.5 -203t178.5 -78t179 76.5t69 204.5q0 123 -67.5 201.5 t-180.5 78.5q-111 0 -179 -76.5t-68 -203.5z" />
<glyph unicode="r" d="M166 0v248h276v586h-247v247h546v-163h17q32 69 106 120.5t174 51.5h187v-299h-207q-119 0 -188.5 -80t-69.5 -219v-244h436v-248h-1030z" />
<glyph unicode="s" d="M227 332h289q6 -56 51.5 -85.5t124.5 -29.5t123.5 27t44.5 73q0 39 -34 61t-87.5 32t-119 18t-131 27t-119 51t-87.5 97.5t-34 160.5q0 145 118 244.5t326 99.5q193 0 314.5 -89.5t130.5 -254.5h-275q-8 51 -51 80.5t-119 29.5q-72 0 -114.5 -26.5t-42.5 -69.5 q0 -31 27 -50t71.5 -26t101 -15.5t115.5 -16.5t115.5 -31.5t101 -57.5t71.5 -97.5t27 -149.5q0 -161 -125 -261t-350 -100q-226 0 -342 95t-121 264z" />
<glyph unicode="t" d="M182 834v245h242q41 0 64.5 27t23.5 70v198h301v-293h397v-247h-397v-443q0 -61 34.5 -95t102.5 -34h244v-262h-322q-177 0 -276.5 98.5t-99.5 276.5v459h-314z" />
<glyph unicode="u" d="M199 360v721h317v-622q0 -85 47.5 -138t126.5 -53q83 0 135 59.5t52 147.5v606h317v-1081h-301v119h-16q-36 -61 -112 -103.5t-179 -42.5q-176 0 -281.5 108t-105.5 279z" />
<glyph unicode="v" d="M129 1081h330l227 -704h16l224 704h336l-383 -1081h-365z" />
<glyph unicode="w" d="M86 1081h281l98 -665h16l111 665h209l110 -665h17l98 665h281l-207 -1081h-264l-134 672h-12l-133 -672h-264z" />
<glyph unicode="x" d="M135 0l365 561l-336 520h344l182 -307h12l181 307h344l-334 -522l362 -559h-346l-207 330h-14l-207 -330h-346z" />
<glyph unicode="y" d="M123 1081h332l237 -686h17l225 686h336l-459 -1237q-58 -156 -159 -235.5t-265 -79.5h-143v281h125q117 0 161 118l21 52z" />
<glyph unicode="z" d="M248 0v281l467 522v16h-451v262h862v-262l-467 -532v-17h478v-270h-889z" />
<glyph unicode="{" d="M356 508v244h68q41 0 65.5 25t24.5 65v389q0 165 101.5 248.5t269.5 83.5h153v-254h-100q-64 0 -92.5 -29.5t-28.5 -93.5v-389q0 -140 -104 -160v-16q104 -20 104 -160v-387q0 -66 28.5 -95.5t92.5 -29.5h100v-254h-153q-168 0 -269.5 84t-101.5 250v389q0 40 -24.5 65 t-65.5 25h-68z" />
<glyph unicode="|" d="M545 -422v2026h303v-2026h-303z" />
<glyph unicode="}" d="M356 -51h101q63 0 92 29.5t29 95.5v387q0 139 102 160v16q-102 21 -102 160v389q0 63 -29 93t-92 30h-101v254h154q167 0 269 -83.5t102 -248.5v-389q0 -40 23.5 -65t64.5 -25h67v-244h-67q-41 0 -64.5 -25t-23.5 -65v-389q0 -166 -102 -250t-269 -84h-154v254z" />
<glyph unicode="~" d="M217 446q0 163 69.5 256t207.5 93q47 0 101.5 -16.5t95.5 -37t88 -37t81 -16.5q49 0 78 29.5t31 75.5h207q0 -165 -68.5 -258t-208.5 -93q-48 0 -101.5 18.5t-92.5 40t-86 40t-84 18.5q-51 0 -80 -33t-31 -80h-207z" />
<glyph unicode="&#xa0;" />
<glyph unicode="&#xa1;" d="M522 977q0 74 49.5 122t122.5 48q78 0 127 -47.5t49 -122.5q0 -73 -49.5 -121.5t-126.5 -48.5q-72 0 -122 49t-50 121zM535 223l69 469h187l69 -469v-536h-325v536z" />
<glyph unicode="&#xa2;" d="M135 713q0 213 123 366t330 189v172h246v-172q174 -34 286.5 -150t132.5 -284h-321q-23 72 -81 115.5t-142 43.5q-113 0 -181.5 -80t-68.5 -200q0 -122 69 -201.5t183 -79.5q78 0 137 41t80 105h325q-25 -165 -136.5 -277.5t-282.5 -144.5v-156h-246v156 q-207 38 -330 191t-123 366z" />
<glyph unicode="&#xa3;" d="M147 0v309h123v258h-104v262h104v166q0 107 40.5 196t108.5 147t156 90t185 32q217 0 349.5 -130t135.5 -331h-321q-1 70 -46 113t-116 43q-75 0 -122.5 -48t-47.5 -132v-146h344v-262h-344v-258h651v-309h-1096z" />
<glyph unicode="&#xa5;" d="M49 1434h354l283 -537h16l285 537h356l-378 -680h209v-215h-320l2 -113h318v-213h-316l4 -213h-317v213h-320v213h320v113h-320v215h207z" />
<glyph unicode="&#xa7;" d="M225 563q0 85 44.5 155.5t117.5 110.5v17q-125 119 -125 287q0 169 126.5 268.5t320.5 99.5q88 0 166 -23.5t140.5 -70t99 -124t36.5 -177.5h-297q-2 53 -36 91t-109 38q-61 0 -97.5 -32.5t-36.5 -82.5q0 -77 103 -137l272 -156q106 -61 161.5 -139t55.5 -188 q0 -86 -43.5 -157t-117.5 -112v-16q124 -118 124 -285q0 -170 -126.5 -269t-321.5 -99q-88 0 -165.5 23.5t-140.5 70t-99.5 124t-36.5 177.5h299q0 -53 35 -91t108 -38q61 0 98 32t37 81q0 77 -102 137l-291 170q-97 56 -148 130.5t-51 184.5zM518 578q0 -71 72 -111 l172 -94q46 0 79 31.5t33 76.5q0 76 -90 125l-153 82q-47 0 -80 -32t-33 -78z" />
<glyph unicode="&#xa8;" d="M344 1386q0 63 43.5 107.5t106.5 44.5q67 0 108 -43.5t41 -108.5q0 -67 -40.5 -109t-108.5 -42q-64 0 -107 43t-43 108zM750 1386q0 67 40.5 109.5t108.5 42.5q63 0 106.5 -44.5t43.5 -107.5q0 -65 -43 -108t-107 -43q-68 0 -108.5 42t-40.5 109z" />
<glyph unicode="&#xa9;" d="M109 592v250q0 116 42.5 218t117 175t181 115.5t230.5 42.5q164 0 295 -72t203.5 -198t72.5 -281v-250q0 -116 -42.5 -218t-117 -175t-181 -115.5t-230.5 -42.5t-230.5 42.5t-181 115.5t-117 175t-42.5 218zM268 596q0 -186 110 -294.5t302 -108.5t302 108.5t110 294.5 v242q0 185 -111 294t-301 109t-301 -109t-111 -294v-242zM393 598v229q0 123 79.5 202t211.5 79t210.5 -77t80.5 -204h-184q-2 45 -30 74t-77 29q-50 0 -78 -32t-28 -79v-211q0 -49 27.5 -80.5t78.5 -31.5q50 0 78.5 27.5t30.5 72.5h184q-2 -126 -81.5 -202.5t-211.5 -76.5 t-211.5 80t-79.5 201z" />
<glyph unicode="&#xaa;" d="M270 1030q0 192 102.5 311t266.5 119q84 0 141 -35t84 -77h15v92h239v-811h-239v92h-15q-24 -42 -77.5 -76.5t-143.5 -34.5q-165 0 -269 115.5t-104 304.5zM514 1034q0 -90 52 -146.5t132 -56.5q83 0 134 57.5t51 145.5q0 92 -52 147.5t-133 55.5q-82 0 -133 -56 t-51 -147z" />
<glyph unicode="&#xab;" d="M256 528v140l434 350v-275l-176 -139v-12l176 -139v-275zM717 528v140l434 350v-275l-176 -139v-12l176 -139v-275z" />
<glyph unicode="&#xad;" d="M403 492v268h584v-268h-584z" />
<glyph unicode="&#xae;" d="M227 1087q0 197 128.5 330t334.5 133q214 0 343.5 -131t129.5 -329q0 -196 -129 -329.5t-340 -133.5q-209 0 -338 131t-129 329zM367 1087q0 -143 88.5 -236t238.5 -93q152 0 240 92t88 240q0 147 -89 237t-243 90q-148 0 -235.5 -92.5t-87.5 -237.5zM524 858v459h211 q73 0 117.5 -47t44.5 -109q0 -49 -21.5 -86.5t-52.5 -50.5l84 -166h-139l-59 143h-58v-143h-127zM651 1110h62q23 0 35 14t12 35q0 20 -12.5 34.5t-34.5 14.5h-62v-98z" />
<glyph unicode="&#xaf;" d="M408 1270v223h575v-223h-575z" />
<glyph unicode="&#xb0;" d="M391 1157q0 128 85 215.5t220 87.5q136 0 222 -87t86 -214q0 -129 -85.5 -216t-222.5 -87q-136 0 -220.5 86.5t-84.5 214.5zM582 1157q0 -51 31 -84t83 -33t83.5 33.5t31.5 85.5q0 50 -31.5 83.5t-83.5 33.5t-83 -33.5t-31 -85.5z" />
<glyph unicode="&#xb2;" d="M408 1178q0 112 75 192t205 80q134 0 213.5 -76.5t79.5 -185.5q0 -83 -38.5 -139.5t-115.5 -98.5l-170 -92q-47 -27 -47 -70v-10h371v-176h-571v170q0 84 35 137.5t122 100.5l150 84q33 21 48 42.5t15 51.5q0 33 -25.5 55.5t-70.5 22.5q-43 0 -67.5 -26.5t-24.5 -61.5 h-184z" />
<glyph unicode="&#xb3;" d="M406 858h184q3 -39 28 -63.5t68 -24.5q45 0 72.5 26.5t27.5 65.5q0 36 -27 62t-75 26h-121v154l162 143v8h-299v179h543v-170l-172 -152v-10q82 -15 136 -83t54 -157q0 -117 -82 -196.5t-217 -79.5q-132 0 -207 79.5t-75 192.5z" />
<glyph unicode="&#xb4;" d="M494 1235l100 311h303l-188 -311h-215z" />
<glyph unicode="&#xb6;" d="M193 961q0 95 36.5 182t98.5 151t150 102t186 38h536v-1526h-213v1298h-104v-1298h-211v577q-135 1 -245.5 67t-172 174.5t-61.5 234.5z" />
<glyph unicode="&#xb7;" d="M522 645q0 72 51 121t123 49q77 0 126.5 -48.5t49.5 -121.5q0 -75 -49 -123.5t-127 -48.5q-73 0 -123.5 49t-50.5 123z" />
<glyph unicode="&#xb8;" d="M494 -260h149q3 -16 17.5 -27.5t33.5 -11.5q25 0 39.5 15t14.5 40q0 24 -15 39t-39 15q-30 0 -45 -27l-145 2l45 256h143l-37 -137h13q22 18 65 18q71 0 119.5 -46t48.5 -122q0 -77 -57.5 -125.5t-149.5 -48.5q-86 0 -142.5 44.5t-57.5 115.5z" />
<glyph unicode="&#xb9;" d="M498 1157v146q125 0 170 30.5t45 100.5h182v-832h-199v555h-198z" />
<glyph unicode="&#xba;" d="M260 1034q0 183 122 304.5t316 121.5q193 0 315 -122t122 -304t-123 -303t-316 -121q-192 0 -314 121t-122 303zM504 1034q0 -88 54.5 -145.5t137.5 -57.5q85 0 140 57.5t55 145.5t-55 145.5t-140 57.5q-83 0 -137.5 -57.5t-54.5 -145.5z" />
<glyph unicode="&#xbb;" d="M248 178v275l178 139v12l-178 139v275l434 -350v-140zM709 178v275l176 139v12l-176 139v275l434 -350v-140z" />
<glyph unicode="&#xbc;" d="M129 1223v112q94 0 127 23t33 76h143v-621h-156v410h-147zM215 0l764 1434h188l-764 -1434h-188zM766 100v131l154 390h155l-143 -377v-4h115v127h153v-127h62v-140h-62v-100h-153v100h-281z" />
<glyph unicode="&#xbd;" d="M119 1223v112q94 0 128 23.5t34 75.5h143v-621h-156v410h-149zM201 0l762 1434h188l-762 -1434h-188zM819 424q0 85 58 147t159 62q104 0 165 -59t61 -142q0 -118 -115 -176l-129 -63q-37 -18 -37 -48v-8h283v-139h-443v133q0 62 29 104t94 76l113 56q49 24 49 67 q0 24 -19.5 41t-52.5 17t-52 -20.5t-19 -47.5h-144z" />
<glyph unicode="&#xbe;" d="M104 1018h140q2 -28 21.5 -46t49.5 -18q33 0 53.5 18.5t20.5 45.5q0 25 -19.5 44t-54.5 19h-90v115l111 96v6h-219v136h409v-123l-120 -107v-8q61 -13 98 -62.5t37 -115.5q0 -88 -62 -146.5t-162 -58.5t-156.5 59.5t-56.5 145.5zM213 0l762 1434h188l-762 -1434h-188z M784 100v131l152 390h158l-144 -377v-4h113v127h156v-127h61v-140h-61v-100h-156v100h-279z" />
<glyph unicode="&#xbf;" d="M231 84q0 210 224 358l102 72q68 48 68 125v53h284v-86q0 -99 -39 -166.5t-120 -124.5l-113 -79q-46 -35 -69 -70t-23 -82q0 -63 42.5 -103t119.5 -40q79 0 120 44t43 113h291q0 -122 -51 -220t-156 -158t-249 -60q-221 0 -347.5 118t-126.5 306zM594 977 q0 75 48.5 122.5t125.5 47.5q73 0 123.5 -48t50.5 -122q0 -72 -51 -121t-123 -49q-76 0 -125 48.5t-49 121.5z" />
<glyph unicode="&#xc0;" d="M41 0l444 1434h416l451 -1434h-346l-72 254h-490l-71 -254h-332zM430 1909h303l101 -312h-216zM526 543h326l-154 538h-18z" />
<glyph unicode="&#xc1;" d="M41 0l444 1434h416l451 -1434h-346l-72 254h-490l-71 -254h-332zM526 543h326l-154 538h-18zM578 1597l100 312h303l-188 -312h-215z" />
<glyph unicode="&#xc2;" d="M41 0l444 1434h416l451 -1434h-346l-72 254h-490l-71 -254h-332zM354 1597l215 310h267l215 -310h-211l-129 107h-17l-129 -107h-211zM526 543h326l-154 538h-18z" />
<glyph unicode="&#xc3;" d="M41 0l444 1434h416l451 -1434h-346l-72 254h-490l-71 -254h-332zM324 1589q0 150 64.5 224.5t168.5 74.5q52 0 98 -21.5t81.5 -43t62.5 -21.5q65 0 71 86h193q0 -146 -65 -223.5t-169 -77.5q-39 0 -75.5 13.5t-59.5 29.5t-52.5 29.5t-55.5 13.5q-66 0 -72 -84h-190z M526 543h326l-154 538h-18z" />
<glyph unicode="&#xc4;" d="M41 0l444 1434h416l451 -1434h-346l-72 254h-490l-71 -254h-332zM346 1749q0 63 43.5 107.5t106.5 44.5q67 0 108 -43.5t41 -108.5q0 -67 -40.5 -109.5t-108.5 -42.5q-64 0 -107 43.5t-43 108.5zM526 543h326l-154 538h-18zM752 1749q0 67 40.5 109.5t108.5 42.5 q63 0 106.5 -44.5t43.5 -107.5q0 -65 -43.5 -108.5t-106.5 -43.5q-68 0 -108.5 42.5t-40.5 109.5z" />
<glyph unicode="&#xc5;" d="M41 0l444 1434h416l451 -1434h-346l-72 254h-490l-71 -254h-332zM487 1733q0 89 60.5 146.5t152.5 57.5q96 0 157 -57t61 -145q0 -89 -61 -148t-155 -59q-93 0 -154 58.5t-61 146.5zM526 543h326l-154 538h-18zM631 1733q0 -33 19 -52.5t52 -19.5q34 0 53 20t19 54 q0 31 -20 51t-54 20q-32 0 -50.5 -20t-18.5 -53z" />
<glyph unicode="&#xc6;" d="M25 0l464 1434h859v-277h-330v-297h237v-276h-237v-305h350v-279h-659v254h-293l-76 -254h-315zM504 543h205v618h-19z" />
<glyph unicode="&#xc7;" d="M147 489v455q0 224 152 370t397 146q244 0 395 -143t154 -379h-323q-5 89 -65.5 150t-160.5 61q-104 0 -164.5 -65t-60.5 -156v-422q0 -92 60.5 -156.5t164.5 -64.5q100 0 160 59t66 148h323q-3 -226 -146 -367t-372 -152l-18 -69h12q22 18 63 18q71 0 120.5 -46 t49.5 -122q0 -77 -57 -125.5t-149 -48.5q-86 0 -143 44.5t-58 115.5h149q2 -15 16.5 -27t32.5 -12q26 0 41 15t15 40q0 23 -15 38.5t-38 15.5q-31 0 -46 -27l-145 2l35 197q-202 31 -323.5 170.5t-121.5 336.5z" />
<glyph unicode="&#xc8;" d="M229 0v1434h914v-277h-590v-297h502v-276h-502v-305h610v-279h-934zM438 1909h303l101 -312h-215z" />
<glyph unicode="&#xc9;" d="M229 0v1434h914v-277h-590v-297h502v-276h-502v-305h610v-279h-934zM586 1597l100 312h303l-188 -312h-215z" />
<glyph unicode="&#xca;" d="M229 0v1434h914v-277h-590v-297h502v-276h-502v-305h610v-279h-934zM360 1597l215 310h267l215 -310h-211l-129 107h-17l-129 -107h-211z" />
<glyph unicode="&#xcb;" d="M229 0v1434h914v-277h-590v-297h502v-276h-502v-305h610v-279h-934zM352 1749q0 63 43.5 107.5t106.5 44.5q67 0 108 -43.5t41 -108.5q0 -67 -40.5 -109.5t-108.5 -42.5q-64 0 -107 43.5t-43 108.5zM758 1749q0 67 40.5 109.5t108.5 42.5q63 0 106.5 -44.5t43.5 -107.5 q0 -65 -43.5 -108.5t-106.5 -43.5q-68 0 -108.5 42.5t-40.5 109.5z" />
<glyph unicode="&#xcc;" d="M166 0v276h364v881h-364v277h1061v-277h-373v-881h373v-276h-1061zM432 1909h303l101 -312h-215z" />
<glyph unicode="&#xcd;" d="M166 0v276h364v881h-364v277h1061v-277h-373v-881h373v-276h-1061zM580 1597l100 312h303l-188 -312h-215z" />
<glyph unicode="&#xce;" d="M166 0v276h364v881h-364v277h1061v-277h-373v-881h373v-276h-1061zM356 1597l215 310h267l215 -310h-211l-129 107h-17l-129 -107h-211z" />
<glyph unicode="&#xcf;" d="M166 0v276h364v881h-364v277h1061v-277h-373v-881h373v-276h-1061zM348 1749q0 63 43.5 107.5t106.5 44.5q67 0 108 -43.5t41 -108.5q0 -67 -40.5 -109.5t-108.5 -42.5q-64 0 -107 43.5t-43 108.5zM754 1749q0 67 40.5 109.5t108.5 42.5q63 0 106.5 -44.5t43.5 -107.5 q0 -65 -43.5 -108.5t-106.5 -43.5q-68 0 -108.5 42.5t-40.5 109.5z" />
<glyph unicode="&#xd0;" d="M100 600v229h129v605h510q245 0 397 -145t152 -369v-412q0 -223 -151.5 -365.5t-397.5 -142.5h-510v600h-129zM539 281h200q106 0 166 62t60 155v432q0 93 -61 158t-165 65h-200v-324h223v-229h-223v-319z" />
<glyph unicode="&#xd1;" d="M121 0v1434h356l469 -856h12v856h314v-1434h-361l-465 856h-12v-856h-313zM360 1589q0 150 64.5 224.5t169.5 74.5q52 0 98 -21.5t81.5 -43t62.5 -21.5q65 0 71 86h193q0 -146 -65 -223.5t-169 -77.5q-39 0 -75.5 13.5t-59.5 29.5t-52.5 29.5t-55.5 13.5q-66 0 -72 -84 h-191z" />
<glyph unicode="&#xd2;" d="M147 489v455q0 224 152 370t397 146t397 -146t152 -370v-455q0 -224 -152 -370t-397 -146t-397 146t-152 370zM424 1909h303l100 -312h-215zM471 506q0 -92 60.5 -156.5t164.5 -64.5t165 64.5t61 156.5v422q0 91 -61 156t-165 65t-164.5 -65t-60.5 -156v-422z" />
<glyph unicode="&#xd3;" d="M147 489v455q0 224 152 370t397 146t397 -146t152 -370v-455q0 -224 -152 -370t-397 -146t-397 146t-152 370zM471 506q0 -92 60.5 -156.5t164.5 -64.5t165 64.5t61 156.5v422q0 91 -61 156t-165 65t-164.5 -65t-60.5 -156v-422zM573 1597l101 312h303l-189 -312h-215z " />
<glyph unicode="&#xd4;" d="M147 489v455q0 224 152 370t397 146t397 -146t152 -370v-455q0 -224 -152 -370t-397 -146t-397 146t-152 370zM348 1597l215 310h266l215 -310h-210l-129 107h-17l-129 -107h-211zM471 506q0 -92 60.5 -156.5t164.5 -64.5t165 64.5t61 156.5v422q0 91 -61 156t-165 65 t-164.5 -65t-60.5 -156v-422z" />
<glyph unicode="&#xd5;" d="M147 489v455q0 224 152 370t397 146t397 -146t152 -370v-455q0 -224 -152 -370t-397 -146t-397 146t-152 370zM317 1589q0 150 64.5 224.5t169.5 74.5q52 0 98 -21.5t81.5 -43t62.5 -21.5q65 0 71 86h193q0 -146 -65 -223.5t-169 -77.5q-39 0 -75.5 13.5t-59.5 29.5 t-52.5 29.5t-55.5 13.5q-66 0 -72 -84h-191zM471 506q0 -92 60.5 -156.5t164.5 -64.5t165 64.5t61 156.5v422q0 91 -61 156t-165 65t-164.5 -65t-60.5 -156v-422z" />
<glyph unicode="&#xd6;" d="M147 489v455q0 224 152 370t397 146t397 -146t152 -370v-455q0 -224 -152 -370t-397 -146t-397 146t-152 370zM340 1749q0 63 43 107.5t106 44.5q67 0 108.5 -43.5t41.5 -108.5q0 -67 -41 -109.5t-109 -42.5q-63 0 -106 43t-43 109zM471 506q0 -92 60.5 -156.5 t164.5 -64.5t165 64.5t61 156.5v422q0 91 -61 156t-165 65t-164.5 -65t-60.5 -156v-422zM745 1749q0 67 41 109.5t109 42.5q63 0 106 -44.5t43 -107.5q0 -66 -43 -109t-106 -43q-68 0 -109 42.5t-41 109.5z" />
<glyph unicode="&#xd7;" d="M205 297l315 336l-315 336l182 180l309 -330l310 330l180 -180l-316 -336l316 -336l-180 -178l-310 330l-309 -330z" />
<glyph unicode="&#xd8;" d="M147 489v455q0 224 152 370t397 146q127 0 230 -41l47 94h233l-102 -208q141 -144 141 -361v-455q0 -224 -152 -370t-397 -146q-119 0 -225 39l-55 -114h-234l111 227q-146 146 -146 364zM471 489l315 644q-43 16 -90 16q-104 0 -164.5 -65t-60.5 -156v-422v-17zM612 299 q35 -14 84 -14q104 0 165 64.5t61 156.5v422v4z" />
<glyph unicode="&#xd9;" d="M113 545v889h325v-887q0 -126 66 -197t192 -71t193 71t67 199v885h324v-887q0 -257 -160.5 -415.5t-423.5 -158.5t-423 158t-160 414zM424 1909h303l100 -312h-215z" />
<glyph unicode="&#xda;" d="M113 545v889h325v-887q0 -126 66 -197t192 -71t193 71t67 199v885h324v-887q0 -257 -160.5 -415.5t-423.5 -158.5t-423 158t-160 414zM573 1597l101 312h303l-189 -312h-215z" />
<glyph unicode="&#xdb;" d="M113 545v889h325v-887q0 -126 66 -197t192 -71t193 71t67 199v885h324v-887q0 -257 -160.5 -415.5t-423.5 -158.5t-423 158t-160 414zM348 1597l215 310h266l215 -310h-210l-129 107h-17l-129 -107h-211z" />
<glyph unicode="&#xdc;" d="M113 545v889h325v-887q0 -126 66 -197t192 -71t193 71t67 199v885h324v-887q0 -257 -160.5 -415.5t-423.5 -158.5t-423 158t-160 414zM340 1749q0 63 43 107.5t106 44.5q67 0 108.5 -43.5t41.5 -108.5q0 -67 -41 -109.5t-109 -42.5q-63 0 -106 43t-43 109zM745 1749 q0 67 41 109.5t109 42.5q63 0 106 -44.5t43 -107.5q0 -66 -43 -109t-106 -43q-68 0 -109 42.5t-41 109.5z" />
<glyph unicode="&#xdd;" d="M55 1434h355l276 -537h16l279 537h356l-483 -877l4 -272h293v-285h-909v285h303v270zM580 1597l100 312h303l-188 -312h-215z" />
<glyph unicode="&#xde;" d="M174 0v1434h324v-211h219q216 0 358 -134t142 -346q0 -138 -67.5 -249t-181.5 -172.5t-251 -61.5h-219v-260h-324zM498 537h186q90 0 146.5 56.5t56.5 149.5t-56.5 148t-146.5 55h-186v-409z" />
<glyph unicode="&#xdf;" d="M150 0v1053q0 225 136.5 354t358.5 129q148 0 264.5 -55.5t178.5 -148t61 -202.5q0 -200 -168 -286v-13q121 -43 191.5 -143t70.5 -233q0 -225 -129 -353.5t-379 -128.5q-74 0 -172 27v291q67 -23 133 -23q95 0 153 50.5t58 140.5q0 86 -63.5 133t-163.5 47h-78v289h14 q85 0 134 46t49 120q0 68 -43.5 111.5t-120.5 43.5q-79 0 -123.5 -50.5t-44.5 -139.5v-1059h-317z" />
<glyph unicode="&#xe0;" d="M131 535q0 255 137 414t355 159q113 0 190.5 -46.5t114.5 -103.5h16v123h318v-1081h-314v123h-16q-16 -23 -37.5 -45t-57.5 -47.5t-89.5 -41.5t-116.5 -16q-224 0 -362 154t-138 408zM453 541q0 -126 68.5 -203.5t180.5 -77.5t180 79.5t68 201.5q0 127 -70 203.5 t-180 76.5t-178.5 -77.5t-68.5 -202.5zM461 1546h303l100 -311h-215z" />
<glyph unicode="&#xe1;" d="M131 535q0 255 137 414t355 159q113 0 190.5 -46.5t114.5 -103.5h16v123h318v-1081h-314v123h-16q-16 -23 -37.5 -45t-57.5 -47.5t-89.5 -41.5t-116.5 -16q-224 0 -362 154t-138 408zM453 541q0 -126 68.5 -203.5t180.5 -77.5t180 79.5t68 201.5q0 127 -70 203.5 t-180 76.5t-178.5 -77.5t-68.5 -202.5zM608 1235l101 311h303l-189 -311h-215z" />
<glyph unicode="&#xe2;" d="M131 535q0 255 137 414t355 159q113 0 190.5 -46.5t114.5 -103.5h16v123h318v-1081h-314v123h-16q-16 -23 -37.5 -45t-57.5 -47.5t-89.5 -41.5t-116.5 -16q-224 0 -362 154t-138 408zM383 1235l215 309h266l215 -309h-211l-129 106h-16l-129 -106h-211zM453 541 q0 -126 68.5 -203.5t180.5 -77.5t180 79.5t68 201.5q0 127 -70 203.5t-180 76.5t-178.5 -77.5t-68.5 -202.5z" />
<glyph unicode="&#xe3;" d="M131 535q0 255 137 414t355 159q113 0 190.5 -46.5t114.5 -103.5h16v123h318v-1081h-314v123h-16q-16 -23 -37.5 -45t-57.5 -47.5t-89.5 -41.5t-116.5 -16q-224 0 -362 154t-138 408zM352 1227q0 150 64.5 224.5t169.5 74.5q52 0 97.5 -21.5t81 -43t62.5 -21.5 q66 0 72 86h193q0 -146 -65 -223.5t-169 -77.5q-49 0 -93 21.5t-81.5 43t-69.5 21.5q-65 0 -71 -84h-191zM453 541q0 -126 68.5 -203.5t180.5 -77.5t180 79.5t68 201.5q0 127 -70 203.5t-180 76.5t-178.5 -77.5t-68.5 -202.5z" />
<glyph unicode="&#xe4;" d="M131 535q0 255 137 414t355 159q113 0 190.5 -46.5t114.5 -103.5h16v123h318v-1081h-314v123h-16q-16 -23 -37.5 -45t-57.5 -47.5t-89.5 -41.5t-116.5 -16q-224 0 -362 154t-138 408zM375 1386q0 63 43 107.5t106 44.5q67 0 108.5 -43.5t41.5 -108.5q0 -67 -41 -109 t-109 -42q-64 0 -106.5 42.5t-42.5 108.5zM453 541q0 -126 68.5 -203.5t180.5 -77.5t180 79.5t68 201.5q0 127 -70 203.5t-180 76.5t-178.5 -77.5t-68.5 -202.5zM780 1386q0 67 41 109.5t109 42.5q63 0 106 -44.5t43 -107.5q0 -66 -42.5 -108.5t-106.5 -42.5q-68 0 -109 42 t-41 109z" />
<glyph unicode="&#xe5;" d="M131 535q0 255 137 414t355 159q113 0 190.5 -46.5t114.5 -103.5h16v123h318v-1081h-314v123h-16q-16 -23 -37.5 -45t-57.5 -47.5t-89.5 -41.5t-116.5 -16q-224 0 -362 154t-138 408zM453 541q0 -126 68.5 -203.5t180.5 -77.5t180 79.5t68 201.5q0 127 -70 203.5 t-180 76.5t-178.5 -77.5t-68.5 -202.5zM516 1370q0 89 60.5 147t152.5 58q96 0 156.5 -57.5t60.5 -145.5q0 -89 -60.5 -148t-154.5 -59q-93 0 -154 58.5t-61 146.5zM659 1370q0 -33 19.5 -52.5t52.5 -19.5q34 0 53 20t19 54q0 32 -20 52t-54 20q-32 0 -51 -20.5t-19 -53.5z " />
<glyph unicode="&#xe6;" d="M57 309q0 141 98 232.5t259 91.5h155v104q0 67 -32 105.5t-99 38.5q-65 0 -96 -41t-31 -107h-225q0 170 95.5 264.5t256.5 94.5q84 0 155.5 -32t102.5 -89h11q36 57 108 89t156 32q97 0 175.5 -35.5t129.5 -114t51 -190.5v-318h-508v-102q0 -69 36.5 -108.5t102.5 -39.5 t98 38t34 97h237q-1 -156 -100 -251t-254 -95q-94 0 -166 34t-111 93h-10q-36 -59 -106 -93t-166 -34q-159 0 -258 93t-99 243zM297 309q0 -56 36.5 -90.5t94.5 -34.5q65 0 103 39.5t38 108.5v102h-131q-64 0 -102.5 -31.5t-38.5 -93.5zM819 633h271v104q0 65 -34.5 104.5 t-103.5 39.5q-62 0 -97.5 -39.5t-35.5 -104.5v-104z" />
<glyph unicode="&#xe7;" d="M137 541q0 159 69.5 287.5t201.5 204t303 75.5q224 0 372.5 -123t171.5 -323h-321q-23 72 -81 115.5t-142 43.5q-113 0 -181.5 -80t-68.5 -200q0 -121 69.5 -201t182.5 -80q78 0 137 41t80 107h323q-27 -194 -174.5 -314.5t-367.5 -120.5h-17l-18 -69h12q22 18 64 18 q73 0 121.5 -46t48.5 -122q0 -77 -57.5 -125.5t-149.5 -48.5q-86 0 -143 44.5t-58 115.5h150q2 -15 16.5 -27t32.5 -12q26 0 40.5 15t14.5 40q0 23 -15 38.5t-38 15.5q-30 0 -45 -27l-146 2l37 205q-195 45 -309.5 196.5t-114.5 354.5z" />
<glyph unicode="&#xe8;" d="M147 535q0 254 154 413.5t401 159.5q130 0 234.5 -45.5t171 -123.5t102 -179t35.5 -215v-92h-796q8 -104 78.5 -170t179.5 -66q90 0 152 37t87 92h287q-37 -172 -179 -272.5t-358 -100.5q-155 0 -280.5 72t-197 201t-71.5 289zM434 1546h303l101 -311h-215zM455 664h495 q-9 88 -76.5 145t-171.5 57q-98 0 -167 -59.5t-80 -142.5z" />
<glyph unicode="&#xe9;" d="M147 535q0 254 154 413.5t401 159.5q130 0 234.5 -45.5t171 -123.5t102 -179t35.5 -215v-92h-796q8 -104 78.5 -170t179.5 -66q90 0 152 37t87 92h287q-37 -172 -179 -272.5t-358 -100.5q-155 0 -280.5 72t-197 201t-71.5 289zM455 664h495q-9 88 -76.5 145t-171.5 57 q-98 0 -167 -59.5t-80 -142.5zM582 1235l100 311h303l-188 -311h-215z" />
<glyph unicode="&#xea;" d="M147 535q0 254 154 413.5t401 159.5q130 0 234.5 -45.5t171 -123.5t102 -179t35.5 -215v-92h-796q8 -104 78.5 -170t179.5 -66q90 0 152 37t87 92h287q-37 -172 -179 -272.5t-358 -100.5q-155 0 -280.5 72t-197 201t-71.5 289zM358 1235l215 309h267l215 -309h-211 l-129 106h-17l-129 -106h-211zM455 664h495q-9 88 -76.5 145t-171.5 57q-98 0 -167 -59.5t-80 -142.5z" />
<glyph unicode="&#xeb;" d="M147 535q0 254 154 413.5t401 159.5q130 0 234.5 -45.5t171 -123.5t102 -179t35.5 -215v-92h-796q8 -104 78.5 -170t179.5 -66q90 0 152 37t87 92h287q-37 -172 -179 -272.5t-358 -100.5q-155 0 -280.5 72t-197 201t-71.5 289zM350 1386q0 63 43.5 107.5t106.5 44.5 q67 0 108 -43.5t41 -108.5q0 -67 -40.5 -109t-108.5 -42q-64 0 -107 43t-43 108zM455 664h495q-9 88 -76.5 145t-171.5 57q-98 0 -167 -59.5t-80 -142.5zM756 1386q0 67 40.5 109.5t108.5 42.5q63 0 106.5 -44.5t43.5 -107.5q0 -65 -43 -108t-107 -43q-68 0 -108.5 42 t-40.5 109z" />
<glyph unicode="&#xec;" d="M190 0v248h355v586h-316v247h633v-833h330v-248h-1002zM428 1546h303l100 -311h-215z" />
<glyph unicode="&#xed;" d="M190 0v248h355v586h-316v247h633v-833h330v-248h-1002zM575 1235l101 311h303l-188 -311h-216z" />
<glyph unicode="&#xee;" d="M190 0v248h355v586h-316v247h633v-833h330v-248h-1002zM352 1235l215 309h267l215 -309h-211l-129 106h-17l-129 -106h-211z" />
<glyph unicode="&#xef;" d="M190 0v248h355v586h-316v247h633v-833h330v-248h-1002zM344 1386q0 63 43.5 107.5t106.5 44.5q67 0 108 -43.5t41 -108.5q0 -67 -40.5 -109t-108.5 -42q-64 0 -107 43t-43 108zM750 1386q0 67 40.5 109.5t108.5 42.5q63 0 106.5 -44.5t43.5 -107.5q0 -65 -43 -108 t-107 -43q-68 0 -108.5 42t-40.5 109z" />
<glyph unicode="&#xf0;" d="M137 510q0 153 68 271t180 179.5t248 61.5q68 0 124 -18.5t87 -42.5h12q-31 56 -83.5 117t-110.5 110l-330 -123v168l188 72q-121 81 -211 125l178 100q141 -52 273 -139l303 114v-170l-156 -59q167 -149 257.5 -337t90.5 -402q0 -252 -152.5 -408.5t-408.5 -155.5 q-124 1 -228.5 41.5t-176.5 111t-112 169.5t-40 215zM459 510q0 -108 66.5 -175t168.5 -67q106 0 173 69t67 181q0 104 -68 169t-168 65q-105 0 -172 -66.5t-67 -175.5z" />
<glyph unicode="&#xf1;" d="M199 0v1081h301v-118h16q36 61 112 103t179 42q176 0 281.5 -108t105.5 -279v-721h-317v623q0 84 -48 137t-127 53q-83 0 -134.5 -59.5t-51.5 -147.5v-606h-317zM340 1227q0 150 64.5 224.5t168.5 74.5q52 0 98 -21.5t81.5 -43t62.5 -21.5q66 0 72 86h192 q0 -146 -64.5 -223.5t-168.5 -77.5q-49 0 -93 21.5t-81.5 43t-69.5 21.5q-66 0 -72 -84h-190z" />
<glyph unicode="&#xf2;" d="M113 541q0 119 42.5 223t117.5 180t184.5 120t238.5 44q128 0 237.5 -44t184.5 -120t117.5 -180t42.5 -223t-42.5 -223.5t-118 -180.5t-185 -120t-236.5 -44q-170 0 -304 75.5t-206.5 204.5t-72.5 288zM426 1546h303l100 -311h-215zM434 541q0 -124 74 -202.5t188 -78.5 q113 0 186.5 79t73.5 202t-73.5 201.5t-186.5 78.5q-114 0 -188 -78.5t-74 -201.5z" />
<glyph unicode="&#xf3;" d="M113 541q0 119 42.5 223t117.5 180t184.5 120t238.5 44q128 0 237.5 -44t184.5 -120t117.5 -180t42.5 -223t-42.5 -223.5t-118 -180.5t-185 -120t-236.5 -44q-170 0 -304 75.5t-206.5 204.5t-72.5 288zM434 541q0 -124 74 -202.5t188 -78.5q113 0 186.5 79t73.5 202 t-73.5 201.5t-186.5 78.5q-114 0 -188 -78.5t-74 -201.5zM573 1235l101 311h303l-189 -311h-215z" />
<glyph unicode="&#xf4;" d="M113 541q0 119 42.5 223t117.5 180t184.5 120t238.5 44q128 0 237.5 -44t184.5 -120t117.5 -180t42.5 -223t-42.5 -223.5t-118 -180.5t-185 -120t-236.5 -44q-170 0 -304 75.5t-206.5 204.5t-72.5 288zM350 1235l215 309h266l216 -309h-211l-129 106h-17l-129 -106h-211z M434 541q0 -124 74 -202.5t188 -78.5q113 0 186.5 79t73.5 202t-73.5 201.5t-186.5 78.5q-114 0 -188 -78.5t-74 -201.5z" />
<glyph unicode="&#xf5;" d="M113 541q0 119 42.5 223t117.5 180t184.5 120t238.5 44q128 0 237.5 -44t184.5 -120t117.5 -180t42.5 -223t-42.5 -223.5t-118 -180.5t-185 -120t-236.5 -44q-170 0 -304 75.5t-206.5 204.5t-72.5 288zM319 1227q0 150 64.5 224.5t169.5 74.5q52 0 98 -21.5t81.5 -43 t62.5 -21.5q65 0 71 86h193q0 -146 -65 -223.5t-169 -77.5q-39 0 -75.5 13.5t-59.5 29.5t-52.5 29.5t-55.5 13.5q-66 0 -72 -84h-191zM434 541q0 -124 74 -202.5t188 -78.5q113 0 186.5 79t73.5 202t-73.5 201.5t-186.5 78.5q-114 0 -188 -78.5t-74 -201.5z" />
<glyph unicode="&#xf6;" d="M113 541q0 119 42.5 223t117.5 180t184.5 120t238.5 44q128 0 237.5 -44t184.5 -120t117.5 -180t42.5 -223t-42.5 -223.5t-118 -180.5t-185 -120t-236.5 -44q-170 0 -304 75.5t-206.5 204.5t-72.5 288zM342 1386q0 63 43.5 107.5t106.5 44.5q67 0 108 -43.5t41 -108.5 q0 -67 -40.5 -109t-108.5 -42q-64 0 -107 43t-43 108zM434 541q0 -124 74 -202.5t188 -78.5q113 0 186.5 79t73.5 202t-73.5 201.5t-186.5 78.5q-114 0 -188 -78.5t-74 -201.5zM748 1386q0 67 40.5 109.5t108.5 42.5q63 0 106.5 -44.5t43.5 -107.5q0 -65 -43 -108t-107 -43 q-68 0 -108.5 42t-40.5 109z" />
<glyph unicode="&#xf7;" d="M195 514v246h1003v-246h-1003zM557 274q0 57 40.5 98.5t98.5 41.5t98 -41t40 -99q0 -59 -40 -99t-98 -40t-98.5 40.5t-40.5 98.5zM557 1012q0 58 40.5 98.5t98.5 40.5t98 -40t40 -99q0 -58 -40 -98t-98 -40q-59 0 -99 40t-40 98z" />
<glyph unicode="&#xf8;" d="M113 541q0 119 42.5 223t117.5 180t184.5 120t238.5 44q106 0 207 -33l55 92h218l-107 -180q99 -77 154 -193t55 -253q0 -119 -42.5 -223.5t-118 -180.5t-185 -120t-236.5 -44q-105 0 -209 33l-69 -117h-215l121 205q-100 77 -155.5 193.5t-55.5 253.5zM434 541 q0 -101 51 -174l267 448q-27 6 -56 6q-114 0 -188 -78.5t-74 -201.5zM641 266q27 -6 55 -6q113 0 186.5 79t73.5 202q0 99 -51 172z" />
<glyph unicode="&#xf9;" d="M199 360v721h317v-622q0 -85 47.5 -138t126.5 -53q83 0 135 59.5t52 147.5v606h317v-1081h-301v119h-16q-36 -61 -112 -103.5t-179 -42.5q-176 0 -281.5 108t-105.5 279zM428 1546h303l100 -311h-215z" />
<glyph unicode="&#xfa;" d="M199 360v721h317v-622q0 -85 47.5 -138t126.5 -53q83 0 135 59.5t52 147.5v606h317v-1081h-301v119h-16q-36 -61 -112 -103.5t-179 -42.5q-176 0 -281.5 108t-105.5 279zM575 1235l101 311h303l-188 -311h-216z" />
<glyph unicode="&#xfb;" d="M199 360v721h317v-622q0 -85 47.5 -138t126.5 -53q83 0 135 59.5t52 147.5v606h317v-1081h-301v119h-16q-36 -61 -112 -103.5t-179 -42.5q-176 0 -281.5 108t-105.5 279zM350 1235l215 309h266l216 -309h-211l-129 106h-17l-129 -106h-211z" />
<glyph unicode="&#xfc;" d="M199 360v721h317v-622q0 -85 47.5 -138t126.5 -53q83 0 135 59.5t52 147.5v606h317v-1081h-301v119h-16q-36 -61 -112 -103.5t-179 -42.5q-176 0 -281.5 108t-105.5 279zM342 1386q0 63 43.5 107.5t106.5 44.5q67 0 108 -43.5t41 -108.5q0 -67 -40.5 -109t-108.5 -42 q-64 0 -107 43t-43 108zM748 1386q0 67 40.5 109.5t108.5 42.5q63 0 106.5 -44.5t43.5 -107.5q0 -65 -43 -108t-107 -43q-68 0 -108.5 42t-40.5 109z" />
<glyph unicode="&#xfd;" d="M123 1081h332l237 -686h17l225 686h336l-459 -1237q-58 -156 -159 -235.5t-265 -79.5h-143v281h125q117 0 161 118l21 52zM573 1235l101 311h303l-189 -311h-215z" />
<glyph unicode="&#xfe;" d="M131 -455v1989h315l3 -573h16q14 23 35.5 44.5t57 46.5t88.5 40.5t116 15.5q224 0 362 -153.5t138 -407.5q0 -255 -137 -414.5t-355 -159.5q-113 0 -190 47t-115 103h-16v-578h-318zM442 541q0 -127 70 -204t180 -77t179 78t69 203q0 127 -68.5 203.5t-181.5 76.5 t-180.5 -78.5t-67.5 -201.5z" />
<glyph unicode="&#xff;" d="M123 1081h332l237 -686h17l225 686h336l-459 -1237q-58 -156 -159 -235.5t-265 -79.5h-143v281h125q117 0 161 118l21 52zM342 1386q0 63 43.5 107.5t106.5 44.5q67 0 108 -43.5t41 -108.5q0 -67 -40.5 -109t-108.5 -42q-64 0 -107 43t-43 108zM748 1386q0 67 40.5 109.5 t108.5 42.5q63 0 106.5 -44.5t43.5 -107.5q0 -65 -43 -108t-107 -43q-68 0 -108.5 42t-40.5 109z" />
<glyph unicode="&#x100;" d="M41 0l444 1434h416l451 -1434h-346l-72 254h-490l-71 -254h-332zM426 1632v223h575v-223h-575zM526 543h326l-154 538h-18z" />
<glyph unicode="&#x101;" d="M131 535q0 255 137 414t355 159q113 0 190.5 -46.5t114.5 -103.5h16v123h318v-1081h-314v123h-16q-16 -23 -37.5 -45t-57.5 -47.5t-89.5 -41.5t-116.5 -16q-224 0 -362 154t-138 408zM453 541q0 -126 68.5 -203.5t180.5 -77.5t180 79.5t68 201.5q0 127 -70 203.5 t-180 76.5t-178.5 -77.5t-68.5 -202.5zM455 1270v223h575v-223h-575z" />
<glyph unicode="&#x102;" d="M41 0l444 1434h416l451 -1434h-346l-72 254h-490l-71 -254h-332zM399 1894h189q0 -51 28 -80.5t82 -29.5q51 0 80 31t29 79h188q0 -143 -78 -222t-219 -79q-142 0 -220.5 79t-78.5 222zM526 543h326l-154 538h-18z" />
<glyph unicode="&#x103;" d="M131 535q0 255 137 414t355 159q113 0 190.5 -46.5t114.5 -103.5h16v123h318v-1081h-314v123h-16q-16 -23 -37.5 -45t-57.5 -47.5t-89.5 -41.5t-116.5 -16q-224 0 -362 154t-138 408zM428 1532h188q0 -51 28.5 -81t82.5 -30q51 0 80 31.5t29 79.5h188q0 -143 -78 -222 t-219 -79q-142 0 -220.5 79t-78.5 222zM453 541q0 -126 68.5 -203.5t180.5 -77.5t180 79.5t68 201.5q0 127 -70 203.5t-180 76.5t-178.5 -77.5t-68.5 -202.5z" />
<glyph unicode="&#x104;" d="M41 0l444 1434h416l451 -1434l-80 -100q-33 -42 -33 -68q0 -51 61 -51h52v-184h-166q-81 0 -136 43.5t-55 121.5q0 81 72 166l57 72h-118l-72 254h-490l-71 -254h-332zM526 543h326l-154 538h-18z" />
<glyph unicode="&#x105;" d="M131 535q0 255 137 414t355 159q113 0 190.5 -46.5t114.5 -103.5h16v123h318v-1081l-80 -100q-33 -42 -33 -68q0 -51 61 -51h52v-184h-166q-81 0 -136 43.5t-55 121.5q0 81 72 166l57 72h-86v123h-16q-16 -23 -37.5 -45t-57.5 -47.5t-89.5 -41.5t-116.5 -16 q-224 0 -362 154t-138 408zM453 541q0 -126 68.5 -203.5t180.5 -77.5t180 79.5t68 201.5q0 127 -70 203.5t-180 76.5t-178.5 -77.5t-68.5 -202.5z" />
<glyph unicode="&#x106;" d="M147 489v455q0 224 152 370t397 146q244 0 395 -143t154 -379h-323q-5 89 -65.5 150t-160.5 61q-104 0 -164.5 -65t-60.5 -156v-422q0 -92 60.5 -156.5t164.5 -64.5q100 0 160 59t66 148h323q-3 -233 -155.5 -376t-393.5 -143q-245 0 -397 146t-152 370zM571 1597 l101 312h303l-189 -312h-215z" />
<glyph unicode="&#x107;" d="M137 541q0 159 69.5 287.5t201.5 204t303 75.5q224 0 372.5 -123t171.5 -323h-321q-23 72 -81 115.5t-142 43.5q-113 0 -181.5 -80t-68.5 -200q0 -121 69.5 -201t182.5 -80q78 0 137 41t80 107h323q-27 -194 -174.5 -314.5t-367.5 -120.5q-170 0 -302 76t-202 205 t-70 287zM590 1237l100 311h303l-188 -311h-215z" />
<glyph unicode="&#x108;" d="M147 489v455q0 224 152 370t397 146q244 0 395 -143t154 -379h-323q-5 89 -65.5 150t-160.5 61q-104 0 -164.5 -65t-60.5 -156v-422q0 -92 60.5 -156.5t164.5 -64.5q100 0 160 59t66 148h323q-3 -233 -155.5 -376t-393.5 -143q-245 0 -397 146t-152 370zM348 1597 l215 310h266l215 -310h-210l-129 107h-17l-129 -107h-211z" />
<glyph unicode="&#x109;" d="M137 541q0 159 69.5 287.5t201.5 204t303 75.5q224 0 372.5 -123t171.5 -323h-321q-23 72 -81 115.5t-142 43.5q-113 0 -181.5 -80t-68.5 -200q0 -121 69.5 -201t182.5 -80q78 0 137 41t80 107h323q-27 -194 -174.5 -314.5t-367.5 -120.5q-170 0 -302 76t-202 205 t-70 287zM367 1237l215 309h266l215 -309h-211l-129 106h-16l-129 -106h-211z" />
<glyph unicode="&#x10a;" d="M147 489v455q0 224 152 370t397 146q244 0 395 -143t154 -379h-323q-5 89 -65.5 150t-160.5 61q-104 0 -164.5 -65t-60.5 -156v-422q0 -92 60.5 -156.5t164.5 -64.5q100 0 160 59t66 148h323q-3 -233 -155.5 -376t-393.5 -143q-245 0 -397 146t-152 370zM516 1737 q0 75 49 123.5t131 48.5q81 0 131 -49t50 -123q0 -76 -50 -124t-131 -48q-82 0 -131 48t-49 124z" />
<glyph unicode="&#x10b;" d="M137 541q0 159 69.5 287.5t201.5 204t303 75.5q224 0 372.5 -123t171.5 -323h-321q-23 72 -81 115.5t-142 43.5q-113 0 -181.5 -80t-68.5 -200q0 -121 69.5 -201t182.5 -80q78 0 137 41t80 107h323q-27 -194 -174.5 -314.5t-367.5 -120.5q-170 0 -302 76t-202 205 t-70 287zM535 1376q0 75 49 123.5t131 48.5q81 0 130.5 -48.5t49.5 -123.5q0 -76 -49.5 -124t-130.5 -48q-82 0 -131 48t-49 124z" />
<glyph unicode="&#x10c;" d="M147 489v455q0 224 152 370t397 146q244 0 395 -143t154 -379h-323q-5 89 -65.5 150t-160.5 61q-104 0 -164.5 -65t-60.5 -156v-422q0 -92 60.5 -156.5t164.5 -64.5q100 0 160 59t66 148h323q-3 -233 -155.5 -376t-393.5 -143q-245 0 -397 146t-152 370zM346 1907h211 l129 -107h16l129 107h211l-215 -310h-266z" />
<glyph unicode="&#x10d;" d="M137 541q0 159 69.5 287.5t201.5 204t303 75.5q224 0 372.5 -123t171.5 -323h-321q-23 72 -81 115.5t-142 43.5q-113 0 -181.5 -80t-68.5 -200q0 -121 69.5 -201t182.5 -80q78 0 137 41t80 107h323q-27 -194 -174.5 -314.5t-367.5 -120.5q-170 0 -302 76t-202 205 t-70 287zM367 1546h211l129 -106h16l129 106h211l-215 -309h-266z" />
<glyph unicode="&#x10e;" d="M166 0v1434h512q245 0 397 -145t152 -369v-412q0 -223 -151.5 -365.5t-397.5 -142.5h-512zM291 1909h211l129 -107h16l129 107h211l-215 -310h-266zM477 281h201q105 0 165 62t60 155v432q0 93 -60.5 158t-164.5 65h-201v-872z" />
<glyph unicode="&#x10f;" d="M16 535q0 255 137 414t355 159q113 0 190.5 -46.5t114.5 -103.5h16v578h318v-1536h-313v123h-17q-16 -23 -37.5 -45t-57.5 -47.5t-89.5 -41.5t-116.5 -16q-224 0 -362 154t-138 408zM338 541q0 -126 69 -203.5t181 -77.5t180 79.5t68 201.5q0 127 -70 203.5t-180 76.5 t-179 -78t-69 -202zM1229 1120v416h268l-49 -416h-219z" />
<glyph unicode="&#x110;" d="M100 600v229h129v605h510q245 0 397 -145t152 -369v-412q0 -223 -151.5 -365.5t-397.5 -142.5h-510v600h-129zM539 281h200q106 0 166 62t60 155v432q0 93 -61 158t-165 65h-200v-324h223v-229h-223v-319z" />
<glyph unicode="&#x111;" d="M84 535q0 255 136.5 414t354.5 159q113 0 191 -46.5t115 -103.5h16v226h-315v221h315v131h317v-131h97v-221h-97v-1184h-313v123h-16q-16 -23 -37.5 -45t-57.5 -47.5t-89.5 -41.5t-116.5 -16q-224 0 -362 154t-138 408zM406 541q0 -126 68.5 -203.5t180.5 -77.5t180 79.5 t68 201.5q0 127 -70 203.5t-180 76.5t-178.5 -77.5t-68.5 -202.5z" />
<glyph unicode="&#x112;" d="M229 0v1434h914v-277h-590v-297h502v-276h-502v-305h610v-279h-934zM432 1632v223h576v-223h-576z" />
<glyph unicode="&#x113;" d="M147 535q0 254 154 413.5t401 159.5q130 0 234.5 -45.5t171 -123.5t102 -179t35.5 -215v-92h-796q8 -104 78.5 -170t179.5 -66q90 0 152 37t87 92h287q-37 -172 -179 -272.5t-358 -100.5q-155 0 -280.5 72t-197 201t-71.5 289zM430 1270v223h576v-223h-576zM455 664h495 q-9 88 -76.5 145t-171.5 57q-98 0 -167 -59.5t-80 -142.5z" />
<glyph unicode="&#x114;" d="M229 0v1434h914v-277h-590v-297h502v-276h-502v-305h610v-279h-934zM406 1894h188q0 -51 28.5 -80.5t82.5 -29.5q51 0 79.5 31t28.5 79h188q0 -143 -77.5 -222t-218.5 -79q-142 0 -220.5 79t-78.5 222z" />
<glyph unicode="&#x115;" d="M147 535q0 254 154 413.5t401 159.5q130 0 234.5 -45.5t171 -123.5t102 -179t35.5 -215v-92h-796q8 -104 78.5 -170t179.5 -66q90 0 152 37t87 92h287q-37 -172 -179 -272.5t-358 -100.5q-155 0 -280.5 72t-197 201t-71.5 289zM401 1532h189q0 -51 28 -81t82 -30 q51 0 80 31.5t29 79.5h188q0 -143 -78 -222t-219 -79q-142 0 -220.5 79t-78.5 222zM455 664h495q-9 88 -76.5 145t-171.5 57q-98 0 -167 -59.5t-80 -142.5z" />
<glyph unicode="&#x116;" d="M229 0v1434h914v-277h-590v-297h502v-276h-502v-305h610v-279h-934zM528 1737q0 75 49.5 123.5t131.5 48.5q81 0 130.5 -48.5t49.5 -123.5q0 -76 -49.5 -124t-130.5 -48q-82 0 -131.5 48t-49.5 124z" />
<glyph unicode="&#x117;" d="M147 535q0 254 154 413.5t401 159.5q130 0 234.5 -45.5t171 -123.5t102 -179t35.5 -215v-92h-796q8 -104 78.5 -170t179.5 -66q90 0 152 37t87 92h287q-37 -172 -179 -272.5t-358 -100.5q-155 0 -280.5 72t-197 201t-71.5 289zM455 664h495q-9 88 -76.5 145t-171.5 57 q-98 0 -167 -59.5t-80 -142.5zM526 1374q0 75 49.5 123.5t131.5 48.5q81 0 130.5 -48.5t49.5 -123.5q0 -76 -49.5 -124t-130.5 -48q-82 0 -131.5 48t-49.5 124z" />
<glyph unicode="&#x118;" d="M229 0v1434h914v-277h-590v-297h502v-276h-502v-305h610v-279l-80 -100q-32 -40 -32 -68q0 -51 61 -51h51v-184h-166q-81 0 -135.5 43.5t-54.5 121.5q0 81 72 166l57 72h-707z" />
<glyph unicode="&#x119;" d="M147 535q0 254 154 413.5t401 159.5q130 0 234.5 -45.5t171 -123.5t102 -179t35.5 -215v-92h-796q8 -104 78.5 -170t179.5 -66q90 0 152 37t87 92h287q-29 -137 -127.5 -230.5t-249.5 -125.5l-72 -90q-32 -40 -32 -68q0 -51 61 -51h51v-184h-166q-81 0 -135.5 43.5 t-54.5 121.5q0 81 72 166l38 49q-206 28 -338.5 182t-132.5 376zM455 664h495q-9 88 -76.5 145t-171.5 57q-98 0 -167 -59.5t-80 -142.5z" />
<glyph unicode="&#x11a;" d="M229 0v1434h914v-277h-590v-297h502v-276h-502v-305h610v-279h-934zM360 1907h211l129 -107h17l129 107h211l-215 -310h-267z" />
<glyph unicode="&#x11b;" d="M147 535q0 254 154 413.5t401 159.5q130 0 234.5 -45.5t171 -123.5t102 -179t35.5 -215v-92h-796q8 -104 78.5 -170t179.5 -66q90 0 152 37t87 92h287q-37 -172 -179 -272.5t-358 -100.5q-155 0 -280.5 72t-197 201t-71.5 289zM356 1544h211l129 -106h17l129 106h211 l-215 -309h-267zM455 664h495q-9 88 -76.5 145t-171.5 57q-98 0 -167 -59.5t-80 -142.5z" />
<glyph unicode="&#x11c;" d="M147 489v455q0 224 152 370t397 146q244 0 395 -138t154 -370h-323q-5 85 -65 141t-161 56q-104 0 -164.5 -65t-60.5 -156v-434q0 -94 60.5 -159t164.5 -65q104 1 164 65.5t60 156.5v47h-269v243h592v-295q0 -228 -152 -371t-395 -143q-245 0 -397 146t-152 370z M350 1597l215 310h266l216 -310h-211l-129 107h-17l-129 -107h-211z" />
<glyph unicode="&#x11d;" d="M133 547q0 255 137.5 408t350.5 153q117 0 196 -48t113 -102h16v123h316v-1069q0 -108 -34.5 -199.5t-102 -161.5t-177.5 -109.5t-252 -39.5q-121 0 -219 33t-159.5 89.5t-95.5 127.5t-38 150h289q13 -65 69 -104.5t154 -39.5q250 0 250 254v125h-16q-16 -24 -39 -46.5 t-59.5 -47.5t-90 -40t-114.5 -15q-141 0 -252.5 66.5t-176.5 194.5t-65 298zM360 1235l215 309h267l215 -309h-211l-129 106h-17l-129 -106h-211zM455 547q0 -125 68 -199t179 -74q113 0 180.5 76t67.5 197q0 127 -68.5 200.5t-179.5 73.5t-179 -75t-68 -199z" />
<glyph unicode="&#x11e;" d="M147 489v455q0 224 152 370t397 146q244 0 395 -138t154 -370h-323q-5 85 -65 141t-161 56q-104 0 -164.5 -65t-60.5 -156v-434q0 -94 60.5 -159t164.5 -65q104 1 164 65.5t60 156.5v47h-269v243h592v-295q0 -228 -152 -371t-395 -143q-245 0 -397 146t-152 370z M393 1894h189q0 -51 28 -80.5t82 -29.5q51 0 80 31t29 79h188q0 -143 -78 -222t-219 -79q-142 0 -220.5 79t-78.5 222z" />
<glyph unicode="&#x11f;" d="M133 547q0 255 137.5 408t350.5 153q117 0 196 -48t113 -102h16v123h316v-1069q0 -108 -34.5 -199.5t-102 -161.5t-177.5 -109.5t-252 -39.5q-121 0 -219 33t-159.5 89.5t-95.5 127.5t-38 150h289q13 -65 69 -104.5t154 -39.5q250 0 250 254v125h-16q-16 -24 -39 -46.5 t-59.5 -47.5t-90 -40t-114.5 -15q-141 0 -252.5 66.5t-176.5 194.5t-65 298zM406 1532h188q0 -51 28.5 -81t82.5 -30q51 0 79.5 31.5t28.5 79.5h188q0 -143 -77.5 -222t-218.5 -79q-142 0 -220.5 79t-78.5 222zM455 547q0 -125 68 -199t179 -74q113 0 180.5 76t67.5 197 q0 127 -68.5 200.5t-179.5 73.5t-179 -75t-68 -199z" />
<glyph unicode="&#x120;" d="M147 489v455q0 224 152 370t397 146q244 0 395 -138t154 -370h-323q-5 85 -65 141t-161 56q-104 0 -164.5 -65t-60.5 -156v-434q0 -94 60.5 -159t164.5 -65q104 1 164 65.5t60 156.5v47h-269v243h592v-295q0 -228 -152 -371t-395 -143q-245 0 -397 146t-152 370z M518 1737q0 75 49 123.5t131 48.5q81 0 131 -49t50 -123q0 -76 -50 -124t-131 -48q-82 0 -131 48t-49 124z" />
<glyph unicode="&#x121;" d="M133 547q0 255 137.5 408t350.5 153q117 0 196 -48t113 -102h16v123h316v-1069q0 -108 -34.5 -199.5t-102 -161.5t-177.5 -109.5t-252 -39.5q-121 0 -219 33t-159.5 89.5t-95.5 127.5t-38 150h289q13 -65 69 -104.5t154 -39.5q250 0 250 254v125h-16q-16 -24 -39 -46.5 t-59.5 -47.5t-90 -40t-114.5 -15q-141 0 -252.5 66.5t-176.5 194.5t-65 298zM455 547q0 -125 68 -199t179 -74q113 0 180.5 76t67.5 197q0 127 -68.5 200.5t-179.5 73.5t-179 -75t-68 -199zM528 1374q0 75 49.5 123.5t131.5 48.5q81 0 130.5 -48.5t49.5 -123.5 q0 -76 -49.5 -124t-130.5 -48q-82 0 -131.5 48t-49.5 124z" />
<glyph unicode="&#x122;" d="M147 489v455q0 224 152 370t397 146q244 0 395 -138t154 -370h-323q-5 85 -65 141t-161 56q-104 0 -164.5 -65t-60.5 -156v-434q0 -94 60.5 -159t164.5 -65q104 1 164 65.5t60 156.5v47h-269v243h592v-295q0 -228 -152 -371t-395 -143q-245 0 -397 146t-152 370z M547 -469l33 360h254l-93 -360h-194z" />
<glyph unicode="&#x123;" d="M133 547q0 255 137.5 408t350.5 153q117 0 196 -48t113 -102h16v123h316v-1069q0 -108 -34.5 -199.5t-102 -161.5t-177.5 -109.5t-252 -39.5q-121 0 -219 33t-159.5 89.5t-95.5 127.5t-38 150h289q13 -65 69 -104.5t154 -39.5q250 0 250 254v125h-16q-16 -24 -39 -46.5 t-59.5 -47.5t-90 -40t-114.5 -15q-141 0 -252.5 66.5t-176.5 194.5t-65 298zM455 547q0 -125 68 -199t179 -74q113 0 180.5 76t67.5 197q0 127 -68.5 200.5t-179.5 73.5t-179 -75t-68 -199zM614 1235l93 360h192l-31 -360h-254z" />
<glyph unicode="&#x124;" d="M115 0v1434h323v-555h516v555h326v-1434h-326v567h-516v-567h-323zM352 1597l215 310h267l215 -310h-211l-129 107h-17l-129 -107h-211z" />
<glyph unicode="&#x125;" d="M-14 1612l215 309h266l215 -309h-211l-129 106h-16l-129 -106h-211zM195 0v1536h317v-573h16q34 61 108.5 103t176.5 42q177 0 281 -107.5t104 -279.5v-721h-317v623q0 84 -50 137t-129 53q-82 0 -136 -58.5t-54 -144.5v-610h-317z" />
<glyph unicode="&#x126;" d="M20 1042v232h95v160h323v-160h516v160h326v-160h92v-232h-92v-1042h-326v567h-516v-567h-323v1042h-95zM438 879h516v163h-516v-163z" />
<glyph unicode="&#x127;" d="M41 1184v221h178v131h316v-131h204v-221h-204v-221h16q36 61 110.5 103t176.5 42q177 0 281 -107.5t104 -279.5v-721h-318v623q0 84 -49.5 137t-130.5 53t-134.5 -58.5t-53.5 -144.5v-610h-318v1184h-178z" />
<glyph unicode="&#x128;" d="M166 0v276h364v881h-364v277h1061v-277h-373v-881h373v-276h-1061zM324 1589q0 150 64.5 224.5t168.5 74.5q52 0 98 -21.5t81.5 -43t62.5 -21.5q65 0 71 86h193q0 -146 -65 -223.5t-169 -77.5q-39 0 -75.5 13.5t-59.5 29.5t-52.5 29.5t-55.5 13.5q-66 0 -72 -84h-190z " />
<glyph unicode="&#x129;" d="M190 0v248h355v586h-316v247h633v-833h330v-248h-1002zM319 1227q0 150 64.5 224.5t169.5 74.5q52 0 98 -21.5t81.5 -43t62.5 -21.5q65 0 71 86h193q0 -146 -65 -223.5t-169 -77.5q-39 0 -75.5 13.5t-59.5 29.5t-52.5 29.5t-55.5 13.5q-66 0 -72 -84h-191z" />
<glyph unicode="&#x12a;" d="M166 0v276h364v881h-364v277h1061v-277h-373v-881h373v-276h-1061zM428 1632v223h576v-223h-576z" />
<glyph unicode="&#x12b;" d="M190 0v248h355v586h-316v247h633v-833h330v-248h-1002zM424 1270v223h575v-223h-575z" />
<glyph unicode="&#x12c;" d="M166 0v276h364v881h-364v277h1061v-277h-373v-881h373v-276h-1061zM399 1894h189q0 -51 28 -80.5t82 -29.5q51 0 80 31t29 79h188q0 -143 -78 -222t-219 -79q-142 0 -220.5 79t-78.5 222z" />
<glyph unicode="&#x12d;" d="M190 0v248h355v586h-316v247h633v-833h330v-248h-1002zM397 1532h189q0 -51 28 -81t82 -30q51 0 80 31.5t29 79.5h188q0 -143 -78 -222t-219 -79q-142 0 -220.5 79t-78.5 222z" />
<glyph unicode="&#x12e;" d="M166 0v276h364v881h-364v277h1061v-277h-373v-881h373v-276l-80 -100q-33 -42 -33 -68q0 -51 62 -51h51v-184h-166q-81 0 -136 43.5t-55 121.5q0 81 72 166l57 72h-833z" />
<glyph unicode="&#x12f;" d="M195 0v248h356v586h-318v247h635v-833h330v-248l-80 -100q-33 -42 -33 -68q0 -51 62 -51h51v-184h-166q-81 0 -135.5 43.5t-54.5 121.5q0 82 71 166l58 72h-776zM535 1374q0 75 49 123.5t129 48.5q82 0 131 -48.5t49 -123.5q0 -76 -49 -124t-131 -48q-81 0 -129.5 48 t-48.5 124z" />
<glyph unicode="&#x130;" d="M166 0v276h364v881h-364v277h1061v-277h-373v-881h373v-276h-1061zM524 1737q0 75 49.5 123.5t131.5 48.5q81 0 130.5 -48.5t49.5 -123.5q0 -76 -49.5 -124t-130.5 -48q-82 0 -131.5 48t-49.5 124z" />
<glyph unicode="&#x131;" d="M190 0v248h355v586h-316v247h633v-833h330v-248h-1002z" />
<glyph unicode="&#x132;" d="M182 461h307q0 -86 51.5 -138.5t147.5 -52.5q102 0 150.5 64.5t48.5 157.5v942h323v-957q0 -231 -139 -366.5t-381 -135.5q-241 0 -374.5 132t-133.5 354zM274 666v768h324v-768h-324z" />
<glyph unicode="&#x133;" d="M170 1374q0 79 51.5 125.5t134.5 46.5q84 0 136.5 -46.5t52.5 -125.5t-52.5 -125.5t-136.5 -46.5q-83 0 -134.5 46.5t-51.5 125.5zM199 0v1081h317v-1081h-317zM547 -190h178q70 0 109.5 39t39.5 108v1124h318v-1126q0 -197 -111 -311.5t-295 -114.5h-239v281zM848 1374 q0 79 51.5 125.5t134.5 46.5q84 0 136.5 -46.5t52.5 -125.5t-52.5 -125.5t-136.5 -46.5q-83 0 -134.5 46.5t-51.5 125.5z" />
<glyph unicode="&#x134;" d="M182 461h307q0 -86 51.5 -138.5t147.5 -52.5q102 0 150.5 64.5t48.5 157.5v661h-455v281h778v-957q0 -231 -139 -366.5t-381 -135.5q-241 0 -374.5 132t-133.5 354zM481 1597l215 310h267l215 -310h-211l-129 107h-17l-129 -107h-211z" />
<glyph unicode="&#x135;" d="M301 -190h293q70 0 109.5 39t39.5 108v877h-401v247h719v-1126q0 -197 -111 -311.5t-295 -114.5h-354v281zM369 1235l215 309h266l215 -309h-211l-129 106h-16l-129 -106h-211z" />
<glyph unicode="&#x136;" d="M109 0v1434h323v-547h12l433 547h399l-477 -564l485 -870h-375l-334 606l-143 -170v-436h-323zM506 -469l33 360h254l-93 -360h-194z" />
<glyph unicode="&#x137;" d="M168 0v1536h317v-823h13l309 368h389l-348 -389l375 -692h-355l-237 451l-146 -162v-289h-317zM502 -469l33 360h253l-92 -360h-194z" />
<glyph unicode="&#x138;" d="M170 0v1081h317v-368h13l315 368h389l-354 -389l375 -692h-357l-237 446l-144 -157v-289h-317z" />
<glyph unicode="&#x139;" d="M172 0v1434h326v-1143h723v-291h-1049zM221 1597l101 312h303l-189 -312h-215z" />
<glyph unicode="&#x13a;" d="M186 1288v248h664v-1159q0 -49 24 -73.5t68 -24.5h264v-279h-336q-160 0 -249 90.5t-89 249.5v948h-346zM569 1612l101 311h303l-189 -311h-215z" />
<glyph unicode="&#x13b;" d="M172 0v1434h326v-1143h723v-291h-1049zM569 -469l33 360h254l-92 -360h-195z" />
<glyph unicode="&#x13c;" d="M186 1288v248h664v-1159q0 -49 24 -73.5t68 -24.5h264v-279h-336q-160 0 -249 90.5t-89 249.5v948h-346zM733 -469l33 360h254l-92 -360h-195z" />
<glyph unicode="&#x13d;" d="M172 0v1434h326v-1143h723v-291h-1049zM807 1018v416h268l-49 -416h-219z" />
<glyph unicode="&#x13e;" d="M186 1288v248h664v-1159q0 -49 24 -73.5t68 -24.5h264v-279h-336q-160 0 -249 90.5t-89 249.5v948h-346zM1016 1120v416h268l-49 -416h-219z" />
<glyph unicode="&#x13f;" d="M172 0v1434h326v-1143h723v-291h-1049zM717 788q0 72 51 121t123 49q77 0 126.5 -48.5t49.5 -121.5q0 -75 -49 -123.5t-127 -48.5q-73 0 -123.5 49t-50.5 123z" />
<glyph unicode="&#x140;" d="M133 1288v248h664v-1159q0 -98 90 -98h264v-279h-334q-160 0 -249 90.5t-89 249.5v948h-346zM911 797q0 72 51 121t123 49q76 0 125.5 -48.5t49.5 -121.5q0 -75 -49.5 -123.5t-125.5 -48.5q-73 0 -123.5 49t-50.5 123z" />
<glyph unicode="&#x141;" d="M90 406v262l166 73v693h324v-551l362 159v-262l-362 -159v-330h723v-291h-1047v479z" />
<glyph unicode="&#x142;" d="M186 1288v248h664v-547l278 94v-262l-278 -94v-350q0 -49 24 -73.5t68 -24.5h264v-279h-336q-160 0 -249 90.5t-89 249.5v283l-296 -101v262l296 101v403h-346z" />
<glyph unicode="&#x143;" d="M121 0v1434h356l469 -856h12v856h314v-1434h-361l-465 856h-12v-856h-313zM614 1597l101 312h303l-189 -312h-215z" />
<glyph unicode="&#x144;" d="M199 0v1081h301v-118h16q36 61 112 103t179 42q176 0 281.5 -108t105.5 -279v-721h-317v623q0 84 -48 137t-127 53q-83 0 -134.5 -59.5t-51.5 -147.5v-606h-317zM596 1235l100 311h303l-188 -311h-215z" />
<glyph unicode="&#x145;" d="M121 0v1434h356l469 -856h12v856h314v-1434h-361l-465 856h-12v-856h-313zM573 -469l33 360h254l-92 -360h-195z" />
<glyph unicode="&#x146;" d="M199 0v1081h301v-118h16q36 61 112 103t179 42q176 0 281.5 -108t105.5 -279v-721h-317v623q0 84 -48 137t-127 53q-83 0 -134.5 -59.5t-51.5 -147.5v-606h-317zM541 -469l32 360h254l-92 -360h-194z" />
<glyph unicode="&#x147;" d="M121 0v1434h356l469 -856h12v856h314v-1434h-361l-465 856h-12v-856h-313zM391 1907h211l129 -107h17l129 107h210l-215 -310h-266z" />
<glyph unicode="&#x148;" d="M199 0v1081h301v-118h16q36 61 112 103t179 42q176 0 281.5 -108t105.5 -279v-721h-317v623q0 84 -48 137t-127 53q-83 0 -134.5 -59.5t-51.5 -147.5v-606h-317zM373 1544h211l129 -106h16l129 106h211l-215 -309h-266z" />
<glyph unicode="&#x14a;" d="M121 0v1434h323l502 -828h12v828h314v-1426q0 -224 -139.5 -351.5t-358.5 -127.5v293q89 0 131.5 54t42.5 134v64l-502 782h-12v-856h-313z" />
<glyph unicode="&#x14b;" d="M199 0v1081h301v-118h16q36 61 112 103t179 42q176 0 281.5 -108t105.5 -279v-766q0 -197 -112 -311.5t-296 -114.5h-180v281h121q70 0 110 39t40 108v666q0 84 -48 137t-127 53q-83 0 -134.5 -59.5t-51.5 -147.5v-606h-317z" />
<glyph unicode="&#x14c;" d="M147 489v455q0 224 152 370t397 146t397 -146t152 -370v-455q0 -224 -152 -370t-397 -146t-397 146t-152 370zM420 1632v223h575v-223h-575zM471 506q0 -92 60.5 -156.5t164.5 -64.5t165 64.5t61 156.5v422q0 91 -61 156t-165 65t-164.5 -65t-60.5 -156v-422z" />
<glyph unicode="&#x14d;" d="M113 541q0 119 42.5 223t117.5 180t184.5 120t238.5 44q128 0 237.5 -44t184.5 -120t117.5 -180t42.5 -223t-42.5 -223.5t-118 -180.5t-185 -120t-236.5 -44q-170 0 -304 75.5t-206.5 204.5t-72.5 288zM422 1270v223h575v-223h-575zM434 541q0 -124 74 -202.5t188 -78.5 q113 0 186.5 79t73.5 202t-73.5 201.5t-186.5 78.5q-114 0 -188 -78.5t-74 -201.5z" />
<glyph unicode="&#x14e;" d="M147 489v455q0 224 152 370t397 146t397 -146t152 -370v-455q0 -224 -152 -370t-397 -146t-397 146t-152 370zM393 1894h189q0 -51 28 -80.5t82 -29.5q51 0 80 31t29 79h188q0 -143 -78 -222t-219 -79q-142 0 -220.5 79t-78.5 222zM471 506q0 -92 60.5 -156.5 t164.5 -64.5t165 64.5t61 156.5v422q0 91 -61 156t-165 65t-164.5 -65t-60.5 -156v-422z" />
<glyph unicode="&#x14f;" d="M113 541q0 119 42.5 223t117.5 180t184.5 120t238.5 44q128 0 237.5 -44t184.5 -120t117.5 -180t42.5 -223t-42.5 -223.5t-118 -180.5t-185 -120t-236.5 -44q-170 0 -304 75.5t-206.5 204.5t-72.5 288zM395 1532h189q0 -51 28 -81t82 -30q51 0 80 31.5t29 79.5h188 q0 -143 -78 -222t-219 -79q-142 0 -220.5 79t-78.5 222zM434 541q0 -124 74 -202.5t188 -78.5q113 0 186.5 79t73.5 202t-73.5 201.5t-186.5 78.5q-114 0 -188 -78.5t-74 -201.5z" />
<glyph unicode="&#x150;" d="M147 489v455q0 224 152 370t397 146t397 -146t152 -370v-455q0 -224 -152 -370t-397 -146t-397 146t-152 370zM408 1597l79 318h297l-170 -318h-206zM471 506q0 -92 60.5 -156.5t164.5 -64.5t165 64.5t61 156.5v422q0 91 -61 156t-165 65t-164.5 -65t-60.5 -156v-422z M786 1597l82 318h297l-170 -318h-209z" />
<glyph unicode="&#x151;" d="M113 541q0 119 42.5 223t117.5 180t184.5 120t238.5 44q128 0 237.5 -44t184.5 -120t117.5 -180t42.5 -223t-42.5 -223.5t-118 -180.5t-185 -120t-236.5 -44q-170 0 -304 75.5t-206.5 204.5t-72.5 288zM410 1235l79 317h297l-170 -317h-206zM434 541q0 -124 74 -202.5 t188 -78.5q113 0 186.5 79t73.5 202t-73.5 201.5t-186.5 78.5q-114 0 -188 -78.5t-74 -201.5zM788 1235l82 317h297l-170 -317h-209z" />
<glyph unicode="&#x152;" d="M76 516v402q0 224 152 370t395 146h673v-271h-376v-309h284v-262h-284v-322h397v-270h-694q-243 0 -395 146t-152 370zM385 526q0 -94 59.5 -157.5t165.5 -63.5v823q-104 0 -164.5 -64.5t-60.5 -156.5v-381z" />
<glyph unicode="&#x153;" d="M57 328v409q0 163 108 259t271 96q88 0 163 -33t112 -96h10q35 63 106 96t152 33q97 0 175.5 -35.5t129.5 -114t51 -190.5v-322h-508v-84q0 -69 37.5 -108t102.5 -39q64 0 96.5 39.5t34.5 89.5h237q-1 -156 -100.5 -255.5t-253.5 -99.5q-190 0 -274 133h-11 q-35 -63 -112 -98t-164 -35q-158 0 -260.5 97.5t-102.5 257.5zM307 328q0 -65 35 -108.5t98 -43.5q71 0 105.5 44t34.5 108v395q0 65 -35.5 104t-104.5 39q-61 0 -97 -39t-36 -104v-395zM827 633h271v90q0 65 -34 104t-103 39q-62 0 -98 -39t-36 -104v-90z" />
<glyph unicode="&#x154;" d="M135 0v1434h563q222 0 365 -131.5t143 -341.5q0 -140 -69.5 -250t-182.5 -168l303 -543h-358l-246 479h-192v-479h-326zM461 756h209q91 0 149 54t58 151q0 89 -57 142.5t-152 53.5h-207v-401zM485 1597l101 312h303l-189 -312h-215z" />
<glyph unicode="&#x155;" d="M166 0v248h276v586h-247v247h546v-163h17q32 69 106 120.5t174 51.5h187v-299h-207q-119 0 -188.5 -80t-69.5 -219v-244h436v-248h-1030zM682 1235l100 311h303l-188 -311h-215z" />
<glyph unicode="&#x156;" d="M135 0v1434h563q222 0 365 -131.5t143 -341.5q0 -140 -69.5 -250t-182.5 -168l303 -543h-358l-246 479h-192v-479h-326zM461 756h209q91 0 149 54t58 151q0 89 -57 142.5t-152 53.5h-207v-401zM496 -469l32 360h254l-92 -360h-194z" />
<glyph unicode="&#x157;" d="M166 0v248h276v586h-247v247h546v-163h17q32 69 106 120.5t174 51.5h187v-299h-207q-119 0 -188.5 -80t-69.5 -219v-244h436v-248h-1030zM541 -469l32 360h254l-92 -360h-194z" />
<glyph unicode="&#x158;" d="M135 0v1434h563q222 0 365 -131.5t143 -341.5q0 -140 -69.5 -250t-182.5 -168l303 -543h-358l-246 479h-192v-479h-326zM262 1907h211l129 -107h16l130 107h210l-215 -310h-266zM461 756h209q91 0 149 54t58 151q0 89 -57 142.5t-152 53.5h-207v-401z" />
<glyph unicode="&#x159;" d="M166 0v248h276v586h-247v247h546v-163h17q32 69 106 120.5t174 51.5h187v-299h-207q-119 0 -188.5 -80t-69.5 -219v-244h436v-248h-1030zM457 1544h211l129 -106h16l129 106h211l-215 -309h-266z" />
<glyph unicode="&#x15a;" d="M135 467h311q3 -87 72 -142t187 -55q101 0 158 37.5t57 104.5q0 42 -25.5 71.5t-68.5 46t-99 29.5t-118 26.5t-124 31.5t-118 50t-99 77t-68.5 118.5t-25.5 167.5q0 186 137.5 308t376.5 122q232 0 378 -117.5t155 -338.5h-322q-3 76 -57.5 121.5t-153.5 45.5 q-91 0 -141.5 -37t-50.5 -96q0 -40 26 -68t70 -44t101 -28t120.5 -25t126.5 -30.5t120 -49.5t101 -76t70 -116t26 -165q0 -205 -149.5 -334t-411.5 -129q-260 0 -411.5 135.5t-149.5 358.5zM571 1597l101 312h303l-189 -312h-215z" />
<glyph unicode="&#x15b;" d="M227 332h289q6 -56 51.5 -85.5t124.5 -29.5t123.5 27t44.5 73q0 39 -34 61t-87.5 32t-119 18t-131 27t-119 51t-87.5 97.5t-34 160.5q0 145 118 244.5t326 99.5q193 0 314.5 -89.5t130.5 -254.5h-275q-8 51 -51 80.5t-119 29.5q-72 0 -114.5 -26.5t-42.5 -69.5 q0 -31 27 -50t71.5 -26t101 -15.5t115.5 -16.5t115.5 -31.5t101 -57.5t71.5 -97.5t27 -149.5q0 -161 -125 -261t-350 -100q-226 0 -342 95t-121 264zM586 1235l100 311h303l-188 -311h-215z" />
<glyph unicode="&#x15c;" d="M135 467h311q3 -87 72 -142t187 -55q101 0 158 37.5t57 104.5q0 42 -25.5 71.5t-68.5 46t-99 29.5t-118 26.5t-124 31.5t-118 50t-99 77t-68.5 118.5t-25.5 167.5q0 186 137.5 308t376.5 122q232 0 378 -117.5t155 -338.5h-322q-3 76 -57.5 121.5t-153.5 45.5 q-91 0 -141.5 -37t-50.5 -96q0 -40 26 -68t70 -44t101 -28t120.5 -25t126.5 -30.5t120 -49.5t101 -76t70 -116t26 -165q0 -205 -149.5 -334t-411.5 -129q-260 0 -411.5 135.5t-149.5 358.5zM348 1597l215 310h266l215 -310h-210l-129 107h-17l-129 -107h-211z" />
<glyph unicode="&#x15d;" d="M227 332h289q6 -56 51.5 -85.5t124.5 -29.5t123.5 27t44.5 73q0 39 -34 61t-87.5 32t-119 18t-131 27t-119 51t-87.5 97.5t-34 160.5q0 145 118 244.5t326 99.5q193 0 314.5 -89.5t130.5 -254.5h-275q-8 51 -51 80.5t-119 29.5q-72 0 -114.5 -26.5t-42.5 -69.5 q0 -31 27 -50t71.5 -26t101 -15.5t115.5 -16.5t115.5 -31.5t101 -57.5t71.5 -97.5t27 -149.5q0 -161 -125 -261t-350 -100q-226 0 -342 95t-121 264zM362 1235l216 309h266l215 -309h-211l-129 106h-17l-129 -106h-211z" />
<glyph unicode="&#x15e;" d="M135 467h311q3 -87 72 -142t187 -55q101 0 158 37.5t57 104.5q0 42 -25.5 71.5t-68.5 46t-99 29.5t-118 26.5t-124 31.5t-118 50t-99 77t-68.5 118.5t-25.5 167.5q0 186 137.5 308t376.5 122q232 0 378 -117.5t155 -338.5h-322q-3 76 -57.5 121.5t-153.5 45.5 q-91 0 -141.5 -37t-50.5 -96q0 -40 26 -68t70 -44t101 -28t120.5 -25t126.5 -30.5t120 -49.5t101 -76t70 -116t26 -165q0 -195 -135.5 -322t-376.5 -139l-18 -71h12q22 18 64 18q71 0 120.5 -46t49.5 -122q0 -77 -57.5 -125.5t-149.5 -48.5q-86 0 -143 44.5t-58 115.5h150 q2 -15 16.5 -27t32.5 -12q26 0 40.5 15t14.5 40q0 23 -15 38.5t-38 15.5q-30 0 -45 -27l-146 2l35 192q-223 23 -350 155t-125 335z" />
<glyph unicode="&#x15f;" d="M227 332h289q6 -56 51.5 -85.5t124.5 -29.5t123.5 27t44.5 73q0 39 -34 61t-87.5 32t-119 18t-131 27t-119 51t-87.5 97.5t-34 160.5q0 145 118 244.5t326 99.5q193 0 314.5 -89.5t130.5 -254.5h-275q-8 51 -51 80.5t-119 29.5q-72 0 -114.5 -26.5t-42.5 -69.5 q0 -31 27 -50t71.5 -26t101 -15.5t115.5 -16.5t115.5 -31.5t101 -57.5t71.5 -97.5t27 -149.5q0 -153 -113 -251.5t-319 -107.5l-18 -71h12q22 18 66 18q71 0 119.5 -46t48.5 -122q0 -77 -57 -125.5t-150 -48.5q-86 0 -143 44.5t-58 115.5h152q2 -16 15.5 -27.5t33.5 -11.5 q26 0 39.5 15t13.5 40q0 24 -14.5 39t-38.5 15q-13 0 -25.5 -8t-17.5 -19l-148 2l35 192q-182 20 -274 112t-97 243z" />
<glyph unicode="&#x160;" d="M135 467h311q3 -87 72 -142t187 -55q101 0 158 37.5t57 104.5q0 42 -25.5 71.5t-68.5 46t-99 29.5t-118 26.5t-124 31.5t-118 50t-99 77t-68.5 118.5t-25.5 167.5q0 186 137.5 308t376.5 122q232 0 378 -117.5t155 -338.5h-322q-3 76 -57.5 121.5t-153.5 45.5 q-91 0 -141.5 -37t-50.5 -96q0 -40 26 -68t70 -44t101 -28t120.5 -25t126.5 -30.5t120 -49.5t101 -76t70 -116t26 -165q0 -205 -149.5 -334t-411.5 -129q-260 0 -411.5 135.5t-149.5 358.5zM348 1907h211l129 -107h17l129 107h210l-215 -310h-266z" />
<glyph unicode="&#x161;" d="M227 332h289q6 -56 51.5 -85.5t124.5 -29.5t123.5 27t44.5 73q0 39 -34 61t-87.5 32t-119 18t-131 27t-119 51t-87.5 97.5t-34 160.5q0 145 118 244.5t326 99.5q193 0 314.5 -89.5t130.5 -254.5h-275q-8 51 -51 80.5t-119 29.5q-72 0 -114.5 -26.5t-42.5 -69.5 q0 -31 27 -50t71.5 -26t101 -15.5t115.5 -16.5t115.5 -31.5t101 -57.5t71.5 -97.5t27 -149.5q0 -161 -125 -261t-350 -100q-226 0 -342 95t-121 264zM360 1544h211l129 -106h17l129 106h211l-215 -309h-267z" />
<glyph unicode="&#x162;" d="M125 1153v281h1143v-281h-410v-1153h-117l-26 -96h12q22 18 66 18q71 0 119.5 -46t48.5 -122q0 -77 -57 -125.5t-150 -48.5q-86 0 -143 44.5t-58 115.5h152q2 -16 15.5 -27.5t33.5 -11.5q26 0 39.5 15t13.5 40q0 24 -14.5 39t-38.5 15q-13 0 -25.5 -8t-17.5 -19l-148 2 l37 215h-68v1153h-407z" />
<glyph unicode="&#x163;" d="M182 834v245h242q41 0 64.5 27t23.5 70v198h301v-293h397v-247h-397v-443q0 -61 34.5 -95t102.5 -34h244v-262h-289l-26 -96h12q22 18 65 18q71 0 119.5 -46t48.5 -122q0 -77 -57 -125.5t-149 -48.5q-86 0 -143 44.5t-58 115.5h149q3 -16 17.5 -27.5t34.5 -11.5 q25 0 39 15t14 40q0 24 -14.5 39t-38.5 15q-31 0 -46 -27l-145 2l39 225q-129 28 -199.5 122.5t-70.5 242.5v459h-314z" />
<glyph unicode="&#x164;" d="M125 1153v281h1143v-281h-410v-1153h-326v1153h-407zM360 1907h211l129 -107h17l129 107h211l-215 -310h-267z" />
<glyph unicode="&#x165;" d="M182 834v245h242q41 0 64.5 27t23.5 70v198h301v-293h397v-247h-397v-443q0 -61 34.5 -95t102.5 -34h244v-262h-322q-177 0 -276.5 98.5t-99.5 276.5v459h-314zM924 1163v416h268l-49 -416h-219z" />
<glyph unicode="&#x166;" d="M125 1153v281h1143v-281h-410v-309h256v-230h-256v-614h-326v614h-256v230h256v309h-407z" />
<glyph unicode="&#x167;" d="M182 834v245h242q41 0 64.5 27t23.5 70v198h301v-293h397v-247h-397v-136h344v-221h-344v-86q0 -61 34.5 -95t102.5 -34h244v-262h-322q-177 0 -276.5 98.5t-99.5 276.5v102h-310v221h310v136h-314z" />
<glyph unicode="&#x168;" d="M113 545v889h325v-887q0 -126 66 -197t192 -71t193 71t67 199v885h324v-887q0 -257 -160.5 -415.5t-423.5 -158.5t-423 158t-160 414zM317 1589q0 150 64.5 224.5t169.5 74.5q52 0 98 -21.5t81.5 -43t62.5 -21.5q65 0 71 86h193q0 -146 -65 -223.5t-169 -77.5 q-39 0 -75.5 13.5t-59.5 29.5t-52.5 29.5t-55.5 13.5q-66 0 -72 -84h-191z" />
<glyph unicode="&#x169;" d="M199 360v721h317v-622q0 -85 47.5 -138t126.5 -53q83 0 135 59.5t52 147.5v606h317v-1081h-301v119h-16q-36 -61 -112 -103.5t-179 -42.5q-176 0 -281.5 108t-105.5 279zM319 1227q0 150 64.5 224.5t169.5 74.5q52 0 98 -21.5t81.5 -43t62.5 -21.5q65 0 71 86h193 q0 -146 -65 -223.5t-169 -77.5q-39 0 -75.5 13.5t-59.5 29.5t-52.5 29.5t-55.5 13.5q-66 0 -72 -84h-191z" />
<glyph unicode="&#x16a;" d="M113 545v889h325v-887q0 -126 66 -197t192 -71t193 71t67 199v885h324v-887q0 -257 -160.5 -415.5t-423.5 -158.5t-423 158t-160 414zM420 1632v223h575v-223h-575z" />
<glyph unicode="&#x16b;" d="M199 360v721h317v-622q0 -85 47.5 -138t126.5 -53q83 0 135 59.5t52 147.5v606h317v-1081h-301v119h-16q-36 -61 -112 -103.5t-179 -42.5q-176 0 -281.5 108t-105.5 279zM422 1270v223h575v-223h-575z" />
<glyph unicode="&#x16c;" d="M113 545v889h325v-887q0 -126 66 -197t192 -71t193 71t67 199v885h324v-887q0 -257 -160.5 -415.5t-423.5 -158.5t-423 158t-160 414zM393 1894h189q0 -51 28 -80.5t82 -29.5q51 0 80 31t29 79h188q0 -143 -78 -222t-219 -79q-142 0 -220.5 79t-78.5 222z" />
<glyph unicode="&#x16d;" d="M199 360v721h317v-622q0 -85 47.5 -138t126.5 -53q83 0 135 59.5t52 147.5v606h317v-1081h-301v119h-16q-36 -61 -112 -103.5t-179 -42.5q-176 0 -281.5 108t-105.5 279zM395 1532h189q0 -51 28 -81t82 -30q51 0 80 31.5t29 79.5h188q0 -143 -78 -222t-219 -79 q-142 0 -220.5 79t-78.5 222z" />
<glyph unicode="&#x16e;" d="M113 545v889h325v-887q0 -126 66 -197t192 -71t193 71t67 199v885h324v-887q0 -257 -160.5 -415.5t-423.5 -158.5t-423 158t-160 414zM481 1733q0 89 60.5 146.5t152.5 57.5q96 0 156.5 -57t60.5 -145q0 -89 -60.5 -148t-154.5 -59q-93 0 -154 58.5t-61 146.5zM625 1733 q0 -33 19 -52.5t52 -19.5q34 0 53 20t19 54q0 31 -20 51t-54 20q-32 0 -50.5 -20t-18.5 -53z" />
<glyph unicode="&#x16f;" d="M199 360v721h317v-622q0 -85 47.5 -138t126.5 -53q83 0 135 59.5t52 147.5v606h317v-1081h-301v119h-16q-36 -61 -112 -103.5t-179 -42.5q-176 0 -281.5 108t-105.5 279zM483 1370q0 89 60.5 147t152.5 58q96 0 156.5 -57.5t60.5 -145.5q0 -89 -60.5 -148t-154.5 -59 q-93 0 -154 58.5t-61 146.5zM627 1370q0 -33 19 -52.5t52 -19.5q34 0 53 20t19 54q0 32 -20 52t-54 20q-32 0 -50.5 -20.5t-18.5 -53.5z" />
<glyph unicode="&#x170;" d="M113 545v889h325v-887q0 -126 66 -197t192 -71t193 71t67 199v885h324v-887q0 -257 -160.5 -415.5t-423.5 -158.5t-423 158t-160 414zM408 1597l79 318h297l-170 -318h-206zM786 1597l82 318h297l-170 -318h-209z" />
<glyph unicode="&#x171;" d="M199 360v721h317v-622q0 -85 47.5 -138t126.5 -53q83 0 135 59.5t52 147.5v606h317v-1081h-301v119h-16q-36 -61 -112 -103.5t-179 -42.5q-176 0 -281.5 108t-105.5 279zM410 1235l79 317h297l-170 -317h-206zM788 1235l82 317h297l-170 -317h-209z" />
<glyph unicode="&#x172;" d="M113 545v889h325v-887q0 -126 66 -197t192 -71t193 71t67 199v885h324v-887q0 -213 -111.5 -360t-304.5 -195l-73 -92q-33 -42 -33 -68q0 -25 16.5 -38t44.5 -13h51v-184h-163q-82 0 -137.5 43.5t-55.5 121.5q0 81 72 166l41 49q-235 22 -374.5 176t-139.5 392z" />
<glyph unicode="&#x173;" d="M199 360v721h317v-622q0 -85 47.5 -138t126.5 -53q83 0 135 59.5t52 147.5v606h317v-1081l-80 -100q-35 -44 -35 -68q0 -25 17 -38t45 -13h53v-184h-166q-82 0 -136 43t-54 122q0 80 69 166l60 72h-74v119h-16q-36 -61 -112 -103.5t-179 -42.5q-176 0 -281.5 108 t-105.5 279z" />
<glyph unicode="&#x174;" d="M53 1434h281l106 -932h17l106 932h266l109 -932h16l107 932h278l-204 -1434h-306l-124 969h-17l-123 -969h-307zM350 1597l215 310h266l216 -310h-211l-129 107h-17l-129 -107h-211z" />
<glyph unicode="&#x175;" d="M86 1081h281l98 -665h16l111 665h209l110 -665h17l98 665h281l-207 -1081h-264l-134 672h-12l-133 -672h-264zM350 1235l215 309h266l216 -309h-211l-129 106h-17l-129 -106h-211z" />
<glyph unicode="&#x176;" d="M55 1434h355l276 -537h16l279 537h356l-483 -877l4 -272h293v-285h-909v285h303v270zM356 1597l215 310h267l215 -310h-211l-129 107h-17l-129 -107h-211z" />
<glyph unicode="&#x177;" d="M123 1081h332l237 -686h17l225 686h336l-459 -1237q-58 -156 -159 -235.5t-265 -79.5h-143v281h125q117 0 161 118l21 52zM350 1235l215 309h266l216 -309h-211l-129 106h-17l-129 -106h-211z" />
<glyph unicode="&#x178;" d="M55 1434h355l276 -537h16l279 537h356l-483 -877l4 -272h293v-285h-909v285h303v270zM348 1749q0 63 43.5 107.5t106.5 44.5q67 0 108 -43.5t41 -108.5q0 -67 -40.5 -109.5t-108.5 -42.5q-64 0 -107 43.5t-43 108.5zM754 1749q0 67 40.5 109.5t108.5 42.5 q63 0 106.5 -44.5t43.5 -107.5q0 -65 -43.5 -108.5t-106.5 -43.5q-68 0 -108.5 42.5t-40.5 109.5z" />
<glyph unicode="&#x179;" d="M139 0v283l686 858v16h-661v277h1075v-281l-688 -858v-16h692v-279h-1104zM559 1597l100 312h304l-189 -312h-215z" />
<glyph unicode="&#x17a;" d="M248 0v281l467 522v16h-451v262h862v-262l-467 -532v-17h478v-270h-889zM592 1235l100 311h303l-188 -311h-215z" />
<glyph unicode="&#x17b;" d="M139 0v283l686 858v16h-661v277h1075v-281l-688 -858v-16h692v-279h-1104zM502 1737q0 75 49 123.5t131 48.5q81 0 130.5 -48.5t49.5 -123.5q0 -76 -49.5 -124t-130.5 -48q-82 0 -131 48t-49 124z" />
<glyph unicode="&#x17c;" d="M248 0v281l467 522v16h-451v262h862v-262l-467 -532v-17h478v-270h-889zM537 1374q0 75 49 123.5t131 48.5q81 0 130.5 -48.5t49.5 -123.5q0 -76 -49.5 -124t-130.5 -48q-82 0 -131 48t-49 124z" />
<glyph unicode="&#x17d;" d="M139 0v283l686 858v16h-661v277h1075v-281l-688 -858v-16h692v-279h-1104zM334 1907h211l129 -107h16l129 107h211l-215 -310h-266z" />
<glyph unicode="&#x17e;" d="M248 0v281l467 522v16h-451v262h862v-262l-467 -532v-17h478v-270h-889zM367 1544h211l129 -106h16l129 106h211l-215 -309h-266z" />
<glyph unicode="&#x192;" d="M242 666v249h250l49 273q32 168 150 258t292 90h170l-33 -266h-104q-145 0 -174 -146l-39 -209h250v-249h-297l-199 -1061h-307l194 1061h-202z" />
<glyph unicode="&#x1cd;" d="M41 0l444 1434h416l451 -1434h-346l-72 254h-490l-71 -254h-332zM354 1907h211l129 -107h17l129 107h211l-215 -310h-267zM526 543h326l-154 538h-18z" />
<glyph unicode="&#x1ce;" d="M131 535q0 255 137 414t355 159q113 0 190.5 -46.5t114.5 -103.5h16v123h318v-1081h-314v123h-16q-16 -23 -37.5 -45t-57.5 -47.5t-89.5 -41.5t-116.5 -16q-224 0 -362 154t-138 408zM383 1544h211l129 -106h16l129 106h211l-215 -309h-266zM453 541q0 -126 68.5 -203.5 t180.5 -77.5t180 79.5t68 201.5q0 127 -70 203.5t-180 76.5t-178.5 -77.5t-68.5 -202.5z" />
<glyph unicode="&#x1cf;" d="M166 0v276h364v881h-364v277h1061v-277h-373v-881h373v-276h-1061zM354 1907h211l129 -107h17l129 107h211l-215 -310h-267z" />
<glyph unicode="&#x1d0;" d="M190 0v248h355v586h-316v247h633v-833h330v-248h-1002zM352 1544h211l129 -106h17l129 106h211l-215 -309h-267z" />
<glyph unicode="&#x1d1;" d="M147 489v455q0 224 152 370t397 146t397 -146t152 -370v-455q0 -224 -152 -370t-397 -146t-397 146t-152 370zM348 1907h211l129 -107h17l129 107h210l-215 -310h-266zM471 506q0 -92 60.5 -156.5t164.5 -64.5t165 64.5t61 156.5v422q0 91 -61 156t-165 65t-164.5 -65 t-60.5 -156v-422z" />
<glyph unicode="&#x1d2;" d="M113 541q0 119 42.5 223t117.5 180t184.5 120t238.5 44q128 0 237.5 -44t184.5 -120t117.5 -180t42.5 -223t-42.5 -223.5t-118 -180.5t-185 -120t-236.5 -44q-170 0 -304 75.5t-206.5 204.5t-72.5 288zM350 1544h211l129 -106h17l129 106h211l-216 -309h-266zM434 541 q0 -124 74 -202.5t188 -78.5q113 0 186.5 79t73.5 202t-73.5 201.5t-186.5 78.5q-114 0 -188 -78.5t-74 -201.5z" />
<glyph unicode="&#x1e6;" d="M147 489v455q0 224 152 370t397 146q244 0 395 -138t154 -370h-323q-5 85 -65 141t-161 56q-104 0 -164.5 -65t-60.5 -156v-434q0 -94 60.5 -159t164.5 -65q104 1 164 65.5t60 156.5v47h-269v243h592v-295q0 -228 -152 -371t-395 -143q-245 0 -397 146t-152 370z M348 1907h211l129 -107h17l129 107h210l-215 -310h-266z" />
<glyph unicode="&#x1e7;" d="M133 547q0 255 137.5 408t350.5 153q117 0 196 -48t113 -102h16v123h316v-1069q0 -108 -34.5 -199.5t-102 -161.5t-177.5 -109.5t-252 -39.5q-121 0 -219 33t-159.5 89.5t-95.5 127.5t-38 150h289q13 -65 69 -104.5t154 -39.5q250 0 250 254v125h-16q-16 -24 -39 -46.5 t-59.5 -47.5t-90 -40t-114.5 -15q-141 0 -252.5 66.5t-176.5 194.5t-65 298zM360 1544h211l129 -106h17l129 106h211l-215 -309h-267zM455 547q0 -125 68 -199t179 -74q113 0 180.5 76t67.5 197q0 127 -68.5 200.5t-179.5 73.5t-179 -75t-68 -199z" />
<glyph unicode="&#x218;" d="M135 467h311q3 -87 72 -142t187 -55q101 0 158 37.5t57 104.5q0 42 -25.5 71.5t-68.5 46t-99 29.5t-118 26.5t-124 31.5t-118 50t-99 77t-68.5 118.5t-25.5 167.5q0 186 137.5 308t376.5 122q232 0 378 -117.5t155 -338.5h-322q-3 76 -57.5 121.5t-153.5 45.5 q-91 0 -141.5 -37t-50.5 -96q0 -40 26 -68t70 -44t101 -28t120.5 -25t126.5 -30.5t120 -49.5t101 -76t70 -116t26 -165q0 -205 -149.5 -334t-411.5 -129q-260 0 -411.5 135.5t-149.5 358.5zM547 -469l33 360h254l-93 -360h-194z" />
<glyph unicode="&#x219;" d="M227 332h289q6 -56 51.5 -85.5t124.5 -29.5t123.5 27t44.5 73q0 39 -34 61t-87.5 32t-119 18t-131 27t-119 51t-87.5 97.5t-34 160.5q0 145 118 244.5t326 99.5q193 0 314.5 -89.5t130.5 -254.5h-275q-8 51 -51 80.5t-119 29.5q-72 0 -114.5 -26.5t-42.5 -69.5 q0 -31 27 -50t71.5 -26t101 -15.5t115.5 -16.5t115.5 -31.5t101 -57.5t71.5 -97.5t27 -149.5q0 -161 -125 -261t-350 -100q-226 0 -342 95t-121 264zM547 -469l33 360h254l-93 -360h-194z" />
<glyph unicode="&#x21a;" d="M125 1153v281h1143v-281h-410v-1153h-326v1153h-407zM532 -469l33 360h254l-92 -360h-195z" />
<glyph unicode="&#x21b;" d="M182 834v245h242q41 0 64.5 27t23.5 70v198h301v-293h397v-247h-397v-443q0 -61 34.5 -95t102.5 -34h244v-262h-322q-177 0 -276.5 98.5t-99.5 276.5v459h-314zM684 -469l33 360h254l-92 -360h-195z" />
<glyph unicode="&#x237;" d="M301 -190h293q70 0 109.5 39t39.5 108v877h-401v247h719v-1126q0 -197 -111 -311.5t-295 -114.5h-354v281z" />
<glyph unicode="&#x2c6;" d="M348 1235l215 309h266l215 -309h-210l-129 106h-17l-129 -106h-211z" />
<glyph unicode="&#x2c7;" d="M348 1544h211l129 -106h17l129 106h210l-215 -309h-266z" />
<glyph unicode="&#x2d8;" d="M397 1532h189q0 -51 28 -81t82 -30q51 0 80 31.5t29 79.5h188q0 -143 -78 -222t-219 -79q-142 0 -220.5 79t-78.5 222z" />
<glyph unicode="&#x2d9;" d="M516 1374q0 75 49 123.5t131 48.5q81 0 131 -49t50 -123q0 -76 -50 -124t-131 -48q-82 0 -131 48t-49 124z" />
<glyph unicode="&#x2da;" d="M481 1370q0 89 60.5 147t152.5 58q96 0 156.5 -57.5t60.5 -145.5q0 -89 -60.5 -148t-154.5 -59q-93 0 -154 58.5t-61 146.5zM625 1370q0 -33 19 -52.5t52 -19.5q34 0 53 20t19 54q0 32 -20 52t-54 20q-32 0 -50.5 -20.5t-18.5 -53.5z" />
<glyph unicode="&#x2db;" d="M518 -238q0 81 72 166l57 72h227l-79 -100q-33 -42 -33 -68q0 -51 61 -51h51v-184h-165q-81 0 -136 43.5t-55 121.5z" />
<glyph unicode="&#x2dc;" d="M328 1227q0 150 64.5 224.5t168.5 74.5q52 0 98 -21.5t81.5 -43t62.5 -21.5q65 0 71 86h193q0 -146 -64.5 -223.5t-168.5 -77.5q-49 0 -93 21.5t-81.5 43t-69.5 21.5q-66 0 -72 -84h-190z" />
<glyph unicode="&#x2dd;" d="M317 1235l80 317h297l-170 -317h-207zM696 1235l82 317h297l-170 -317h-209z" />
<glyph unicode="&#x326;" horiz-adv-x="0" d="M-840 -469l33 360h254l-92 -360h-195z" />
<glyph unicode="&#x1e80;" d="M53 1434h281l106 -932h17l106 932h266l109 -932h16l107 932h278l-204 -1434h-306l-124 969h-17l-123 -969h-307zM426 1909h303l100 -312h-215z" />
<glyph unicode="&#x1e81;" d="M86 1081h281l98 -665h16l111 665h209l110 -665h17l98 665h281l-207 -1081h-264l-134 672h-12l-133 -672h-264zM426 1546h303l100 -311h-215z" />
<glyph unicode="&#x1e82;" d="M53 1434h281l106 -932h17l106 932h266l109 -932h16l107 932h278l-204 -1434h-306l-124 969h-17l-123 -969h-307zM573 1597l101 312h303l-189 -312h-215z" />
<glyph unicode="&#x1e83;" d="M86 1081h281l98 -665h16l111 665h209l110 -665h17l98 665h281l-207 -1081h-264l-134 672h-12l-133 -672h-264zM575 1235l101 311h303l-188 -311h-216z" />
<glyph unicode="&#x1e84;" d="M53 1434h281l106 -932h17l106 932h266l109 -932h16l107 932h278l-204 -1434h-306l-124 969h-17l-123 -969h-307zM342 1749q0 63 43.5 107.5t106.5 44.5q67 0 108 -43.5t41 -108.5q0 -67 -40.5 -109.5t-108.5 -42.5q-64 0 -107 43.5t-43 108.5zM748 1749q0 67 40.5 109.5 t108.5 42.5q63 0 106.5 -44.5t43.5 -107.5q0 -65 -43.5 -108.5t-106.5 -43.5q-68 0 -108.5 42.5t-40.5 109.5z" />
<glyph unicode="&#x1e85;" d="M86 1081h281l98 -665h16l111 665h209l110 -665h17l98 665h281l-207 -1081h-264l-134 672h-12l-133 -672h-264zM342 1386q0 63 43.5 107.5t106.5 44.5q67 0 108 -43.5t41 -108.5q0 -67 -40.5 -109t-108.5 -42q-64 0 -107 43t-43 108zM748 1386q0 67 40.5 109.5t108.5 42.5 q63 0 106.5 -44.5t43.5 -107.5q0 -65 -43 -108t-107 -43q-68 0 -108.5 42t-40.5 109z" />
<glyph unicode="&#x1e9e;" d="M86 0v991q0 90 32 169.5t92 141t154.5 97t210.5 35.5h601v-297l-261 -277v-20l29 -2q150 -11 257.5 -123t107.5 -289q0 -110 -55.5 -207.5t-156.5 -158t-223 -60.5h-358v281h305q63 0 106.5 42.5t43.5 104.5q0 63 -43.5 106.5t-106.5 43.5h-262v296l236 263v20h-177 q-98 0 -153 -56t-55 -143v-958h-324z" />
<glyph unicode="&#x1ebc;" d="M229 0v1434h914v-277h-590v-297h502v-276h-502v-305h610v-279h-934zM330 1589q0 150 64.5 224.5t168.5 74.5q52 0 98 -21.5t81.5 -43t62.5 -21.5q66 0 72 86h192q0 -146 -64.5 -223.5t-168.5 -77.5q-49 0 -93 21.5t-81.5 43t-69.5 21.5q-66 0 -72 -84h-190z" />
<glyph unicode="&#x1ebd;" d="M147 535q0 254 154 413.5t401 159.5q130 0 234.5 -45.5t171 -123.5t102 -179t35.5 -215v-92h-796q8 -104 78.5 -170t179.5 -66q90 0 152 37t87 92h287q-37 -172 -179 -272.5t-358 -100.5q-155 0 -280.5 72t-197 201t-71.5 289zM326 1227q0 150 64.5 224.5t168.5 74.5 q52 0 98 -21.5t81.5 -43t62.5 -21.5q65 0 71 86h193q0 -146 -65 -223.5t-169 -77.5q-39 0 -75.5 13.5t-59.5 29.5t-52.5 29.5t-55.5 13.5q-66 0 -72 -84h-190zM455 664h495q-9 88 -76.5 145t-171.5 57q-98 0 -167 -59.5t-80 -142.5z" />
<glyph unicode="&#x1ef2;" d="M55 1434h355l276 -537h16l279 537h356l-483 -877l4 -272h293v-285h-909v285h303v270zM432 1909h303l101 -312h-215z" />
<glyph unicode="&#x1ef3;" d="M123 1081h332l237 -686h17l225 686h336l-459 -1237q-58 -156 -159 -235.5t-265 -79.5h-143v281h125q117 0 161 118l21 52zM426 1546h303l100 -311h-215z" />
<glyph unicode="&#x2000;" horiz-adv-x="968" />
<glyph unicode="&#x2001;" horiz-adv-x="1937" />
<glyph unicode="&#x2002;" horiz-adv-x="968" />
<glyph unicode="&#x2003;" horiz-adv-x="1937" />
<glyph unicode="&#x2004;" horiz-adv-x="645" />
<glyph unicode="&#x2005;" horiz-adv-x="484" />
<glyph unicode="&#x2006;" horiz-adv-x="322" />
<glyph unicode="&#x2007;" horiz-adv-x="322" />
<glyph unicode="&#x2008;" horiz-adv-x="242" />
<glyph unicode="&#x2009;" horiz-adv-x="387" />
<glyph unicode="&#x200a;" horiz-adv-x="107" />
<glyph unicode="&#x2010;" d="M403 492v268h584v-268h-584z" />
<glyph unicode="&#x2011;" d="M403 492v268h584v-268h-584z" />
<glyph unicode="&#x2012;" d="M403 492v268h584v-268h-584z" />
<glyph unicode="&#x2013;" d="M131 494v266h1129v-266h-1129z" />
<glyph unicode="&#x2014;" d="M10 494v266h1372v-266h-1372z" />
<glyph unicode="&#x2018;" d="M522 897l121 537h227l-39 -537h-309z" />
<glyph unicode="&#x2019;" d="M522 897l39 537h309l-120 -537h-228z" />
<glyph unicode="&#x201a;" d="M522 -268l39 536h309l-120 -536h-228z" />
<glyph unicode="&#x201c;" d="M307 897l119 537h213l-23 -537h-309zM739 897l119 537h227l-36 -537h-310z" />
<glyph unicode="&#x201d;" d="M303 897l37 537h309l-119 -537h-227zM735 897l37 537h309l-118 -537h-228z" />
<glyph unicode="&#x201e;" d="M307 -268l37 536h309l-118 -536h-228zM739 -268l37 536h309l-118 -536h-228z" />
<glyph unicode="&#x2020;" d="M301 819v256h252v359h285v-359h256v-256h-256v-819h-285v819h-252z" />
<glyph unicode="&#x2021;" d="M301 307v256h252v307h-252v256h252v308h285v-308h256v-256h-256v-307h256v-256h-256v-307h-285v307h-252z" />
<glyph unicode="&#x2022;" d="M344 635q0 148 100.5 250t251.5 102t252 -102t101 -250t-101 -250t-252 -102t-251.5 102t-100.5 250z" />
<glyph unicode="&#x2026;" d="M39 143q0 72 51 121t123 49q77 0 125.5 -48.5t48.5 -121.5q0 -75 -48 -122.5t-126 -47.5q-73 0 -123.5 48t-50.5 122zM522 143q0 72 51 121t123 49q77 0 126.5 -48.5t49.5 -121.5q0 -75 -49 -122.5t-127 -47.5q-73 0 -123.5 48t-50.5 122zM1006 143q0 72 50 121t122 49 q77 0 126.5 -48.5t49.5 -121.5q0 -75 -49 -122.5t-127 -47.5q-73 0 -122.5 48t-49.5 122z" />
<glyph unicode="&#x202f;" horiz-adv-x="387" />
<glyph unicode="&#x2030;" d="M55 1020v209q0 100 73 165.5t181 65.5t181 -65.5t73 -165.5v-209q0 -100 -73 -166t-181 -66t-181 66t-73 166zM152 434l956 848l106 -123l-956 -848zM231 1024q0 -34 22 -56t56 -22q35 0 57.5 22t22.5 56v199q0 34 -22.5 55.5t-57.5 21.5q-34 0 -56 -21.5t-22 -55.5v-199 zM635 186v248q0 98 57.5 155.5t145.5 57.5q45 0 84 -19.5t59 -54.5h12q20 34 59 54t83 20q89 0 145.5 -57t56.5 -156v-248q0 -99 -56.5 -156t-145.5 -57q-44 0 -83 20t-59 54h-12q-20 -35 -59 -54.5t-84 -19.5q-88 0 -145.5 57.5t-57.5 155.5zM786 182q0 -34 16.5 -52.5 t45.5 -18.5t46 18.5t17 52.5v256q0 34 -17 53t-46 19q-28 0 -45 -18.5t-17 -53.5v-256zM1061 182q0 -34 17 -52.5t46 -18.5t46.5 18.5t17.5 52.5v256q0 34 -17.5 53t-46.5 19t-46 -19t-17 -53v-256z" />
<glyph unicode="&#x2039;" d="M479 528v140l434 350v-275l-176 -139v-12l176 -139v-275z" />
<glyph unicode="&#x203a;" d="M479 178v275l176 139v12l-176 139v275l434 -350v-140z" />
<glyph unicode="&#x2044;" d="M160 -84l805 1602h266l-805 -1602h-266z" />
<glyph unicode="&#x205f;" horiz-adv-x="484" />
<glyph unicode="&#x20ac;" d="M147 496v174h93v88h-93v174h93v51q0 111 42.5 203t113 150.5t160 91t185.5 32.5q224 0 363 -136t139 -361h-319q0 88 -50 140t-133 52q-80 0 -130 -51.5t-50 -140.5v-31h252v-174h-252v-88h252v-174h-252v-25q0 -89 50 -140.5t130 -51.5t131.5 52t51.5 138h319 q0 -223 -142 -359.5t-360 -136.5q-96 0 -185.5 32.5t-160 91.5t-113 151t-42.5 203v45h-93z" />
<glyph unicode="&#x2116;" d="M43 0v1434h287l200 -791h13v791h241v-1434h-299l-186 797h-12v-797h-244zM885 1063v192q0 87 64 146t163 59q98 0 162.5 -59t64.5 -146v-192q0 -87 -64.5 -146t-162.5 -59q-99 0 -163 59t-64 146zM895 555v180h434v-180h-434zM1040 1077q0 -30 19.5 -50.5t52.5 -20.5 t52.5 20.5t19.5 50.5v164q0 30 -19.5 51t-52.5 21t-52.5 -21t-19.5 -51v-164z" />
<glyph unicode="&#x2122;" d="M39 1255v179h532v-179h-170v-559h-192v559h-170zM686 696v738h221l103 -392h12l102 392h219v-738h-184v338h-10l-82 -338h-104l-80 338h-11v-338h-186z" />
<glyph unicode="&#x2190;" d="M0 676v80l621 622l149 -147l-391 -391v-13h1014v-221h-1014v-12l391 -391l-149 -148z" />
<glyph unicode="&#x2191;" d="M35 793l624 620h78l623 -620l-148 -150l-391 391h-12v-1014h-223v1014h-13l-391 -391z" />
<glyph unicode="&#x2192;" d="M0 606v221h1014v13l-391 391l149 147l621 -622v-80l-621 -621l-149 148l391 391v12h-1014z" />
<glyph unicode="&#x2193;" d="M35 641l147 150l391 -392h13v1014h223v-1014h12l391 392l148 -150l-623 -621h-78z" />
<glyph unicode="&#x2196;" d="M150 498v878l55 56l880 2v-209h-553l-10 -8l719 -717l-158 -158l-716 717l-11 -8l2 -553h-208z" />
<glyph unicode="&#x2197;" d="M137 500l717 717l-8 8h-553v209l881 -2l55 -56v-878h-209v553l-8 8l-719 -717z" />
<glyph unicode="&#x2198;" d="M137 934l156 158l719 -717l8 8v553h209v-879l-55 -55l-881 -2v209h553l8 8z" />
<glyph unicode="&#x2199;" d="M150 57v879h208l-2 -553l11 -8l716 717l158 -158l-719 -717l10 -8h553v-209l-880 2z" />
<glyph unicode="&#x2212;" d="M195 514v246h1003v-246h-1003z" />
<glyph unicode="&#x25fc;" horiz-adv-x="1085" d="M0 0v1085h1085v-1085h-1085z" />
<glyph d="M195 0v248h356v586h-318v247h635v-833h330v-248h-1003zM541 1374q0 75 49 123.5t129 48.5q82 0 131 -48.5t49 -123.5q0 -76 -49 -124t-131 -48q-81 0 -129.5 48t-48.5 124z" />
<glyph d="M0 334v221h1018l117 115v18l-115 113h-1020v221h795l-172 170l149 147l621 -622v-80l-621 -621l-149 148l172 170h-795z" />
<glyph d="M0 637v80l621 622l149 -147l-172 -170h795v-221h-1020l-115 -113v-18l117 -115h1018v-221h-795l172 -170l-149 -148z" />
<glyph d="M561 1018v416h268l-49 -416h-219z" />
</font>
</defs>
</svg>
