<?xml version="1.0" standalone="no"?>
<!DOCTYPE svg PUBLIC "-//W3C//DTD SVG 1.1//EN" "http://www.w3.org/Graphics/SVG/1.1/DTD/svg11.dtd" >
<svg xmlns="http://www.w3.org/2000/svg" xmlns:xlink="http://www.w3.org/1999/xlink" version="1.1">
<metadata></metadata>
<defs>
<font id="basier_circlesemibold_italic" horiz-adv-x="1183" >
<font-face units-per-em="2048" ascent="1638" descent="-410" />
<missing-glyph horiz-adv-x="585" />
<glyph unicode=" "  horiz-adv-x="585" />
<glyph unicode="&#x09;" horiz-adv-x="585" />
<glyph unicode="&#xa0;" horiz-adv-x="585" />
<glyph unicode="!" horiz-adv-x="528" d="M123 111q0 90 55 146t152 56q65 0 100 -34.5t35 -94.5q0 -89 -56 -145.5t-149 -56.5q-67 0 -102 34t-35 95zM254 455l117 782l39 197h295l-39 -197l-213 -782h-199z" />
<glyph unicode="&#x22;" horiz-adv-x="880" d="M328 872l16 316l49 246h279l-49 -246l-113 -316h-182zM725 872l16 316l50 246h278l-49 -246l-111 -316h-184z" />
<glyph unicode="#" horiz-adv-x="1431" d="M174 350l47 238h230l92 248h-168l47 237h209l135 361h250l-135 -361h215l135 361h250l-135 -361h202l-49 -237h-242l-92 -248h183l-50 -238h-221l-131 -350h-250l131 350h-215l-131 -350h-250l131 350h-188zM700 588h215l93 248h-215z" />
<glyph unicode="$" horiz-adv-x="1294" d="M156 473h284q-24 -197 166 -233l78 383l-25 6q-168 38 -260 119.5t-92 224.5q0 200 143.5 328.5t401.5 148.5l35 168h182l-35 -172q199 -27 301.5 -149t69.5 -300h-285q8 71 -25 122.5t-112 70.5l-70 -334l33 -8q180 -40 277.5 -123.5t97.5 -232.5q0 -101 -34 -187 t-103 -155t-183 -112t-264 -54l-35 -168h-182l35 170q-228 21 -329 150t-70 337zM604 1022q0 -90 135 -127l62 299q-97 -15 -147 -61t-50 -111zM788 238q118 15 177 67t59 133q0 112 -164 146h-2z" />
<glyph unicode="%" horiz-adv-x="1734" d="M260 0l4 20l1258 1414h229l-4 -21l-1253 -1413h-234zM309 997q0 196 107 328.5t293 132.5q130 0 206 -78.5t76 -205.5t-44.5 -230t-136 -167t-216.5 -64q-132 0 -208.5 78t-76.5 206zM506 1022q0 -129 106 -129q90 0 137.5 71t47.5 185q0 129 -107 129q-90 0 -137 -71 t-47 -185zM1034 266q0 94 27 177.5t76.5 146.5t126.5 100t170 37q130 0 207 -79.5t77 -205.5q0 -196 -106.5 -328t-292.5 -132q-131 0 -208 78.5t-77 205.5zM1231 291q0 -129 106 -129q90 0 137.5 71t47.5 185q0 129 -107 129q-90 0 -137 -71t-47 -185z" />
<glyph unicode="&#x26;" horiz-adv-x="1497" d="M174 332q0 81 24.5 148t74.5 121t110 96t147 87q-88 128 -88 248q0 84 30.5 159t88.5 133.5t150.5 93t208.5 34.5h4q162 0 253 -83.5t91 -211.5t-86.5 -230t-274.5 -202l176 -246q125 141 228 336h278l-4 -20q-175 -322 -358 -514l186 -261l-4 -20h-330l-71 100 q-191 -118 -422 -118q-112 0 -204.5 40.5t-150 121.5t-57.5 188zM463 369q0 -58 48 -99t120 -41q115 0 239 70l-211 301q-113 -60 -154.5 -110t-41.5 -121zM711 1063q0 -67 63 -152l4 -4q125 63 168 109.5t43 103.5q0 45 -29.5 73t-82.5 28h-5q-68 -1 -114.5 -47.5 t-46.5 -110.5z" />
<glyph unicode="'" horiz-adv-x="483" d="M328 872l16 316l49 246h279l-49 -246l-113 -316h-182z" />
<glyph unicode="(" horiz-adv-x="747" d="M159.5 312.5q0.5 135.5 28.5 293.5q32 153 90.5 298t134.5 264.5t157 217t171 179.5h215l-4 -21q-168 -174 -308 -415t-198 -523q-29 -147 -31 -289.5t21 -261t56 -212.5t77 -175l-4 -20h-211q-56 81 -97 179t-69.5 224t-28 261.5z" />
<glyph unicode=")" horiz-adv-x="747" d="M39 -352l4 20q78 80 150 175t142.5 213t126.5 260.5t85 289.5q30 147 32 289.5t-20.5 261t-55.5 212.5t-77 175l4 21h211q44 -65 79 -138t63 -167t41.5 -193t9.5 -218.5t-29 -242.5q-39 -195 -130 -383.5t-196.5 -326t-226.5 -248.5h-213z" />
<glyph unicode="*" horiz-adv-x="995" d="M330 1024l258 70l2 8l-230 72l138 190l170 -145l8 6l20 250h215l-80 -250l9 -6l229 145l59 -190l-260 -72l-2 -8l230 -70l-135 -190l-173 149l-8 -4l-20 -256h-213l82 256l-8 4l-232 -149z" />
<glyph unicode="+" horiz-adv-x="1003" d="M117 524l47 234h371l79 395h252l-80 -395h363l-49 -234h-363l-80 -395h-251l79 395h-368z" />
<glyph unicode="," horiz-adv-x="487" d="M-16 -289l4 21l164 493h305l-4 -20l-256 -494h-213z" />
<glyph unicode="-" horiz-adv-x="954" d="M262 477l49 246h627l-49 -246h-627z" />
<glyph unicode="." horiz-adv-x="505" d="M113 111q0 90 53.5 146t150.5 56q65 0 100.5 -34.5t35.5 -94.5q0 -89 -55.5 -145.5t-149.5 -56.5q-66 0 -100.5 34t-34.5 95z" />
<glyph unicode="/" horiz-adv-x="897" d="M-25 -272l5 20l933 1761h261l-5 -20l-936 -1761h-258z" />
<glyph unicode="0" horiz-adv-x="1286" d="M215 449q0 156 29 302t89 274.5t144.5 224t203 151t257.5 55.5q216 0 320 -123.5t104 -343.5q0 -156 -29 -302t-89 -274.5t-144.5 -224t-203 -151t-257.5 -55.5q-216 0 -319 123t-105 344zM494 463q0 -119 46.5 -178.5t149.5 -59.5q100 1 179.5 71.5t124.5 183.5 t68 240.5t21 256.5q0 117 -46 176t-148 59q-81 -1 -148.5 -47.5t-112 -122t-75.5 -175t-44.5 -201t-14.5 -203.5z" />
<glyph unicode="1" horiz-adv-x="870" d="M262 901l57 268l408 265h283l-291 -1434h-277l234 1151h-8l-385 -250h-21z" />
<glyph unicode="2" horiz-adv-x="1165" d="M94 0l45 223l572 477q151 127 214.5 208.5t63.5 162.5q0 64 -45 103.5t-123 39.5q-99 0 -169.5 -56.5t-92.5 -168.5h-268q37 220 188 344.5t381 124.5q188 0 302 -98.5t114 -251.5q0 -131 -76 -245.5t-266 -270.5l-410 -336l-2 -8h604l-51 -248h-981z" />
<glyph unicode="3" horiz-adv-x="1234" d="M174 434h275q-4 -30 -4.5 -60t13.5 -57.5t37 -48t65.5 -33t98.5 -12.5q138 0 211.5 68.5t73.5 171.5q0 76 -55 120t-168 44h-125l49 239h121q123 0 191.5 58.5t68.5 152.5q0 61 -45.5 100.5t-132.5 39.5q-107 0 -173 -55.5t-87 -151.5h-277q41 210 197.5 329t394.5 119 q181 0 297.5 -91.5t116.5 -236.5q0 -132 -74 -227.5t-196 -136.5l-3 -8q85 -28 136 -102t51 -171q0 -75 -21.5 -146t-69 -136.5t-116.5 -114t-170 -77.5t-223 -29q-115 0 -208 29t-157 84.5t-89 142.5t-3 196z" />
<glyph unicode="4" horiz-adv-x="1204" d="M109 274l55 269l747 891h353l-187 -916h178l-49 -244h-178l-55 -274h-277l56 274h-643zM434 518h367l121 586h-9l-479 -578v-8z" />
<glyph unicode="5" horiz-adv-x="1216" d="M176 420h277q-8 -82 40 -138.5t160 -56.5q74 0 133.5 28.5t94.5 73.5t53 97t18 104q0 83 -48.5 139t-147.5 56q-152 0 -248 -111h-268l221 822h860l-47 -246h-635l-92 -326h8q118 88 289 88q182 0 287.5 -106.5t105.5 -274.5q0 -117 -40.5 -222t-116.5 -187t-196.5 -130 t-269.5 -48q-150 0 -259 59.5t-155.5 159.5t-23.5 219z" />
<glyph unicode="6" horiz-adv-x="1259" d="M213 485q0 146 29 285t90.5 264t148 219.5t209.5 149.5t268 55q141 0 237.5 -55t137 -144t31.5 -200h-266q3 67 -47 110t-144 43q-146 0 -256.5 -117.5t-138.5 -303.5h8q141 145 348 145q180 0 290 -106.5t108 -264.5q-2 -162 -75 -294t-211.5 -210.5t-317.5 -78.5 q-215 0 -332 136t-117 367zM481 420q0 -89 54.5 -142t150.5 -53q127 0 214 86.5t89 202.5q0 91 -51 143t-154 52q-131 0 -217 -83t-86 -206z" />
<glyph unicode="7" horiz-adv-x="1107" d="M188 0l5 20q237 564 823 1156l2 8h-729l51 250h1010l-52 -260q-561 -576 -806 -1174h-304z" />
<glyph unicode="8" horiz-adv-x="1232" d="M164 336q0 149 78.5 257t228.5 165l2 8q-62 35 -95.5 99t-33.5 147q0 131 74.5 233.5t204 157.5t290.5 55q191 0 303.5 -85.5t112.5 -231.5q0 -126 -66 -224t-192 -153l-2 -8q83 -36 125.5 -106.5t42.5 -166.5q0 -229 -169 -364t-441 -137q-210 2 -336.5 95t-126.5 259z M451 389q0 -78 55 -122.5t156 -45.5q134 1 213 68t79 178q0 76 -53.5 121.5t-155.5 46.5q-136 -1 -215 -70t-79 -176zM618 1016q0 -67 49 -104.5t128 -39.5q107 2 176 57t69 150q0 66 -48 103t-128 37q-107 0 -176.5 -54.5t-69.5 -148.5z" />
<glyph unicode="9" horiz-adv-x="1259" d="M188 381h265q-2 -67 48.5 -110.5t143.5 -43.5q145 0 256 117.5t139 304.5h-8q-141 -145 -348 -145q-183 0 -290 108t-107 269q2 161 75.5 291.5t211.5 208t317 77.5q215 0 331.5 -136.5t116.5 -367.5q0 -146 -29 -285t-90.5 -264t-148 -219t-209.5 -149t-268 -55 q-141 0 -237.5 55t-137 144t-31.5 200zM563 926q0 -91 51 -143t154 -52q131 0 217 83t86 206q0 89 -54.5 141.5t-150.5 52.5q-127 0 -214 -86t-89 -202z" />
<glyph unicode=":" horiz-adv-x="487" d="M113 111q0 90 53.5 146t150.5 56q65 0 100.5 -34.5t35.5 -94.5q0 -89 -55.5 -145.5t-149.5 -56.5q-66 0 -100.5 34t-34.5 95zM248 780q0 90 54.5 147.5t150.5 57.5q66 0 101.5 -35t35.5 -96q0 -89 -55.5 -146t-149.5 -57q-67 0 -102 34t-35 95z" />
<glyph unicode=";" horiz-adv-x="487" d="M-16 -289l4 21l164 493h305l-4 -20l-256 -494h-213zM248 780q0 90 54.5 147.5t150.5 57.5q66 0 101.5 -35t35.5 -96q0 -89 -55.5 -146t-149.5 -57q-67 0 -102 34t-35 95z" />
<glyph unicode="&#x3c;" horiz-adv-x="1064" d="M170 477l45 215l1020 502l-59 -276l-699 -340l-2 -9l563 -338l-51 -256z" />
<glyph unicode="=" horiz-adv-x="1003" d="M92 401l43 211l47 236h983l-45 -236h-2l-43 -211h-983z" />
<glyph unicode="&#x3e;" horiz-adv-x="1064" d="M70 -25l57 277l700 340l2 8l-565 334l51 260l818 -500l-43 -217z" />
<glyph unicode="?" horiz-adv-x="1112" d="M285 1010q26 196 173 319t396 123q188 0 295.5 -91.5t107.5 -236.5q0 -224 -225 -372l-102 -68q-87 -59 -123 -97.5t-49 -101.5l-6 -32h-267l7 36q11 66 31 114.5t55 88.5t68 66.5t93 68.5l76 52q85 58 118.5 97.5t33.5 102.5q0 56 -41 93.5t-123 37.5q-100 0 -164 -50.5 t-84 -149.5h-270zM393 111q0 90 55 146t152 56q65 0 100 -34.5t35 -94.5q0 -89 -56 -145.5t-149 -56.5q-67 0 -102 34t-35 95z" />
<glyph unicode="@" horiz-adv-x="1830" d="M254 623q0 241 117 431.5t316 294t441 103.5q165 0 307.5 -50.5t246.5 -142.5t163.5 -227.5t59.5 -298.5q0 -266 -104 -403t-290 -137q-87 0 -147 37.5t-74 95.5h-8q-90 -127 -260 -127q-153 0 -244.5 112t-91.5 291t94 296.5t252 117.5q69 0 132.5 -34t92.5 -89h9 l14 100h182l-18 -510q-2 -54 19.5 -82t76.5 -28q85 0 130.5 96.5t45.5 263.5q0 240 -160.5 389.5t-433.5 149.5q-148 0 -274 -52.5t-212 -142.5t-134.5 -211t-48.5 -256q0 -199 84 -343.5t231.5 -217t343.5 -72.5q251 0 420 72v-178q-170 -76 -422 -76q-183 0 -338 53 t-271 154.5t-181.5 260.5t-65.5 360zM893 600q0 -104 46 -159.5t124 -55.5q94 0 142 65t48 173q0 103 -51.5 157t-126.5 54q-84 0 -133 -62.5t-49 -171.5z" />
<glyph unicode="A" horiz-adv-x="1425" d="M33 0l4 20l786 1414h359l217 -1414l-4 -20h-301l-37 301h-557l-158 -301h-309zM631 549h395l-72 598h-8z" />
<glyph unicode="B" horiz-adv-x="1363" d="M162 0l291 1434h653q166 0 263 -81t97 -223q0 -242 -219 -362l-2 -8q146 -71 146 -262q0 -227 -152.5 -362.5t-400.5 -135.5h-676zM489 250h357q124 0 190 63.5t66 157.5q0 66 -45 108t-135 42h-357zM614 862h330q110 0 168.5 54.5t58.5 144.5q0 59 -38 92t-115 33h-338z " />
<glyph unicode="C" horiz-adv-x="1452" d="M203 551q0 145 34 278t103.5 247t168 197.5t235 131t296.5 47.5q132 0 238 -42t172 -115q64 -73 94 -172q20 -66 20 -137q0 -36 -5 -75h-287q2 20 2 39q0 98 -57 166q-68 80 -218 80q-99 0 -182.5 -32t-142.5 -89t-100 -134t-60.5 -167t-19.5 -190q0 -165 77.5 -256.5 t233.5 -91.5q146 0 244.5 75t142.5 197h285q-33 -112 -96.5 -207t-152.5 -166.5t-209 -112t-259 -40.5q-135 0 -242 43t-175.5 119.5t-104 180t-35.5 226.5z" />
<glyph unicode="D" horiz-adv-x="1441" d="M162 0l291 1434h483q270 0 431 -158.5t161 -419.5q0 -139 -35.5 -266t-107.5 -234.5t-174.5 -187t-245 -124t-310.5 -44.5h-493zM477 250h205q129 0 235 45.5t175 124.5t107 184t38 225q0 169 -94 261t-271 92h-204z" />
<glyph unicode="E" horiz-adv-x="1249" d="M162 0l291 1434h993l-49 -252h-715l-64 -318h652l-53 -250h-652l-73 -364h714l-51 -250h-993z" />
<glyph unicode="F" horiz-adv-x="1243" d="M162 0l291 1434h987l-49 -252h-709l-72 -355h643l-53 -252h-641l-117 -575h-280z" />
<glyph unicode="G" horiz-adv-x="1466" d="M203 549q0 145 34 278.5t103 247t166.5 198t232 132t291.5 47.5q264 0 411 -144q129 -127 129 -309q0 -26 -3 -53h-287v9q0 104 -65 171q-68 70 -218 70q-122 0 -219.5 -50t-158.5 -135.5t-93 -195t-32 -233.5q0 -162 77 -254t232 -92q157 0 256 78.5t143 203.5h-301 l51 250h592l-31 -150q-59 -295 -255 -465.5t-492 -170.5q-136 0 -244 43t-177 119.5t-105.5 179.5t-36.5 225z" />
<glyph unicode="H" horiz-adv-x="1505" d="M162 0l291 1434h280l-115 -568h621l115 568h280l-291 -1434h-280l125 614h-621l-125 -614h-280z" />
<glyph unicode="I" horiz-adv-x="604" d="M162 0l291 1434h282l-291 -1434h-282z" />
<glyph unicode="J" horiz-adv-x="1112" d="M119 424h266q-6 -26 -6 -49q0 -52 29 -86q40 -49 137 -49q95 0 154 54t79 144l203 996h283l-203 -996q-42 -209 -184.5 -332.5t-382.5 -123.5q-145 0 -239.5 59.5t-127.5 158.5q-19 56 -19 121q0 49 11 103z" />
<glyph unicode="K" horiz-adv-x="1357" d="M162 0l291 1434h280l-119 -582l658 582h334l-4 -21l-764 -676l503 -717l-4 -20h-317l-449 639l-129 -639h-280z" />
<glyph unicode="L" horiz-adv-x="1134" d="M162 0l291 1434h280l-241 -1182h663l-51 -252h-942z" />
<glyph unicode="M" horiz-adv-x="1802" d="M162 0l291 1434h301l280 -719h8l572 719h317l-291 -1434h-270l201 989h-8l-602 -749h-21l-297 755h-8l-203 -995h-270z" />
<glyph unicode="N" horiz-adv-x="1521" d="M162 0l291 1434h311l399 -996h8l201 996h279l-291 -1434h-309l-404 989h-8l-201 -989h-276z" />
<glyph unicode="O" horiz-adv-x="1515" d="M203 553q0 132 33 260t102.5 244t168 203.5t238.5 139.5t304 52q138 0 245 -43t174 -120.5t101.5 -180.5t34.5 -227q0 -132 -35 -261t-106 -244t-170 -203t-237.5 -139.5t-297.5 -51.5q-139 0 -246 43.5t-174 121.5t-101 180.5t-34 225.5zM494 586q0 -163 78.5 -255.5 t234.5 -92.5q99 0 183.5 35t143 94t99.5 138t60.5 165.5t19.5 177.5q0 163 -78.5 255.5t-233.5 92.5q-100 0 -185 -35.5t-143.5 -95t-99.5 -138.5t-60 -165t-19 -176z" />
<glyph unicode="P" horiz-adv-x="1329" d="M162 0l291 1434h610q184 0 289.5 -105.5t105.5 -271.5q0 -155 -73.5 -284t-207 -205t-298.5 -76h-336l-101 -492h-280zM592 743h285q139 0 213.5 71.5t74.5 199.5q0 82 -51.5 126t-146.5 44h-285z" />
<glyph unicode="Q" horiz-adv-x="1515" d="M203 553q0 132 33 260t102.5 244t168 203.5t238.5 139.5t304 52q138 0 245 -43t174 -120.5t101.5 -180.5t34.5 -227q0 -212 -91 -411t-256 -327l134 -272l-5 -21h-282l-84 170q-122 -38 -262 -38q-139 0 -246 43.5t-174 121.5t-101 180.5t-34 225.5zM494 586 q0 -163 78.5 -255.5t234.5 -92.5q50 0 102 10l-127 262l4 20h281l76 -153q84 87 127 211.5t43 259.5q0 163 -78.5 255.5t-233.5 92.5q-100 0 -185 -35.5t-143.5 -95t-99.5 -138.5t-60 -165t-19 -176z" />
<glyph unicode="R" horiz-adv-x="1372" d="M162 0l291 1434h628q189 0 294.5 -105.5t105.5 -265.5q0 -183 -106 -320t-281 -190l247 -533l-4 -20h-321l-223 524h-246l-105 -524h-280zM600 774h330q120 0 189 74.5t69 173.5q0 71 -43 115.5t-127 44.5h-336z" />
<glyph unicode="S" horiz-adv-x="1294" d="M156 473h284q-3 -22 -3 -42q1 -89 55 -139q66 -61 200 -61q166 0 249 55.5t83 151.5q0 112 -164 146l-201 45q-168 38 -260 119.5t-92 224.5q0 217 166.5 348t462.5 131q242 0 374 -128q103 -99 104 -241q0 -41 -9 -86h-285q2 14 2 27q0 73 -48 120q-56 56 -187 56 q-139 0 -211 -49.5t-72 -128.5q0 -96 158 -133l184 -41q180 -40 277.5 -123.5t97.5 -232.5q0 -109 -39 -199.5t-118.5 -161t-212 -110t-306.5 -39.5q-274 0 -399 132q-98 103 -98 264q0 45 8 95z" />
<glyph unicode="T" horiz-adv-x="1212" d="M283 1180l51 254h1126l-49 -254h-424l-239 -1180h-283l240 1180h-422z" />
<glyph unicode="U" horiz-adv-x="1462" d="M250 303q-12 51 -12 110q0 64 14 136l180 885h281l-178 -881q-12 -48 -12 -92q-1 -17 1 -33q6 -58 30.5 -101t81 -68.5t140.5 -25.5q166 0 256 87.5t119 232.5l180 881h281l-178 -885q-58 -278 -236.5 -422.5t-454.5 -144.5q-127 0 -228.5 36t-170.5 107.5t-94 177.5z " />
<glyph unicode="V" horiz-adv-x="1421" d="M319 1413l5 21h303l139 -1092h8l576 1092h329l-4 -21l-798 -1413h-328z" />
<glyph unicode="W" horiz-adv-x="1918" d="M319 1413l5 21h309l-10 -1037h8l456 1037h322l41 -1037h8l408 1037h311l-4 -21l-614 -1413h-361l-29 1004h-8l-444 -1004h-357z" />
<glyph unicode="X" horiz-adv-x="1396" d="M33 0l4 20l602 701l2 8l-303 684l4 21h317l213 -523h9l424 523h344l-4 -21l-572 -694l-2 -8l295 -691l-4 -20h-320l-217 522h-8l-424 -522h-360z" />
<glyph unicode="Y" horiz-adv-x="1400" d="M319 1413l5 21h313l221 -576h8l459 576h334l-4 -21l-694 -833l-117 -580h-283l117 578z" />
<glyph unicode="Z" horiz-adv-x="1222" d="M68 0l49 246l903 925l2 9h-696l51 254h1057l-50 -250l-901 -924l-2 -8h725l-51 -252h-1087z" />
<glyph unicode="[" horiz-adv-x="694" d="M2 -352l391 1917h486l-43 -213h-256l-304 -1493h256l-43 -211h-487z" />
<glyph unicode="\" horiz-adv-x="897" d="M336 1489l4 20h258l217 -1761l-4 -20h-256z" />
<glyph unicode="]" horiz-adv-x="694" d="M61 -352l43 211h256l306 1493h-256l45 213h485l-389 -1917h-490z" />
<glyph unicode="^" horiz-adv-x="1204" d="M209 635l4 20l561 779h240l243 -779l-4 -20h-247l-154 530h-8l-367 -530h-268z" />
<glyph unicode="_" horiz-adv-x="1150" d="M23 -274l47 219h993l-45 -219h-995z" />
<glyph unicode="`" horiz-adv-x="571" d="M367 1487l4 20h301l82 -293l-4 -20h-205z" />
<glyph unicode="a" d="M158 401q0 185 67.5 339t196.5 248.5t295 94.5q108 0 176.5 -37.5t95.5 -95.5h8l54 115h243l-215 -1065h-245l-5 115h-8q-116 -133 -321 -133q-165 0 -253.5 116t-88.5 303zM440 444q0 -99 45 -160t140 -61q77 0 138.5 37t98 97t55.5 129t19 139q0 98 -45 157.5 t-141 59.5q-85 0 -148 -38t-97 -99.5t-49.5 -127t-15.5 -133.5z" />
<glyph unicode="b" horiz-adv-x="1204" d="M125 0l309 1516h275l-115 -566h8q120 133 313 133q168 0 259.5 -114.5t91.5 -302.5q0 -181 -69.5 -336.5t-200 -251.5t-294.5 -96q-200 0 -270 133h-8l-53 -115h-246zM485 446q0 -100 45.5 -161.5t139.5 -61.5q81 0 143.5 37t97.5 97t52.5 127.5t17.5 138.5 q0 99 -44.5 159t-139.5 60q-67 0 -121.5 -25.5t-89 -65.5t-58 -93t-33.5 -106t-10 -106z" />
<glyph unicode="c" horiz-adv-x="1124" d="M158 410q0 140 42 262.5t120 214t197 144t265 52.5q222 0 328 -118q85 -95 85 -235q0 -34 -5 -71h-277q2 17 2 32q0 61 -34 101q-43 50 -129 50q-151 0 -231.5 -112t-80.5 -292q0 -105 46.5 -160t138.5 -55q88 0 151 48.5t88 129.5h277q-45 -189 -189 -304t-370 -115 q-204 0 -314 116t-110 312z" />
<glyph unicode="d" d="M158 397q0 136 40.5 261t112.5 219t177.5 150t228.5 56q198 0 272 -133h8l117 566h275l-310 -1516h-245l-7 115h-8q-125 -133 -319 -133q-162 0 -252 115t-90 300zM440 444q0 -100 45 -160.5t140 -60.5q79 0 141 36.5t98 96t54 128t18 139.5q0 99 -45 159t-141 60 q-85 0 -148 -37.5t-97 -99t-49.5 -127t-15.5 -134.5z" />
<glyph unicode="e" horiz-adv-x="1136" d="M160 416q0 129 40 247t115 212.5t195 151t268 56.5q161 0 265 -70q104 -71 138 -187q18 -61 17 -130q0 -63 -14 -133l-21 -106h-725q-6 -34 -6 -64q0 -69 32 -117q46 -68 159 -67q87 0 145.5 34.5t87.5 88.5h268q-55 -155 -194.5 -252.5t-349.5 -97.5q-202 0 -311 121 t-109 313zM477 639h443q4 26 4 50q0 61 -30 105q-42 60 -144 60q-109 0 -178.5 -59.5t-94.5 -155.5z" />
<glyph unicode="f" horiz-adv-x="843" d="M137 -469l266 1303h-186l47 231h187l18 90q35 184 154 282.5t327 98.5q74 0 135 -14l-49 -232q-58 10 -100 10q-167 0 -193 -145l-18 -90h254l-47 -231h-254l-266 -1303h-275z" />
<glyph unicode="g" d="M76 -104h268q-1 -7 -1 -14q0 -54 41 -92q46 -42 136 -42q114 0 184.5 56t90.5 147l32 164h-8q-125 -133 -319 -133q-162 0 -253 115t-91 300q0 136 40.5 261t112.5 219t178.5 150t229.5 56q198 0 272 -133h8l54 115h243l-225 -1118q-43 -202 -192.5 -318t-399.5 -116 q-213 0 -323 105q-85 83 -85 205q0 35 7 73zM440 440q0 -98 45 -157.5t140 -59.5q83 0 146 37.5t97.5 98.5t51 127.5t16.5 134.5q0 99 -45.5 160t-140.5 61q-66 0 -119.5 -24.5t-88 -64.5t-58.5 -93t-34 -108t-10 -112z" />
<glyph unicode="h" horiz-adv-x="1204" d="M125 0l309 1516h275l-117 -572h8q129 139 330 139q178 1 263 -103q59 -72 60 -181q0 -47 -12 -101l-143 -698h-275l127 621q8 38 8 69q0 144 -163 144q-99 0 -175.5 -66.5t-99.5 -179.5l-121 -588h-274z" />
<glyph unicode="i" horiz-adv-x="505" d="M125 0l217 1065h274l-217 -1065h-274zM367 1327q0 91 55 147t153 56q68 0 105 -34.5t37 -94.5q0 -90 -56.5 -146.5t-152.5 -56.5q-69 0 -105 34.5t-36 94.5z" />
<glyph unicode="j" horiz-adv-x="520" d="M-170 -473l49 246q41 -6 78 -6q138 0 166 149l233 1149h275l-244 -1206q-34 -167 -150.5 -256.5t-279.5 -89.5q-69 0 -127 14zM383 1327q0 91 55 147t154 56q68 0 104.5 -34.5t36.5 -94.5q0 -90 -56.5 -146.5t-152.5 -56.5q-69 0 -105 34.5t-36 94.5z" />
<glyph unicode="k" horiz-adv-x="1122" d="M125 0l309 1516h260l-176 -859l434 408h340l-4 -21l-536 -487l348 -537l-4 -20h-301l-312 485l-98 -485h-260z" />
<glyph unicode="l" horiz-adv-x="505" d="M125 0l309 1516h275l-310 -1516h-274z" />
<glyph unicode="m" horiz-adv-x="1841" d="M125 0l217 1065h244l-2 -121h8q129 139 328 139q109 0 182 -40.5t104 -116.5h6q60 69 151 113t206 44q177 0 261 -104q59 -72 59 -180q0 -47 -11 -101l-143 -698h-275l127 621q8 41 8 75q0 52 -19 84q-32 54 -130 54q-88 0 -153 -58.5t-95 -159.5l-125 -616h-272l127 621 q8 40 8 73q0 140 -150 140q-98 0 -170.5 -65.5t-95.5 -178.5l-121 -590h-274z" />
<glyph unicode="n" horiz-adv-x="1196" d="M125 0l217 1065h244l-2 -121h8q129 139 330 139q178 1 263 -103q59 -72 60 -181q0 -47 -12 -101l-143 -698h-275l127 621q8 38 8 69q0 144 -162 144q-99 0 -172 -65.5t-96 -178.5l-121 -590h-274z" />
<glyph unicode="o" horiz-adv-x="1165" d="M158 408q0 138 38 257.5t112.5 214t198 149t281.5 54.5q209 0 323 -119t114 -311q0 -109 -23 -207t-73 -183.5t-122.5 -147.5t-178 -97.5t-234.5 -35.5q-209 0 -322.5 117.5t-113.5 308.5zM442 440q0 -106 48 -161.5t139 -55.5q150 0 231.5 109t81.5 291q0 106 -48 162.5 t-140 56.5q-148 0 -230 -111t-82 -291z" />
<glyph unicode="p" horiz-adv-x="1204" d="M29 -469l313 1534h244l8 -115h8q48 58 125 95.5t180 37.5q162 0 260.5 -117t98.5 -300q0 -182 -69 -337t-199.5 -251t-295.5 -96q-106 0 -173.5 37.5t-96.5 95.5h-8l-121 -584h-274zM485 440q0 -97 46.5 -157t140.5 -60q85 0 148.5 37.5t96.5 99t48.5 126.5t15.5 135 q0 99 -45 160t-139 61q-64 0 -117 -24.5t-88.5 -64.5t-60 -93t-35.5 -108.5t-11 -111.5z" />
<glyph unicode="q" d="M156 397q0 107 25.5 209t75 188t117 151t156.5 101.5t189 36.5q196 0 270 -133h8l54 115h243l-311 -1534h-274l118 584h-8q-120 -133 -315 -133q-168 0 -258 114t-90 301zM440 442q0 -98 44.5 -158.5t140.5 -60.5q83 0 146 37.5t97.5 98t51 125.5t16.5 132q0 100 -45 163 t-139 63q-66 0 -120 -25t-89 -65t-59 -93t-34 -107.5t-10 -109.5z" />
<glyph unicode="r" horiz-adv-x="796" d="M125 0l217 1065h229l-10 -162h8q52 80 133.5 129t178.5 49h88l-60 -254h-96q-123 0 -207.5 -80t-113.5 -225l-107 -522h-260z" />
<glyph unicode="s" horiz-adv-x="1046" d="M139 358h275q-3 -16 -3 -30q-1 -44 29 -74q40 -40 129 -41q98 0 149.5 32t51.5 81q0 70 -104 90l-162 33q-116 24 -186 89t-70 175q0 166 123 268t368 102q197 1 297 -99q77 -77 77 -186q0 -33 -7 -69h-270q3 14 3 26q0 41 -28 71q-36 38 -117 38q-77 0 -124.5 -30.5 t-47.5 -81.5q0 -61 90 -80l187 -37q119 -24 186.5 -83.5t67.5 -172.5q0 -190 -139.5 -293.5t-389.5 -103.5q-224 0 -320 101q-73 77 -72 196q0 37 7 79z" />
<glyph unicode="t" horiz-adv-x="854" d="M223 831l45 234h187l45 223l254 58h20l-57 -281h256l-45 -234h-258l-95 -466q-6 -28 -6 -50q1 -37 17 -59q26 -34 96 -35q53 0 106 17h21l-47 -230q-91 -26 -205 -26q-167 0 -232 88q-45 61 -45 149q0 40 9 86l106 526h-172z" />
<glyph unicode="u" horiz-adv-x="1185" d="M196 282q-1 14 0 28q0 50 9 104l133 651h272l-123 -608q-9 -42 -9 -75q0 -144 163 -144q198 0 242 219l123 608h276l-131 -651q-20 -91 -57.5 -165t-101 -136t-163.5 -96.5t-229 -34.5h-2q-95 0 -170.5 23t-122.5 63t-76 95t-33 119z" />
<glyph unicode="v" horiz-adv-x="1167" d="M238 1044l4 21h284l103 -795h8l412 795h307l-4 -21l-596 -1044h-340z" />
<glyph unicode="w" horiz-adv-x="1656" d="M238 1044l4 21h280l8 -758h9l323 758h352l21 -758h8l313 758h291l-4 -21l-469 -1044h-362l-21 756h-8l-336 -756h-362z" />
<glyph unicode="x" horiz-adv-x="1130" d="M29 0l4 20l444 519l-225 505l4 21h299l141 -358h9l286 358h326l-4 -21l-420 -505l211 -519l-4 -20h-301l-140 367h-8l-295 -367h-327z" />
<glyph unicode="y" horiz-adv-x="1187" d="M219 -469l4 20l252 451l-39 4l-147 1038l4 21h280l86 -778h9l411 778h297l-4 -21l-858 -1513h-295z" />
<glyph unicode="z" horiz-adv-x="1028" d="M84 0l45 229l629 594l2 8h-504l45 234h856l-47 -231l-627 -592v-9h510l-49 -233h-860z" />
<glyph unicode="{" horiz-adv-x="880" d="M174 496l45 221q97 3 153.5 46t76.5 138l67 336q31 154 134.5 241t264.5 87h152l-45 -213h-90q-84 0 -131 -41t-66 -131l-71 -355q-40 -190 -213 -215l-2 -4v-4q167 -25 124 -215l-71 -354q-19 -89 11.5 -130.5t115.5 -41.5h90l-43 -213h-150q-153 0 -226 88t-42 239 l70 336q20 95 -19 138.5t-135 46.5z" />
<glyph unicode="|" horiz-adv-x="561" d="M104 -283l375 1839h238l-375 -1839h-238z" />
<glyph unicode="}" horiz-adv-x="880" d="M61 -352l43 213h91q84 0 130.5 41t65.5 131l72 354q40 191 215 215v4l2 4q-167 24 -127 215l72 355q19 89 -11.5 130.5t-115.5 41.5h-90l45 213h149q153 0 226 -88t42 -240l-69 -336q-20 -95 18.5 -138t132.5 -46l-45 -221q-95 -3 -151 -46.5t-76 -138.5l-68 -336 q-31 -154 -134.5 -240.5t-264.5 -86.5h-152z" />
<glyph unicode="~" horiz-adv-x="1114" d="M156 535q59 105 150 171t204 66q98 0 184 -53l84 -51q58 -33 111 -33q112 0 184 117l127 -99q-59 -105 -150 -171t-206 -66q-98 0 -189 55l-82 51q-54 31 -104 31q-114 0 -186 -117z" />
<glyph unicode="&#xa1;" horiz-adv-x="528" d="M41 -387l39 197l203 782h198l-106 -782l-39 -197h-295zM279 879q0 90 54 147t150 57q67 0 103.5 -35t36.5 -96q0 -89 -56 -145.5t-149 -56.5q-69 0 -104 34t-35 95z" />
<glyph unicode="&#xa2;" horiz-adv-x="1124" d="M197 594q0 175 62 318.5t186 238t294 113.5l35 170h182l-34 -174q171 -26 250 -139t57 -277h-277q8 60 -13.5 104t-68.5 64l-118 -590q111 41 151 164h277q-41 -171 -164 -283t-316 -133l-34 -170h-183l35 174q-156 29 -238.5 140t-82.5 280zM479 623q0 -148 90 -195 l119 582q-102 -34 -155.5 -138t-53.5 -249z" />
<glyph unicode="&#xa3;" horiz-adv-x="1245" d="M70 0l49 240q68 0 116.5 42.5t63.5 120.5l35 177h-150l49 237h150l41 205q39 194 178 315t371 121q89 0 161.5 -23.5t120.5 -65t78.5 -97.5t35.5 -120.5t-7 -135.5h-258q17 89 -23.5 152t-146.5 63q-97 0 -164 -57.5t-86 -151.5l-41 -205h391l-47 -237h-393l-37 -185 q-23 -115 -98 -153l-2 -9h784l-49 -233h-1122z" />
<glyph unicode="&#xa4;" horiz-adv-x="1163" d="M82 121l172 147q-27 83 -27 162q0 158 127 315l-112 150l182 149l117 -149q123 63 241 63q122 0 211 -59l172 145l123 -149l-168 -143q33 -78 33 -174q0 -163 -131 -318l108 -139l-184 -152l-108 142q-127 -62 -240 -62q-123 0 -221 68l-172 -148zM455 461 q0 -85 51.5 -137t136.5 -52q110 0 193.5 79.5t83.5 195.5q0 84 -51 136t-134 52q-111 0 -195.5 -79.5t-84.5 -194.5z" />
<glyph unicode="&#xa5;" horiz-adv-x="1400" d="M256 250l41 209h365l24 119l-14 34h-344l45 211h205l-259 590l5 21h329l215 -576h9l444 576h338l-4 -21l-486 -590h195l-43 -211h-326l-26 -32l-25 -121h344l-41 -209h-346l-51 -250h-283l51 250h-362z" />
<glyph unicode="&#xa6;" horiz-adv-x="561" d="M104 -283l150 734h238l-150 -734h-238zM330 823l149 733h238l-150 -733h-237z" />
<glyph unicode="&#xa7;" horiz-adv-x="1245" d="M174 -113h227q-14 -79 25.5 -125.5t124.5 -46.5q93 0 147 47.5t54 120.5q0 71 -68 127l-305 262q-135 114 -135 260q0 227 250 351q-45 70 -45 166q0 170 130.5 286.5t342.5 116.5q190 0 283.5 -109.5t60.5 -279.5h-228q14 79 -25 125.5t-124 46.5q-91 0 -147 -48 t-56 -120q0 -68 68 -127l295 -252q74 -62 108.5 -127.5t34.5 -144.5q0 -222 -250 -348q47 -68 47 -166q0 -171 -129 -287.5t-344 -116.5q-191 0 -283.5 109.5t-58.5 279.5zM483 571q0 -70 60 -122l274 -240q63 24 99 66.5t36 99.5q0 77 -59 131l-270 235q-66 -25 -103 -69 t-37 -101z" />
<glyph unicode="&#xa8;" horiz-adv-x="882" d="M373 1333q0 76 47.5 124t128.5 48q56 0 86.5 -29t30.5 -81q0 -75 -48 -123.5t-126 -48.5q-58 0 -88.5 29t-30.5 81zM772 1331q0 78 46.5 126t127.5 48q58 0 88.5 -29t30.5 -81q0 -76 -48.5 -124t-127.5 -48q-56 0 -86.5 29t-30.5 79z" />
<glyph unicode="&#xa9;" horiz-adv-x="1679" d="M268 717q68 330 301.5 532.5t558.5 202.5q211 0 357 -94.5t203 -262t14 -378.5q-67 -331 -299 -533t-561 -202q-211 0 -356.5 94.5t-202.5 262t-15 378.5zM449 717q-50 -258 64 -409.5t364 -151.5q252 0 421.5 147.5t223.5 413.5q51 258 -63 409.5t-365 151.5 t-420 -147.5t-225 -413.5zM604 612q0 221 127 365.5t340 144.5q153 0 226 -90t53 -217h-172q10 74 -29.5 111t-108.5 37q-129 0 -193.5 -90t-64.5 -238q0 -176 154 -176t203 145h172q-39 -132 -144.5 -217.5t-259.5 -85.5q-148 0 -225.5 83.5t-77.5 227.5z" />
<glyph unicode="&#xaa;" horiz-adv-x="851" d="M252 881q0 121 47 223.5t132.5 164.5t191.5 62q131 0 178 -88h8l33 74h166l-144 -699h-164l-4 74h-4q-82 -86 -213 -86q-109 0 -168 76.5t-59 198.5zM444 913q0 -66 29 -104.5t90 -38.5q96 0 148.5 80t52.5 178q0 61 -30 99t-91 38q-54 1 -94.5 -23t-62.5 -63.5 t-32 -81.5t-10 -84z" />
<glyph unicode="&#xab;" horiz-adv-x="1245" d="M170 569l4 21l424 434h262l-4 -20l-373 -426l199 -422l-4 -21h-258zM684 569l4 21l426 434h260l-4 -20l-373 -426l199 -422l-4 -21h-258z" />
<glyph unicode="&#xad;" horiz-adv-x="954" d="M262 477l49 246h627l-49 -246h-627z" />
<glyph unicode="&#xae;" horiz-adv-x="1030" d="M250 948q0 147 74.5 273t206 201t288.5 75q174 0 277.5 -108t103.5 -273q0 -147 -75 -273t-206.5 -201t-287.5 -75q-176 0 -278.5 107.5t-102.5 273.5zM393 961q0 -122 70 -190.5t194 -68.5q177 0 288.5 110.5t111.5 291.5q0 122 -70 190t-196 68q-175 0 -286.5 -110 t-111.5 -291zM510 813l86 426h209q59 0 95 -34t36 -87q0 -47 -26.5 -91.5t-75.5 -68.5l61 -133l-2 -12h-123l-53 129h-66l-26 -129h-115zM672 1042h76q29 0 47 15t18 45q0 35 -47 35h-76z" />
<glyph unicode="&#xaf;" horiz-adv-x="716" d="M317 1249l43 209h590l-43 -209h-590z" />
<glyph unicode="&#xb0;" horiz-adv-x="874" d="M293 1042q0 173 130 296.5t310 123.5q133 0 216 -83t83 -210q0 -173 -130 -296t-310 -123q-135 0 -217 82t-82 210zM494 1071q0 -61 34.5 -100t98.5 -39q90 0 148.5 62t58.5 149q0 61 -35.5 99t-100.5 38q-90 0 -147 -61.5t-57 -147.5z" />
<glyph unicode="&#xb1;" horiz-adv-x="1003" d="M20 49l48 236h983l-47 -236h-984zM154 698l45 236h370l62 299h252l-62 -299h363l-47 -236h-363l-59 -297h-252l61 297h-370z" />
<glyph unicode="&#xb2;" horiz-adv-x="837" d="M186 510l33 164l379 289q99 76 140.5 124t41.5 103q0 41 -27.5 66.5t-78.5 25.5q-62 0 -105 -36t-55 -97h-201q27 139 132 224t257 85q130 0 206.5 -67.5t76.5 -167.5q0 -90 -46.5 -165.5t-172.5 -170.5l-258 -191v-6h389l-37 -180h-674z" />
<glyph unicode="&#xb3;" horiz-adv-x="878" d="M244 799h194q-11 -54 21.5 -93.5t118.5 -39.5q89 0 134.5 39t45.5 100q0 45 -37.5 70.5t-108.5 25.5h-88l35 176h84q166 0 166 121q0 37 -29.5 61.5t-85.5 24.5q-70 0 -113 -36.5t-57 -98.5h-194q31 144 136 226.5t265 82.5q126 0 206.5 -63t80.5 -164q0 -84 -46.5 -142 t-117.5 -85v-9q50 -19 79.5 -64t29.5 -106q0 -67 -25 -126.5t-73.5 -106.5t-128.5 -75t-181 -28q-164 0 -252.5 82t-58.5 228z" />
<glyph unicode="&#xb4;" horiz-adv-x="571" d="M307 1194l4 20l201 293h301l-4 -20l-297 -293h-205z" />
<glyph unicode="&#xb6;" horiz-adv-x="1255" d="M283 1047q0 119 65 222.5t174 164.5t234 61h733l-43 -201h-127l-305 -1507h-228l306 1507h-152l-305 -1507h-227l190 936q-138 0 -226.5 93.5t-88.5 230.5z" />
<glyph unicode="&#xb7;" horiz-adv-x="487" d="M207 575q0 90 54.5 147.5t150.5 57.5q65 0 100 -35t35 -96q0 -89 -55.5 -146t-147.5 -57q-68 0 -102.5 34t-34.5 95z" />
<glyph unicode="&#xb8;" horiz-adv-x="673" d="M10 -258h168q-5 -28 17 -46t61 -18q49 0 81 18.5t32 53.5q0 24 -21 38.5t-59 14.5h-66l-37 64l115 162h188l-94 -109q75 -4 119.5 -46t44.5 -105q0 -97 -89 -163.5t-239 -66.5q-111 0 -175 54.5t-46 148.5z" />
<glyph unicode="&#xb9;" horiz-adv-x="600" d="M297 1059l39 196l274 179h201l-188 -926h-199l147 715h-8l-250 -164h-16z" />
<glyph unicode="&#xba;" horiz-adv-x="815" d="M252 889q0 120 50 219.5t147.5 160t224.5 60.5q135 0 207.5 -78t72.5 -204q0 -89 -28.5 -168.5t-81 -140.5t-133.5 -96.5t-179 -35.5q-135 0 -207.5 78t-72.5 205zM446 907q0 -137 117 -137q94 0 146.5 69.5t52.5 188.5q0 137 -119 137q-96 0 -146.5 -70t-50.5 -188z" />
<glyph unicode="&#xbb;" horiz-adv-x="1243" d="M39 135l4 21l373 426l-199 422l4 20h258l250 -434l-4 -21l-426 -434h-260zM553 135l4 21l373 426l-199 422l4 20h258l250 -434l-4 -21l-424 -434h-262z" />
<glyph unicode="&#xbc;" horiz-adv-x="1857" d="M297 1059l39 196l274 179h201l-188 -926h-199l147 715h-8l-250 -164h-16zM346 0l4 20l1176 1414h217l-4 -21l-1172 -1413h-221zM1077 172l41 195l471 559h266l-118 -576h112l-37 -178h-112l-33 -172h-199l35 172h-426zM1313 350h227l72 350h-8l-289 -342z" />
<glyph unicode="&#xbd;" horiz-adv-x="1937" d="M297 1059l39 196l274 179h201l-188 -926h-199l147 715h-8l-250 -164h-16zM346 0l4 20l1176 1414h217l-4 -21l-1172 -1413h-221zM1182 0l35 162l378 289q100 76 141.5 124.5t41.5 104.5q0 40 -28 65t-79 25q-62 0 -106 -35t-56 -96h-198q25 139 130 224t259 85 q128 0 205 -68t77 -167q0 -91 -47 -166.5t-174 -169.5l-256 -193v-6h389l-39 -178h-673z" />
<glyph unicode="&#xbe;" horiz-adv-x="2041" d="M244 799h194q-11 -54 21.5 -93.5t118.5 -39.5q89 0 134.5 39t45.5 100q0 45 -37.5 70.5t-108.5 25.5h-88l35 176h84q166 0 166 121q0 37 -29.5 61.5t-85.5 24.5q-70 0 -113 -36.5t-57 -98.5h-194q31 144 136 226.5t265 82.5q126 0 206.5 -63t80.5 -164q0 -84 -46.5 -142 t-117.5 -85v-9q50 -19 79.5 -64t29.5 -106q0 -67 -25 -126.5t-73.5 -106.5t-128.5 -75t-181 -28q-164 0 -252.5 82t-58.5 228zM530 0l5 20l1175 1414h217l-4 -21l-1171 -1413h-222zM1262 172l41 195l471 559h266l-119 -576h113l-37 -178h-113l-33 -172h-198l35 172h-426z M1497 350h227l72 350h-8l-289 -342z" />
<glyph unicode="&#xbf;" horiz-adv-x="1112" d="M70 -55q0 219 225 370l102 68q88 59 123.5 96.5t46.5 100.5l6 32h269l-6 -37q-11 -65 -31 -113t-55.5 -88t-68.5 -66.5t-93 -67.5l-76 -52q-81 -55 -116.5 -99t-35.5 -101q0 -58 40 -95.5t124 -37.5q100 0 164 50.5t84 149.5h270q-26 -196 -173 -319t-396 -123 q-187 0 -295 93.5t-108 238.5zM592 881q0 90 55.5 146t149.5 56q66 0 100.5 -33.5t34.5 -93.5q0 -92 -54 -148t-151 -56q-65 0 -100 34.5t-35 94.5z" />
<glyph unicode="&#xc0;" horiz-adv-x="1425" d="M33 0l4 20l786 1414h359l217 -1414l-4 -20h-301l-37 301h-557l-158 -301h-309zM631 549h395l-72 598h-8zM801 1855l4 21h301l82 -293l-4 -20h-205z" />
<glyph unicode="&#xc1;" horiz-adv-x="1425" d="M33 0l4 20l786 1414h359l217 -1414l-4 -20h-301l-37 301h-557l-158 -301h-309zM631 549h395l-72 598h-8zM899 1563l4 20l201 293h301l-4 -21l-297 -292h-205z" />
<glyph unicode="&#xc2;" horiz-adv-x="1425" d="M33 0l4 20l786 1414h359l217 -1414l-4 -20h-301l-37 301h-557l-158 -301h-309zM631 549h395l-72 598h-8zM686 1567l4 20l256 285h303l140 -285l-5 -20h-217l-98 125h-8l-150 -125h-225z" />
<glyph unicode="&#xc3;" horiz-adv-x="1425" d="M33 0l4 20l786 1414h359l217 -1414l-4 -20h-301l-37 301h-557l-158 -301h-309zM631 549h395l-72 598h-8zM662 1577l6 31q24 118 95.5 181.5t170.5 63.5q61 0 133 -41l27 -16q45 -29 71 -29q58 0 74 82h168l-6 -30q-50 -246 -264 -246q-71 0 -127 39l-29 18q-45 25 -72 25 t-49 -20.5t-29 -57.5h-169z" />
<glyph unicode="&#xc4;" horiz-adv-x="1425" d="M33 0l4 20l786 1414h359l217 -1414l-4 -20h-301l-37 301h-557l-158 -301h-309zM631 549h395l-72 598h-8zM723 1702q0 76 47.5 124t128.5 48q56 0 86.5 -29.5t30.5 -81.5q0 -75 -48 -123.5t-126 -48.5q-58 0 -88.5 29.5t-30.5 81.5zM1122 1700q0 78 46.5 126t127.5 48 q58 0 88.5 -29.5t30.5 -81.5q0 -76 -48.5 -124t-127.5 -48q-56 0 -86.5 29.5t-30.5 79.5z" />
<glyph unicode="&#xc5;" horiz-adv-x="1425" d="M33 0l4 20l786 1414h359l217 -1414l-4 -20h-301l-37 301h-557l-158 -301h-309zM631 549h395l-72 598h-8zM825 1724q0 117 80.5 194t202.5 77q90 0 146.5 -53.5t56.5 -137.5q0 -117 -79.5 -193.5t-203.5 -76.5q-89 0 -146 53.5t-57 136.5zM973 1745q0 -30 20.5 -51 t53.5 -21q50 0 83 31t33 76q0 33 -21.5 54t-58.5 21q-47 0 -78.5 -32.5t-31.5 -77.5z" />
<glyph unicode="&#xc6;" horiz-adv-x="1871" d="M33 0l4 20l788 1414h1246l-52 -252h-798l49 -318h622l-53 -250h-532l57 -364h465l-49 -250h-695l-38 301h-560l-159 -301h-295zM618 549h400l-74 598h-8z" />
<glyph unicode="&#xc7;" horiz-adv-x="1452" d="M203 551q0 145 34 278t103.5 247t168 197.5t235 131t296.5 47.5q132 0 238 -42t171.5 -115t95 -172t14.5 -212h-287q13 124 -55 204.5t-218 80.5q-99 0 -182.5 -32t-142.5 -89t-100 -134t-60.5 -167t-19.5 -190q0 -165 77.5 -256.5t233.5 -91.5q146 0 244.5 75t142.5 197 h285q-66 -219 -236.5 -362.5t-419.5 -161.5l-55 -64q75 -4 119.5 -46t44.5 -105q0 -97 -89 -163.5t-239 -66.5q-111 0 -175 54.5t-46 148.5h168q-5 -28 17 -46t61 -18q49 0 80.5 18.5t31.5 53.5q0 24 -21 38.5t-59 14.5h-65l-37 64l88 123q-214 34 -328 186t-114 375z" />
<glyph unicode="&#xc8;" horiz-adv-x="1249" d="M162 0l291 1434h993l-49 -252h-715l-64 -318h652l-53 -250h-652l-73 -364h714l-51 -250h-993zM772 1855l4 21h301l82 -293l-4 -20h-205z" />
<glyph unicode="&#xc9;" horiz-adv-x="1249" d="M162 0l291 1434h993l-49 -252h-715l-64 -318h652l-53 -250h-652l-73 -364h714l-51 -250h-993zM870 1563l4 20l201 293h301l-4 -21l-297 -292h-205z" />
<glyph unicode="&#xca;" horiz-adv-x="1249" d="M162 0l291 1434h993l-49 -252h-715l-64 -318h652l-53 -250h-652l-73 -364h714l-51 -250h-993zM657 1567l5 20l256 285h303l139 -285l-4 -20h-217l-99 125h-8l-149 -125h-226z" />
<glyph unicode="&#xcb;" horiz-adv-x="1249" d="M162 0l291 1434h993l-49 -252h-715l-64 -318h652l-53 -250h-652l-73 -364h714l-51 -250h-993zM694 1702q0 76 47.5 124t128.5 48q56 0 86.5 -29.5t30.5 -81.5q0 -75 -48.5 -123.5t-125.5 -48.5q-58 0 -88.5 29.5t-30.5 81.5zM1094 1700q0 78 46.5 126t127.5 48 q57 0 87.5 -29.5t30.5 -81.5q0 -76 -48.5 -124t-127.5 -48q-56 0 -86 29t-30 80z" />
<glyph unicode="&#xcc;" horiz-adv-x="604" d="M162 0l291 1434h282l-291 -1434h-282zM395 1855l4 21h301l82 -293l-4 -20h-205z" />
<glyph unicode="&#xcd;" horiz-adv-x="604" d="M162 0l291 1434h282l-291 -1434h-282zM494 1563l4 20l200 293h301l-4 -21l-297 -292h-204z" />
<glyph unicode="&#xce;" horiz-adv-x="604" d="M162 0l291 1434h282l-291 -1434h-282zM281 1567l4 20l256 285h303l139 -285l-4 -20h-217l-98 125h-9l-149 -125h-225z" />
<glyph unicode="&#xcf;" horiz-adv-x="604" d="M162 0l291 1434h282l-291 -1434h-282zM317 1702q0 76 48 124t129 48q56 0 86 -29.5t30 -81.5q0 -75 -48 -123.5t-126 -48.5q-58 0 -88.5 29.5t-30.5 81.5zM717 1700q0 78 46.5 126t127.5 48q58 0 88.5 -29.5t30.5 -81.5q0 -76 -48.5 -124t-127.5 -48q-56 0 -86.5 29.5 t-30.5 79.5z" />
<glyph unicode="&#xd0;" horiz-adv-x="1531" d="M231 623l50 239h143l117 572h485q270 0 431 -158.5t161 -419.5q0 -139 -35.5 -266t-107.5 -234.5t-174.5 -187t-245 -124t-310.5 -44.5h-495l127 623h-146zM567 250h205q128 0 234 45.5t175.5 124.5t107.5 184t38 225q0 169 -93.5 261t-270.5 92h-205l-66 -320h324 l-51 -239h-322z" />
<glyph unicode="&#xd1;" horiz-adv-x="1521" d="M162 0l291 1434h311l399 -996h8l201 996h279l-291 -1434h-309l-404 989h-8l-201 -989h-276zM758 1577l6 31q24 118 95.5 181.5t170.5 63.5q61 0 133 -41l27 -16q45 -29 72 -29q57 0 73 82h168l-6 -30q-50 -246 -264 -246q-71 0 -127 39l-29 18q-45 25 -71 25 q-27 0 -49 -20.5t-29 -57.5h-170z" />
<glyph unicode="&#xd2;" horiz-adv-x="1515" d="M203 553q0 132 33 260t102.5 244t168 203.5t238.5 139.5t304 52q138 0 245 -43t174 -120.5t101.5 -180.5t34.5 -227q0 -132 -35 -261t-106 -244t-170 -203t-237.5 -139.5t-297.5 -51.5q-139 0 -246 43.5t-174 121.5t-101 180.5t-34 225.5zM494 586q0 -163 78.5 -255.5 t234.5 -92.5q99 0 183.5 35t143 94t99.5 138t60.5 165.5t19.5 177.5q0 163 -78.5 255.5t-233.5 92.5q-100 0 -185 -35.5t-143.5 -95t-99.5 -138.5t-60 -165t-19 -176zM850 1855l4 21h301l82 -293l-4 -20h-205z" />
<glyph unicode="&#xd3;" horiz-adv-x="1515" d="M203 553q0 132 33 260t102.5 244t168 203.5t238.5 139.5t304 52q138 0 245 -43t174 -120.5t101.5 -180.5t34.5 -227q0 -132 -35 -261t-106 -244t-170 -203t-237.5 -139.5t-297.5 -51.5q-139 0 -246 43.5t-174 121.5t-101 180.5t-34 225.5zM494 586q0 -163 78.5 -255.5 t234.5 -92.5q99 0 183.5 35t143 94t99.5 138t60.5 165.5t19.5 177.5q0 163 -78.5 255.5t-233.5 92.5q-100 0 -185 -35.5t-143.5 -95t-99.5 -138.5t-60 -165t-19 -176zM950 1563l4 20l201 293h301l-4 -21l-297 -292h-205z" />
<glyph unicode="&#xd4;" horiz-adv-x="1515" d="M203 553q0 132 33 260t102.5 244t168 203.5t238.5 139.5t304 52q138 0 245 -43t174 -120.5t101.5 -180.5t34.5 -227q0 -132 -35 -261t-106 -244t-170 -203t-237.5 -139.5t-297.5 -51.5q-139 0 -246 43.5t-174 121.5t-101 180.5t-34 225.5zM494 586q0 -163 78.5 -255.5 t234.5 -92.5q99 0 183.5 35t143 94t99.5 138t60.5 165.5t19.5 177.5q0 163 -78.5 255.5t-233.5 92.5q-100 0 -185 -35.5t-143.5 -95t-99.5 -138.5t-60 -165t-19 -176zM737 1567l4 20l256 285h303l140 -285l-4 -20h-217l-99 125h-8l-149 -125h-226z" />
<glyph unicode="&#xd5;" horiz-adv-x="1515" d="M203 553q0 132 33 260t102.5 244t168 203.5t238.5 139.5t304 52q138 0 245 -43t174 -120.5t101.5 -180.5t34.5 -227q0 -132 -35 -261t-106 -244t-170 -203t-237.5 -139.5t-297.5 -51.5q-139 0 -246 43.5t-174 121.5t-101 180.5t-34 225.5zM494 586q0 -163 78.5 -255.5 t234.5 -92.5q99 0 183.5 35t143 94t99.5 138t60.5 165.5t19.5 177.5q0 163 -78.5 255.5t-233.5 92.5q-100 0 -185 -35.5t-143.5 -95t-99.5 -138.5t-60 -165t-19 -176zM711 1577l6 31q24 118 95.5 181.5t170.5 63.5q61 0 133 -41l27 -16q45 -29 71 -29q58 0 74 82h168l-6 -30 q-50 -246 -264 -246q-71 0 -127 39l-29 18q-45 25 -72 25t-48.5 -20.5t-28.5 -57.5h-170z" />
<glyph unicode="&#xd6;" horiz-adv-x="1515" d="M203 553q0 132 33 260t102.5 244t168 203.5t238.5 139.5t304 52q138 0 245 -43t174 -120.5t101.5 -180.5t34.5 -227q0 -132 -35 -261t-106 -244t-170 -203t-237.5 -139.5t-297.5 -51.5q-139 0 -246 43.5t-174 121.5t-101 180.5t-34 225.5zM494 586q0 -163 78.5 -255.5 t234.5 -92.5q99 0 183.5 35t143 94t99.5 138t60.5 165.5t19.5 177.5q0 163 -78.5 255.5t-233.5 92.5q-100 0 -185 -35.5t-143.5 -95t-99.5 -138.5t-60 -165t-19 -176zM772 1702q0 76 47.5 124t128.5 48q56 0 86.5 -29.5t30.5 -81.5q0 -75 -48.5 -123.5t-125.5 -48.5 q-58 0 -88.5 29.5t-30.5 81.5zM1171 1700q0 78 47 126t128 48q57 0 87.5 -29.5t30.5 -81.5q0 -76 -48.5 -124t-127.5 -48q-56 0 -86.5 29.5t-30.5 79.5z" />
<glyph unicode="&#xd7;" horiz-adv-x="923" d="M74 377l350 287l-223 272l200 166l222 -273l340 281l145 -176l-342 -283l229 -289l-200 -161l-228 284l-348 -284z" />
<glyph unicode="&#xd8;" horiz-adv-x="1515" d="M39 -92l4 20l254 275q-94 140 -94 350q0 132 33 260t102.5 244t168 203.5t238.5 139.5t304 52q192 0 325 -84l133 143h258l-4 -20l-245 -266q88 -140 88 -344q0 -132 -35 -261t-106 -244t-170 -203t-237.5 -139.5t-297.5 -51.5q-194 0 -322 81l-143 -155h-254zM494 586 q0 -87 20 -148l662 715q-67 43 -175 43q-100 0 -185 -35.5t-143.5 -95t-99.5 -138.5t-60 -165t-19 -176zM637 279q68 -41 170 -41q99 0 183.5 35t143 94t99.5 138t60.5 165.5t19.5 177.5q0 73 -19 141z" />
<glyph unicode="&#xd9;" horiz-adv-x="1462" d="M250 303q-25 106 2 246l180 885h281l-178 -881q-17 -66 -10.5 -124.5t30.5 -101.5t80.5 -68.5t140.5 -25.5q166 0 256 87.5t119 232.5l180 881h281l-178 -885q-58 -278 -236.5 -422.5t-454.5 -144.5q-127 0 -228.5 36t-170.5 107.5t-94 177.5zM817 1855l4 21h301l82 -293 l-4 -20h-205z" />
<glyph unicode="&#xda;" horiz-adv-x="1462" d="M250 303q-25 106 2 246l180 885h281l-178 -881q-17 -66 -10.5 -124.5t30.5 -101.5t80.5 -68.5t140.5 -25.5q166 0 256 87.5t119 232.5l180 881h281l-178 -885q-58 -278 -236.5 -422.5t-454.5 -144.5q-127 0 -228.5 36t-170.5 107.5t-94 177.5zM918 1563l4 20l200 293h301 l-4 -21l-297 -292h-204z" />
<glyph unicode="&#xdb;" horiz-adv-x="1462" d="M250 303q-25 106 2 246l180 885h281l-178 -881q-17 -66 -10.5 -124.5t30.5 -101.5t80.5 -68.5t140.5 -25.5q166 0 256 87.5t119 232.5l180 881h281l-178 -885q-58 -278 -236.5 -422.5t-454.5 -144.5q-127 0 -228.5 36t-170.5 107.5t-94 177.5zM705 1567l4 20l256 285h303 l139 -285l-4 -20h-217l-99 125h-8l-149 -125h-225z" />
<glyph unicode="&#xdc;" horiz-adv-x="1462" d="M250 303q-25 106 2 246l180 885h281l-178 -881q-17 -66 -10.5 -124.5t30.5 -101.5t80.5 -68.5t140.5 -25.5q166 0 256 87.5t119 232.5l180 881h281l-178 -885q-58 -278 -236.5 -422.5t-454.5 -144.5q-127 0 -228.5 36t-170.5 107.5t-94 177.5zM741 1702q0 76 48 124 t129 48q56 0 86 -29.5t30 -81.5q0 -75 -48 -123.5t-126 -48.5q-58 0 -88.5 29.5t-30.5 81.5zM1141 1700q0 78 46.5 126t127.5 48q58 0 88.5 -29.5t30.5 -81.5q0 -76 -49 -124t-128 -48q-56 0 -86 29t-30 80z" />
<glyph unicode="&#xdd;" horiz-adv-x="1400" d="M319 1413l5 21h313l221 -576h8l459 576h334l-4 -21l-694 -833l-117 -580h-283l117 578zM893 1563l4 20l201 293h301l-4 -21l-297 -292h-205z" />
<glyph unicode="&#xde;" horiz-adv-x="1300" d="M162 0l291 1434h282l-39 -191h334q184 0 286.5 -105t102.5 -272q0 -155 -75 -284.5t-208.5 -205t-297.5 -75.5h-334l-60 -301h-282zM557 553h281q140 0 215 71.5t75 198.5q0 82 -52.5 126t-147.5 44h-283z" />
<glyph unicode="&#xdf;" horiz-adv-x="1374" d="M29 -469l315 1536q41 211 209 340t401 129q203 0 310.5 -88t107.5 -229q0 -74 -19.5 -132.5t-52 -94.5t-73.5 -64t-83.5 -43.5t-83.5 -31t-73.5 -28.5t-52 -34.5t-19.5 -49.5q0 -29 23 -46t70 -33l155 -56q215 -75 215 -248q0 -166 -135.5 -271t-341.5 -105 q-199 0 -290.5 101.5t-61.5 276.5h260q-26 -151 139 -151q72 0 117 30.5t45 79.5q0 37 -28.5 61.5t-88.5 45.5l-123 41q-106 37 -159.5 93.5t-53.5 144.5q0 76 25 133.5t64.5 90t87.5 57t95.5 41.5t87 35.5t64.5 47t25 68.5q0 58 -52 89t-149 31q-117 0 -191.5 -60.5 t-97.5 -174.5l-313 -1532h-274z" />
<glyph unicode="&#xe0;" d="M158 401q0 185 67.5 339t196.5 248.5t295 94.5q108 0 176.5 -37.5t95.5 -95.5h8l54 115h243l-215 -1065h-245l-5 115h-8q-116 -133 -321 -133q-165 0 -253.5 116t-88.5 303zM440 444q0 -99 45 -160t140 -61q77 0 138.5 37t98 97t55.5 129t19 139q0 98 -45 157.5 t-141 59.5q-85 0 -148 -38t-97 -99.5t-49.5 -127t-15.5 -133.5zM586 1487l4 20h301l82 -293l-4 -20h-205z" />
<glyph unicode="&#xe1;" d="M158 401q0 185 67.5 339t196.5 248.5t295 94.5q108 0 176.5 -37.5t95.5 -95.5h8l54 115h243l-215 -1065h-245l-5 115h-8q-116 -133 -321 -133q-165 0 -253.5 116t-88.5 303zM440 444q0 -99 45 -160t140 -61q77 0 138.5 37t98 97t55.5 129t19 139q0 98 -45 157.5 t-141 59.5q-85 0 -148 -38t-97 -99.5t-49.5 -127t-15.5 -133.5zM684 1194l4 20l201 293h301l-4 -20l-297 -293h-205z" />
<glyph unicode="&#xe2;" d="M158 401q0 185 67.5 339t196.5 248.5t295 94.5q108 0 176.5 -37.5t95.5 -95.5h8l54 115h243l-215 -1065h-245l-5 115h-8q-116 -133 -321 -133q-165 0 -253.5 116t-88.5 303zM440 444q0 -99 45 -160t140 -61q77 0 138.5 37t98 97t55.5 129t19 139q0 98 -45 157.5 t-141 59.5q-85 0 -148 -38t-97 -99.5t-49.5 -127t-15.5 -133.5zM471 1198l4 21l256 284h303l140 -284l-5 -21h-217l-98 125h-8l-150 -125h-225z" />
<glyph unicode="&#xe3;" d="M158 401q0 185 67.5 339t196.5 248.5t295 94.5q108 0 176.5 -37.5t95.5 -95.5h8l54 115h243l-215 -1065h-245l-5 115h-8q-116 -133 -321 -133q-165 0 -253.5 116t-88.5 303zM440 444q0 -99 45 -160t140 -61q77 0 138.5 37t98 97t55.5 129t19 139q0 98 -45 157.5 t-141 59.5q-85 0 -148 -38t-97 -99.5t-49.5 -127t-15.5 -133.5zM446 1208l7 31q24 118 95.5 182t170.5 64q61 0 133 -41l27 -17q44 -28 71 -28q58 0 74 82h168l-6 -31q-50 -246 -264 -246q-71 0 -127 39l-29 19q-43 24 -72 24q-27 0 -49 -20.5t-29 -57.5h-170z" />
<glyph unicode="&#xe4;" d="M158 401q0 185 67.5 339t196.5 248.5t295 94.5q108 0 176.5 -37.5t95.5 -95.5h8l54 115h243l-215 -1065h-245l-5 115h-8q-116 -133 -321 -133q-165 0 -253.5 116t-88.5 303zM440 444q0 -99 45 -160t140 -61q77 0 138.5 37t98 97t55.5 129t19 139q0 98 -45 157.5 t-141 59.5q-85 0 -148 -38t-97 -99.5t-49.5 -127t-15.5 -133.5zM508 1333q0 76 47.5 124t128.5 48q56 0 86.5 -29t30.5 -81q0 -75 -48.5 -123.5t-125.5 -48.5q-58 0 -88.5 29t-30.5 81zM907 1331q0 78 46.5 126t127.5 48q58 0 88.5 -29t30.5 -81q0 -76 -48.5 -124 t-127.5 -48q-56 0 -86.5 29t-30.5 79z" />
<glyph unicode="&#xe5;" d="M158 401q0 185 67.5 339t196.5 248.5t295 94.5q108 0 176.5 -37.5t95.5 -95.5h8l54 115h243l-215 -1065h-245l-5 115h-8q-116 -133 -321 -133q-165 0 -253.5 116t-88.5 303zM440 444q0 -99 45 -160t140 -61q77 0 138.5 37t98 97t55.5 129t19 139q0 98 -45 157.5 t-141 59.5q-85 0 -148 -38t-97 -99.5t-49.5 -127t-15.5 -133.5zM610 1356q0 117 80.5 193.5t202.5 76.5q90 0 146.5 -53t56.5 -137q0 -118 -79.5 -194.5t-203.5 -76.5q-89 0 -146 54t-57 137zM758 1376q0 -30 20 -50.5t53 -20.5q51 0 84 30.5t33 75.5q0 33 -21.5 54.5 t-58.5 21.5q-46 0 -78 -33t-32 -78z" />
<glyph unicode="&#xe6;" horiz-adv-x="1798" d="M123 258q0 168 128.5 276.5t375.5 108.5q63 0 129 -10t102 -23l19 92q14 69 -23.5 112.5t-130.5 43.5q-83 0 -137.5 -39t-67.5 -98h-258q32 158 169 260t347 102q110 0 191.5 -35.5t124.5 -95.5h8q151 131 356 131q155 0 255 -70t132.5 -186.5t1.5 -263.5l-22 -106h-721 q-23 -113 22 -180.5t160 -67.5q87 0 146 34.5t88 88.5h266q-53 -151 -200.5 -250.5t-346.5 -99.5q-260 0 -352 188h-8q-157 -188 -437 -188q-151 0 -234 76t-83 200zM401 305q0 -49 36.5 -77.5t107.5 -28.5q104 0 178 56.5t92 139.5l4 23q-86 35 -205 35q-100 0 -156.5 -41 t-56.5 -107zM1139 639h442q16 96 -26 155.5t-144 59.5q-108 0 -177 -59t-95 -156z" />
<glyph unicode="&#xe7;" horiz-adv-x="1124" d="M158 410q0 140 42 262.5t120 214t197 144t265 52.5q222 0 328 -118t80 -306h-277q11 83 -32 133t-129 50q-151 0 -231.5 -112t-80.5 -292q0 -105 46.5 -160t138.5 -55q88 0 151 48.5t88 129.5h277q-41 -173 -168 -286t-324 -131l-55 -64q75 -4 119.5 -46t44.5 -105 q0 -97 -89 -163.5t-239 -66.5q-111 0 -175 54.5t-46 148.5h168q-5 -28 17 -46t61 -18q49 0 80.5 18.5t31.5 53.5q0 24 -21 38.5t-59 14.5h-65l-37 64l88 125q-153 29 -234 140t-81 278z" />
<glyph unicode="&#xe8;" horiz-adv-x="1136" d="M160 416q0 129 40 247t115 212.5t195 151t268 56.5q161 0 265 -70t138 -186.5t3 -263.5l-21 -106h-725q-20 -113 26 -180.5t159 -67.5q87 0 145.5 34.5t87.5 88.5h268q-55 -155 -194.5 -252.5t-349.5 -97.5q-202 0 -311 121t-109 313zM477 639h443q16 96 -26 155.5 t-144 59.5q-109 0 -178.5 -59.5t-94.5 -155.5zM590 1487l4 20h301l82 -293l-4 -20h-205z" />
<glyph unicode="&#xe9;" horiz-adv-x="1136" d="M160 416q0 129 40 247t115 212.5t195 151t268 56.5q161 0 265 -70t138 -186.5t3 -263.5l-21 -106h-725q-20 -113 26 -180.5t159 -67.5q87 0 145.5 34.5t87.5 88.5h268q-55 -155 -194.5 -252.5t-349.5 -97.5q-202 0 -311 121t-109 313zM477 639h443q16 96 -26 155.5 t-144 59.5q-109 0 -178.5 -59.5t-94.5 -155.5zM690 1194l4 20l201 293h301l-4 -20l-297 -293h-205z" />
<glyph unicode="&#xea;" horiz-adv-x="1136" d="M160 416q0 129 40 247t115 212.5t195 151t268 56.5q161 0 265 -70t138 -186.5t3 -263.5l-21 -106h-725q-20 -113 26 -180.5t159 -67.5q87 0 145.5 34.5t87.5 88.5h268q-55 -155 -194.5 -252.5t-349.5 -97.5q-202 0 -311 121t-109 313zM477 639h443q16 96 -26 155.5 t-144 59.5q-109 0 -178.5 -59.5t-94.5 -155.5zM477 1198l4 21l256 284h303l140 -284l-4 -21h-218l-98 125h-8l-150 -125h-225z" />
<glyph unicode="&#xeb;" horiz-adv-x="1136" d="M160 416q0 129 40 247t115 212.5t195 151t268 56.5q161 0 265 -70t138 -186.5t3 -263.5l-21 -106h-725q-20 -113 26 -180.5t159 -67.5q87 0 145.5 34.5t87.5 88.5h268q-55 -155 -194.5 -252.5t-349.5 -97.5q-202 0 -311 121t-109 313zM477 639h443q16 96 -26 155.5 t-144 59.5q-109 0 -178.5 -59.5t-94.5 -155.5zM512 1333q0 76 47.5 124t128.5 48q56 0 86.5 -29t30.5 -81q0 -75 -48.5 -123.5t-125.5 -48.5q-58 0 -88.5 29t-30.5 81zM911 1331q0 78 46.5 126t127.5 48q58 0 88.5 -29t30.5 -81q0 -76 -48.5 -124t-127.5 -48q-56 0 -86.5 29 t-30.5 79z" />
<glyph unicode="&#xec;" horiz-adv-x="505" d="M125 0l217 1065h274l-217 -1065h-274zM276 1487l5 20h301l82 -293l-5 -20h-204z" />
<glyph unicode="&#xed;" horiz-adv-x="505" d="M125 0l217 1065h274l-217 -1065h-274zM377 1194l4 20l201 293h301l-4 -20l-297 -293h-205z" />
<glyph unicode="&#xee;" horiz-adv-x="505" d="M125 0l217 1065h274l-217 -1065h-274zM164 1198l4 21l256 284h303l139 -284l-4 -21h-217l-98 125h-8l-150 -125h-225z" />
<glyph unicode="&#xef;" horiz-adv-x="505" d="M125 0l217 1065h274l-217 -1065h-274zM201 1333q0 76 47.5 124t128.5 48q56 0 86.5 -29t30.5 -81q0 -75 -48.5 -123.5t-126.5 -48.5q-58 0 -88 29t-30 81zM600 1331q0 78 46.5 126t127.5 48q58 0 88.5 -29t30.5 -81q0 -76 -48.5 -124t-127.5 -48q-56 0 -86.5 29t-30.5 79 z" />
<glyph unicode="&#xf0;" horiz-adv-x="1165" d="M158 408q0 136 45 258t126 215t204 147.5t270 54.5q27 0 67 -4q-40 67 -96 135l-268 -110l-37 143l197 80q-104 96 -220 168l5 21h278q78 -53 139 -105l244 98l35 -143l-164 -68q254 -286 242 -630v-15q0 -135 -44 -256t-124 -213.5t-204 -147t-273 -54.5 q-208 0 -315 116.5t-107 309.5zM442 440q0 -106 48 -161.5t139 -55.5q150 0 231.5 109t81.5 291q0 106 -48 162.5t-140 56.5q-148 0 -230 -111t-82 -291z" />
<glyph unicode="&#xf1;" horiz-adv-x="1196" d="M125 0l217 1065h244l-2 -121h8q129 139 330 139q178 0 263 -103.5t48 -281.5l-143 -698h-275l127 621q43 213 -154 213q-99 0 -172 -65.5t-96 -178.5l-121 -590h-274zM549 1208l6 31q24 118 95.5 182t170.5 64q61 0 133 -41l27 -17q44 -28 72 -28q57 0 73 82h168l-6 -31 q-50 -246 -264 -246q-71 0 -127 39l-29 19q-43 24 -71 24q-27 0 -49 -20.5t-29 -57.5h-170z" />
<glyph unicode="&#xf2;" horiz-adv-x="1165" d="M158 408q0 138 38 257.5t112.5 214t198 149t281.5 54.5q209 0 323 -119t114 -311q0 -109 -23 -207t-73 -183.5t-122.5 -147.5t-178 -97.5t-234.5 -35.5q-209 0 -322.5 117.5t-113.5 308.5zM442 440q0 -106 48 -161.5t139 -55.5q150 0 231.5 109t81.5 291q0 106 -48 162.5 t-140 56.5q-148 0 -230 -111t-82 -291zM598 1487l4 20h301l82 -293l-4 -20h-205z" />
<glyph unicode="&#xf3;" horiz-adv-x="1165" d="M158 408q0 138 38 257.5t112.5 214t198 149t281.5 54.5q209 0 323 -119t114 -311q0 -109 -23 -207t-73 -183.5t-122.5 -147.5t-178 -97.5t-234.5 -35.5q-209 0 -322.5 117.5t-113.5 308.5zM442 440q0 -106 48 -161.5t139 -55.5q150 0 231.5 109t81.5 291q0 106 -48 162.5 t-140 56.5q-148 0 -230 -111t-82 -291zM696 1194l4 20l201 293h301l-4 -20l-297 -293h-205z" />
<glyph unicode="&#xf4;" horiz-adv-x="1165" d="M158 408q0 138 38 257.5t112.5 214t198 149t281.5 54.5q209 0 323 -119t114 -311q0 -109 -23 -207t-73 -183.5t-122.5 -147.5t-178 -97.5t-234.5 -35.5q-209 0 -322.5 117.5t-113.5 308.5zM442 440q0 -106 48 -161.5t139 -55.5q150 0 231.5 109t81.5 291q0 106 -48 162.5 t-140 56.5q-148 0 -230 -111t-82 -291zM483 1198l4 21l256 284h304l139 -284l-4 -21h-217l-99 125h-8l-149 -125h-226z" />
<glyph unicode="&#xf5;" horiz-adv-x="1165" d="M158 408q0 138 38 257.5t112.5 214t198 149t281.5 54.5q209 0 323 -119t114 -311q0 -109 -23 -207t-73 -183.5t-122.5 -147.5t-178 -97.5t-234.5 -35.5q-209 0 -322.5 117.5t-113.5 308.5zM442 440q0 -106 48 -161.5t139 -55.5q150 0 231.5 109t81.5 291q0 106 -48 162.5 t-140 56.5q-148 0 -230 -111t-82 -291zM459 1208l6 31q24 118 95.5 182t170.5 64q61 0 133 -41l27 -17q44 -28 72 -28q57 0 73 82h168l-6 -31q-50 -246 -264 -246q-71 0 -127 39l-29 19q-43 24 -71 24q-27 0 -49 -20.5t-29 -57.5h-170z" />
<glyph unicode="&#xf6;" horiz-adv-x="1165" d="M158 408q0 138 38 257.5t112.5 214t198 149t281.5 54.5q209 0 323 -119t114 -311q0 -109 -23 -207t-73 -183.5t-122.5 -147.5t-178 -97.5t-234.5 -35.5q-209 0 -322.5 117.5t-113.5 308.5zM442 440q0 -106 48 -161.5t139 -55.5q150 0 231.5 109t81.5 291q0 106 -48 162.5 t-140 56.5q-148 0 -230 -111t-82 -291zM520 1333q0 76 47.5 124t128.5 48q56 0 86.5 -29t30.5 -81q0 -75 -48.5 -123.5t-125.5 -48.5q-58 0 -88.5 29t-30.5 81zM920 1331q0 78 46.5 126t127.5 48q58 0 88 -29t30 -81q0 -76 -48.5 -124t-127.5 -48q-56 0 -86 29t-30 79z" />
<glyph unicode="&#xf7;" horiz-adv-x="1003" d="M117 528l47 226h983l-45 -226h-985zM403 236q0 79 49 130.5t134 51.5q60 0 92.5 -31.5t32.5 -85.5q0 -78 -51 -130t-134 -52q-60 0 -91.5 32t-31.5 85zM555 979q0 80 49 132t135 52q58 0 89.5 -32.5t31.5 -86.5q0 -77 -49.5 -128.5t-132.5 -51.5q-60 0 -91.5 31t-31.5 84 z" />
<glyph unicode="&#xf8;" horiz-adv-x="1165" d="M51 -106l4 20l183 217q-80 109 -80 277q0 136 45 258t126 215t204 147.5t270 54.5q118 0 205 -41l94 111h225l-4 -20l-174 -207q76 -107 76 -273q0 -135 -44 -256t-124 -213.5t-204 -147t-273 -54.5q-120 0 -199 36l-107 -124h-223zM442 440q0 -25 4 -61l383 450 q-37 13 -75 13q-148 0 -230 -111t-82 -291zM561 233q33 -10 68 -10q150 0 231.5 109t81.5 291q0 23 -4 55z" />
<glyph unicode="&#xf9;" horiz-adv-x="1185" d="M196.5 281.5q-3.5 63.5 8.5 132.5l133 651h272l-123 -608q-47 -219 154 -219q198 0 242 219l123 608h276l-131 -651q-20 -91 -57.5 -165t-101 -136t-163.5 -96.5t-229 -34.5h-2q-95 0 -170.5 23t-122.5 63t-76 95t-32.5 118.5zM612 1487l4 20h302l81 -293l-4 -20h-204z " />
<glyph unicode="&#xfa;" horiz-adv-x="1185" d="M196.5 281.5q-3.5 63.5 8.5 132.5l133 651h272l-123 -608q-47 -219 154 -219q198 0 242 219l123 608h276l-131 -651q-20 -91 -57.5 -165t-101 -136t-163.5 -96.5t-229 -34.5h-2q-95 0 -170.5 23t-122.5 63t-76 95t-32.5 118.5zM713 1194l4 20l201 293h301l-5 -20 l-296 -293h-205z" />
<glyph unicode="&#xfb;" horiz-adv-x="1185" d="M196.5 281.5q-3.5 63.5 8.5 132.5l133 651h272l-123 -608q-47 -219 154 -219q198 0 242 219l123 608h276l-131 -651q-20 -91 -57.5 -165t-101 -136t-163.5 -96.5t-229 -34.5h-2q-95 0 -170.5 23t-122.5 63t-76 95t-32.5 118.5zM500 1198l4 21l256 284h303l139 -284 l-4 -21h-217l-98 125h-9l-149 -125h-225z" />
<glyph unicode="&#xfc;" horiz-adv-x="1185" d="M196.5 281.5q-3.5 63.5 8.5 132.5l133 651h272l-123 -608q-47 -219 154 -219q198 0 242 219l123 608h276l-131 -651q-20 -91 -57.5 -165t-101 -136t-163.5 -96.5t-229 -34.5h-2q-95 0 -170.5 23t-122.5 63t-76 95t-32.5 118.5zM535 1333q0 76 47.5 124t128.5 48 q56 0 86 -29t30 -81q0 -75 -48.5 -123.5t-125.5 -48.5q-58 0 -88 29t-30 81zM934 1331q0 78 46.5 126t127.5 48q58 0 88.5 -29t30.5 -81q0 -76 -48.5 -124t-127.5 -48q-56 0 -86.5 29t-30.5 79z" />
<glyph unicode="&#xfd;" horiz-adv-x="1187" d="M219 -469l4 20l252 451l-39 4l-147 1038l4 21h280l86 -778h9l411 778h297l-4 -21l-858 -1513h-295zM743 1194l5 20l200 293h301l-4 -20l-297 -293h-205z" />
<glyph unicode="&#xfe;" horiz-adv-x="1228" d="M29 -469l313 1534h2l90 451h275l-115 -566h8q125 133 320 133q174 0 263 -124t75 -332q-7 -132 -51.5 -250t-117 -205.5t-175 -138.5t-218.5 -51q-196 0 -266 133h-8l-121 -584h-274zM485 444q0 -98 45.5 -159.5t139.5 -61.5q69 0 124 25.5t89.5 66t57 94t31.5 105 t9 104.5q0 100 -44.5 162t-139.5 62q-64 0 -117.5 -24.5t-89 -64.5t-59.5 -92.5t-35 -107t-11 -109.5z" />
<glyph unicode="&#xff;" horiz-adv-x="1187" d="M219 -469l4 20l252 451l-39 4l-147 1038l4 21h280l86 -778h9l411 778h297l-4 -21l-858 -1513h-295zM567 1333q0 76 47.5 124t128.5 48q56 0 86.5 -29t30.5 -81q0 -75 -48 -123.5t-126 -48.5q-58 0 -88.5 29t-30.5 81zM967 1331q0 78 46.5 126t127.5 48q58 0 88.5 -29 t30.5 -81q0 -76 -49 -124t-128 -48q-56 0 -86 29t-30 79z" />
<glyph unicode="&#x100;" horiz-adv-x="1425" d="M33 0l4 20l786 1414h359l217 -1414l-4 -20h-301l-37 301h-557l-158 -301h-309zM631 549h395l-72 598h-8zM748 1618l43 209h589l-43 -209h-589z" />
<glyph unicode="&#x101;" d="M158 401q0 185 67.5 339t196.5 248.5t295 94.5q108 0 176.5 -37.5t95.5 -95.5h8l54 115h243l-215 -1065h-245l-5 115h-8q-116 -133 -321 -133q-165 0 -253.5 116t-88.5 303zM440 444q0 -99 45 -160t140 -61q77 0 138.5 37t98 97t55.5 129t19 139q0 98 -45 157.5 t-141 59.5q-85 0 -148 -38t-97 -99.5t-49.5 -127t-15.5 -133.5zM535 1249l43 209h589l-43 -209h-589z" />
<glyph unicode="&#x102;" horiz-adv-x="1425" d="M33 0l4 20l786 1414h359l217 -1414l-4 -20h-301l-37 301h-557l-158 -301h-309zM631 549h395l-72 598h-8zM770 1868h201q-18 -111 98 -111q114 0 141 111h201q-24 -147 -114 -224t-259 -77q-154 0 -225.5 80t-42.5 221z" />
<glyph unicode="&#x103;" d="M158 401q0 185 67.5 339t196.5 248.5t295 94.5q108 0 176.5 -37.5t95.5 -95.5h8l54 115h243l-215 -1065h-245l-5 115h-8q-116 -133 -321 -133q-165 0 -253.5 116t-88.5 303zM440 444q0 -99 45 -160t140 -61q77 0 138.5 37t98 97t55.5 129t19 139q0 98 -45 157.5 t-141 59.5q-85 0 -148 -38t-97 -99.5t-49.5 -127t-15.5 -133.5zM555 1499h201q-17 -110 98 -110q114 0 141 110h201q-24 -147 -114 -224t-259 -77q-154 0 -225.5 80t-42.5 221z" />
<glyph unicode="&#x104;" horiz-adv-x="1425" d="M33 0l4 20l786 1414h359l217 -1414l-4 -20h-2q-88 -34 -151.5 -91.5t-63.5 -121.5q0 -70 86 -70q32 0 73 9l-34 -170q-63 -17 -136 -17q-92 0 -158.5 47t-66.5 133q0 168 201 281h-49l-37 301h-557l-158 -301h-309zM631 549h395l-72 598h-8z" />
<glyph unicode="&#x105;" d="M158 401q0 185 67.5 339t196.5 248.5t295 94.5q108 0 176.5 -37.5t95.5 -95.5h8l54 115h243l-215 -1065q-88 -34 -151.5 -91.5t-63.5 -121.5q0 -70 86 -70q34 0 74 9l-35 -170q-63 -17 -135 -17q-92 0 -158.5 47t-66.5 133q0 170 205 283l-5 113h-8q-116 -133 -321 -133 q-165 0 -253.5 116t-88.5 303zM440 444q0 -99 45 -160t140 -61q77 0 138.5 37t98 97t55.5 129t19 139q0 98 -45 157.5t-141 59.5q-85 0 -148 -38t-97 -99.5t-49.5 -127t-15.5 -133.5z" />
<glyph unicode="&#x106;" horiz-adv-x="1452" d="M203 551q0 145 34 278t103.5 247t168 197.5t235 131t296.5 47.5q132 0 238 -42t171.5 -115t95 -172t14.5 -212h-287q13 124 -55 204.5t-218 80.5q-99 0 -182.5 -32t-142.5 -89t-100 -134t-60.5 -167t-19.5 -190q0 -165 77.5 -256.5t233.5 -91.5q146 0 244.5 75t142.5 197 h285q-33 -112 -96.5 -207t-152.5 -166.5t-209 -112t-259 -40.5q-135 0 -242 43t-175.5 119.5t-104 180t-35.5 226.5zM944 1563l4 20l201 293h301l-4 -21l-297 -292h-205z" />
<glyph unicode="&#x107;" horiz-adv-x="1124" d="M158 410q0 140 42 262.5t120 214t197 144t265 52.5q222 0 328 -118t80 -306h-277q11 83 -32 133t-129 50q-151 0 -231.5 -112t-80.5 -292q0 -105 46.5 -160t138.5 -55q88 0 151 48.5t88 129.5h277q-45 -189 -189 -304t-370 -115q-204 0 -314 116t-110 312zM705 1194l4 20 l200 293h301l-4 -20l-297 -293h-204z" />
<glyph unicode="&#x108;" horiz-adv-x="1452" d="M203 551q0 145 34 278t103.5 247t168 197.5t235 131t296.5 47.5q132 0 238 -42t171.5 -115t95 -172t14.5 -212h-287q13 124 -55 204.5t-218 80.5q-99 0 -182.5 -32t-142.5 -89t-100 -134t-60.5 -167t-19.5 -190q0 -165 77.5 -256.5t233.5 -91.5q146 0 244.5 75t142.5 197 h285q-33 -112 -96.5 -207t-152.5 -166.5t-209 -112t-259 -40.5q-135 0 -242 43t-175.5 119.5t-104 180t-35.5 226.5zM731 1567l4 20l256 285h303l140 -285l-4 -20h-218l-98 125h-8l-150 -125h-225z" />
<glyph unicode="&#x109;" horiz-adv-x="1124" d="M158 410q0 140 42 262.5t120 214t197 144t265 52.5q222 0 328 -118t80 -306h-277q11 83 -32 133t-129 50q-151 0 -231.5 -112t-80.5 -292q0 -105 46.5 -160t138.5 -55q88 0 151 48.5t88 129.5h277q-45 -189 -189 -304t-370 -115q-204 0 -314 116t-110 312zM492 1198l4 21 l256 284h303l139 -284l-4 -21h-217l-99 125h-8l-149 -125h-225z" />
<glyph unicode="&#x10a;" horiz-adv-x="1452" d="M203 551q0 145 34 278t103.5 247t168 197.5t235 131t296.5 47.5q132 0 238 -42t171.5 -115t95 -172t14.5 -212h-287q13 124 -55 204.5t-218 80.5q-99 0 -182.5 -32t-142.5 -89t-100 -134t-60.5 -167t-19.5 -190q0 -165 77.5 -256.5t233.5 -91.5q146 0 244.5 75t142.5 197 h285q-33 -112 -96.5 -207t-152.5 -166.5t-209 -112t-259 -40.5q-135 0 -242 43t-175.5 119.5t-104 180t-35.5 226.5zM934 1696q0 91 55 146.5t154 55.5q68 0 104.5 -34.5t36.5 -94.5q0 -90 -56.5 -146t-152.5 -56q-69 0 -105 34.5t-36 94.5z" />
<glyph unicode="&#x10b;" horiz-adv-x="1124" d="M158 410q0 140 42 262.5t120 214t197 144t265 52.5q222 0 328 -118t80 -306h-277q11 83 -32 133t-129 50q-151 0 -231.5 -112t-80.5 -292q0 -105 46.5 -160t138.5 -55q88 0 151 48.5t88 129.5h277q-45 -189 -189 -304t-370 -115q-204 0 -314 116t-110 312zM692 1327 q0 91 55 147t154 56q68 0 104.5 -34.5t36.5 -94.5q0 -91 -56 -147t-152 -56q-69 0 -105.5 34.5t-36.5 94.5z" />
<glyph unicode="&#x10c;" horiz-adv-x="1452" d="M203 551q0 145 34 278t103.5 247t168 197.5t235 131t296.5 47.5q132 0 238 -42t171.5 -115t95 -172t14.5 -212h-287q13 124 -55 204.5t-218 80.5q-99 0 -182.5 -32t-142.5 -89t-100 -134t-60.5 -167t-19.5 -190q0 -165 77.5 -256.5t233.5 -91.5q146 0 244.5 75t142.5 197 h285q-33 -112 -96.5 -207t-152.5 -166.5t-209 -112t-259 -40.5q-135 0 -242 43t-175.5 119.5t-104 180t-35.5 226.5zM786 1851l5 21h213l96 -125h8l149 125h232l-4 -21l-256 -284h-303z" />
<glyph unicode="&#x10d;" horiz-adv-x="1124" d="M158 410q0 140 42 262.5t120 214t197 144t265 52.5q222 0 328 -118t80 -306h-277q11 83 -32 133t-129 50q-151 0 -231.5 -112t-80.5 -292q0 -105 46.5 -160t138.5 -55q88 0 151 48.5t88 129.5h277q-45 -189 -189 -304t-370 -115q-204 0 -314 116t-110 312zM547 1483l4 20 h213l96 -125h8l150 125h231l-4 -20l-256 -285h-303z" />
<glyph unicode="&#x10e;" horiz-adv-x="1441" d="M162 0l291 1434h483q270 0 431 -158.5t161 -419.5q0 -139 -35.5 -266t-107.5 -234.5t-174.5 -187t-245 -124t-310.5 -44.5h-493zM477 250h205q129 0 235 45.5t175 124.5t107 184t38 225q0 169 -94 261t-271 92h-204zM684 1851l4 21h213l96 -125h9l149 125h231l-4 -21 l-256 -284h-303z" />
<glyph unicode="&#x10f;" d="M158 397q0 136 40.5 261t112.5 219t177.5 150t228.5 56q198 0 272 -133h8l117 566h275l-310 -1516h-245l-7 115h-8q-125 -133 -319 -133q-162 0 -252 115t-90 300zM440 444q0 -100 45 -160.5t140 -60.5q79 0 141 36.5t98 96t54 128t18 139.5q0 99 -45 159t-141 60 q-85 0 -148 -37.5t-97 -99t-49.5 -127t-15.5 -134.5zM1407 1167l72 349h274l-4 -21l-160 -328h-182z" />
<glyph unicode="&#x110;" horiz-adv-x="1531" d="M231 623l50 239h143l117 572h485q270 0 431 -158.5t161 -419.5q0 -139 -35.5 -266t-107.5 -234.5t-174.5 -187t-245 -124t-310.5 -44.5h-495l127 623h-146zM567 250h205q128 0 234 45.5t175.5 124.5t107.5 184t38 225q0 169 -93.5 261t-270.5 92h-205l-66 -320h324 l-51 -239h-322z" />
<glyph unicode="&#x111;" d="M158 397q0 136 40.5 261t112.5 219t177.5 150t228.5 56q198 0 272 -133h8l52 250h-234l37 184h235l27 132h275l-27 -132h119l-37 -184h-119l-246 -1200h-245l-7 115h-8q-125 -133 -319 -133q-162 0 -252 115t-90 300zM440 444q0 -100 45 -160.5t140 -60.5q79 0 141 36.5 t98 96t54 128t18 139.5q0 99 -45 159t-141 60q-85 0 -148 -37.5t-97 -99t-49.5 -127t-15.5 -134.5z" />
<glyph unicode="&#x112;" horiz-adv-x="1249" d="M162 0l291 1434h993l-49 -252h-715l-64 -318h652l-53 -250h-652l-73 -364h714l-51 -250h-993zM719 1618l43 209h590l-43 -209h-590z" />
<glyph unicode="&#x113;" horiz-adv-x="1136" d="M160 416q0 129 40 247t115 212.5t195 151t268 56.5q161 0 265 -70t138 -186.5t3 -263.5l-21 -106h-725q-20 -113 26 -180.5t159 -67.5q87 0 145.5 34.5t87.5 88.5h268q-55 -155 -194.5 -252.5t-349.5 -97.5q-202 0 -311 121t-109 313zM477 639h443q16 96 -26 155.5 t-144 59.5q-109 0 -178.5 -59.5t-94.5 -155.5zM539 1249l43 209h589l-43 -209h-589z" />
<glyph unicode="&#x114;" horiz-adv-x="1249" d="M162 0l291 1434h993l-49 -252h-715l-64 -318h652l-53 -250h-652l-73 -364h714l-51 -250h-993zM741 1868h201q-18 -111 98 -111q115 0 142 111h200q-24 -147 -113.5 -224t-258.5 -77q-154 0 -226 80t-43 221z" />
<glyph unicode="&#x115;" horiz-adv-x="1136" d="M160 416q0 129 40 247t115 212.5t195 151t268 56.5q161 0 265 -70t138 -186.5t3 -263.5l-21 -106h-725q-20 -113 26 -180.5t159 -67.5q87 0 145.5 34.5t87.5 88.5h268q-55 -155 -194.5 -252.5t-349.5 -97.5q-202 0 -311 121t-109 313zM477 639h443q16 96 -26 155.5 t-144 59.5q-109 0 -178.5 -59.5t-94.5 -155.5zM559 1499h201q-17 -110 98 -110q114 0 141 110h201q-24 -147 -114 -224t-259 -77q-154 0 -225.5 80t-42.5 221z" />
<glyph unicode="&#x116;" horiz-adv-x="1249" d="M162 0l291 1434h993l-49 -252h-715l-64 -318h652l-53 -250h-652l-73 -364h714l-51 -250h-993zM860 1696q0 91 55 146.5t154 55.5q68 0 104.5 -34.5t36.5 -94.5q0 -90 -56.5 -146t-152.5 -56q-69 0 -105 34.5t-36 94.5z" />
<glyph unicode="&#x117;" horiz-adv-x="1136" d="M160 416q0 129 40 247t115 212.5t195 151t268 56.5q161 0 265 -70t138 -186.5t3 -263.5l-21 -106h-725q-20 -113 26 -180.5t159 -67.5q87 0 145.5 34.5t87.5 88.5h268q-55 -155 -194.5 -252.5t-349.5 -97.5q-202 0 -311 121t-109 313zM477 639h443q16 96 -26 155.5 t-144 59.5q-109 0 -178.5 -59.5t-94.5 -155.5zM678 1327q0 91 55 147t154 56q68 0 104.5 -34.5t36.5 -94.5q0 -90 -56.5 -146.5t-152.5 -56.5q-69 0 -105 34.5t-36 94.5z" />
<glyph unicode="&#x118;" horiz-adv-x="1249" d="M162 0l291 1434h993l-49 -252h-715l-64 -318h652l-53 -250h-652l-73 -364h714l-51 -250h-6q-88 -34 -151.5 -91.5t-63.5 -121.5q0 -70 86 -70q34 0 74 9l-35 -170q-63 -17 -135 -17q-92 0 -159 47t-67 133q0 168 201 281h-737z" />
<glyph unicode="&#x119;" horiz-adv-x="1136" d="M160 416q0 129 40 247t115 212.5t195 151t268 56.5q161 0 265 -70t138 -186.5t3 -263.5l-21 -106h-725q-20 -113 26 -180.5t159 -67.5q87 0 145.5 34.5t87.5 88.5h268q-43 -124 -143.5 -213.5t-249.5 -120.5q-87 -36 -147 -92t-60 -119q0 -70 86 -70q34 0 74 9l-35 -170 q-63 -17 -135 -17q-92 0 -158.5 47t-66.5 133q0 164 186 273q-153 30 -234 144.5t-81 279.5zM477 639h443q16 96 -26 155.5t-144 59.5q-109 0 -178.5 -59.5t-94.5 -155.5z" />
<glyph unicode="&#x11a;" horiz-adv-x="1249" d="M162 0l291 1434h993l-49 -252h-715l-64 -318h652l-53 -250h-652l-73 -364h714l-51 -250h-993zM713 1851l4 21h213l96 -125h8l150 125h231l-4 -21l-256 -284h-303z" />
<glyph unicode="&#x11b;" horiz-adv-x="1136" d="M160 416q0 129 40 247t115 212.5t195 151t268 56.5q161 0 265 -70t138 -186.5t3 -263.5l-21 -106h-725q-20 -113 26 -180.5t159 -67.5q87 0 145.5 34.5t87.5 88.5h268q-55 -155 -194.5 -252.5t-349.5 -97.5q-202 0 -311 121t-109 313zM477 639h443q16 96 -26 155.5 t-144 59.5q-109 0 -178.5 -59.5t-94.5 -155.5zM532 1483l5 20h213l96 -125h8l150 125h231l-4 -20l-256 -285h-303z" />
<glyph unicode="&#x11c;" horiz-adv-x="1466" d="M203 549q0 145 34 278.5t103 247t166.5 198t232 132t291.5 47.5q264 0 411 -144.5t126 -361.5h-287q3 110 -65 180t-218 70q-122 0 -219.5 -50t-158.5 -135.5t-93 -195t-32 -233.5q0 -162 77 -254t232 -92q157 0 256 78.5t143 203.5h-301l51 250h592l-31 -150 q-59 -295 -255 -465.5t-492 -170.5q-136 0 -244 43t-177 119.5t-105.5 179.5t-36.5 225zM731 1567l4 20l256 285h303l140 -285l-4 -20h-218l-98 125h-8l-150 -125h-225z" />
<glyph unicode="&#x11d;" d="M76 -104h268q-6 -63 40 -105.5t136 -42.5q114 0 184.5 56t90.5 147l32 164h-8q-125 -133 -319 -133q-162 0 -253 115t-91 300q0 136 40.5 261t112.5 219t178.5 150t229.5 56q198 0 272 -133h8l54 115h243l-225 -1118q-43 -202 -192.5 -318t-399.5 -116 q-213 0 -322.5 105.5t-78.5 277.5zM440 440q0 -98 45 -157.5t140 -59.5q83 0 146 37.5t97.5 98.5t51 127.5t16.5 134.5q0 99 -45.5 160t-140.5 61q-66 0 -119.5 -24.5t-88 -64.5t-58.5 -93t-34 -108t-10 -112zM467 1198l4 21l256 284h303l139 -284l-4 -21h-217l-98 125h-8 l-150 -125h-225z" />
<glyph unicode="&#x11e;" horiz-adv-x="1466" d="M203 549q0 145 34 278.5t103 247t166.5 198t232 132t291.5 47.5q264 0 411 -144.5t126 -361.5h-287q3 110 -65 180t-218 70q-122 0 -219.5 -50t-158.5 -135.5t-93 -195t-32 -233.5q0 -162 77 -254t232 -92q157 0 256 78.5t143 203.5h-301l51 250h592l-31 -150 q-59 -295 -255 -465.5t-492 -170.5q-136 0 -244 43t-177 119.5t-105.5 179.5t-36.5 225zM813 1868h201q-18 -111 98 -111q114 0 141 111h201q-24 -147 -114 -224t-259 -77q-154 0 -225.5 80t-42.5 221z" />
<glyph unicode="&#x11f;" d="M76 -104h268q-6 -63 40 -105.5t136 -42.5q114 0 184.5 56t90.5 147l32 164h-8q-125 -133 -319 -133q-162 0 -253 115t-91 300q0 136 40.5 261t112.5 219t178.5 150t229.5 56q198 0 272 -133h8l54 115h243l-225 -1118q-43 -202 -192.5 -318t-399.5 -116 q-213 0 -322.5 105.5t-78.5 277.5zM440 440q0 -98 45 -157.5t140 -59.5q83 0 146 37.5t97.5 98.5t51 127.5t16.5 134.5q0 99 -45.5 160t-140.5 61q-66 0 -119.5 -24.5t-88 -64.5t-58.5 -93t-34 -108t-10 -112zM551 1499h201q-17 -110 98 -110q114 0 141 110h201 q-24 -147 -114 -224t-259 -77q-154 0 -225.5 80t-42.5 221z" />
<glyph unicode="&#x120;" horiz-adv-x="1466" d="M203 549q0 145 34 278.5t103 247t166.5 198t232 132t291.5 47.5q264 0 411 -144.5t126 -361.5h-287q3 110 -65 180t-218 70q-122 0 -219.5 -50t-158.5 -135.5t-93 -195t-32 -233.5q0 -162 77 -254t232 -92q157 0 256 78.5t143 203.5h-301l51 250h592l-31 -150 q-59 -295 -255 -465.5t-492 -170.5q-136 0 -244 43t-177 119.5t-105.5 179.5t-36.5 225zM932 1696q0 91 55 146.5t154 55.5q68 0 104.5 -34.5t36.5 -94.5q0 -90 -56.5 -146t-152.5 -56q-69 0 -105 34.5t-36 94.5z" />
<glyph unicode="&#x121;" d="M76 -104h268q-6 -63 40 -105.5t136 -42.5q114 0 184.5 56t90.5 147l32 164h-8q-125 -133 -319 -133q-162 0 -253 115t-91 300q0 136 40.5 261t112.5 219t178.5 150t229.5 56q198 0 272 -133h8l54 115h243l-225 -1118q-43 -202 -192.5 -318t-399.5 -116 q-213 0 -322.5 105.5t-78.5 277.5zM440 440q0 -98 45 -157.5t140 -59.5q83 0 146 37.5t97.5 98.5t51 127.5t16.5 134.5q0 99 -45.5 160t-140.5 61q-66 0 -119.5 -24.5t-88 -64.5t-58.5 -93t-34 -108t-10 -112zM670 1327q0 91 55 147t154 56q68 0 104.5 -34.5t36.5 -94.5 q0 -90 -56.5 -146.5t-152.5 -56.5q-69 0 -105 34.5t-36 94.5z" />
<glyph unicode="&#x122;" horiz-adv-x="1466" d="M203 549q0 145 34 278.5t103 247t166.5 198t232 132t291.5 47.5q264 0 411 -144.5t126 -361.5h-287q3 110 -65 180t-218 70q-122 0 -219.5 -50t-158.5 -135.5t-93 -195t-32 -233.5q0 -162 77 -254t232 -92q157 0 256 78.5t143 203.5h-301l51 250h592l-31 -150 q-59 -295 -255 -465.5t-492 -170.5q-136 0 -244 43t-177 119.5t-105.5 179.5t-36.5 225zM496 -440l4 20l106 316h275l-4 -21l-199 -315h-182z" />
<glyph unicode="&#x123;" d="M76 -104h268q-6 -63 40 -105.5t136 -42.5q114 0 184.5 56t90.5 147l32 164h-8q-125 -133 -319 -133q-162 0 -253 115t-91 300q0 136 40.5 261t112.5 219t178.5 150t229.5 56q198 0 272 -133h8l54 115h243l-225 -1118q-43 -202 -192.5 -318t-399.5 -116 q-213 0 -322.5 105.5t-78.5 277.5zM440 440q0 -98 45 -157.5t140 -59.5q83 0 146 37.5t97.5 98.5t51 127.5t16.5 134.5q0 99 -45.5 160t-140.5 61q-66 0 -119.5 -24.5t-88 -64.5t-58.5 -93t-34 -108t-10 -112zM649 1184l4 20l197 316h184l-4 -21l-106 -315h-275z" />
<glyph unicode="&#x124;" horiz-adv-x="1505" d="M162 0l291 1434h280l-115 -568h621l115 568h280l-291 -1434h-280l125 614h-621l-125 -614h-280zM729 1567l4 20l256 285h303l140 -285l-5 -20h-217l-98 125h-8l-150 -125h-225z" />
<glyph unicode="&#x125;" horiz-adv-x="1204" d="M125 0l309 1516h275l-117 -572h8q129 139 330 139q178 0 263 -103.5t48 -281.5l-143 -698h-275l127 621q43 213 -155 213q-99 0 -175.5 -66.5t-99.5 -179.5l-121 -588h-274zM256 1632l4 21l256 284h303l139 -284l-4 -21h-217l-98 125h-8l-150 -125h-225z" />
<glyph unicode="&#x126;" horiz-adv-x="1650" d="M236 0l210 1044h-108l47 232h109l32 158h281l-33 -158h623l33 158h280l-33 -158h109l-49 -232h-107l-211 -1044h-280l125 614h-623l-125 -614h-280zM692 866h623l35 178h-623z" />
<glyph unicode="&#x127;" horiz-adv-x="1204" d="M125 0l246 1200h-121l37 184h121l26 132h275l-27 -132h233l-36 -184h-234l-53 -256h8q129 139 330 139q178 0 263 -103.5t48 -281.5l-143 -698h-275l127 621q43 213 -155 213q-99 0 -175.5 -66.5t-99.5 -179.5l-121 -588h-274z" />
<glyph unicode="&#x128;" horiz-adv-x="604" d="M162 0l291 1434h282l-291 -1434h-282zM256 1577l6 31q24 118 95.5 181.5t170.5 63.5q62 0 134 -41l26 -16q45 -29 72 -29q58 0 74 82h167l-6 -30q-50 -246 -264 -246q-71 0 -127 39l-29 18q-45 25 -71 25q-27 0 -49 -20.5t-29 -57.5h-170z" />
<glyph unicode="&#x129;" horiz-adv-x="505" d="M125 0l217 1065h274l-217 -1065h-274zM139 1208l6 31q24 118 96 182t171 64q61 0 133 -41l26 -17q44 -28 72 -28q58 0 74 82h168l-6 -31q-50 -246 -265 -246q-71 0 -127 39l-28 19q-43 24 -72 24q-27 0 -49 -20.5t-29 -57.5h-170z" />
<glyph unicode="&#x12a;" horiz-adv-x="604" d="M162 0l291 1434h282l-291 -1434h-282zM342 1618l43 209h590l-43 -209h-590z" />
<glyph unicode="&#x12b;" horiz-adv-x="505" d="M125 0l217 1065h274l-217 -1065h-274zM225 1249l43 209h590l-43 -209h-590z" />
<glyph unicode="&#x12c;" horiz-adv-x="604" d="M162 0l291 1434h282l-291 -1434h-282zM365 1868h200q-18 -111 99 -111q114 0 141 111h201q-24 -147 -114 -224t-259 -77q-154 0 -225.5 80t-42.5 221z" />
<glyph unicode="&#x12d;" horiz-adv-x="505" d="M125 0l217 1065h274l-217 -1065h-274zM248 1499h201q-17 -110 98 -110q114 0 141 110h201q-24 -147 -114 -224t-259 -77q-154 0 -225.5 80t-42.5 221z" />
<glyph unicode="&#x12e;" horiz-adv-x="604" d="M-6 -281q0 168 201 281h-33l291 1434h282l-291 -1434q-88 -34 -151.5 -91.5t-63.5 -121.5q0 -70 86 -70q33 0 74 9l-35 -170q-63 -17 -135 -17q-92 0 -158.5 47t-66.5 133z" />
<glyph unicode="&#x12f;" horiz-adv-x="505" d="M-51 -281q0 168 201 281h-25l217 1065h274l-217 -1065q-88 -34 -151.5 -91.5t-63.5 -121.5q0 -70 86 -70q34 0 74 9l-35 -170q-63 -17 -135 -17q-92 0 -158.5 47t-66.5 133zM365 1327q0 92 54.5 147.5t153.5 55.5q68 0 105 -34.5t37 -94.5q0 -90 -56.5 -146.5 t-152.5 -56.5q-69 0 -105 34.5t-36 94.5z" />
<glyph unicode="&#x130;" horiz-adv-x="604" d="M162 0l291 1434h282l-291 -1434h-282zM483 1696q0 91 55 146.5t154 55.5q68 0 105 -34.5t37 -94.5q0 -90 -56.5 -146t-152.5 -56q-69 0 -105.5 34.5t-36.5 94.5z" />
<glyph unicode="&#x131;" horiz-adv-x="505" d="M125 0l217 1065h274l-217 -1065h-274z" />
<glyph unicode="&#x132;" horiz-adv-x="1716" d="M162 0l291 1434h282l-291 -1434h-282zM723 424h266q-18 -86 22.5 -135t137.5 -49q95 0 154 54t79 144l203 996h283l-203 -996q-42 -209 -184.5 -332.5t-382.5 -123.5q-145 0 -239.5 59.5t-127.5 158.5t-8 224z" />
<glyph unicode="&#x133;" horiz-adv-x="1026" d="M125 0l217 1065h274l-217 -1065h-274zM336 -473l49 246q41 -6 78 -6q138 0 166 149l233 1149h275l-244 -1206q-34 -167 -150.5 -256.5t-279.5 -89.5q-69 0 -127 14zM367 1327q0 91 55 147t153 56q68 0 105 -34.5t37 -94.5q0 -90 -56.5 -146.5t-152.5 -56.5 q-69 0 -105 34.5t-36 94.5zM889 1327q0 91 55 147t154 56q68 0 104.5 -34.5t36.5 -94.5q0 -90 -56.5 -146.5t-152.5 -56.5q-69 0 -105 34.5t-36 94.5z" />
<glyph unicode="&#x134;" horiz-adv-x="1112" d="M119 424h266q-18 -86 22.5 -135t137.5 -49q95 0 154 54t79 144l203 996h283l-203 -996q-42 -209 -184.5 -332.5t-382.5 -123.5q-145 0 -239.5 59.5t-127.5 158.5t-8 224zM797 1567l4 20l256 285h303l139 -285l-4 -20h-217l-98 125h-9l-149 -125h-225z" />
<glyph unicode="&#x135;" horiz-adv-x="520" d="M-170 -473l49 246q41 -6 78 -6q138 0 166 149l233 1149h275l-244 -1206q-34 -167 -151.5 -256.5t-280.5 -89.5q-67 0 -125 14zM170 1198l4 21l256 284h303l139 -284l-4 -21h-217l-98 125h-8l-150 -125h-225z" />
<glyph unicode="&#x136;" horiz-adv-x="1357" d="M162 0l291 1434h280l-119 -582l658 582h334l-4 -21l-764 -676l503 -717l-4 -20h-317l-449 639l-129 -639h-280zM457 -440l4 20l106 316h275l-4 -21l-199 -315h-182z" />
<glyph unicode="&#x137;" horiz-adv-x="1122" d="M125 0l309 1516h260l-176 -859l434 408h340l-4 -21l-536 -487l348 -537l-4 -20h-301l-312 485l-98 -485h-260zM311 -440l4 20l107 316h274l-4 -21l-198 -315h-183z" />
<glyph unicode="&#x138;" horiz-adv-x="1122" d="M125 0l217 1065h260l-86 -418l455 418h321l-4 -21l-528 -479l340 -545l-4 -20h-330l-285 475l-96 -475h-260z" />
<glyph unicode="&#x139;" horiz-adv-x="1134" d="M162 0l291 1434h280l-241 -1182h663l-51 -252h-942zM487 1563l5 20l200 293h301l-4 -21l-297 -292h-205z" />
<glyph unicode="&#x13a;" horiz-adv-x="505" d="M125 0l309 1516h275l-310 -1516h-274zM461 1628l4 21l201 293h301l-4 -21l-297 -293h-205z" />
<glyph unicode="&#x13b;" horiz-adv-x="1134" d="M162 0l291 1434h280l-241 -1182h663l-51 -252h-942zM369 -440l4 20l106 316h275l-4 -21l-199 -315h-182z" />
<glyph unicode="&#x13c;" horiz-adv-x="505" d="M-8 -440l4 20l106 316h275l-4 -21l-199 -315h-182zM125 0l309 1516h275l-310 -1516h-274z" />
<glyph unicode="&#x13d;" horiz-adv-x="1134" d="M162 0l291 1434h280l-241 -1182h663l-51 -252h-942zM891 1085l70 349h274l-4 -21l-160 -328h-180z" />
<glyph unicode="&#x13e;" horiz-adv-x="620" d="M125 0l309 1516h275l-310 -1516h-274zM729 1167l72 349h274l-4 -21l-162 -328h-180z" />
<glyph unicode="&#x13f;" horiz-adv-x="1228" d="M162 0l291 1434h280l-241 -1182h663l-51 -252h-942zM764 719q0 90 54.5 146.5t150.5 56.5q65 0 100 -34.5t35 -94.5q0 -90 -55 -146.5t-148 -56.5q-68 0 -102.5 34t-34.5 95z" />
<glyph unicode="&#x140;" horiz-adv-x="872" d="M125 0l309 1516h275l-310 -1516h-274zM618 715q0 90 54.5 146.5t150.5 56.5q66 0 102 -35t36 -95q0 -89 -56 -145.5t-149 -56.5q-68 0 -103 34t-35 95z" />
<glyph unicode="&#x141;" horiz-adv-x="1277" d="M252 455l47 229l156 57l141 693h281l-119 -584l383 139h20l-49 -235l-403 -144l-74 -358h663l-51 -252h-942l103 502l-136 -47h-20z" />
<glyph unicode="&#x142;" horiz-adv-x="731" d="M168 469l45 215l176 76l154 756h274l-127 -627l162 69h20l-45 -219l-184 -77l-135 -662h-275l109 535l-154 -66h-20z" />
<glyph unicode="&#x143;" horiz-adv-x="1521" d="M162 0l291 1434h311l399 -996h8l201 996h279l-291 -1434h-309l-404 989h-8l-201 -989h-276zM997 1563l4 20l201 293h301l-4 -21l-297 -292h-205z" />
<glyph unicode="&#x144;" horiz-adv-x="1196" d="M125 0l217 1065h244l-2 -121h8q129 139 330 139q178 0 263 -103.5t48 -281.5l-143 -698h-275l127 621q43 213 -154 213q-99 0 -172 -65.5t-96 -178.5l-121 -590h-274zM786 1194l5 20l200 293h301l-4 -20l-297 -293h-205z" />
<glyph unicode="&#x145;" horiz-adv-x="1521" d="M162 0l291 1434h311l399 -996h8l201 996h279l-291 -1434h-309l-404 989h-8l-201 -989h-276zM479 -440l4 20l107 316h274l-4 -21l-198 -315h-183z" />
<glyph unicode="&#x146;" horiz-adv-x="1196" d="M125 0l217 1065h244l-2 -121h8q129 139 330 139q178 0 263 -103.5t48 -281.5l-143 -698h-275l127 621q43 213 -154 213q-99 0 -172 -65.5t-96 -178.5l-121 -590h-274zM360 -440l5 20l106 316h274l-4 -21l-198 -315h-183z" />
<glyph unicode="&#x147;" horiz-adv-x="1521" d="M162 0l291 1434h311l399 -996h8l201 996h279l-291 -1434h-309l-404 989h-8l-201 -989h-276zM840 1851l4 21h213l96 -125h8l150 125h231l-4 -21l-256 -284h-303z" />
<glyph unicode="&#x148;" horiz-adv-x="1196" d="M125 0l217 1065h244l-2 -121h8q129 139 330 139q178 0 263 -103.5t48 -281.5l-143 -698h-275l127 621q43 213 -154 213q-99 0 -172 -65.5t-96 -178.5l-121 -590h-274zM629 1483l4 20h213l96 -125h8l150 125h231l-4 -20l-256 -285h-303z" />
<glyph unicode="&#x149;" horiz-adv-x="1239" d="M-20 948l4 21l163 493h306l-4 -20l-256 -494h-213zM125 0l217 1065h244l-2 -121h8q129 139 330 139q178 0 263 -103.5t48 -281.5l-143 -698h-275l127 621q43 213 -154 213q-99 0 -172 -65.5t-96 -178.5l-121 -590h-274z" />
<glyph unicode="&#x14a;" horiz-adv-x="1521" d="M162 0l291 1434h325l385 -996h8l201 996h279l-97 -471h2l-200 -996q-41 -203 -194 -329.5t-378 -126.5l54 258q99 0 159 53.5t80 144.5l6 33h-51l-385 989h-8l-201 -989h-276z" />
<glyph unicode="&#x14b;" horiz-adv-x="1196" d="M125 0l217 1065h244l-2 -121h8q129 139 330 139q178 0 263 -103.5t48 -281.5l-64 -307h2l-108 -532q-34 -167 -151.5 -256.5t-280.5 -89.5q-67 0 -125 14l49 246q41 -6 78 -6q138 0 166 149l16 84l127 621q43 213 -154 213q-99 0 -172 -65.5t-96 -178.5l-121 -590h-274z " />
<glyph unicode="&#x14c;" horiz-adv-x="1515" d="M203 553q0 132 33 260t102.5 244t168 203.5t238.5 139.5t304 52q138 0 245 -43t174 -120.5t101.5 -180.5t34.5 -227q0 -132 -35 -261t-106 -244t-170 -203t-237.5 -139.5t-297.5 -51.5q-139 0 -246 43.5t-174 121.5t-101 180.5t-34 225.5zM494 586q0 -163 78.5 -255.5 t234.5 -92.5q99 0 183.5 35t143 94t99.5 138t60.5 165.5t19.5 177.5q0 163 -78.5 255.5t-233.5 92.5q-100 0 -185 -35.5t-143.5 -95t-99.5 -138.5t-60 -165t-19 -176zM799 1618l43 209h590l-43 -209h-590z" />
<glyph unicode="&#x14d;" horiz-adv-x="1165" d="M158 408q0 138 38 257.5t112.5 214t198 149t281.5 54.5q209 0 323 -119t114 -311q0 -109 -23 -207t-73 -183.5t-122.5 -147.5t-178 -97.5t-234.5 -35.5q-209 0 -322.5 117.5t-113.5 308.5zM442 440q0 -106 48 -161.5t139 -55.5q150 0 231.5 109t81.5 291q0 106 -48 162.5 t-140 56.5q-148 0 -230 -111t-82 -291zM545 1249l43 209h590l-43 -209h-590z" />
<glyph unicode="&#x14e;" horiz-adv-x="1515" d="M203 553q0 132 33 260t102.5 244t168 203.5t238.5 139.5t304 52q138 0 245 -43t174 -120.5t101.5 -180.5t34.5 -227q0 -132 -35 -261t-106 -244t-170 -203t-237.5 -139.5t-297.5 -51.5q-139 0 -246 43.5t-174 121.5t-101 180.5t-34 225.5zM494 586q0 -163 78.5 -255.5 t234.5 -92.5q99 0 183.5 35t143 94t99.5 138t60.5 165.5t19.5 177.5q0 163 -78.5 255.5t-233.5 92.5q-100 0 -185 -35.5t-143.5 -95t-99.5 -138.5t-60 -165t-19 -176zM819 1868h201q-18 -111 98 -111q115 0 142 111h200q-24 -147 -114 -224t-259 -77q-154 0 -225.5 80 t-42.5 221z" />
<glyph unicode="&#x14f;" horiz-adv-x="1165" d="M158 408q0 138 38 257.5t112.5 214t198 149t281.5 54.5q209 0 323 -119t114 -311q0 -109 -23 -207t-73 -183.5t-122.5 -147.5t-178 -97.5t-234.5 -35.5q-209 0 -322.5 117.5t-113.5 308.5zM442 440q0 -106 48 -161.5t139 -55.5q150 0 231.5 109t81.5 291q0 106 -48 162.5 t-140 56.5q-148 0 -230 -111t-82 -291zM567 1499h201q-17 -110 98 -110t142 110h200q-24 -147 -113.5 -224t-258.5 -77q-154 0 -226 80t-43 221z" />
<glyph unicode="&#x150;" horiz-adv-x="1515" d="M203 553q0 132 33 260t102.5 244t168 203.5t238.5 139.5t304 52q138 0 245 -43t174 -120.5t101.5 -180.5t34.5 -227q0 -132 -35 -261t-106 -244t-170 -203t-237.5 -139.5t-297.5 -51.5q-139 0 -246 43.5t-174 121.5t-101 180.5t-34 225.5zM494 586q0 -163 78.5 -255.5 t234.5 -92.5q99 0 183.5 35t143 94t99.5 138t60.5 165.5t19.5 177.5q0 163 -78.5 255.5t-233.5 92.5q-100 0 -185 -35.5t-143.5 -95t-99.5 -138.5t-60 -165t-19 -176zM768 1563l4 20l156 293h297l-4 -21l-269 -292h-184zM1143 1563l4 20l156 293h296l-4 -21l-270 -292h-182z " />
<glyph unicode="&#x151;" horiz-adv-x="1165" d="M158 408q0 138 38 257.5t112.5 214t198 149t281.5 54.5q209 0 323 -119t114 -311q0 -109 -23 -207t-73 -183.5t-122.5 -147.5t-178 -97.5t-234.5 -35.5q-209 0 -322.5 117.5t-113.5 308.5zM442 440q0 -106 48 -161.5t139 -55.5q150 0 231.5 109t81.5 291q0 106 -48 162.5 t-140 56.5q-148 0 -230 -111t-82 -291zM516 1194l4 20l156 293h297l-4 -20l-269 -293h-184zM891 1194l4 20l156 293h297l-5 -20l-270 -293h-182z" />
<glyph unicode="&#x152;" horiz-adv-x="2242" d="M203 553q0 140 35 272t106 245.5t171 198.5t238.5 134t299.5 49q232 0 370 -125l23 107h993l-49 -252h-715l-63 -318h651l-53 -250h-651l-74 -364h715l-52 -250h-993l19 88q-182 -106 -420 -106q-138 0 -245 43.5t-173 121.5t-99.5 180.5t-33.5 225.5zM494 586 q0 -163 78.5 -255.5t234.5 -92.5q179 0 298 96.5t171 261.5l33 158q4 62 4 94q0 163 -78.5 255.5t-233.5 92.5q-126 0 -224.5 -49.5t-159.5 -134.5t-92 -193.5t-31 -232.5z" />
<glyph unicode="&#x153;" horiz-adv-x="1890" d="M158 408q0 136 45 258t126 215t204 147.5t270 54.5q227 0 340 -149q162 149 407 149q154 0 253.5 -70t132.5 -186.5t3 -263.5l-22 -106h-717l-12 -41q-8 -96 39 -151.5t151 -55.5q165 0 234 123h266q-53 -151 -201.5 -250.5t-345.5 -99.5q-217 0 -327 149 q-172 -149 -424 -149q-208 0 -315 116.5t-107 309.5zM442 440q0 -106 48 -161.5t139 -55.5q121 0 198.5 73.5t102.5 201.5q1 9 4 27.5t4 27.5q4 46 4 70q0 106 -48 162.5t-140 56.5q-148 0 -230 -111t-82 -291zM1233 639h440q18 95 -24 155t-144 60q-110 0 -178.5 -59 t-93.5 -156z" />
<glyph unicode="&#x154;" horiz-adv-x="1372" d="M162 0l291 1434h628q189 0 294.5 -105.5t105.5 -265.5q0 -183 -106 -320t-281 -190l247 -533l-4 -20h-321l-223 524h-246l-105 -524h-280zM600 774h330q120 0 189 74.5t69 173.5q0 71 -43 115.5t-127 44.5h-336zM877 1563l4 20l200 293h301l-4 -21l-297 -292h-204z" />
<glyph unicode="&#x155;" horiz-adv-x="796" d="M125 0l217 1065h229l-10 -162h8q52 80 133.5 129t178.5 49h88l-60 -254h-96q-123 0 -207.5 -80t-113.5 -225l-107 -522h-260zM549 1194l4 20l201 293h301l-4 -20l-297 -293h-205z" />
<glyph unicode="&#x156;" horiz-adv-x="1372" d="M162 0l291 1434h628q189 0 294.5 -105.5t105.5 -265.5q0 -183 -106 -320t-281 -190l247 -533l-4 -20h-321l-223 524h-246l-105 -524h-280zM459 -440l4 20l106 316h275l-4 -21l-199 -315h-182zM600 774h330q120 0 189 74.5t69 173.5q0 71 -43 115.5t-127 44.5h-336z" />
<glyph unicode="&#x157;" horiz-adv-x="796" d="M70 -440l4 20l106 316h275l-4 -21l-199 -315h-182zM125 0l217 1065h229l-10 -162h8q52 80 133.5 129t178.5 49h88l-60 -254h-96q-123 0 -207.5 -80t-113.5 -225l-107 -522h-260z" />
<glyph unicode="&#x158;" horiz-adv-x="1372" d="M162 0l291 1434h628q189 0 294.5 -105.5t105.5 -265.5q0 -183 -106 -320t-281 -190l247 -533l-4 -20h-321l-223 524h-246l-105 -524h-280zM600 774h330q120 0 189 74.5t69 173.5q0 71 -43 115.5t-127 44.5h-336zM719 1851l4 21h213l96 -125h8l150 125h231l-4 -21 l-256 -284h-303z" />
<glyph unicode="&#x159;" horiz-adv-x="796" d="M125 0l217 1065h229l-10 -162h8q52 80 133.5 129t178.5 49h88l-60 -254h-96q-123 0 -207.5 -80t-113.5 -225l-107 -522h-260zM391 1483l4 20h213l97 -125h8l149 125h232l-4 -20l-256 -285h-304z" />
<glyph unicode="&#x15a;" horiz-adv-x="1294" d="M156 473h284q-15 -120 51.5 -181t200.5 -61q166 0 249 55.5t83 151.5q0 112 -164 146l-201 45q-168 38 -260 119.5t-92 224.5q0 217 166.5 348t462.5 131q242 0 374.5 -127.5t94.5 -327.5h-285q10 91 -46 147t-187 56q-139 0 -211 -49.5t-72 -128.5q0 -96 158 -133 l184 -41q180 -40 277.5 -123.5t97.5 -232.5q0 -109 -39 -199.5t-118.5 -161t-212 -110t-306.5 -39.5q-274 0 -399 131.5t-90 359.5zM836 1563l4 20l200 293h301l-4 -21l-297 -292h-204z" />
<glyph unicode="&#x15b;" horiz-adv-x="1046" d="M139 358h275q-13 -64 26.5 -104.5t128.5 -40.5q98 0 149.5 32t51.5 81q0 70 -104 90l-162 33q-116 24 -186 89t-70 175q0 166 123 268t368 102q197 0 297 -99.5t70 -254.5h-270q11 59 -25 97t-117 38q-77 0 -124.5 -30.5t-47.5 -81.5q0 -61 90 -80l187 -37 q119 -24 186.5 -83.5t67.5 -172.5q0 -190 -139.5 -293.5t-389.5 -103.5q-224 0 -319.5 101t-65.5 275zM639 1194l4 20l201 293h301l-4 -20l-297 -293h-205z" />
<glyph unicode="&#x15c;" horiz-adv-x="1294" d="M156 473h284q-15 -120 51.5 -181t200.5 -61q166 0 249 55.5t83 151.5q0 112 -164 146l-201 45q-168 38 -260 119.5t-92 224.5q0 217 166.5 348t462.5 131q242 0 374.5 -127.5t94.5 -327.5h-285q10 91 -46 147t-187 56q-139 0 -211 -49.5t-72 -128.5q0 -96 158 -133 l184 -41q180 -40 277.5 -123.5t97.5 -232.5q0 -109 -39 -199.5t-118.5 -161t-212 -110t-306.5 -39.5q-274 0 -399 131.5t-90 359.5zM623 1567l4 20l256 285h303l139 -285l-4 -20h-217l-98 125h-9l-149 -125h-225z" />
<glyph unicode="&#x15d;" horiz-adv-x="1046" d="M139 358h275q-13 -64 26.5 -104.5t128.5 -40.5q98 0 149.5 32t51.5 81q0 70 -104 90l-162 33q-116 24 -186 89t-70 175q0 166 123 268t368 102q197 0 297 -99.5t70 -254.5h-270q11 59 -25 97t-117 38q-77 0 -124.5 -30.5t-47.5 -81.5q0 -61 90 -80l187 -37 q119 -24 186.5 -83.5t67.5 -172.5q0 -190 -139.5 -293.5t-389.5 -103.5q-224 0 -319.5 101t-65.5 275zM426 1198l4 21l256 284h303l139 -284l-4 -21h-217l-98 125h-8l-150 -125h-225z" />
<glyph unicode="&#x15e;" horiz-adv-x="1294" d="M156 473h284q-15 -120 51.5 -181t200.5 -61q166 0 249 55.5t83 151.5q0 112 -164 146l-201 45q-168 38 -260 119.5t-92 224.5q0 217 166.5 348t462.5 131q242 0 374.5 -127.5t94.5 -327.5h-285q10 91 -46 147t-187 56q-139 0 -211 -49.5t-72 -128.5q0 -96 158 -133 l184 -41q180 -40 277.5 -123.5t97.5 -232.5q0 -101 -33 -186t-100.5 -153.5t-179 -112t-258.5 -54.5l-58 -66q75 -4 119.5 -46t44.5 -105q0 -97 -89 -163.5t-239 -66.5q-111 0 -175 54.5t-46 148.5h168q-5 -28 17 -46t61 -18q49 0 81 18.5t32 53.5q0 24 -21 38.5t-59 14.5 h-66l-37 64l84 119q-233 18 -337.5 147.5t-73.5 339.5z" />
<glyph unicode="&#x15f;" horiz-adv-x="1046" d="M139 358h275q-13 -64 26.5 -104.5t128.5 -40.5q98 0 149.5 32t51.5 81q0 70 -104 90l-162 33q-116 24 -186 89t-70 175q0 166 123 268t368 102q197 0 297 -99.5t70 -254.5h-270q11 59 -25 97t-117 38q-77 0 -124.5 -30.5t-47.5 -81.5q0 -61 90 -80l187 -37 q119 -24 186.5 -83.5t67.5 -172.5q0 -174 -117.5 -276t-329.5 -117l-55 -66q75 -4 119.5 -46t44.5 -105q0 -97 -89 -163.5t-239 -66.5q-111 0 -175 54.5t-46 148.5h168q-5 -28 17 -46t61 -18q49 0 80.5 18.5t31.5 53.5q0 24 -21 38.5t-59 14.5h-65l-37 64l86 121 q-174 21 -245 118.5t-44 251.5z" />
<glyph unicode="&#x160;" horiz-adv-x="1294" d="M156 473h284q-15 -120 51.5 -181t200.5 -61q166 0 249 55.5t83 151.5q0 112 -164 146l-201 45q-168 38 -260 119.5t-92 224.5q0 217 166.5 348t462.5 131q242 0 374.5 -127.5t94.5 -327.5h-285q10 91 -46 147t-187 56q-139 0 -211 -49.5t-72 -128.5q0 -96 158 -133 l184 -41q180 -40 277.5 -123.5t97.5 -232.5q0 -109 -39 -199.5t-118.5 -161t-212 -110t-306.5 -39.5q-274 0 -399 131.5t-90 359.5zM680 1851l4 21h213l96 -125h8l150 125h231l-4 -21l-256 -284h-303z" />
<glyph unicode="&#x161;" horiz-adv-x="1046" d="M139 358h275q-13 -64 26.5 -104.5t128.5 -40.5q98 0 149.5 32t51.5 81q0 70 -104 90l-162 33q-116 24 -186 89t-70 175q0 166 123 268t368 102q197 0 297 -99.5t70 -254.5h-270q11 59 -25 97t-117 38q-77 0 -124.5 -30.5t-47.5 -81.5q0 -61 90 -80l187 -37 q119 -24 186.5 -83.5t67.5 -172.5q0 -190 -139.5 -293.5t-389.5 -103.5q-224 0 -319.5 101t-65.5 275zM481 1483l4 20h213l97 -125h8l149 125h232l-4 -20l-256 -285h-303z" />
<glyph unicode="&#x162;" horiz-adv-x="1212" d="M244 -258h168q-5 -28 16.5 -46t60.5 -18q49 0 81 18.5t32 53.5q0 24 -21 38.5t-59 14.5h-65l-37 64l94 133h-49l240 1180h-422l51 254h1126l-49 -254h-424l-239 -1180h-50l-69 -80q75 -4 119.5 -46t44.5 -105q0 -97 -89 -163.5t-239 -66.5q-111 0 -175 54.5t-46 148.5z " />
<glyph unicode="&#x163;" horiz-adv-x="854" d="M141 -258h168q-5 -28 17 -46t61 -18q49 0 81 18.5t32 53.5q0 24 -21 38.5t-59 14.5h-66l-37 64l99 137q-87 34 -118 112.5t-9 188.5l106 526h-172l45 234h187l45 223l254 58h20l-57 -281h256l-45 -234h-258l-95 -466q-15 -75 10.5 -109.5t96.5 -34.5q53 0 106 17h21 l-47 -230q-77 -23 -182 -26l-54 -62q75 -4 119.5 -46t44.5 -105q0 -97 -89 -163.5t-239 -66.5q-111 0 -175 54.5t-46 148.5z" />
<glyph unicode="&#x164;" horiz-adv-x="1212" d="M283 1180l51 254h1126l-49 -254h-424l-239 -1180h-283l240 1180h-422zM645 1851l4 21h213l96 -125h9l149 125h232l-5 -21l-256 -284h-303z" />
<glyph unicode="&#x165;" horiz-adv-x="854" d="M223 831l45 234h187l45 223l254 58h20l-57 -281h256l-45 -234h-258l-95 -466q-15 -75 10.5 -109.5t96.5 -34.5q53 0 106 17h21l-47 -230q-91 -26 -205 -26q-167 0 -232 87.5t-36 235.5l106 526h-172zM854 1167l72 349h274l-4 -21l-160 -328h-182z" />
<glyph unicode="&#x166;" horiz-adv-x="1224" d="M264 643l49 236h330l62 301h-422l51 254h1126l-49 -254h-424l-61 -301h342l-47 -236h-342l-131 -643h-283l131 643h-332z" />
<glyph unicode="&#x167;" horiz-adv-x="854" d="M156 506l39 186h172l28 139h-172l45 234h187l45 223l254 58h20l-57 -281h256l-45 -234h-258l-29 -139h242l-39 -186h-240l-29 -141q-15 -75 10.5 -109.5t96.5 -34.5q53 0 106 17h21l-47 -230q-91 -26 -205 -26q-169 0 -233 87t-35 236l41 201h-174z" />
<glyph unicode="&#x168;" horiz-adv-x="1462" d="M250 303q-25 106 2 246l180 885h281l-178 -881q-17 -66 -10.5 -124.5t30.5 -101.5t80.5 -68.5t140.5 -25.5q166 0 256 87.5t119 232.5l180 881h281l-178 -885q-58 -278 -236.5 -422.5t-454.5 -144.5q-127 0 -228.5 36t-170.5 107.5t-94 177.5zM680 1577l6 31 q24 118 95.5 181.5t170.5 63.5q61 0 133 -41l27 -16q45 -29 72 -29q57 0 73 82h168l-6 -30q-50 -246 -264 -246q-71 0 -127 39l-29 18q-45 25 -71 25q-27 0 -49 -20.5t-29 -57.5h-170z" />
<glyph unicode="&#x169;" horiz-adv-x="1185" d="M196.5 281.5q-3.5 63.5 8.5 132.5l133 651h272l-123 -608q-47 -219 154 -219q198 0 242 219l123 608h276l-131 -651q-20 -91 -57.5 -165t-101 -136t-163.5 -96.5t-229 -34.5h-2q-95 0 -170.5 23t-122.5 63t-76 95t-32.5 118.5zM473 1208l6 31q24 118 95.5 182t170.5 64 q62 0 134 -41l26 -17q44 -28 72 -28q58 0 74 82h168l-7 -31q-50 -246 -264 -246q-71 0 -127 39l-28 19q-43 24 -72 24q-27 0 -49 -20.5t-29 -57.5h-170z" />
<glyph unicode="&#x16a;" horiz-adv-x="1462" d="M250 303q-25 106 2 246l180 885h281l-178 -881q-17 -66 -10.5 -124.5t30.5 -101.5t80.5 -68.5t140.5 -25.5q166 0 256 87.5t119 232.5l180 881h281l-178 -885q-58 -278 -236.5 -422.5t-454.5 -144.5q-127 0 -228.5 36t-170.5 107.5t-94 177.5zM766 1618l43 209h590 l-43 -209h-590z" />
<glyph unicode="&#x16b;" horiz-adv-x="1185" d="M196.5 281.5q-3.5 63.5 8.5 132.5l133 651h272l-123 -608q-47 -219 154 -219q198 0 242 219l123 608h276l-131 -651q-20 -91 -57.5 -165t-101 -136t-163.5 -96.5t-229 -34.5h-2q-95 0 -170.5 23t-122.5 63t-76 95t-32.5 118.5zM561 1249l43 209h590l-43 -209h-590z" />
<glyph unicode="&#x16c;" horiz-adv-x="1462" d="M250 303q-25 106 2 246l180 885h281l-178 -881q-17 -66 -10.5 -124.5t30.5 -101.5t80.5 -68.5t140.5 -25.5q166 0 256 87.5t119 232.5l180 881h281l-178 -885q-58 -278 -236.5 -422.5t-454.5 -144.5q-127 0 -228.5 36t-170.5 107.5t-94 177.5zM786 1868h201 q-18 -111 98 -111q115 0 142 111h200q-24 -147 -113.5 -224t-258.5 -77q-154 0 -226 80t-43 221z" />
<glyph unicode="&#x16d;" horiz-adv-x="1185" d="M196.5 281.5q-3.5 63.5 8.5 132.5l133 651h272l-123 -608q-47 -219 154 -219q198 0 242 219l123 608h276l-131 -651q-20 -91 -57.5 -165t-101 -136t-163.5 -96.5t-229 -34.5h-2q-95 0 -170.5 23t-122.5 63t-76 95t-32.5 118.5zM582 1499h200q-17 -110 99 -110 q114 0 141 110h201q-24 -147 -114 -224t-259 -77q-154 0 -225.5 80t-42.5 221z" />
<glyph unicode="&#x16e;" horiz-adv-x="1462" d="M250 303q-25 106 2 246l180 885h281l-178 -881q-17 -66 -10.5 -124.5t30.5 -101.5t80.5 -68.5t140.5 -25.5q166 0 256 87.5t119 232.5l180 881h281l-178 -885q-58 -278 -236.5 -422.5t-454.5 -144.5q-127 0 -228.5 36t-170.5 107.5t-94 177.5zM844 1724q0 117 80 194 t202 77q90 0 146.5 -53.5t56.5 -137.5q0 -118 -79 -194t-203 -76q-89 0 -146 53.5t-57 136.5zM991 1745q0 -30 20.5 -51t53.5 -21q50 0 83.5 31t33.5 76q0 33 -21.5 54t-58.5 21q-47 0 -79 -32.5t-32 -77.5z" />
<glyph unicode="&#x16f;" horiz-adv-x="1185" d="M196.5 281.5q-3.5 63.5 8.5 132.5l133 651h272l-123 -608q-47 -219 154 -219q198 0 242 219l123 608h276l-131 -651q-20 -91 -57.5 -165t-101 -136t-163.5 -96.5t-229 -34.5h-2q-95 0 -170.5 23t-122.5 63t-76 95t-32.5 118.5zM639 1356q0 117 80.5 193.5t202.5 76.5 q90 0 146 -53t56 -137q0 -118 -79 -194.5t-203 -76.5q-89 0 -146 54t-57 137zM786 1376q0 -30 20.5 -50.5t53.5 -20.5q51 0 84 30.5t33 75.5q0 33 -21.5 54.5t-58.5 21.5q-47 0 -79 -33t-32 -78z" />
<glyph unicode="&#x170;" horiz-adv-x="1462" d="M250 303q-25 106 2 246l180 885h281l-178 -881q-17 -66 -10.5 -124.5t30.5 -101.5t80.5 -68.5t140.5 -25.5q166 0 256 87.5t119 232.5l180 881h281l-178 -885q-58 -278 -236.5 -422.5t-454.5 -144.5q-127 0 -228.5 36t-170.5 107.5t-94 177.5zM735 1563l4 20l156 293h297 l-4 -21l-268 -292h-185zM1110 1563l4 20l156 293h297l-4 -21l-271 -292h-182z" />
<glyph unicode="&#x171;" horiz-adv-x="1185" d="M196.5 281.5q-3.5 63.5 8.5 132.5l133 651h272l-123 -608q-47 -219 154 -219q198 0 242 219l123 608h276l-131 -651q-20 -91 -57.5 -165t-101 -136t-163.5 -96.5t-229 -34.5h-2q-95 0 -170.5 23t-122.5 63t-76 95t-32.5 118.5zM530 1194l5 20l155 293h297l-4 -20 l-268 -293h-185zM905 1194l4 20l156 293h297l-4 -20l-271 -293h-182z" />
<glyph unicode="&#x172;" horiz-adv-x="1462" d="M252 549l180 885h281l-178 -881q-17 -66 -10.5 -124.5t30.5 -101.5t80.5 -68.5t140.5 -25.5q166 0 256 87.5t119 232.5l180 881h281l-178 -885q-51 -243 -193 -383.5t-364 -173.5q-81 -36 -137 -90.5t-56 -114.5q0 -70 86 -70q34 0 74 9l-35 -170q-63 -17 -135 -17 q-92 0 -158.5 47t-66.5 133q0 162 182 271q-214 31 -321 176t-58 383z" />
<glyph unicode="&#x173;" horiz-adv-x="1185" d="M205 414l133 651h272l-123 -608q-47 -219 154 -219q198 0 242 219l123 608h276l-131 -651q-78 -366 -426 -422q-81 -36 -137 -90.5t-56 -114.5q0 -70 86 -70q34 0 74 9l-35 -170q-63 -17 -135 -17q-92 0 -158.5 47t-66.5 133q0 164 186 273q-171 31 -240.5 148t-37.5 274 z" />
<glyph unicode="&#x174;" horiz-adv-x="1918" d="M319 1413l5 21h309l-10 -1037h8l456 1037h322l41 -1037h8l408 1037h311l-4 -21l-614 -1413h-361l-29 1004h-8l-444 -1004h-357zM932 1567l4 20l256 285h303l139 -285l-4 -20h-217l-98 125h-8l-150 -125h-225z" />
<glyph unicode="&#x175;" horiz-adv-x="1656" d="M238 1044l4 21h280l8 -758h9l323 758h352l21 -758h8l313 758h291l-4 -21l-469 -1044h-362l-21 756h-8l-336 -756h-362zM735 1192l4 20l256 285h303l140 -285l-4 -20h-217l-99 125h-8l-149 -125h-226z" />
<glyph unicode="&#x176;" horiz-adv-x="1400" d="M319 1413l5 21h313l221 -576h8l459 576h334l-4 -21l-694 -833l-117 -580h-283l117 578zM680 1567l4 20l256 285h303l139 -285l-4 -20h-217l-98 125h-8l-150 -125h-225z" />
<glyph unicode="&#x177;" horiz-adv-x="1187" d="M219 -469l4 20l252 451l-39 4l-147 1038l4 21h280l86 -778h9l411 778h297l-4 -21l-858 -1513h-295zM530 1198l5 21l256 284h303l139 -284l-4 -21h-217l-99 125h-8l-149 -125h-226z" />
<glyph unicode="&#x178;" horiz-adv-x="1400" d="M319 1413l5 21h313l221 -576h8l459 576h334l-4 -21l-694 -833l-117 -580h-283l117 578zM717 1702q0 76 47.5 124t128.5 48q56 0 86.5 -29.5t30.5 -81.5q0 -75 -48 -123.5t-126 -48.5q-58 0 -88.5 29.5t-30.5 81.5zM1116 1700q0 78 46.5 126t127.5 48q58 0 88.5 -29.5 t30.5 -81.5q0 -76 -48.5 -124t-127.5 -48q-56 0 -86.5 29.5t-30.5 79.5z" />
<glyph unicode="&#x179;" horiz-adv-x="1222" d="M68 0l49 246l903 925l2 9h-696l51 254h1057l-50 -250l-901 -924l-2 -8h725l-51 -252h-1087zM803 1563l4 20l201 293h301l-4 -21l-297 -292h-205z" />
<glyph unicode="&#x17a;" horiz-adv-x="1028" d="M84 0l45 229l629 594l2 8h-504l45 234h856l-47 -231l-627 -592v-9h510l-49 -233h-860zM643 1194l4 20l201 293h301l-4 -20l-297 -293h-205z" />
<glyph unicode="&#x17b;" horiz-adv-x="1222" d="M68 0l49 246l903 925l2 9h-696l51 254h1057l-50 -250l-901 -924l-2 -8h725l-51 -252h-1087zM791 1696q0 91 54.5 146.5t153.5 55.5q68 0 105 -34.5t37 -94.5q0 -90 -56.5 -146t-152.5 -56q-69 0 -105 34.5t-36 94.5z" />
<glyph unicode="&#x17c;" horiz-adv-x="1028" d="M84 0l45 229l629 594l2 8h-504l45 234h856l-47 -231l-627 -592v-9h510l-49 -233h-860zM631 1327q0 91 55 147t154 56q68 0 104.5 -34.5t36.5 -94.5q0 -90 -56.5 -146.5t-152.5 -56.5q-69 0 -105 34.5t-36 94.5z" />
<glyph unicode="&#x17d;" horiz-adv-x="1222" d="M68 0l49 246l903 925l2 9h-696l51 254h1057l-50 -250l-901 -924l-2 -8h725l-51 -252h-1087zM645 1851l4 21h213l96 -125h9l149 125h232l-5 -21l-256 -284h-303z" />
<glyph unicode="&#x17e;" horiz-adv-x="1028" d="M84 0l45 229l629 594l2 8h-504l45 234h856l-47 -231l-627 -592v-9h510l-49 -233h-860zM485 1483l4 20h213l97 -125h8l149 125h232l-4 -20l-256 -285h-303z" />
<glyph unicode="&#x192;" horiz-adv-x="960" d="M53 612v232h228l38 252q29 196 137 291.5t302 95.5q82 0 149 -19v-233q-59 16 -123 16q-170 0 -196 -178l-35 -225h268v-232h-303l-164 -1081h-274v20l164 1061h-191z" />
<glyph unicode="&#x1cd;" horiz-adv-x="1425" d="M33 0l4 20l786 1414h359l217 -1414l-4 -20h-301l-37 301h-557l-158 -301h-309zM631 549h395l-72 598h-8zM741 1851l4 21h213l97 -125h8l149 125h232l-4 -21l-256 -284h-303z" />
<glyph unicode="&#x1ce;" d="M158 401q0 185 67.5 339t196.5 248.5t295 94.5q108 0 176.5 -37.5t95.5 -95.5h8l54 115h243l-215 -1065h-245l-5 115h-8q-116 -133 -321 -133q-165 0 -253.5 116t-88.5 303zM440 444q0 -99 45 -160t140 -61q77 0 138.5 37t98 97t55.5 129t19 139q0 98 -45 157.5 t-141 59.5q-85 0 -148 -38t-97 -99.5t-49.5 -127t-15.5 -133.5zM528 1483l4 20h213l97 -125h8l149 125h232l-4 -20l-256 -285h-303z" />
<glyph unicode="&#x1cf;" horiz-adv-x="604" d="M162 0l291 1434h282l-291 -1434h-282zM336 1851l4 21h213l96 -125h8l150 125h231l-4 -21l-256 -284h-303z" />
<glyph unicode="&#x1d0;" horiz-adv-x="505" d="M125 0l217 1065h274l-217 -1065h-274zM219 1483l4 20h213l96 -125h9l149 125h232l-4 -20l-256 -285h-304z" />
<glyph unicode="&#x1d1;" horiz-adv-x="1515" d="M203 553q0 132 33 260t102.5 244t168 203.5t238.5 139.5t304 52q138 0 245 -43t174 -120.5t101.5 -180.5t34.5 -227q0 -132 -35 -261t-106 -244t-170 -203t-237.5 -139.5t-297.5 -51.5q-139 0 -246 43.5t-174 121.5t-101 180.5t-34 225.5zM494 586q0 -163 78.5 -255.5 t234.5 -92.5q99 0 183.5 35t143 94t99.5 138t60.5 165.5t19.5 177.5q0 163 -78.5 255.5t-233.5 92.5q-100 0 -185 -35.5t-143.5 -95t-99.5 -138.5t-60 -165t-19 -176zM793 1851l4 21h213l96 -125h8l150 125h231l-4 -21l-256 -284h-303z" />
<glyph unicode="&#x1d2;" horiz-adv-x="1165" d="M158 408q0 138 38 257.5t112.5 214t198 149t281.5 54.5q209 0 323 -119t114 -311q0 -109 -23 -207t-73 -183.5t-122.5 -147.5t-178 -97.5t-234.5 -35.5q-209 0 -322.5 117.5t-113.5 308.5zM442 440q0 -106 48 -161.5t139 -55.5q150 0 231.5 109t81.5 291q0 106 -48 162.5 t-140 56.5q-148 0 -230 -111t-82 -291zM539 1483l4 20h213l96 -125h8l150 125h231l-4 -20l-256 -285h-303z" />
<glyph unicode="&#x1e6;" horiz-adv-x="1466" d="M203 549q0 145 34 278.5t103 247t166.5 198t232 132t291.5 47.5q264 0 411 -144.5t126 -361.5h-287q3 110 -65 180t-218 70q-122 0 -219.5 -50t-158.5 -135.5t-93 -195t-32 -233.5q0 -162 77 -254t232 -92q157 0 256 78.5t143 203.5h-301l51 250h592l-31 -150 q-59 -295 -255 -465.5t-492 -170.5q-136 0 -244 43t-177 119.5t-105.5 179.5t-36.5 225zM786 1851l5 21h213l96 -125h8l149 125h232l-4 -21l-256 -284h-303z" />
<glyph unicode="&#x1e7;" d="M76 -104h268q-6 -63 40 -105.5t136 -42.5q114 0 184.5 56t90.5 147l32 164h-8q-125 -133 -319 -133q-162 0 -253 115t-91 300q0 136 40.5 261t112.5 219t178.5 150t229.5 56q198 0 272 -133h8l54 115h243l-225 -1118q-43 -202 -192.5 -318t-399.5 -116 q-213 0 -322.5 105.5t-78.5 277.5zM440 440q0 -98 45 -157.5t140 -59.5q83 0 146 37.5t97.5 98.5t51 127.5t16.5 134.5q0 99 -45.5 160t-140.5 61q-66 0 -119.5 -24.5t-88 -64.5t-58.5 -93t-34 -108t-10 -112zM522 1483l4 20h213l97 -125h8l149 125h232l-4 -20l-256 -285 h-303z" />
<glyph unicode="&#x218;" horiz-adv-x="1294" d="M156 473h284q-15 -120 51.5 -181t200.5 -61q166 0 249 55.5t83 151.5q0 112 -164 146l-201 45q-168 38 -260 119.5t-92 224.5q0 217 166.5 348t462.5 131q242 0 374.5 -127.5t94.5 -327.5h-285q10 91 -46 147t-187 56q-139 0 -211 -49.5t-72 -128.5q0 -96 158 -133 l184 -41q180 -40 277.5 -123.5t97.5 -232.5q0 -109 -39 -199.5t-118.5 -161t-212 -110t-306.5 -39.5q-274 0 -399 131.5t-90 359.5zM395 -440l4 20l107 316h274l-4 -21l-198 -315h-183z" />
<glyph unicode="&#x219;" horiz-adv-x="1046" d="M139 358h275q-13 -64 26.5 -104.5t128.5 -40.5q98 0 149.5 32t51.5 81q0 70 -104 90l-162 33q-116 24 -186 89t-70 175q0 166 123 268t368 102q197 0 297 -99.5t70 -254.5h-270q11 59 -25 97t-117 38q-77 0 -124.5 -30.5t-47.5 -81.5q0 -61 90 -80l187 -37 q119 -24 186.5 -83.5t67.5 -172.5q0 -190 -139.5 -293.5t-389.5 -103.5q-224 0 -319.5 101t-65.5 275zM254 -440l4 20l107 316h274l-4 -21l-199 -315h-182z" />
<glyph unicode="&#x21a;" horiz-adv-x="1212" d="M283 1180l51 254h1126l-49 -254h-424l-239 -1180h-283l240 1180h-422zM332 -440l4 20l106 316h275l-4 -21l-199 -315h-182z" />
<glyph unicode="&#x21b;" horiz-adv-x="854" d="M223 831l45 234h187l45 223l254 58h20l-57 -281h256l-45 -234h-258l-95 -466q-15 -75 10.5 -109.5t96.5 -34.5q53 0 106 17h21l-47 -230q-91 -26 -205 -26q-167 0 -232 87.5t-36 235.5l106 526h-172zM229 -440l4 20l107 316h274l-4 -21l-198 -315h-183z" />
<glyph unicode="&#x237;" horiz-adv-x="520" d="M-170 -473l49 246q41 -6 78 -6q138 0 166 149l233 1149h275l-244 -1206q-34 -167 -151.5 -256.5t-280.5 -89.5q-67 0 -125 14z" />
<glyph unicode="&#x2c6;" horiz-adv-x="811" d="M301 1198l4 21l256 284h303l140 -284l-5 -21h-217l-98 125h-8l-150 -125h-225z" />
<glyph unicode="&#x2c7;" horiz-adv-x="811" d="M358 1483l4 20h213l97 -125h8l149 125h232l-4 -20l-256 -285h-303z" />
<glyph unicode="&#x2d8;" horiz-adv-x="784" d="M377 1499h201q-17 -110 98 -110q114 0 141 110h201q-24 -147 -114 -224t-259 -77q-154 0 -225.5 80t-42.5 221z" />
<glyph unicode="&#x2d9;" horiz-adv-x="462" d="M334 1327q0 91 55 147t154 56q68 0 104.5 -34.5t36.5 -94.5q0 -90 -56.5 -146.5t-152.5 -56.5q-69 0 -105 34.5t-36 94.5z" />
<glyph unicode="&#x2da;" horiz-adv-x="602" d="M342 1356q0 117 80.5 193.5t202.5 76.5q90 0 146 -53t56 -137q0 -118 -79 -194.5t-203 -76.5q-89 0 -146 54t-57 137zM489 1376q0 -30 20.5 -50.5t53.5 -20.5q51 0 84 30.5t33 75.5q0 33 -21.5 54.5t-58.5 21.5q-47 0 -79 -33t-32 -78z" />
<glyph unicode="&#x2db;" horiz-adv-x="524" d="M10 -281q0 60 25 112t67.5 90.5t85 64.5t91.5 47l182 -33q-88 -34 -151.5 -91.5t-63.5 -121.5q0 -70 86 -70q34 0 74 9l-35 -170q-63 -17 -135 -17q-92 0 -159 47t-67 133z" />
<glyph unicode="&#x2dc;" horiz-adv-x="788" d="M295 1208l6 31q24 118 95.5 182t170.5 64q61 0 133 -41l27 -17q44 -28 72 -28q57 0 73 82h168l-6 -31q-50 -246 -264 -246q-71 0 -127 39l-29 19q-43 24 -71 24q-27 0 -49 -20.5t-29 -57.5h-170z" />
<glyph unicode="&#x2dd;" horiz-adv-x="894" d="M307 1194l4 20l156 293h297l-4 -20l-268 -293h-185zM682 1194l4 20l156 293h297l-4 -20l-271 -293h-182z" />
<glyph unicode="&#x326;" horiz-adv-x="0" d="M-479 -440l4 20l106 316h275l-4 -21l-199 -315h-182z" />
<glyph unicode="&#x1e80;" horiz-adv-x="1918" d="M319 1413l5 21h309l-10 -1037h8l456 1037h322l41 -1037h8l408 1037h311l-4 -21l-614 -1413h-361l-29 1004h-8l-444 -1004h-357zM1044 1855l5 21h301l82 -293l-5 -20h-204z" />
<glyph unicode="&#x1e81;" horiz-adv-x="1656" d="M238 1044l4 21h280l8 -758h9l323 758h352l21 -758h8l313 758h291l-4 -21l-469 -1044h-362l-21 756h-8l-336 -756h-362zM850 1481l4 20h301l82 -293l-4 -20h-205z" />
<glyph unicode="&#x1e82;" horiz-adv-x="1918" d="M319 1413l5 21h309l-10 -1037h8l456 1037h322l41 -1037h8l408 1037h311l-4 -21l-614 -1413h-361l-29 1004h-8l-444 -1004h-357zM1145 1563l4 20l201 293h301l-4 -21l-297 -292h-205z" />
<glyph unicode="&#x1e83;" horiz-adv-x="1656" d="M238 1044l4 21h280l8 -758h9l323 758h352l21 -758h8l313 758h291l-4 -21l-469 -1044h-362l-21 756h-8l-336 -756h-362zM948 1188l4 20l201 293h301l-4 -20l-297 -293h-205z" />
<glyph unicode="&#x1e84;" horiz-adv-x="1918" d="M319 1413l5 21h309l-10 -1037h8l456 1037h322l41 -1037h8l408 1037h311l-4 -21l-614 -1413h-361l-29 1004h-8l-444 -1004h-357zM969 1702q0 76 47.5 124t128.5 48q56 0 86.5 -29.5t30.5 -81.5q0 -75 -48.5 -123.5t-126.5 -48.5q-57 0 -87.5 29.5t-30.5 81.5zM1368 1700 q0 78 46.5 126t127.5 48q58 0 88.5 -29.5t30.5 -81.5q0 -76 -48.5 -124t-127.5 -48q-56 0 -86.5 29.5t-30.5 79.5z" />
<glyph unicode="&#x1e85;" horiz-adv-x="1656" d="M238 1044l4 21h280l8 -758h9l323 758h352l21 -758h8l313 758h291l-4 -21l-469 -1044h-362l-21 756h-8l-336 -756h-362zM772 1327q0 76 47.5 124t128.5 48q56 0 86.5 -29t30.5 -81q0 -75 -48.5 -123.5t-125.5 -48.5q-58 0 -88.5 29t-30.5 81zM1171 1325q0 78 47 126 t128 48q58 0 88 -29t30 -81q0 -76 -48.5 -124t-127.5 -48q-56 0 -86.5 29t-30.5 79z" />
<glyph unicode="&#x1ebc;" horiz-adv-x="1249" d="M162 0l291 1434h993l-49 -252h-715l-64 -318h652l-53 -250h-652l-73 -364h714l-51 -250h-993zM633 1577l6 31q24 118 95.5 181.5t170.5 63.5q61 0 133 -41l27 -16q45 -29 72 -29q57 0 73 82h168l-6 -30q-50 -246 -264 -246q-71 0 -127 39l-29 18q-45 25 -71 25 q-27 0 -49 -20.5t-29 -57.5h-170z" />
<glyph unicode="&#x1ebd;" horiz-adv-x="1136" d="M160 416q0 129 40 247t115 212.5t195 151t268 56.5q161 0 265 -70t138 -186.5t3 -263.5l-21 -106h-725q-20 -113 26 -180.5t159 -67.5q87 0 145.5 34.5t87.5 88.5h268q-55 -155 -194.5 -252.5t-349.5 -97.5q-202 0 -311 121t-109 313zM451 1208l6 31q24 118 95.5 182 t170.5 64q61 0 133 -41l27 -17q44 -28 71 -28q58 0 74 82h168l-6 -31q-50 -246 -264 -246q-71 0 -127 39l-29 19q-43 24 -72 24q-27 0 -48.5 -20.5t-28.5 -57.5h-170zM477 639h443q16 96 -26 155.5t-144 59.5q-109 0 -178.5 -59.5t-94.5 -155.5z" />
<glyph unicode="&#x1ef2;" horiz-adv-x="1400" d="M319 1413l5 21h313l221 -576h8l459 576h334l-4 -21l-694 -833l-117 -580h-283l117 578zM793 1855l4 21h301l82 -293l-4 -20h-205z" />
<glyph unicode="&#x1ef3;" horiz-adv-x="1187" d="M219 -469l4 20l252 451l-39 4l-147 1038l4 21h280l86 -778h9l411 778h297l-4 -21l-858 -1513h-295zM645 1487l4 20h301l82 -293l-4 -20h-205z" />
<glyph unicode="&#x2000;" horiz-adv-x="997" />
<glyph unicode="&#x2001;" horiz-adv-x="1995" />
<glyph unicode="&#x2002;" horiz-adv-x="997" />
<glyph unicode="&#x2003;" horiz-adv-x="1995" />
<glyph unicode="&#x2004;" horiz-adv-x="665" />
<glyph unicode="&#x2005;" horiz-adv-x="498" />
<glyph unicode="&#x2006;" horiz-adv-x="332" />
<glyph unicode="&#x2007;" horiz-adv-x="332" />
<glyph unicode="&#x2008;" horiz-adv-x="249" />
<glyph unicode="&#x2009;" horiz-adv-x="399" />
<glyph unicode="&#x200a;" horiz-adv-x="110" />
<glyph unicode="&#x2010;" horiz-adv-x="954" d="M262 477l49 246h627l-49 -246h-627z" />
<glyph unicode="&#x2011;" horiz-adv-x="954" d="M262 477l49 246h627l-49 -246h-627z" />
<glyph unicode="&#x2012;" horiz-adv-x="954" d="M262 477l49 246h627l-49 -246h-627z" />
<glyph unicode="&#x2013;" horiz-adv-x="1273" d="M221 477l49 246h1028l-49 -246h-1028z" />
<glyph unicode="&#x2014;" horiz-adv-x="2256" d="M221 477l49 246h2011l-49 -246h-2011z" />
<glyph unicode="&#x2018;" horiz-adv-x="477" d="M240 920l4 20l258 494h211l-4 -21l-164 -493h-305z" />
<glyph unicode="&#x2019;" horiz-adv-x="477" d="M240 920l4 20l164 494h305l-4 -21l-256 -493h-213z" />
<glyph unicode="&#x201a;" horiz-adv-x="477" d="M-4 -289l4 21l164 493h305l-4 -20l-256 -494h-213z" />
<glyph unicode="&#x201c;" horiz-adv-x="882" d="M240 920l4 20l258 494h211l-4 -21l-164 -493h-305zM647 920l4 20l256 494h213l-4 -21l-164 -493h-305z" />
<glyph unicode="&#x201d;" horiz-adv-x="882" d="M240 920l4 20l164 494h305l-4 -21l-256 -493h-213zM647 920l4 20l164 494h305l-4 -21l-256 -493h-213z" />
<glyph unicode="&#x201e;" horiz-adv-x="882" d="M-4 -289l4 21l164 493h305l-4 -20l-256 -494h-213zM401 -289l5 21l163 493h305l-4 -20l-256 -494h-213z" />
<glyph unicode="&#x2020;" horiz-adv-x="952" d="M328 965l45 219h223l51 250h240l-51 -250h225l-43 -219h-227l-56 -277l-102 -338h-170l33 338l55 277h-223z" />
<glyph unicode="&#x2021;" horiz-adv-x="952" d="M182 250l45 221h234l76 246l26 248h-235l45 219h223l51 250h240l-51 -250h225l-43 -219h-236l-75 -248l-23 -246h234l-46 -221h-225l-51 -250h-240l52 250h-226z" />
<glyph unicode="&#x2022;" horiz-adv-x="790" d="M238 539q0 145 90 242.5t245 97.5q107 0 165.5 -61t58.5 -159q0 -144 -93 -242t-243 -98q-110 0 -166.5 59.5t-56.5 160.5z" />
<glyph unicode="&#x2026;" horiz-adv-x="1705" d="M115 111q0 90 55 146t152 56q65 0 100 -34.5t35 -94.5q0 -89 -56 -145.5t-149 -56.5q-67 0 -102 34t-35 95zM713 111q0 90 54 146t151 56q65 0 101 -35t36 -94q0 -89 -56.5 -145.5t-150.5 -56.5q-66 0 -100.5 34t-34.5 95zM1309 111q0 90 54 146t150 56q66 0 102 -34.5 t36 -94.5q0 -89 -56 -145.5t-149 -56.5q-67 0 -102 34t-35 95z" />
<glyph unicode="&#x202f;" horiz-adv-x="399" />
<glyph unicode="&#x2030;" horiz-adv-x="2494" d="M260 0l4 20l1258 1414h229l-4 -21l-1253 -1413h-234zM309 997q0 194 114.5 327.5t303.5 133.5q127 0 195.5 -78t68.5 -206q0 -126 -49.5 -230t-145.5 -167.5t-221 -63.5q-130 0 -198 77t-68 207zM506 1022q0 -129 106 -129q90 0 137.5 71t47.5 185q0 129 -107 129 q-90 0 -137 -71t-47 -185zM1034 266q0 126 50 230t146.5 167.5t221.5 63.5q128 0 197 -78t69 -207q0 -194 -114.5 -327t-303.5 -133q-129 0 -197.5 77t-68.5 207zM1231 291q0 -129 106 -129q90 0 137.5 71t47.5 185q0 129 -107 129q-90 0 -137 -71t-47 -185zM1796 266 q0 126 50 230t146 167.5t220 63.5q128 0 197 -78t69 -207q0 -194 -114.5 -327t-303.5 -133q-127 0 -195.5 77t-68.5 207zM1991 291q0 -129 106 -129q90 0 138.5 71t48.5 185q0 129 -109 129q-90 0 -137 -71t-47 -185z" />
<glyph unicode="&#x2039;" horiz-adv-x="729" d="M170 569l4 21l424 434h262l-4 -20l-373 -426l199 -422l-4 -21h-258z" />
<glyph unicode="&#x203a;" horiz-adv-x="729" d="M106 135l5 21l372 426l-198 422l4 20h258l250 -434l-4 -21l-426 -434h-261z" />
<glyph unicode="&#x2044;" horiz-adv-x="1130" d="M-63 -205l4 21l1282 1822h262l-4 -20l-1278 -1823h-266z" />
<glyph unicode="&#x205f;" horiz-adv-x="498" />
<glyph unicode="&#x20ac;" horiz-adv-x="1542" d="M172 457l37 184h88q3 69 18 133h-79l38 184h97q95 227 288.5 360.5t470.5 133.5q132 0 238 -42t171.5 -115t95 -172t14.5 -212h-287q13 125 -54 205t-218 80q-141 0 -246.5 -63t-169.5 -175h479l-80 -184h-469q-15 -64 -18 -133h430l-78 -184h-340q25 -106 100 -163.5 t197 -57.5q147 0 246 75.5t141 196.5h285q-70 -233 -256.5 -379.5t-460.5 -146.5q-241 0 -383 130t-168 345h-127z" />
<glyph unicode="&#x2116;" horiz-adv-x="2371" d="M162 0l291 1434h325l385 -996h8l201 996h279l-291 -1434h-328l-385 989h-8l-201 -989h-276zM1602 385l40 205h656l-39 -205h-657zM1688 979q0 97 28 181.5t81.5 150t138.5 103.5t192 38q146 0 228.5 -83.5t82.5 -217.5q0 -96 -27 -180t-80 -149.5t-138 -103.5t-193 -38 q-149 0 -231 82.5t-82 216.5zM1903 1010q0 -67 31 -104.5t89 -37.5q95 0 148 70.5t53 185.5q0 65 -31 101.5t-90 36.5q-93 0 -146.5 -70t-53.5 -182z" />
<glyph unicode="&#x2122;" horiz-adv-x="1497" d="M328 1290l26 144h553l-28 -144h-197l-107 -526h-157l106 526h-196zM866 764l135 670h175l127 -308h6l245 308h175l-136 -670h-153l86 424h-6l-254 -314h-21l-133 318h-6l-86 -428h-154z" />
<glyph unicode="&#x2212;" horiz-adv-x="1003" d="M117 524l47 234h985l-49 -234h-983z" />
<glyph unicode="&#x2260;" horiz-adv-x="1003" d="M70 291l47 235h323l160 199h-442l47 233h583l105 129h194l-4 -20l-88 -109h193l-47 -233h-334l-160 -199h455l-49 -235h-596l-90 -113h-195l4 21l74 92h-180z" />
<glyph unicode="&#x2264;" horiz-adv-x="1064" d="M74 2l47 236h919l-47 -236h-919zM209 662l55 276l987 334l-51 -254l-704 -211l-2 -8l618 -217l-53 -254z" />
<glyph unicode="&#x2265;" horiz-adv-x="1064" d="M74 2l47 236h919l-47 -236h-919zM139 328l54 254l700 219l2 8l-614 209l51 254l852 -334l-58 -276z" />
<glyph unicode="&#x25fc;" horiz-adv-x="1064" d="M0 0v1065h1065v-1065h-1065z" />
<glyph horiz-adv-x="505" d="M125 0l217 1065h274l-217 -1065h-274zM365 1327q0 92 54.5 147.5t153.5 55.5q68 0 105 -34.5t37 -94.5q0 -90 -56.5 -146.5t-152.5 -56.5q-69 0 -105 34.5t-36 94.5z" />
<glyph horiz-adv-x="409" d="M289 1085l69 349h275l-4 -21l-160 -328h-180z" />
</font>
</defs>
</svg>
