<?xml version="1.0" standalone="no"?>
<!DOCTYPE svg PUBLIC "-//W3C//DTD SVG 1.1//EN" "http://www.w3.org/Graphics/SVG/1.1/DTD/svg11.dtd" >
<svg xmlns="http://www.w3.org/2000/svg" xmlns:xlink="http://www.w3.org/1999/xlink" version="1.1">
<metadata></metadata>
<defs>
<font id="basier_circlemedium" horiz-adv-x="1193" >
<font-face units-per-em="2048" ascent="1638" descent="-410" />
<missing-glyph horiz-adv-x="595" />
<glyph unicode=" "  horiz-adv-x="595" />
<glyph unicode="&#x09;" horiz-adv-x="595" />
<glyph unicode="&#xa0;" horiz-adv-x="595" />
<glyph unicode="!" horiz-adv-x="544" d="M125 131q0 69 37.5 109.5t109.5 40.5q70 0 109 -41t39 -109t-39 -108.5t-109 -40.5q-72 0 -109.5 40t-37.5 109zM147 1237v197h254v-197l-53 -782h-158z" />
<glyph unicode="&#x22;" horiz-adv-x="870" d="M123 1194v240h237v-240l-41 -311h-155zM510 1194v240h238v-240l-43 -311h-154z" />
<glyph unicode="#" horiz-adv-x="1421" d="M102 367v204h242l49 281h-188v205h223l64 377h208l-63 -377h250l63 377h209l-63 -377h223v-205h-258l-49 -281h205v-204h-240l-62 -367h-208l61 367h-250l-61 -367h-209l61 367h-207zM553 571h250l49 281h-250z" />
<glyph unicode="$" horiz-adv-x="1294" d="M76 457h243q7 -107 72 -173t176 -81v434l-37 8q-198 42 -302.5 137.5t-104.5 268.5q0 167 118 273.5t326 123.5v170h166v-170q203 -23 326.5 -142t124.5 -298h-244q-5 85 -56.5 143t-150.5 76v-387l41 -9q210 -43 322 -145.5t112 -279.5q0 -180 -121.5 -291t-353.5 -129 v-170h-166v168q-231 20 -356.5 145t-134.5 328zM371 1051q0 -66 47.5 -109t148.5 -68v357q-96 -12 -146 -58.5t-50 -121.5zM733 201q228 27 228 200q0 82 -55 128.5t-167 70.5l-6 2v-401z" />
<glyph unicode="%" horiz-adv-x="1740" d="M117 1085q0 168 82 270.5t237 102.5q153 0 235.5 -103t82.5 -270q0 -168 -81.5 -270t-236.5 -102t-237 102t-82 270zM279 0v20l970 1414h203v-21l-967 -1413h-206zM291 1085q0 -211 145 -211q144 0 144 211t-144 211q-145 0 -145 -211zM985 354q0 167 82.5 270t237.5 103 q153 0 236 -103t83 -270q0 -168 -82 -270t-237 -102t-237.5 102.5t-82.5 269.5zM1161 354q0 -211 144 -211q143 0 143 211t-143 211q-144 0 -144 -211z" />
<glyph unicode="&#x26;" horiz-adv-x="1497" d="M115 383q0 128 71.5 221t210.5 174l-4 4q-80 87 -115.5 160t-35.5 160q0 148 107 248.5t276 101.5h4q177 0 284 -98.5t107 -247.5q0 -109 -70 -199t-217 -174l260 -276q102 146 181 358h239v-20q-123 -305 -270 -500l256 -275v-20h-289l-121 133q-185 -151 -405 -151 q-128 0 -233.5 46t-170.5 138.5t-65 216.5zM356 383q0 -83 64.5 -135.5t163.5 -52.5q138 0 260 96l-309 336q-101 -62 -140 -117t-39 -127zM469 1102q0 -52 27.5 -99.5t87.5 -107.5l10 -12q104 58 149 106.5t45 110.5q0 67 -42 109t-119 42h-4q-69 -1 -111.5 -43.5 t-42.5 -105.5z" />
<glyph unicode="'" horiz-adv-x="483" d="M123 1194v240h237v-240l-41 -311h-155z" />
<glyph unicode="(" horiz-adv-x="747" d="M80 606q0 290 97.5 531t248.5 417h180v-20q-61 -80 -112.5 -173.5t-97 -209.5t-71.5 -257t-26 -288t26 -288t71.5 -257t97 -209.5t112.5 -173.5v-20h-180q-70 82 -129.5 179.5t-109.5 216.5t-78.5 261.5t-28.5 290.5z" />
<glyph unicode=")" horiz-adv-x="747" d="M141 -322q132 173 220 409.5t88 518.5t-88 518.5t-220 409.5v20h181q151 -176 248.5 -417t97.5 -531q0 -148 -28.5 -290.5t-78.5 -261.5t-109.5 -216.5t-129.5 -179.5h-181v20z" />
<glyph unicode="*" horiz-adv-x="995" d="M135 1030l246 76v8l-246 78l86 170l207 -150l8 9l-28 254h190l-31 -254l8 -9l207 150l88 -170l-247 -78v-8l247 -76l-88 -170l-209 150l-8 -6l33 -256h-190l30 256l-8 6l-209 -150z" />
<glyph unicode="+" horiz-adv-x="993" d="M10 541v200h381v406h217v-406h375v-200h-375v-406h-217v406h-381z" />
<glyph unicode="," horiz-adv-x="487" d="M59 -262l64 481h264v-20l-143 -482h-185v21z" />
<glyph unicode="-" horiz-adv-x="954" d="M164 494v213h627v-213h-627z" />
<glyph unicode="." horiz-adv-x="497" d="M100 131q0 69 39 109.5t111 40.5q69 0 108 -40.5t39 -109.5q0 -68 -38.5 -108.5t-108.5 -40.5q-72 0 -111 40t-39 109z" />
<glyph unicode="/" horiz-adv-x="856" d="M31 -252l575 1761h219v-20l-577 -1761h-217v20z" />
<glyph unicode="0" horiz-adv-x="1286" d="M117 721q0 164 29.5 295.5t91 232t164 155t241.5 54.5t241.5 -54.5t164 -155t91 -232t29.5 -295.5q0 -165 -29.5 -297t-91 -232.5t-164 -155t-241.5 -54.5t-241.5 54.5t-164 155t-91 232.5t-29.5 297zM356 721q0 -124 13.5 -216t45 -165.5t89 -111.5t139.5 -38t139.5 38 t89 111.5t45 165.5t13.5 216q0 123 -14 215t-45.5 164.5t-89 110.5t-138.5 38t-138.5 -38t-89 -110.5t-45.5 -164.5t-14 -215z" />
<glyph unicode="1" horiz-adv-x="870" d="M94 934v229l357 271h237v-1434h-235v1186h-9l-329 -252h-21z" />
<glyph unicode="2" horiz-adv-x="1165" d="M106 1006q0 207 126.5 329.5t342.5 122.5q208 0 334.5 -113t126.5 -290q0 -111 -57.5 -208.5t-198.5 -248.5l-352 -377v-8h631v-213h-948v188l481 519q122 133 163.5 197t41.5 143q0 93 -57.5 147.5t-164.5 54.5q-109 0 -173 -61.5t-64 -181.5h-232z" />
<glyph unicode="3" horiz-adv-x="1234" d="M109 420h233q0 -98 67.5 -165t204.5 -67q127 0 195 62t68 164q0 108 -72 168.5t-211 60.5h-125v207h121q113 0 177 56t64 151q0 85 -57.5 139.5t-169.5 54.5q-117 0 -177 -60t-62 -163h-236q4 201 133 315.5t348 114.5q199 0 331 -105.5t132 -275.5q0 -232 -207 -309v-8 q115 -36 183.5 -127.5t68.5 -214.5q0 -91 -32 -169t-92.5 -138t-158 -94.5t-219.5 -34.5q-228 0 -367.5 116.5t-139.5 321.5z" />
<glyph unicode="4" horiz-adv-x="1204" d="M72 285v233l571 916h307v-940h185v-209h-185v-285h-235v285h-643zM301 494h414v673h-8l-406 -665v-8z" />
<glyph unicode="5" horiz-adv-x="1216" d="M109 414h235q5 -95 72.5 -159.5t189.5 -64.5q136 0 201 79.5t65 203.5q0 118 -67 196.5t-197 78.5q-151 0 -243 -125h-234l55 811h838v-211h-641l-27 -377h9q102 98 278 98q213 0 340 -131.5t127 -335.5q0 -223 -131.5 -359t-372.5 -136q-221 0 -359 124t-138 308z" />
<glyph unicode="6" horiz-adv-x="1265" d="M117 694q0 129 19.5 241t62 209t105.5 166t155 108.5t205 39.5q199 0 324.5 -109.5t146.5 -279.5h-230q-14 81 -77 129.5t-164 48.5q-159 0 -239.5 -129t-80.5 -348h8q109 166 328 166q109 0 199.5 -38.5t148.5 -103.5t89.5 -149t31.5 -176q0 -137 -59.5 -246.5 t-176 -175t-270.5 -65.5q-136 0 -238 52t-164.5 148t-93 224t-30.5 288zM375 467q0 -123 72.5 -200t197.5 -77q121 0 194.5 77.5t73.5 197.5q0 121 -70.5 197.5t-197.5 76.5q-126 0 -198 -76.5t-72 -195.5z" />
<glyph unicode="7" horiz-adv-x="1107" d="M66 1219v215h976v-226q-434 -590 -591 -1208h-244v20q162 616 594 1190v9h-735z" />
<glyph unicode="8" horiz-adv-x="1232" d="M106 406q0 125 60 215t176 135v8q-92 44 -142 126t-50 189q0 172 127 274.5t339 104.5q212 -2 339.5 -104.5t127.5 -274.5q0 -107 -50 -189t-142 -126v-8q116 -45 175.5 -135t59.5 -215q0 -198 -138 -310t-372 -114q-234 2 -372 114t-138 310zM346 420 q0 -108 69.5 -170.5t200.5 -63.5q131 1 201 63.5t70 170.5q0 104 -69 167t-202 64q-133 -1 -201.5 -64t-68.5 -167zM387 1057q0 -91 62 -146t167 -55t167.5 55t62.5 146q0 92 -61.5 144t-168.5 52t-168 -52t-61 -144z" />
<glyph unicode="9" horiz-adv-x="1265" d="M117 971q0 137 59.5 246.5t176 175t270.5 65.5q136 0 238 -52t164.5 -148t93 -224.5t30.5 -288.5q0 -128 -19.5 -240.5t-62.5 -209.5t-106.5 -166t-155.5 -108t-205 -39q-199 0 -324.5 109.5t-146.5 279.5h231q12 -81 76 -129.5t164 -48.5q160 0 241 128.5t81 348.5h-9 q-109 -166 -329 -166q-109 0 -199 38.5t-148 103.5t-89 149t-31 176zM352 975q0 -121 71 -198t198 -77q126 0 198 77t72 196q0 122 -73 199t-197 77q-121 0 -195 -77t-74 -197z" />
<glyph unicode=":" horiz-adv-x="487" d="M100 131q0 69 39 109.5t111 40.5q69 0 108 -40.5t39 -109.5q0 -68 -38.5 -108.5t-108.5 -40.5q-72 0 -111 40t-39 109zM100 829q0 68 39 108t111 40q69 0 108 -40.5t39 -107.5q0 -70 -38.5 -110.5t-108.5 -40.5q-72 0 -111 40.5t-39 110.5z" />
<glyph unicode=";" horiz-adv-x="487" d="M59 -262l64 481h264v-20l-143 -482h-185v21zM100 829q0 68 39 108t111 40q69 0 108 -40.5t39 -107.5q0 -70 -38.5 -110.5t-108.5 -40.5q-72 0 -111 40.5t-39 110.5z" />
<glyph unicode="&#x3c;" horiz-adv-x="1064" d="M84 481v201l897 506v-230l-670 -372v-8l670 -373v-230z" />
<glyph unicode="=" horiz-adv-x="993" d="M10 322v200h973v-200h-973zM10 737v201h973v-201h-973z" />
<glyph unicode="&#x3e;" horiz-adv-x="1064" d="M84 -25v230l670 373v8l-670 372v230l897 -506v-201z" />
<glyph unicode="?" horiz-adv-x="1112" d="M96 1022q0 122 49.5 218t156.5 155t259 59q205 0 330 -107t125 -276q0 -192 -156 -313l-86 -68q-76 -59 -103.5 -97.5t-27.5 -105.5v-32h-225v32q0 64 11.5 111.5t38 87t55.5 68t79 67.5l66 51q54 42 79.5 84.5t26.5 104.5q0 79 -54.5 132.5t-158.5 53.5q-113 0 -170 -59 t-57 -166h-238zM387 131q0 69 38 109.5t110 40.5q69 0 108 -40.5t39 -109.5q0 -68 -38.5 -108.5t-108.5 -40.5q-72 0 -110 40t-38 109z" />
<glyph unicode="@" horiz-adv-x="1849" d="M106 623q0 181 66 336.5t180.5 263t273 168.5t339.5 61q221 0 396.5 -86.5t277.5 -251.5t102 -381q0 -250 -102 -395t-287 -145q-84 0 -143.5 38t-71.5 101h-9q-84 -133 -256 -133q-153 0 -243 111.5t-90 291.5q0 179 95 296.5t255 117.5q68 0 130 -34t91 -89h8l15 100 h165l-18 -524q-2 -54 19.5 -82.5t76.5 -28.5q90 0 140.5 104t50.5 271q0 250 -166.5 402.5t-442.5 152.5q-196 0 -350 -90.5t-236.5 -244.5t-82.5 -343q0 -300 181.5 -474.5t477.5 -174.5q251 0 420 72v-162q-170 -76 -422 -76q-145 0 -272.5 34.5t-231.5 104t-179 168 t-116 231.5t-41 290zM729 600q0 -107 46.5 -169t131.5 -62q98 0 148.5 70.5t50.5 183.5q0 107 -50.5 167t-135.5 60q-90 0 -140.5 -68.5t-50.5 -181.5z" />
<glyph unicode="A" horiz-adv-x="1415" d="M43 0v20l512 1414h301l514 -1414v-20h-262l-113 332h-585l-113 -332h-254zM481 543h443l-217 639h-9z" />
<glyph unicode="B" horiz-adv-x="1363" d="M178 0v1434h623q190 0 307 -99.5t117 -273.5q0 -206 -164 -293v-8q217 -92 217 -346q0 -195 -122.5 -304.5t-334.5 -109.5h-643zM416 215h370q116 0 181 56.5t65 154.5t-63 154.5t-183 56.5h-370v-422zM416 846h340q108 0 166.5 49.5t58.5 146.5q0 85 -54 132t-157 47 h-354v-375z" />
<glyph unicode="C" horiz-adv-x="1452" d="M96 715q0 162 43 296.5t124.5 233t207.5 153t285 54.5q260 0 419.5 -145.5t180.5 -378.5h-246q-14 136 -104 219.5t-250 83.5q-107 0 -188 -39.5t-129.5 -110.5t-72.5 -163t-24 -203q0 -88 14.5 -164.5t47 -141.5t80 -110.5t117 -71.5t155.5 -26q155 0 243 78t113 213 h244q-27 -228 -185 -369t-415 -141q-159 0 -285.5 54.5t-208 153t-124 232t-42.5 293.5z" />
<glyph unicode="D" horiz-adv-x="1441" d="M178 0v1434h484q312 0 498 -196.5t186 -520.5q0 -150 -46 -280.5t-131 -227.5t-216 -153t-291 -56h-484zM410 215h233q223 0 340 135.5t117 366.5q0 230 -117 365t-340 135h-233v-1002z" />
<glyph unicode="E" horiz-adv-x="1249" d="M178 0v1434h967v-217h-727v-369h663v-217h-663v-416h727v-215h-967z" />
<glyph unicode="F" horiz-adv-x="1236" d="M178 0v1434h952v-217h-712v-406h647v-217h-647v-594h-240z" />
<glyph unicode="G" horiz-adv-x="1470" d="M96 713q0 162 42.5 297t123.5 233.5t206.5 153.5t283.5 55q260 0 421 -138.5t183 -357.5h-246q-16 123 -106.5 199t-251.5 76q-107 0 -187.5 -40t-128 -111.5t-71 -163t-23.5 -203.5q0 -111 23.5 -202t71.5 -161.5t128 -109.5t187 -39q176 0 273.5 97.5t107.5 250.5h-340 v213h581v-137q0 -294 -168.5 -468.5t-453.5 -174.5q-159 0 -285 54.5t-206.5 152.5t-122.5 231t-42 293z" />
<glyph unicode="H" horiz-adv-x="1505" d="M178 0v1434h240v-584h669v584h240v-1434h-240v631h-669v-631h-240z" />
<glyph unicode="I" horiz-adv-x="598" d="M178 0v1434h242v-1434h-242z" />
<glyph unicode="J" horiz-adv-x="1101" d="M43 418h238q2 -99 55.5 -156t157.5 -57q105 0 156.5 60.5t51.5 164.5v1004h242v-1004q0 -202 -121 -325t-334 -123q-210 0 -328 121.5t-118 314.5z" />
<glyph unicode="K" horiz-adv-x="1331" d="M178 0v1434h240v-617l588 617h282v-21l-631 -661l654 -732v-20h-285l-608 682v-682h-240z" />
<glyph unicode="L" horiz-adv-x="1130" d="M178 0v1434h240v-1217h676v-217h-916z" />
<glyph unicode="M" horiz-adv-x="1802" d="M178 0v1434h273l448 -783h8l449 783h268v-1434h-231v1053h-9l-473 -811h-20l-473 817h-8v-1059h-232z" />
<glyph unicode="N" horiz-adv-x="1521" d="M178 0v1434h275l645 -1053h8v1053h237v-1434h-276l-645 1047h-8v-1047h-236z" />
<glyph unicode="O" horiz-adv-x="1515" d="M96 717q0 157 40.5 289t120.5 232.5t208 157t293 56.5q164 0 292 -56.5t207.5 -157t120.5 -232.5t41 -289q0 -156 -41 -288t-120.5 -232.5t-207.5 -157.5t-292 -57q-165 0 -293 57t-207.5 157.5t-120.5 232.5t-41 288zM342 717q0 -111 23.5 -202.5t72.5 -162.5 t130.5 -110t189.5 -39t189.5 39t130.5 110t72.5 162.5t23.5 202.5t-23.5 202.5t-72.5 162.5t-130.5 110t-189.5 39q-109 0 -190.5 -39t-130 -110t-72 -162t-23.5 -203z" />
<glyph unicode="P" horiz-adv-x="1329" d="M178 0v1434h582q216 0 344.5 -129t128.5 -332q0 -208 -129.5 -339.5t-343.5 -131.5h-342v-502h-240zM418 719h301q130 0 199 65t69 189q0 117 -71 181.5t-197 64.5h-301v-500z" />
<glyph unicode="Q" horiz-adv-x="1515" d="M96 717q0 157 40.5 289t120.5 232.5t208 157t293 56.5q164 0 292 -56.5t207.5 -157t120.5 -232.5t41 -289q0 -178 -53.5 -326t-157.5 -248l193 -272v-21h-248l-127 179q-118 -47 -268 -47q-165 0 -293 57t-207.5 157.5t-120.5 232.5t-41 288zM342 717q0 -111 23.5 -202.5 t72.5 -162.5t130.5 -110t189.5 -39q75 0 133 18l-180 256v21h247l111 -158q105 137 105 377q0 111 -23.5 202.5t-72.5 162.5t-130.5 110t-189.5 39q-109 0 -190.5 -39t-130 -110t-72 -162t-23.5 -203z" />
<glyph unicode="R" horiz-adv-x="1372" d="M178 0v1434h606q109 0 198.5 -35t148 -95t90.5 -140.5t32 -172.5q0 -155 -80 -266t-217 -156l367 -549v-20h-272l-346 541h-287v-541h-240zM418 758h352q116 0 176 63t60 168q0 103 -60.5 165.5t-175.5 62.5h-352v-459z" />
<glyph unicode="S" horiz-adv-x="1294" d="M76 457h243q9 -125 94 -192.5t232 -67.5q316 0 316 204q0 82 -55 128.5t-167 70.5l-209 45q-198 42 -302.5 137.5t-104.5 268.5q0 183 140.5 292t383.5 109q156 0 278 -55.5t190 -157t69 -231.5h-244q-6 104 -80 165.5t-217 61.5q-133 0 -202.5 -47t-69.5 -137 q0 -134 209 -179l194 -41q210 -43 322 -145.5t112 -279.5q0 -197 -144 -310.5t-419 -113.5q-266 0 -413 127.5t-156 347.5z" />
<glyph unicode="T" horiz-adv-x="1212" d="M53 1217v217h1106v-217h-432v-1217h-242v1217h-432z" />
<glyph unicode="U" horiz-adv-x="1462" d="M158 532v902h239v-897q0 -155 81 -246.5t251 -91.5q173 0 253.5 91t80.5 247v897h242v-902q0 -262 -157 -406t-419 -144q-258 0 -414.5 144.5t-156.5 405.5z" />
<glyph unicode="V" horiz-adv-x="1396" d="M43 1413v21h264l389 -1133h9l380 1133h269v-21l-520 -1413h-271z" />
<glyph unicode="W" horiz-adv-x="1892" d="M43 1413v21h248l239 -1084h9l278 1084h258l283 -1084h8l236 1084h247v-21l-344 -1413h-280l-273 1061h-8l-278 -1061h-281z" />
<glyph unicode="X" horiz-adv-x="1353" d="M37 0v20l471 697v8l-455 688v21h281l344 -547h8l346 547h277v-21l-451 -688v-8l459 -697v-20h-283l-352 541h-8l-355 -541h-282z" />
<glyph unicode="Y" horiz-adv-x="1372" d="M43 1413v21h276l367 -611h8l361 611h274v-21l-520 -825v-588h-242v586z" />
<glyph unicode="Z" horiz-adv-x="1222" d="M74 0v211l764 995v8h-746v220h1045v-215l-762 -994v-8h774v-217h-1075z" />
<glyph unicode="[" horiz-adv-x="700" d="M84 -342v1896h459v-180h-258v-1536h262v-180h-463z" />
<glyph unicode="\" horiz-adv-x="856" d="M31 1489v20h219l575 -1761v-20h-217z" />
<glyph unicode="]" horiz-adv-x="700" d="M154 -162h262v1536h-258v180h456v-1896h-460v180z" />
<glyph unicode="^" horiz-adv-x="1204" d="M90 635v20l404 779h217l403 -779v-20h-223l-285 573h-8l-285 -573h-223z" />
<glyph unicode="_" horiz-adv-x="1175" d="M96 -55h983v-189h-983v189z" />
<glyph unicode="`" horiz-adv-x="557" d="M68 1481v20h274l147 -287v-20h-184z" />
<glyph unicode="a" horiz-adv-x="1118" d="M80 311q0 147 107.5 237.5t324.5 90.5q126 0 246 -35v98q0 79 -52.5 130t-156.5 51q-93 0 -145 -45t-54 -113h-221q0 154 114 252t310 98q204 0 320 -104t116 -266v-705h-205l-16 125h-8q-46 -68 -126 -105.5t-185 -37.5q-171 0 -270 93t-99 236zM313 319 q0 -67 48.5 -109t140.5 -42q114 0 185 67t71 164v35q-107 37 -230 37q-104 0 -159.5 -40t-55.5 -112z" />
<glyph unicode="b" horiz-adv-x="1214" d="M150 0v1516h233v-586h8q96 145 301 145q208 0 324.5 -151.5t116.5 -393.5q0 -251 -118.5 -399.5t-322.5 -148.5q-205 0 -301 145h-8l-27 -127h-206zM375 530q0 -71 15 -131.5t45 -108.5t81 -75t119 -27q69 0 120.5 27t82 75t45 108t14.5 132q0 71 -14 130t-44 107 t-82 74.5t-122 26.5q-68 0 -119 -27t-81 -74.5t-45 -107t-15 -129.5z" />
<glyph unicode="c" horiz-adv-x="1118" d="M80 528q0 250 130 398.5t368 148.5q109 0 194.5 -31t141 -86t86.5 -127t36 -159h-233q-8 90 -68 143t-157 53q-131 0 -196 -90.5t-65 -249.5q0 -162 65 -252t196 -90q99 0 158.5 52.5t68.5 144.5h233q-14 -183 -129.5 -292t-324.5 -109q-240 0 -372 147.5t-132 398.5z " />
<glyph unicode="d" d="M80 530q1 158 50.5 280t150 193.5t239.5 71.5q207 0 303 -145h8v586h234v-1516h-207l-27 127h-8q-96 -145 -303 -145q-203 0 -320.5 148.5t-119.5 399.5zM317 530q0 -98 24.5 -172t85 -122t151.5 -48q89 0 149.5 48t86.5 123t26 171q0 95 -25.5 169t-86 121.5 t-150.5 47.5q-56 0 -101 -18t-74.5 -48.5t-49 -74t-28 -92.5t-8.5 -105z" />
<glyph unicode="e" horiz-adv-x="1134" d="M80 528q0 115 31 213.5t91 173.5t155.5 117.5t217.5 42.5q150 0 260 -68.5t164 -183.5t54 -262v-98h-731q0 -130 66.5 -207.5t191.5 -77.5q94 0 153 38.5t78 105.5h227q-22 -148 -147.5 -244t-310.5 -96q-234 0 -367 154t-133 392zM324 629h489q-2 110 -62.5 179 t-175.5 69q-121 0 -183.5 -69t-67.5 -179z" />
<glyph unicode="f" horiz-adv-x="808" d="M53 860v197h187v129q0 160 101.5 255t264.5 95q66 0 131 -14v-197q-55 10 -102 10q-162 0 -162 -149v-129h254v-197h-254v-860h-233v860h-187z" />
<glyph unicode="g" d="M80 528q2 249 120 398t320 149q207 0 303 -145h8l27 127h207v-1114q0 -191 -134 -310.5t-356 -119.5q-205 0 -332 103t-132 269h227q7 -72 68.5 -122t168.5 -50q125 0 190.5 65t65.5 169v180h-8q-96 -145 -303 -145q-208 0 -323 151t-117 395zM317 528q0 -72 14 -131.5 t43.5 -107t81.5 -74.5t122 -27q90 0 150.5 48t86 122t25.5 170q0 56 -9 105.5t-29.5 93t-50.5 74.5t-74.5 49t-98.5 18q-134 0 -197.5 -95t-63.5 -245z" />
<glyph unicode="h" horiz-adv-x="1210" d="M150 0v1516h233v-596h8q98 155 307 155q178 0 280.5 -102.5t102.5 -282.5v-690h-233v633q0 112 -54 171.5t-163 59.5q-111 0 -179.5 -76t-68.5 -206v-582h-233z" />
<glyph unicode="i" horiz-adv-x="512" d="M117 1366q0 68 38.5 106.5t110.5 38.5q71 0 110.5 -38.5t39.5 -106.5t-39.5 -107.5t-110.5 -39.5q-72 0 -110.5 39t-38.5 108zM150 0v1057h233v-1057h-233z" />
<glyph unicode="j" horiz-adv-x="530" d="M-43 -268q40 -6 78 -6q135 0 135 149v1182h233v-1215q0 -162 -89.5 -245.5t-250.5 -83.5q-52 0 -106 14v205zM137 1366q0 68 38.5 106.5t111.5 38.5q71 0 110 -38.5t39 -106.5t-39 -107.5t-110 -39.5q-72 0 -111 39t-39 108z" />
<glyph unicode="k" horiz-adv-x="1095" d="M150 0v1516h225v-889l397 430h275v-21l-429 -458l445 -558v-20h-277l-411 520v-520h-225z" />
<glyph unicode="l" horiz-adv-x="512" d="M150 0v1516h233v-1516h-233z" />
<glyph unicode="m" horiz-adv-x="1847" d="M150 0v1057h206l19 -137h8q98 155 305 155q110 0 192 -43t126 -123h6q45 74 128 120t201 46q175 0 276 -103.5t101 -281.5v-690h-233v633q0 231 -205 231q-106 0 -165.5 -74t-59.5 -206v-584h-232v633q0 231 -205 231q-107 0 -171 -74.5t-64 -205.5v-584h-233z" />
<glyph unicode="n" horiz-adv-x="1202" d="M150 0v1057h206l19 -137h8q98 155 309 155q177 0 279 -102.5t102 -282.5v-690h-233v633q0 231 -215 231q-111 0 -176.5 -74.5t-65.5 -205.5v-584h-233z" />
<glyph unicode="o" horiz-adv-x="1159" d="M80 528q0 117 32 216t93 173t157 116t218 42q161 0 275.5 -73t169 -194.5t54.5 -279.5t-53.5 -279t-168 -194t-277.5 -73q-123 0 -219.5 41.5t-157 115.5t-92 172.5t-31.5 216.5zM317 528q0 -162 66.5 -251t196.5 -89q131 0 196.5 88.5t65.5 251.5q0 162 -65.5 251 t-196.5 89t-197 -89.5t-66 -250.5z" />
<glyph unicode="p" horiz-adv-x="1214" d="M150 -469v1526h206l27 -127h8q96 145 301 145q203 0 322 -149t119 -398q0 -243 -116.5 -394.5t-324.5 -151.5q-205 0 -301 145h-8v-596h-233zM375 528q0 -71 15 -130.5t45 -107.5t81.5 -75t118.5 -27q70 0 122 27t82 74.5t44 107t14 131.5q0 150 -64 245t-198 95 q-67 0 -118.5 -27t-81.5 -75t-45 -107.5t-15 -130.5z" />
<glyph unicode="q" d="M80 528q2 249 120 398t320 149q207 0 303 -145h8l27 127h207v-1526h-234v596h-8q-96 -145 -303 -145q-208 0 -323 151t-117 395zM317 528q0 -72 14 -131.5t43.5 -107t81.5 -74.5t122 -27q90 0 150.5 48t86 122t25.5 170q0 56 -9 105.5t-29.5 93t-50.5 74.5t-74.5 49 t-98.5 18q-134 0 -197.5 -95t-63.5 -245z" />
<glyph unicode="r" horiz-adv-x="798" d="M150 0v1057h196l21 -168h8q33 84 104.5 133t169.5 49h86v-217h-90q-132 0 -201 -87.5t-69 -250.5v-516h-225z" />
<glyph unicode="s" horiz-adv-x="1046" d="M80 352h233q0 -78 58 -124t157 -46t151 31.5t52 87.5q0 92 -139 121l-186 35q-136 28 -214.5 105t-78.5 206q0 134 109.5 220.5t297.5 86.5q190 0 306 -96t116 -250h-229q-3 73 -55 115.5t-142 42.5q-80 0 -128 -32t-48 -89q0 -93 139 -115l180 -35q151 -32 229.5 -102.5 t78.5 -212.5q0 -149 -124 -234t-315 -85q-210 0 -326.5 99.5t-121.5 270.5z" />
<glyph unicode="t" horiz-adv-x="823" d="M63 858v199h185v223l203 57h20v-280h256v-199h-256v-528q0 -75 33 -109.5t104 -34.5q52 0 103 15h20v-197q-73 -22 -180 -22q-162 0 -237.5 81.5t-75.5 225.5v569h-175z" />
<glyph unicode="u" horiz-adv-x="1183" d="M137 401v656h234v-619q0 -239 221 -239t221 239v619h234v-656q0 -184 -119.5 -300.5t-335.5 -116.5q-215 0 -335 117t-120 300z" />
<glyph unicode="v" horiz-adv-x="1095" d="M33 1036v21h239l277 -815h8l268 815h238v-21l-375 -1036h-274z" />
<glyph unicode="w" horiz-adv-x="1609" d="M33 1036v21h233l189 -778h8l203 778h280l203 -778h8l189 778h231v-21l-281 -1036h-280l-203 778h-8l-211 -778h-281z" />
<glyph unicode="x" horiz-adv-x="1060" d="M25 0v20l350 512l-338 504v21h252l239 -375h9l237 375h252v-21l-338 -501l348 -515v-20h-254l-245 385h-9l-249 -385h-254z" />
<glyph unicode="y" horiz-adv-x="1114" d="M33 1036v21h243l275 -795h8l275 795h247v-21l-561 -1505h-246v20l168 453l-24 2z" />
<glyph unicode="z" horiz-adv-x="1028" d="M94 0v195l553 655v8h-551v199h834v-197l-551 -653v-8h555v-199h-840z" />
<glyph unicode="{" horiz-adv-x="880" d="M84 506v201q93 3 141.5 46t48.5 138v330q0 161 87 247t253 86h113v-182h-74q-95 0 -136.5 -45t-41.5 -143v-353q0 -197 -176 -221v-8q176 -24 176 -221v-352q0 -98 41.5 -143.5t136.5 -45.5h74v-182h-113q-166 0 -253 86.5t-87 247.5v330q0 95 -48.5 138t-141.5 46z" />
<glyph unicode="|" horiz-adv-x="561" d="M178 -283v1839h205v-1839h-205z" />
<glyph unicode="}" horiz-adv-x="880" d="M154 -160h73q95 0 137 45.5t42 143.5v352q0 197 176 221v8q-176 24 -176 221v353q0 98 -41.5 143t-137.5 45h-73v182h112q166 0 253 -86t87 -247v-330q0 -95 48.5 -138t142.5 -46v-201q-94 -3 -142.5 -46t-48.5 -138v-330q0 -161 -87 -247.5t-253 -86.5h-112v182z" />
<glyph unicode="~" horiz-adv-x="1138" d="M66 541q42 102 118.5 161.5t182.5 59.5q97 0 192 -53l94 -52q54 -32 117 -32q115 0 168 116l135 -94q-42 -102 -118.5 -161.5t-184.5 -59.5q-98 0 -199 55l-94 51q-60 31 -110 31q-112 0 -166 -117z" />
<glyph unicode="&#xa1;" horiz-adv-x="544" d="M125 926q0 69 37.5 109t109.5 40q70 0 109 -40.5t39 -108.5t-39 -109t-109 -41q-72 0 -109.5 40.5t-37.5 109.5zM147 -190l43 782h158l53 -782v-197h-254v197z" />
<glyph unicode="&#xa2;" horiz-adv-x="1118" d="M80 713q0 226 107.5 370t306.5 170v181h165v-179q175 -22 271.5 -130.5t105.5 -268.5h-233q-6 69 -43.5 117t-100.5 67v-659q63 20 101 68t45 118h233q-12 -166 -108 -271.5t-271 -125.5v-170h-165v172q-198 27 -306 171t-108 370zM317 713q0 -134 44 -219t133 -111v657 q-89 -27 -133 -111.5t-44 -215.5z" />
<glyph unicode="&#xa3;" horiz-adv-x="1239" d="M74 604v203h153v229q0 84 31.5 160t89 134.5t146 93t194.5 34.5q141 0 247 -61.5t158 -157.5t52 -209h-227q0 44 -14 84.5t-41.5 74t-74 53.5t-104.5 20q-109 0 -170 -64t-61 -162v-229h440v-203h-440v-239q0 -115 -68 -154v-8h791v-203h-1100v209q73 2 112 43.5 t39 120.5v231h-153z" />
<glyph unicode="&#xa4;" horiz-adv-x="1185" d="M76 109l145 151q-67 109 -67 238q0 133 71 243l-149 154l141 139l150 -155q109 67 231 67t225 -61l144 149l141 -139l-139 -145q78 -119 78 -252q0 -136 -76 -246l137 -143l-139 -138l-140 144q-106 -64 -231 -64q-124 0 -238 70l-143 -150zM348 498q0 -111 72 -183.5 t178 -72.5q107 0 177.5 72t70.5 184t-70.5 183t-177.5 71q-106 0 -178 -71.5t-72 -182.5z" />
<glyph unicode="&#xa5;" horiz-adv-x="1372" d="M43 1413v21h287l360 -611h8l357 611h274v-21l-385 -614h225v-193h-344l-12 -18v-146h356v-192h-356v-250h-242v250h-368v192h368v144l-12 20h-356v193h233z" />
<glyph unicode="&#xa6;" horiz-adv-x="561" d="M178 -283v734h205v-734h-205zM178 823v733h205v-733h-205z" />
<glyph unicode="&#xa7;" d="M121 608q0 94 50.5 165.5t129.5 115.5q-84 97 -84 223q0 150 107.5 245t285.5 95q180 0 289.5 -106t112.5 -273h-205q-3 88 -55.5 138.5t-141.5 50.5q-86 0 -135 -43t-49 -113q0 -90 92 -160l363 -276q100 -75 146 -151.5t46 -176.5q0 -91 -52 -163.5t-128 -117.5 q84 -97 84 -223q0 -151 -106 -245.5t-287 -94.5q-180 0 -289.5 106t-112.5 273h205q3 -88 55 -138t142 -50q89 0 136.5 42t47.5 113q0 90 -92 160l-387 297q-91 69 -129.5 139.5t-38.5 167.5zM328 612q0 -93 80 -153l352 -275q49 22 77.5 62t28.5 86q0 102 -92 170l-340 264 q-51 -24 -78.5 -65t-27.5 -89z" />
<glyph unicode="&#xa8;" horiz-adv-x="845" d="M98 1366q0 61 35 97t98 36q62 0 98 -36t36 -97q0 -62 -35.5 -97.5t-98.5 -35.5q-64 0 -98.5 35.5t-34.5 97.5zM481 1366q0 61 34 97t99 36q62 0 98 -36t36 -97q0 -62 -35.5 -97.5t-98.5 -35.5q-65 0 -99 35t-34 98z" />
<glyph unicode="&#xa9;" horiz-adv-x="1679" d="M123 717q1 209 91 376.5t254 263t372 95.5t372 -95.5t253.5 -263t90.5 -376.5q-1 -209 -90.5 -376.5t-253.5 -263t-372 -95.5t-372 95.5t-254 263t-91 376.5zM287 717q2 -264 149 -421t404 -157t404 157t149 421q-2 264 -149 420.5t-404 156.5t-404 -156.5t-149 -420.5z M479 711q0 190 95 300.5t270 110.5q156 0 242 -85t92 -212h-156q-6 76 -54 115t-124 39q-104 0 -155.5 -70.5t-51.5 -197.5q0 -128 51.5 -198.5t155.5 -70.5q164 0 182 152h156q-11 -131 -97.5 -212t-238.5 -81q-177 0 -272 109.5t-95 300.5z" />
<glyph unicode="&#xaa;" horiz-adv-x="765" d="M80 827q0 96 73.5 156.5t215.5 60.5q83 0 157 -20v55q0 52 -33 83.5t-100 31.5q-62 0 -95.5 -27.5t-33.5 -72.5h-151q0 102 76.5 168.5t205.5 66.5q134 0 212.5 -71t78.5 -177v-463h-141l-13 78h-6q-64 -90 -198 -90q-112 0 -180 62.5t-68 158.5zM242 831q0 -94 118 -94 q74 0 120 41.5t46 104.5v20q-80 25 -147 25t-102 -26t-35 -71z" />
<glyph unicode="&#xab;" horiz-adv-x="1214" d="M63 569v21l340 434h218v-20l-287 -424l287 -424v-21h-218zM561 569v21l340 434h217v-20l-287 -424l287 -424v-21h-217z" />
<glyph unicode="&#xad;" horiz-adv-x="954" d="M164 494v213h627v-213h-627z" />
<glyph unicode="&#xae;" horiz-adv-x="1005" d="M59 1032q0 192 125 320.5t320 128.5q193 0 318.5 -128.5t125.5 -320.5t-125 -320t-319 -128q-195 0 -320 128t-125 320zM182 1032q0 -155 87 -242.5t235 -87.5q146 0 232.5 87.5t86.5 242.5t-86.5 242.5t-232.5 87.5q-148 0 -235 -87.5t-87 -242.5zM338 813v426h197 q69 0 112 -39.5t43 -99.5q0 -96 -76 -133l95 -142v-12h-111l-86 137h-68v-137h-106zM444 1044h80q56 0 56 52q0 51 -56 51h-80v-103z" />
<glyph unicode="&#xaf;" horiz-adv-x="710" d="M68 1255v193h575v-193h-575z" />
<glyph unicode="&#xb0;" horiz-adv-x="907" d="M94 1106q0 152 102.5 253t256.5 101q155 0 257.5 -101t102.5 -253t-102.5 -253t-257.5 -101q-154 0 -256.5 101t-102.5 253zM270 1106q0 -82 49.5 -137.5t133.5 -55.5q85 0 134.5 55t49.5 138t-49 137.5t-135 54.5q-84 0 -133.5 -55t-49.5 -137z" />
<glyph unicode="&#xb1;" horiz-adv-x="993" d="M10 84v201h973v-201h-973zM10 729v199h381v315h217v-315h375v-199h-375v-317h-217v317h-381z" />
<glyph unicode="&#xb2;" horiz-adv-x="831" d="M90 1161q0 130 88.5 214t233.5 83q146 0 230.5 -80.5t84.5 -193.5q0 -79 -37.5 -146t-130.5 -151l-221 -203v-6h405v-164h-651v150l318 297q78 74 106.5 118.5t28.5 98.5q0 50 -35 84t-98 34q-68 0 -105 -38.5t-37 -96.5h-180z" />
<glyph unicode="&#xb3;" horiz-adv-x="868" d="M90 797h174q2 -59 45.5 -99.5t126.5 -40.5q77 0 117.5 35.5t40.5 95.5q0 58 -43 91.5t-125 33.5h-96v160h92q145 0 145 117q0 47 -36.5 77.5t-102.5 30.5q-72 0 -108.5 -37t-38.5 -100h-179q3 135 90.5 216t239.5 81q140 2 230 -71t90 -189q0 -70 -33 -119t-82 -73v-7 q64 -24 102.5 -79.5t38.5 -131.5q0 -130 -89.5 -211t-252.5 -81q-157 0 -251.5 81.5t-94.5 219.5z" />
<glyph unicode="&#xb4;" horiz-adv-x="557" d="M68 1194v20l147 287h274v-20l-237 -287h-184z" />
<glyph unicode="&#xb6;" horiz-adv-x="1284" d="M63 1110q0 160 113 272.5t273 112.5h708v-176h-131v-1532h-199v1532h-180v-1532h-198v936q-160 0 -273 113.5t-113 273.5z" />
<glyph unicode="&#xb7;" horiz-adv-x="487" d="M100 616q0 68 39 108t111 40q69 0 108 -40.5t39 -107.5q0 -70 -38.5 -110.5t-108.5 -40.5q-72 0 -111 40.5t-39 110.5z" />
<glyph unicode="&#xb8;" horiz-adv-x="649" d="M68 -260h149q0 -28 26.5 -47t69.5 -19q40 0 68.5 17t28.5 49q0 28 -24.5 45.5t-66.5 17.5h-65l-51 64l82 162h172l-74 -115q89 -3 144 -51.5t55 -124.5q0 -83 -69 -138t-198 -55q-106 0 -176.5 51.5t-70.5 143.5z" />
<glyph unicode="&#xb9;" horiz-adv-x="595" d="M90 1075v180l236 179h180v-926h-178v729h-9l-213 -162h-16z" />
<glyph unicode="&#xba;" horiz-adv-x="827" d="M80 967q0 159 88 260.5t246 101.5q159 0 246.5 -101t87.5 -261q0 -159 -86.5 -260t-247.5 -101q-160 0 -247 100.5t-87 260.5zM252 967q0 -213 162 -213q79 0 120 54.5t41 158.5q0 215 -161 215q-162 0 -162 -215z" />
<glyph unicode="&#xbb;" horiz-adv-x="1214" d="M96 135v21l287 424l-287 424v20h217l340 -434v-21l-340 -434h-217zM594 135v21l287 424l-287 424v20h217l340 -434v-21l-340 -434h-217z" />
<glyph unicode="&#xbc;" horiz-adv-x="1845" d="M90 1075v180l236 179h180v-926h-178v729h-9l-213 -162h-16zM352 0v20l889 1414h193v-21l-885 -1413h-197zM1036 182v178l367 566h235v-580h117v-164h-117v-182h-178v182h-424zM1217 346h243v375h-8l-235 -367v-8z" />
<glyph unicode="&#xbd;" horiz-adv-x="1916" d="M90 1075v180l236 179h180v-926h-178v729h-9l-213 -162h-16zM352 0v20l889 1414h193v-21l-885 -1413h-197zM1174 647q0 129 88.5 213t232.5 84q147 0 232 -80t85 -194q0 -79 -37 -145t-130 -152l-222 -203v-6h406v-164h-653v150l319 299q79 74 107 117.5t28 97.5 q0 50 -36 84t-99 34q-66 0 -102.5 -38.5t-36.5 -96.5h-182z" />
<glyph unicode="&#xbe;" horiz-adv-x="2029" d="M90 797h174q2 -59 45.5 -99.5t126.5 -40.5q77 0 117.5 35.5t40.5 95.5q0 58 -43 91.5t-125 33.5h-96v160h92q145 0 145 117q0 47 -36.5 77.5t-102.5 30.5q-72 0 -108.5 -37t-38.5 -100h-179q3 135 90.5 216t239.5 81q140 2 230 -71t90 -189q0 -70 -33 -119t-82 -73v-7 q64 -24 102.5 -79.5t38.5 -131.5q0 -130 -89.5 -211t-252.5 -81q-157 0 -251.5 81.5t-94.5 219.5zM537 0v20l888 1414h193v-21l-885 -1413h-196zM1221 182v178l366 566h236v-580h116v-164h-116v-182h-178v182h-424zM1401 346h244v375h-9l-235 -367v-8z" />
<glyph unicode="&#xbf;" horiz-adv-x="1112" d="M96 -12q0 190 156 311l86 68q76 59 103.5 97.5t27.5 106.5v33h225v-33q0 -64 -11 -111.5t-38 -87t-56 -67t-79 -67.5l-66 -52q-54 -42 -80 -85t-26 -103q0 -80 54 -133t159 -53q113 0 170 59t57 166h238q0 -122 -49.5 -218t-156.5 -155t-259 -59q-205 0 -330 107 t-125 276zM430 926q0 70 39 110.5t109 40.5q72 0 109.5 -40t37.5 -111q0 -68 -37.5 -108t-109.5 -40q-69 0 -108.5 40.5t-39.5 107.5z" />
<glyph unicode="&#xc0;" horiz-adv-x="1415" d="M43 0v20l512 1414h301l514 -1414v-20h-262l-113 332h-585l-113 -332h-254zM424 1858v20h274l148 -287v-20h-184zM481 543h443l-217 639h-9z" />
<glyph unicode="&#xc1;" horiz-adv-x="1415" d="M43 0v20l512 1414h301l514 -1414v-20h-262l-113 332h-585l-113 -332h-254zM481 543h443l-217 639h-9zM584 1571v20l147 287h275v-20l-238 -287h-184z" />
<glyph unicode="&#xc2;" horiz-adv-x="1415" d="M43 0v20l512 1414h301l514 -1414v-20h-262l-113 332h-585l-113 -332h-254zM373 1575v20l200 279h275l201 -279v-20h-201l-133 141h-8l-134 -141h-200zM481 543h443l-217 639h-9z" />
<glyph unicode="&#xc3;" horiz-adv-x="1415" d="M43 0v20l512 1414h301l514 -1414v-20h-262l-113 332h-585l-113 -332h-254zM344 1593v31q0 109 57.5 168t151.5 59q69 0 139 -41l31 -18q52 -27 78 -27q65 0 65 82h148v-30q0 -111 -54 -169.5t-153 -58.5q-67 0 -137 41l-29 19q-47 28 -80 28q-29 0 -48 -22.5t-19 -61.5 h-150zM481 543h443l-217 639h-9z" />
<glyph unicode="&#xc4;" horiz-adv-x="1415" d="M43 0v20l512 1414h301l514 -1414v-20h-262l-113 332h-585l-113 -332h-254zM387 1743q0 61 35 97t98 36q62 0 97.5 -36t35.5 -97q0 -62 -35 -97.5t-98 -35.5q-64 0 -98.5 35.5t-34.5 97.5zM481 543h443l-217 639h-9zM770 1743q0 61 34 97t99 36q62 0 97.5 -36t35.5 -97 q0 -62 -35 -97.5t-98 -35.5q-65 0 -99 35t-34 98z" />
<glyph unicode="&#xc5;" horiz-adv-x="1415" d="M43 0v20l512 1414h301l514 -1414v-20h-262l-113 332h-585l-113 -332h-254zM471 1772q0 101 65.5 165t165.5 64q104 0 170 -64t66 -165q0 -100 -66 -164t-170 -64q-100 0 -165.5 64.5t-65.5 163.5zM481 543h443l-217 639h-9zM608 1772q0 -40 25.5 -66.5t66.5 -26.5 q44 0 71.5 26.5t27.5 66.5t-27.5 67t-71.5 27q-41 0 -66.5 -27t-25.5 -67z" />
<glyph unicode="&#xc6;" horiz-adv-x="1869" d="M43 0v20l512 1414h1208v-217h-827l135 -369h629v-217h-551l151 -416h463v-215h-655l-113 332h-585l-113 -332h-254zM479 543h447l-219 639h-9z" />
<glyph unicode="&#xc7;" horiz-adv-x="1452" d="M96 715q0 162 43 296.5t124.5 233t207.5 153t285 54.5q260 0 419.5 -145.5t180.5 -378.5h-246q-14 136 -104 219.5t-250 83.5q-107 0 -188 -39.5t-129.5 -110.5t-72.5 -163t-24 -203q0 -88 14.5 -164.5t47 -141.5t80 -110.5t117 -71.5t155.5 -26q155 0 243 78t113 213 h244q-25 -212 -166.5 -351t-370.5 -157l-45 -70q89 -3 144 -51.5t55 -124.5q0 -83 -68.5 -138t-197.5 -55q-106 0 -177 51.5t-71 143.5h149q0 -28 27 -47t70 -19q40 0 68 17t28 49q0 28 -24 45.5t-66 17.5h-66l-51 64l61 121q-180 22 -307.5 122t-189.5 254t-62 351z" />
<glyph unicode="&#xc8;" horiz-adv-x="1249" d="M178 0v1434h967v-217h-727v-369h663v-217h-663v-416h727v-215h-967zM399 1858v20h275l147 -287v-20h-184z" />
<glyph unicode="&#xc9;" horiz-adv-x="1249" d="M178 0v1434h967v-217h-727v-369h663v-217h-663v-416h727v-215h-967zM559 1571v20l148 287h274v-20l-238 -287h-184z" />
<glyph unicode="&#xca;" horiz-adv-x="1249" d="M178 0v1434h967v-217h-727v-369h663v-217h-663v-416h727v-215h-967zM348 1575v20l201 279h274l201 -279v-20h-201l-133 141h-8l-133 -141h-201z" />
<glyph unicode="&#xcb;" horiz-adv-x="1249" d="M178 0v1434h967v-217h-727v-369h663v-217h-663v-416h727v-215h-967zM362 1743q0 61 35 97t99 36q62 0 97.5 -36t35.5 -97q0 -62 -35 -97.5t-98 -35.5q-64 0 -99 35.5t-35 97.5zM745 1743q0 61 34.5 97t99.5 36q62 0 97.5 -36t35.5 -97q0 -62 -35 -97.5t-98 -35.5 q-65 0 -99.5 35.5t-34.5 97.5z" />
<glyph unicode="&#xcc;" horiz-adv-x="598" d="M20 1858v20h275l147 -287v-20h-184zM178 0v1434h242v-1434h-242z" />
<glyph unicode="&#xcd;" horiz-adv-x="598" d="M178 0v1434h242v-1434h-242zM180 1571v20l148 287h274v-20l-237 -287h-185z" />
<glyph unicode="&#xce;" horiz-adv-x="598" d="M-31 1575v20l201 279h274l201 -279v-20h-201l-133 141h-8l-133 -141h-201zM178 0v1434h242v-1434h-242z" />
<glyph unicode="&#xcf;" horiz-adv-x="598" d="M-16 1743q0 61 35 97t98 36q62 0 97.5 -36t35.5 -97q0 -62 -35 -97.5t-98 -35.5q-64 0 -98.5 35.5t-34.5 97.5zM178 0v1434h242v-1434h-242zM367 1743q0 61 34 97t99 36q62 0 97.5 -36t35.5 -97q0 -62 -35 -97.5t-98 -35.5q-65 0 -99 35t-34 98z" />
<glyph unicode="&#xd0;" horiz-adv-x="1538" d="M129 637v209h145v588h484q311 0 497.5 -196.5t186.5 -520.5q0 -150 -46 -280.5t-131.5 -227.5t-216 -153t-290.5 -56h-484v637h-145zM506 215h233q222 0 339.5 135.5t117.5 366.5q0 229 -117.5 364.5t-339.5 135.5h-233v-371h354v-209h-354v-422z" />
<glyph unicode="&#xd1;" horiz-adv-x="1521" d="M178 0v1434h275l645 -1053h8v1053h237v-1434h-276l-645 1047h-8v-1047h-236zM438 1593v31q0 109 57.5 168t151.5 59q69 0 139 -41l31 -18q52 -27 78 -27q32 0 49 21.5t17 60.5h147v-30q0 -111 -54 -169.5t-153 -58.5q-67 0 -137 41l-29 19q-47 28 -80 28q-29 0 -48 -22.5 t-19 -61.5h-150z" />
<glyph unicode="&#xd2;" horiz-adv-x="1515" d="M96 717q0 157 40.5 289t120.5 232.5t208 157t293 56.5q164 0 292 -56.5t207.5 -157t120.5 -232.5t41 -289q0 -156 -41 -288t-120.5 -232.5t-207.5 -157.5t-292 -57q-165 0 -293 57t-207.5 157.5t-120.5 232.5t-41 288zM342 717q0 -111 23.5 -202.5t72.5 -162.5 t130.5 -110t189.5 -39t189.5 39t130.5 110t72.5 162.5t23.5 202.5t-23.5 202.5t-72.5 162.5t-130.5 110t-189.5 39q-109 0 -190.5 -39t-130 -110t-72 -162t-23.5 -203zM483 1858v20h275l147 -287v-20h-184z" />
<glyph unicode="&#xd3;" horiz-adv-x="1515" d="M96 717q0 157 40.5 289t120.5 232.5t208 157t293 56.5q164 0 292 -56.5t207.5 -157t120.5 -232.5t41 -289q0 -156 -41 -288t-120.5 -232.5t-207.5 -157.5t-292 -57q-165 0 -293 57t-207.5 157.5t-120.5 232.5t-41 288zM342 717q0 -111 23.5 -202.5t72.5 -162.5 t130.5 -110t189.5 -39t189.5 39t130.5 110t72.5 162.5t23.5 202.5t-23.5 202.5t-72.5 162.5t-130.5 110t-189.5 39q-109 0 -190.5 -39t-130 -110t-72 -162t-23.5 -203zM643 1571v20l148 287h274v-20l-238 -287h-184z" />
<glyph unicode="&#xd4;" horiz-adv-x="1515" d="M96 717q0 157 40.5 289t120.5 232.5t208 157t293 56.5q164 0 292 -56.5t207.5 -157t120.5 -232.5t41 -289q0 -156 -41 -288t-120.5 -232.5t-207.5 -157.5t-292 -57q-165 0 -293 57t-207.5 157.5t-120.5 232.5t-41 288zM342 717q0 -111 23.5 -202.5t72.5 -162.5 t130.5 -110t189.5 -39t189.5 39t130.5 110t72.5 162.5t23.5 202.5t-23.5 202.5t-72.5 162.5t-130.5 110t-189.5 39q-109 0 -190.5 -39t-130 -110t-72 -162t-23.5 -203zM432 1575v20l201 279h274l201 -279v-20h-201l-133 141h-8l-133 -141h-201z" />
<glyph unicode="&#xd5;" horiz-adv-x="1515" d="M96 717q0 157 40.5 289t120.5 232.5t208 157t293 56.5q164 0 292 -56.5t207.5 -157t120.5 -232.5t41 -289q0 -156 -41 -288t-120.5 -232.5t-207.5 -157.5t-292 -57q-165 0 -293 57t-207.5 157.5t-120.5 232.5t-41 288zM342 717q0 -111 23.5 -202.5t72.5 -162.5 t130.5 -110t189.5 -39t189.5 39t130.5 110t72.5 162.5t23.5 202.5t-23.5 202.5t-72.5 162.5t-130.5 110t-189.5 39q-109 0 -190.5 -39t-130 -110t-72 -162t-23.5 -203zM403 1593v31q0 109 57.5 168t151.5 59q70 0 140 -41l30 -18q52 -27 78 -27q32 0 49 21.5t17 60.5h147 v-30q0 -111 -54 -169.5t-153 -58.5q-67 0 -137 41l-29 19q-47 28 -79 28q-29 0 -48.5 -23t-19.5 -61h-150z" />
<glyph unicode="&#xd6;" horiz-adv-x="1515" d="M96 717q0 157 40.5 289t120.5 232.5t208 157t293 56.5q164 0 292 -56.5t207.5 -157t120.5 -232.5t41 -289q0 -156 -41 -288t-120.5 -232.5t-207.5 -157.5t-292 -57q-165 0 -293 57t-207.5 157.5t-120.5 232.5t-41 288zM342 717q0 -111 23.5 -202.5t72.5 -162.5 t130.5 -110t189.5 -39t189.5 39t130.5 110t72.5 162.5t23.5 202.5t-23.5 202.5t-72.5 162.5t-130.5 110t-189.5 39q-109 0 -190.5 -39t-130 -110t-72 -162t-23.5 -203zM446 1743q0 61 35 97t99 36q62 0 97.5 -36t35.5 -97q0 -62 -35 -97.5t-98 -35.5q-64 0 -99 35.5 t-35 97.5zM829 1743q0 61 34.5 97t99.5 36q62 0 97.5 -36t35.5 -97q0 -62 -35 -97.5t-98 -35.5q-65 0 -99.5 35.5t-34.5 97.5z" />
<glyph unicode="&#xd7;" horiz-adv-x="890" d="M14 360l293 289l-293 289l144 145l295 -290l295 290l145 -145l-293 -289l293 -289l-145 -145l-295 291l-295 -291z" />
<glyph unicode="&#xd8;" horiz-adv-x="1515" d="M74 -66l188 259q-166 195 -166 524q0 157 40.5 289t120.5 232.5t208 157t293 56.5q204 0 356 -90l109 149h219v-20l-185 -252q162 -198 162 -522q0 -156 -41 -288t-120.5 -232.5t-207.5 -157.5t-292 -57q-205 0 -355 88l-114 -156h-215v20zM342 717q0 -196 68 -320 l567 779q-90 55 -219 55q-109 0 -190.5 -39t-130 -110t-72 -162t-23.5 -203zM541 258q90 -55 217 -55q108 0 189.5 39t130.5 110t72.5 162.5t23.5 202.5q0 188 -66 317z" />
<glyph unicode="&#xd9;" horiz-adv-x="1462" d="M158 532v902h239v-897q0 -155 81 -246.5t251 -91.5q173 0 253.5 91t80.5 247v897h242v-902q0 -262 -157 -406t-419 -144q-258 0 -414.5 144.5t-156.5 405.5zM444 1858v20h275l147 -287v-20h-184z" />
<glyph unicode="&#xda;" horiz-adv-x="1462" d="M158 532v902h239v-897q0 -155 81 -246.5t251 -91.5q173 0 253.5 91t80.5 247v897h242v-902q0 -262 -157 -406t-419 -144q-258 0 -414.5 144.5t-156.5 405.5zM604 1571v20l148 287h274v-20l-238 -287h-184z" />
<glyph unicode="&#xdb;" horiz-adv-x="1462" d="M158 532v902h239v-897q0 -155 81 -246.5t251 -91.5q173 0 253.5 91t80.5 247v897h242v-902q0 -262 -157 -406t-419 -144q-258 0 -414.5 144.5t-156.5 405.5zM393 1575v20l201 279h274l201 -279v-20h-201l-133 141h-8l-133 -141h-201z" />
<glyph unicode="&#xdc;" horiz-adv-x="1462" d="M158 532v902h239v-897q0 -155 81 -246.5t251 -91.5q173 0 253.5 91t80.5 247v897h242v-902q0 -262 -157 -406t-419 -144q-258 0 -414.5 144.5t-156.5 405.5zM408 1743q0 61 35 97t98 36q62 0 97.5 -36t35.5 -97q0 -62 -35 -97.5t-98 -35.5q-64 0 -98.5 35.5t-34.5 97.5z M791 1743q0 61 34 97t99 36q62 0 97.5 -36t35.5 -97q0 -62 -35 -97.5t-98 -35.5q-65 0 -99 35t-34 98z" />
<glyph unicode="&#xdd;" horiz-adv-x="1372" d="M43 1413v21h276l367 -611h8l361 611h274v-21l-520 -825v-588h-242v586zM578 1571v20l147 287h274v-20l-237 -287h-184z" />
<glyph unicode="&#xde;" horiz-adv-x="1271" d="M178 0v1434h242v-197h340q216 0 344.5 -129t128.5 -332q0 -208 -129 -338.5t-344 -130.5h-340v-307h-242zM420 522h299q130 0 199 65t69 189q0 118 -71.5 183t-196.5 65h-299v-502z" />
<glyph unicode="&#xdf;" horiz-adv-x="1343" d="M150 0v1092q0 196 129.5 320t351.5 124q219 0 340 -105.5t121 -261.5q0 -67 -20.5 -118.5t-53.5 -82.5t-72.5 -54t-79.5 -38.5t-73 -30.5t-53.5 -36.5t-20.5 -50.5q0 -43 32.5 -66t106.5 -49l135 -43q142 -50 206.5 -121.5t64.5 -183.5q0 -142 -108.5 -227.5 t-276.5 -85.5q-189 0 -298 99.5t-114 272.5h225q0 -81 47 -128.5t140 -47.5q73 0 115 31.5t42 87.5q0 46 -34.5 77.5t-104.5 53.5l-131 45q-135 44 -200.5 107.5t-65.5 173.5q0 60 20 106t52 74.5t71 50.5t78 39.5t71 36t52 45.5t20 63q0 74 -61 119t-172 45 q-122 0 -185 -65.5t-63 -188.5v-1079h-233z" />
<glyph unicode="&#xe0;" horiz-adv-x="1118" d="M80 311q0 147 107.5 237.5t324.5 90.5q126 0 246 -35v98q0 79 -52.5 130t-156.5 51q-93 0 -145 -45t-54 -113h-221q0 154 114 252t310 98q204 0 320 -104t116 -266v-705h-205l-16 125h-8q-46 -68 -126 -105.5t-185 -37.5q-171 0 -270 93t-99 236zM281 1481v20h274 l147 -287v-20h-184zM313 319q0 -67 48.5 -109t140.5 -42q114 0 185 67t71 164v35q-107 37 -230 37q-104 0 -159.5 -40t-55.5 -112z" />
<glyph unicode="&#xe1;" horiz-adv-x="1118" d="M80 311q0 147 107.5 237.5t324.5 90.5q126 0 246 -35v98q0 79 -52.5 130t-156.5 51q-93 0 -145 -45t-54 -113h-221q0 154 114 252t310 98q204 0 320 -104t116 -266v-705h-205l-16 125h-8q-46 -68 -126 -105.5t-185 -37.5q-171 0 -270 93t-99 236zM313 319 q0 -67 48.5 -109t140.5 -42q114 0 185 67t71 164v35q-107 37 -230 37q-104 0 -159.5 -40t-55.5 -112zM440 1194v20l148 287h274v-20l-237 -287h-185z" />
<glyph unicode="&#xe2;" horiz-adv-x="1118" d="M80 311q0 147 107.5 237.5t324.5 90.5q126 0 246 -35v98q0 79 -52.5 130t-156.5 51q-93 0 -145 -45t-54 -113h-221q0 154 114 252t310 98q204 0 320 -104t116 -266v-705h-205l-16 125h-8q-46 -68 -126 -105.5t-185 -37.5q-171 0 -270 93t-99 236zM229 1198v21l201 278 h275l200 -278v-21h-200l-134 141h-8l-133 -141h-201zM313 319q0 -67 48.5 -109t140.5 -42q114 0 185 67t71 164v35q-107 37 -230 37q-104 0 -159.5 -40t-55.5 -112z" />
<glyph unicode="&#xe3;" horiz-adv-x="1118" d="M80 311q0 147 107.5 237.5t324.5 90.5q126 0 246 -35v98q0 79 -52.5 130t-156.5 51q-93 0 -145 -45t-54 -113h-221q0 154 114 252t310 98q204 0 320 -104t116 -266v-705h-205l-16 125h-8q-46 -68 -126 -105.5t-185 -37.5q-171 0 -270 93t-99 236zM201 1217v30 q0 109 57.5 168.5t151.5 59.5q69 0 139 -41l31 -19q50 -26 77 -26q32 0 49 21t17 60h147v-30q0 -112 -53.5 -170t-152.5 -58q-68 0 -138 41l-28 19q-47 28 -80 28q-29 0 -48.5 -22.5t-19.5 -60.5h-149zM313 319q0 -67 48.5 -109t140.5 -42q114 0 185 67t71 164v35 q-107 37 -230 37q-104 0 -159.5 -40t-55.5 -112z" />
<glyph unicode="&#xe4;" horiz-adv-x="1118" d="M80 311q0 147 107.5 237.5t324.5 90.5q126 0 246 -35v98q0 79 -52.5 130t-156.5 51q-93 0 -145 -45t-54 -113h-221q0 154 114 252t310 98q204 0 320 -104t116 -266v-705h-205l-16 125h-8q-46 -68 -126 -105.5t-185 -37.5q-171 0 -270 93t-99 236zM244 1366q0 61 35 97 t98 36q62 0 97.5 -36t35.5 -97q0 -62 -35 -97.5t-98 -35.5q-64 0 -98.5 35.5t-34.5 97.5zM313 319q0 -67 48.5 -109t140.5 -42q114 0 185 67t71 164v35q-107 37 -230 37q-104 0 -159.5 -40t-55.5 -112zM627 1366q0 61 34 97t99 36q62 0 97.5 -36t35.5 -97q0 -62 -35 -97.5 t-98 -35.5q-65 0 -99 35t-34 98z" />
<glyph unicode="&#xe5;" horiz-adv-x="1118" d="M80 311q0 147 107.5 237.5t324.5 90.5q126 0 246 -35v98q0 79 -52.5 130t-156.5 51q-93 0 -145 -45t-54 -113h-221q0 154 114 252t310 98q204 0 320 -104t116 -266v-705h-205l-16 125h-8q-46 -68 -126 -105.5t-185 -37.5q-171 0 -270 93t-99 236zM313 319 q0 -67 48.5 -109t140.5 -42q114 0 185 67t71 164v35q-107 37 -230 37q-104 0 -159.5 -40t-55.5 -112zM328 1395q0 101 65.5 165t165.5 64q104 0 170 -64t66 -165q0 -100 -66 -164t-170 -64q-100 0 -165.5 64.5t-65.5 163.5zM465 1395q0 -40 25.5 -66t66.5 -26q44 0 71 26 t27 66t-27 67t-71 27q-41 0 -66.5 -27t-25.5 -67z" />
<glyph unicode="&#xe6;" horiz-adv-x="1800" d="M80 311q0 147 107.5 237.5t324.5 90.5q126 0 246 -35v98q0 79 -52.5 130t-156.5 51q-93 0 -145 -45t-54 -113h-221q0 154 114 252t310 98q114 0 202 -38t142 -103h8q121 141 338 141q150 0 259.5 -68.5t163.5 -183.5t54 -262v-98h-731q0 -131 65.5 -208t192.5 -77 q93 0 152 38.5t78 105.5h229q-22 -148 -148 -244t-311 -96q-265 0 -387 198h-8q-49 -85 -147.5 -141.5t-249.5 -56.5q-171 0 -273 93t-102 236zM313 319q0 -67 48.5 -109t140.5 -42q114 0 185 67t71 164v35q-107 37 -230 37q-104 0 -159.5 -40t-55.5 -112zM991 629h490 q-2 110 -62.5 179t-175.5 69q-121 0 -184 -69t-68 -179z" />
<glyph unicode="&#xe7;" horiz-adv-x="1118" d="M80 528q0 250 130 398.5t368 148.5q109 0 194.5 -31t141 -86t86.5 -127t36 -159h-233q-8 90 -68 143t-157 53q-131 0 -196 -90.5t-65 -249.5q0 -162 65 -252t196 -90q99 0 158.5 52.5t68.5 144.5h233q-12 -169 -113 -276.5t-284 -122.5l-45 -70q89 -3 144 -51.5 t55 -124.5q0 -83 -69 -138t-198 -55q-106 0 -176.5 51.5t-70.5 143.5h149q0 -28 26.5 -47t69.5 -19q40 0 68.5 17t28.5 49q0 28 -24.5 45.5t-66.5 17.5h-65l-51 64l61 123q-191 32 -294 174.5t-103 363.5z" />
<glyph unicode="&#xe8;" horiz-adv-x="1134" d="M80 528q0 115 31 213.5t91 173.5t155.5 117.5t217.5 42.5q150 0 260 -68.5t164 -183.5t54 -262v-98h-731q0 -130 66.5 -207.5t191.5 -77.5q94 0 153 38.5t78 105.5h227q-22 -148 -147.5 -244t-310.5 -96q-234 0 -367 154t-133 392zM295 1481v20h274l148 -287v-20h-185z M324 629h489q-2 110 -62.5 179t-175.5 69q-121 0 -183.5 -69t-67.5 -179z" />
<glyph unicode="&#xe9;" horiz-adv-x="1134" d="M80 528q0 115 31 213.5t91 173.5t155.5 117.5t217.5 42.5q150 0 260 -68.5t164 -183.5t54 -262v-98h-731q0 -130 66.5 -207.5t191.5 -77.5q94 0 153 38.5t78 105.5h227q-22 -148 -147.5 -244t-310.5 -96q-234 0 -367 154t-133 392zM324 629h489q-2 110 -62.5 179 t-175.5 69q-121 0 -183.5 -69t-67.5 -179zM455 1194v20l147 287h275v-20l-238 -287h-184z" />
<glyph unicode="&#xea;" horiz-adv-x="1134" d="M80 528q0 115 31 213.5t91 173.5t155.5 117.5t217.5 42.5q150 0 260 -68.5t164 -183.5t54 -262v-98h-731q0 -130 66.5 -207.5t191.5 -77.5q94 0 153 38.5t78 105.5h227q-22 -148 -147.5 -244t-310.5 -96q-234 0 -367 154t-133 392zM244 1198v21l200 278h275l201 -278v-21 h-201l-133 141h-8l-134 -141h-200zM324 629h489q-2 110 -62.5 179t-175.5 69q-121 0 -183.5 -69t-67.5 -179z" />
<glyph unicode="&#xeb;" horiz-adv-x="1134" d="M80 528q0 115 31 213.5t91 173.5t155.5 117.5t217.5 42.5q150 0 260 -68.5t164 -183.5t54 -262v-98h-731q0 -130 66.5 -207.5t191.5 -77.5q94 0 153 38.5t78 105.5h227q-22 -148 -147.5 -244t-310.5 -96q-234 0 -367 154t-133 392zM258 1366q0 61 35 97t98 36 q62 0 97.5 -36t35.5 -97q0 -62 -35 -97.5t-98 -35.5q-64 0 -98.5 35.5t-34.5 97.5zM324 629h489q-2 110 -62.5 179t-175.5 69q-121 0 -183.5 -69t-67.5 -179zM641 1366q0 61 34 97t99 36q62 0 97.5 -36t35.5 -97q0 -62 -35 -97.5t-98 -35.5q-65 0 -99 35t-34 98z" />
<glyph unicode="&#xec;" horiz-adv-x="512" d="M-14 1481v20h274l148 -287v-20h-185zM150 0v1057h233v-1057h-233z" />
<glyph unicode="&#xed;" horiz-adv-x="512" d="M145 1194v20l148 287h274v-20l-237 -287h-185zM150 0v1057h233v-1057h-233z" />
<glyph unicode="&#xee;" horiz-adv-x="512" d="M-66 1198v21l201 278h275l200 -278v-21h-200l-134 141h-8l-133 -141h-201zM150 0v1057h233v-1057h-233z" />
<glyph unicode="&#xef;" horiz-adv-x="512" d="M-51 1366q0 61 35 97t98 36q62 0 97.5 -36t35.5 -97q0 -62 -35 -97.5t-98 -35.5q-64 0 -98.5 35.5t-34.5 97.5zM150 0v1057h233v-1057h-233zM332 1366q0 61 34 97t99 36q62 0 97.5 -36t35.5 -97q0 -62 -35 -97.5t-98 -35.5q-65 0 -99 35t-34 98z" />
<glyph unicode="&#xf0;" horiz-adv-x="1159" d="M80 528q0 117 32 216t93 173t157 116t218 42q44 0 84 -6q-65 81 -140 150l-233 -115l-68 129l180 90q-114 92 -258 172v21h254q89 -52 168 -111l213 106l68 -133l-156 -75q169 -153 269.5 -335.5t115.5 -377.5q2 -18 2 -58v-2v-2q0 -158 -53.5 -279t-168 -194t-277.5 -73 q-123 0 -219.5 41.5t-157 115.5t-92 172.5t-31.5 216.5zM317 528q0 -162 66.5 -251t196.5 -89q131 0 196.5 88.5t65.5 251.5q0 162 -65.5 251t-196.5 89t-197 -89.5t-66 -250.5z" />
<glyph unicode="&#xf1;" horiz-adv-x="1202" d="M150 0v1057h206l19 -137h8q98 155 309 155q177 0 279 -102.5t102 -282.5v-690h-233v633q0 231 -215 231q-111 0 -176.5 -74.5t-65.5 -205.5v-584h-233zM305 1217v30q0 109 57.5 168.5t151.5 59.5q69 0 139 -41l31 -19q50 -26 78 -26q65 0 65 81h148v-30 q0 -111 -54 -169.5t-153 -58.5q-67 0 -137 41l-29 19q-47 28 -80 28q-29 0 -48 -22t-19 -61h-150z" />
<glyph unicode="&#xf2;" horiz-adv-x="1159" d="M80 528q0 117 32 216t93 173t157 116t218 42q161 0 275.5 -73t169 -194.5t54.5 -279.5t-53.5 -279t-168 -194t-277.5 -73q-123 0 -219.5 41.5t-157 115.5t-92 172.5t-31.5 216.5zM299 1481v20h274l148 -287v-20h-184zM317 528q0 -162 66.5 -251t196.5 -89 q131 0 196.5 88.5t65.5 251.5q0 162 -65.5 251t-196.5 89t-197 -89.5t-66 -250.5z" />
<glyph unicode="&#xf3;" horiz-adv-x="1159" d="M80 528q0 117 32 216t93 173t157 116t218 42q161 0 275.5 -73t169 -194.5t54.5 -279.5t-53.5 -279t-168 -194t-277.5 -73q-123 0 -219.5 41.5t-157 115.5t-92 172.5t-31.5 216.5zM317 528q0 -162 66.5 -251t196.5 -89q131 0 196.5 88.5t65.5 251.5q0 162 -65.5 251 t-196.5 89t-197 -89.5t-66 -250.5zM459 1194v20l147 287h275v-20l-238 -287h-184z" />
<glyph unicode="&#xf4;" horiz-adv-x="1159" d="M80 528q0 117 32 216t93 173t157 116t218 42q161 0 275.5 -73t169 -194.5t54.5 -279.5t-53.5 -279t-168 -194t-277.5 -73q-123 0 -219.5 41.5t-157 115.5t-92 172.5t-31.5 216.5zM248 1198v21l201 278h274l201 -278v-21h-201l-133 141h-8l-133 -141h-201zM317 528 q0 -162 66.5 -251t196.5 -89q131 0 196.5 88.5t65.5 251.5q0 162 -65.5 251t-196.5 89t-197 -89.5t-66 -250.5z" />
<glyph unicode="&#xf5;" horiz-adv-x="1159" d="M80 528q0 117 32 216t93 173t157 116t218 42q161 0 275.5 -73t169 -194.5t54.5 -279.5t-53.5 -279t-168 -194t-277.5 -73q-123 0 -219.5 41.5t-157 115.5t-92 172.5t-31.5 216.5zM219 1217v30q0 109 57.5 168.5t151.5 59.5q69 0 139 -41l31 -19q50 -26 78 -26q65 0 65 81 h148v-30q0 -111 -54 -169.5t-153 -58.5q-67 0 -137 41l-29 19q-47 28 -80 28q-29 0 -48 -22t-19 -61h-150zM317 528q0 -162 66.5 -251t196.5 -89q131 0 196.5 88.5t65.5 251.5q0 162 -65.5 251t-196.5 89t-197 -89.5t-66 -250.5z" />
<glyph unicode="&#xf6;" horiz-adv-x="1159" d="M80 528q0 117 32 216t93 173t157 116t218 42q161 0 275.5 -73t169 -194.5t54.5 -279.5t-53.5 -279t-168 -194t-277.5 -73q-123 0 -219.5 41.5t-157 115.5t-92 172.5t-31.5 216.5zM262 1366q0 61 35 97t98 36q62 0 97.5 -36t35.5 -97q0 -62 -35 -97.5t-98 -35.5 q-64 0 -98.5 35.5t-34.5 97.5zM317 528q0 -162 66.5 -251t196.5 -89q131 0 196.5 88.5t65.5 251.5q0 162 -65.5 251t-196.5 89t-197 -89.5t-66 -250.5zM645 1366q0 61 34 97t99 36q62 0 97.5 -36t35.5 -97q0 -62 -35 -97.5t-98 -35.5q-65 0 -99 35t-34 98z" />
<glyph unicode="&#xf7;" horiz-adv-x="993" d="M10 543v196h973v-196h-973zM358 285q0 62 36 99.5t102 37.5q65 0 101 -38t36 -99q0 -64 -36 -102t-101 -38q-66 0 -102 38t-36 102zM358 999q0 63 36 100.5t102 37.5q65 0 101 -37.5t36 -100.5t-36 -101t-101 -38q-66 0 -102 38t-36 101z" />
<glyph unicode="&#xf8;" horiz-adv-x="1159" d="M80 528q0 117 32 216t93 173t157 116t218 42q125 0 223 -45l74 113h198v-21l-129 -196q133 -148 133 -398q0 -158 -53.5 -279t-168 -194t-277.5 -73q-131 0 -224 43l-77 -121h-195v20l131 201q-135 147 -135 403zM317 528q0 -118 33 -194l336 516q-47 18 -106 18 q-131 0 -197 -89.5t-66 -250.5zM477 207q46 -19 103 -19q131 0 196.5 88.5t65.5 251.5q0 110 -31 189z" />
<glyph unicode="&#xf9;" horiz-adv-x="1183" d="M137 401v656h234v-619q0 -239 221 -239t221 239v619h234v-656q0 -184 -119.5 -300.5t-335.5 -116.5q-215 0 -335 117t-120 300zM317 1481v20h275l147 -287v-20h-184z" />
<glyph unicode="&#xfa;" horiz-adv-x="1183" d="M137 401v656h234v-619q0 -239 221 -239t221 239v619h234v-656q0 -184 -119.5 -300.5t-335.5 -116.5q-215 0 -335 117t-120 300zM477 1194v20l148 287h274v-20l-237 -287h-185z" />
<glyph unicode="&#xfb;" horiz-adv-x="1183" d="M137 401v656h234v-619q0 -239 221 -239t221 239v619h234v-656q0 -184 -119.5 -300.5t-335.5 -116.5q-215 0 -335 117t-120 300zM266 1198v21l201 278h274l201 -278v-21h-201l-133 141h-8l-133 -141h-201z" />
<glyph unicode="&#xfc;" horiz-adv-x="1183" d="M137 401v656h234v-619q0 -239 221 -239t221 239v619h234v-656q0 -184 -119.5 -300.5t-335.5 -116.5q-215 0 -335 117t-120 300zM281 1366q0 61 35 97t98 36q62 0 97.5 -36t35.5 -97q0 -62 -35 -97.5t-98 -35.5q-64 0 -98.5 35.5t-34.5 97.5zM664 1366q0 61 34 97t99 36 q62 0 97.5 -36t35.5 -97q0 -62 -35 -97.5t-98 -35.5q-65 0 -99 35t-34 98z" />
<glyph unicode="&#xfd;" horiz-adv-x="1114" d="M33 1036v21h243l275 -795h8l275 795h247v-21l-561 -1505h-246v20l168 453l-24 2zM451 1194v20l147 287h274v-20l-237 -287h-184z" />
<glyph unicode="&#xfe;" horiz-adv-x="1228" d="M150 -469v1985h233v-586h8q96 145 301 145q203 0 322 -149t119 -398q0 -243 -116.5 -394.5t-324.5 -151.5q-205 0 -301 145h-8v-596h-233zM375 528q0 -71 15 -130.5t45 -107.5t81.5 -75t118.5 -27q70 0 122 27t82 74.5t44 107t14 131.5q0 150 -64 245t-198 95 q-67 0 -118.5 -27t-81.5 -75t-45 -107.5t-15 -130.5z" />
<glyph unicode="&#xff;" horiz-adv-x="1114" d="M33 1036v21h243l275 -795h8l275 795h247v-21l-561 -1505h-246v20l168 453l-24 2zM254 1366q0 61 35 97t98 36q62 0 97.5 -36t35.5 -97q0 -62 -35 -97.5t-98 -35.5q-64 0 -98.5 35.5t-34.5 97.5zM637 1366q0 61 34 97t99 36q62 0 97.5 -36t35.5 -97q0 -62 -35 -97.5 t-98 -35.5q-65 0 -99 35t-34 98z" />
<glyph unicode="&#x100;" horiz-adv-x="1415" d="M43 0v20l512 1414h301l514 -1414v-20h-262l-113 332h-585l-113 -332h-254zM422 1632v193h575v-193h-575zM481 543h443l-217 639h-9z" />
<glyph unicode="&#x101;" horiz-adv-x="1118" d="M80 311q0 147 107.5 237.5t324.5 90.5q126 0 246 -35v98q0 79 -52.5 130t-156.5 51q-93 0 -145 -45t-54 -113h-221q0 154 114 252t310 98q204 0 320 -104t116 -266v-705h-205l-16 125h-8q-46 -68 -126 -105.5t-185 -37.5q-171 0 -270 93t-99 236zM276 1255v193h576v-193 h-576zM313 319q0 -67 48.5 -109t140.5 -42q114 0 185 67t71 164v35q-107 37 -230 37q-104 0 -159.5 -40t-55.5 -112z" />
<glyph unicode="&#x102;" horiz-adv-x="1415" d="M43 0v20l512 1414h301l514 -1414v-20h-262l-113 332h-585l-113 -332h-254zM393 1872h180q6 -121 132 -121t133 121h180q0 -138 -81 -217.5t-232 -79.5q-147 0 -229.5 80t-82.5 217zM481 543h443l-217 639h-9z" />
<glyph unicode="&#x103;" horiz-adv-x="1118" d="M80 311q0 147 107.5 237.5t324.5 90.5q126 0 246 -35v98q0 79 -52.5 130t-156.5 51q-93 0 -145 -45t-54 -113h-221q0 154 114 252t310 98q204 0 320 -104t116 -266v-705h-205l-16 125h-8q-46 -68 -126 -105.5t-185 -37.5q-171 0 -270 93t-99 236zM250 1495h180 q6 -121 131 -121q126 0 133 121h180q0 -138 -81 -217.5t-232 -79.5q-147 0 -229 80t-82 217zM313 319q0 -67 48.5 -109t140.5 -42q114 0 185 67t71 164v35q-107 37 -230 37q-104 0 -159.5 -40t-55.5 -112z" />
<glyph unicode="&#x104;" horiz-adv-x="1415" d="M43 0v20l512 1414h301l514 -1414v-20q-73 -32 -123.5 -83t-50.5 -114q0 -45 29.5 -68.5t74.5 -23.5q38 0 70 8v-155q-56 -17 -121 -17q-103 0 -177.5 56t-74.5 155q0 150 148 242h-37l-113 332h-585l-113 -332h-254zM481 543h443l-217 639h-9z" />
<glyph unicode="&#x105;" horiz-adv-x="1118" d="M80 311q0 147 107.5 237.5t324.5 90.5q126 0 246 -35v98q0 79 -52.5 130t-156.5 51q-93 0 -145 -45t-54 -113h-221q0 154 114 252t310 98q204 0 320 -104t116 -266v-705h-2q-73 -32 -123.5 -83t-50.5 -114q0 -45 29.5 -68.5t75.5 -23.5q37 0 69 8v-155q-56 -17 -121 -17 q-103 0 -177.5 56t-74.5 155q0 162 168 254l-14 113h-8q-46 -68 -126 -105.5t-185 -37.5q-171 0 -270 93t-99 236zM313 319q0 -67 48.5 -109t140.5 -42q114 0 185 67t71 164v35q-107 37 -230 37q-104 0 -159.5 -40t-55.5 -112z" />
<glyph unicode="&#x106;" horiz-adv-x="1452" d="M96 715q0 162 43 296.5t124.5 233t207.5 153t285 54.5q260 0 419.5 -145.5t180.5 -378.5h-246q-14 136 -104 219.5t-250 83.5q-107 0 -188 -39.5t-129.5 -110.5t-72.5 -163t-24 -203q0 -88 14.5 -164.5t47 -141.5t80 -110.5t117 -71.5t155.5 -26q155 0 243 78t113 213 h244q-27 -228 -185 -369t-415 -141q-159 0 -285.5 54.5t-208 153t-124 232t-42.5 293.5zM635 1571v20l147 287h275v-20l-238 -287h-184z" />
<glyph unicode="&#x107;" horiz-adv-x="1118" d="M80 528q0 250 130 398.5t368 148.5q109 0 194.5 -31t141 -86t86.5 -127t36 -159h-233q-8 90 -68 143t-157 53q-131 0 -196 -90.5t-65 -249.5q0 -162 65 -252t196 -90q99 0 158.5 52.5t68.5 144.5h233q-14 -183 -129.5 -292t-324.5 -109q-240 0 -372 147.5t-132 398.5z M465 1194v20l147 287h275v-20l-238 -287h-184z" />
<glyph unicode="&#x108;" horiz-adv-x="1452" d="M96 715q0 162 43 296.5t124.5 233t207.5 153t285 54.5q260 0 419.5 -145.5t180.5 -378.5h-246q-14 136 -104 219.5t-250 83.5q-107 0 -188 -39.5t-129.5 -110.5t-72.5 -163t-24 -203q0 -88 14.5 -164.5t47 -141.5t80 -110.5t117 -71.5t155.5 -26q155 0 243 78t113 213 h244q-27 -228 -185 -369t-415 -141q-159 0 -285.5 54.5t-208 153t-124 232t-42.5 293.5zM424 1575v20l201 279h274l201 -279v-20h-201l-133 141h-8l-133 -141h-201z" />
<glyph unicode="&#x109;" horiz-adv-x="1118" d="M80 528q0 250 130 398.5t368 148.5q109 0 194.5 -31t141 -86t86.5 -127t36 -159h-233q-8 90 -68 143t-157 53q-131 0 -196 -90.5t-65 -249.5q0 -162 65 -252t196 -90q99 0 158.5 52.5t68.5 144.5h233q-14 -183 -129.5 -292t-324.5 -109q-240 0 -372 147.5t-132 398.5z M254 1198v21l201 278h274l201 -278v-21h-201l-133 141h-8l-133 -141h-201z" />
<glyph unicode="&#x10a;" horiz-adv-x="1452" d="M96 715q0 162 43 296.5t124.5 233t207.5 153t285 54.5q260 0 419.5 -145.5t180.5 -378.5h-246q-14 136 -104 219.5t-250 83.5q-107 0 -188 -39.5t-129.5 -110.5t-72.5 -163t-24 -203q0 -88 14.5 -164.5t47 -141.5t80 -110.5t117 -71.5t155.5 -26q155 0 243 78t113 213 h244q-27 -228 -185 -369t-415 -141q-159 0 -285.5 54.5t-208 153t-124 232t-42.5 293.5zM606 1743q0 68 38.5 106.5t111.5 38.5q71 0 110 -38.5t39 -106.5t-39 -108t-110 -40q-72 0 -111 39.5t-39 108.5z" />
<glyph unicode="&#x10b;" horiz-adv-x="1118" d="M80 528q0 250 130 398.5t368 148.5q109 0 194.5 -31t141 -86t86.5 -127t36 -159h-233q-8 90 -68 143t-157 53q-131 0 -196 -90.5t-65 -249.5q0 -162 65 -252t196 -90q99 0 158.5 52.5t68.5 144.5h233q-14 -183 -129.5 -292t-324.5 -109q-240 0 -372 147.5t-132 398.5z M436 1366q0 68 38.5 106.5t111.5 38.5q71 0 110 -38.5t39 -106.5t-39 -107.5t-110 -39.5q-72 0 -111 39t-39 108z" />
<glyph unicode="&#x10c;" horiz-adv-x="1452" d="M96 715q0 162 43 296.5t124.5 233t207.5 153t285 54.5q260 0 419.5 -145.5t180.5 -378.5h-246q-14 136 -104 219.5t-250 83.5q-107 0 -188 -39.5t-129.5 -110.5t-72.5 -163t-24 -203q0 -88 14.5 -164.5t47 -141.5t80 -110.5t117 -71.5t155.5 -26q155 0 243 78t113 213 h244q-27 -228 -185 -369t-415 -141q-159 0 -285.5 54.5t-208 153t-124 232t-42.5 293.5zM420 1853v21h201l131 -141h8l135 141h201v-21l-201 -278h-274z" />
<glyph unicode="&#x10d;" horiz-adv-x="1118" d="M80 528q0 250 130 398.5t368 148.5q109 0 194.5 -31t141 -86t86.5 -127t36 -159h-233q-8 90 -68 143t-157 53q-131 0 -196 -90.5t-65 -249.5q0 -162 65 -252t196 -90q99 0 158.5 52.5t68.5 144.5h233q-14 -183 -129.5 -292t-324.5 -109q-240 0 -372 147.5t-132 398.5z M250 1477v20h201l131 -141h8l135 141h201v-20l-201 -279h-274z" />
<glyph unicode="&#x10e;" horiz-adv-x="1441" d="M178 0v1434h484q312 0 498 -196.5t186 -520.5q0 -150 -46 -280.5t-131 -227.5t-216 -153t-291 -56h-484zM311 1853v21h201l131 -141h8l135 141h201v-21l-201 -278h-274zM410 215h233q223 0 340 135.5t117 366.5q0 230 -117 365t-340 135h-233v-1002z" />
<glyph unicode="&#x10f;" d="M80 530q1 158 50.5 280t150 193.5t239.5 71.5q207 0 303 -145h8v586h234v-1516h-207l-27 127h-8q-96 -145 -303 -145q-203 0 -320.5 148.5t-119.5 399.5zM317 530q0 -98 24.5 -172t85 -122t151.5 -48q89 0 149.5 48t86.5 123t26 171q0 95 -25.5 169t-86 121.5 t-150.5 47.5q-56 0 -101 -18t-74.5 -48.5t-49 -74t-28 -92.5t-8.5 -105zM1165 1167v349h242v-21l-86 -328h-156z" />
<glyph unicode="&#x110;" horiz-adv-x="1538" d="M129 637v209h145v588h484q311 0 497.5 -196.5t186.5 -520.5q0 -150 -46 -280.5t-131.5 -227.5t-216 -153t-290.5 -56h-484v637h-145zM506 215h233q222 0 339.5 135.5t117.5 366.5q0 229 -117.5 364.5t-339.5 135.5h-233v-371h354v-209h-354v-422z" />
<glyph unicode="&#x111;" d="M80 530q1 158 50.5 280t150 193.5t239.5 71.5q207 0 303 -145h8v280h-233v164h233v142h234v-142h127v-164h-127v-1210h-207l-27 127h-8q-96 -145 -303 -145q-203 0 -320.5 148.5t-119.5 399.5zM317 530q0 -98 24.5 -172t85 -122t151.5 -48q89 0 149.5 48t86.5 123t26 171 q0 95 -25.5 169t-86 121.5t-150.5 47.5q-56 0 -101 -18t-74.5 -48.5t-49 -74t-28 -92.5t-8.5 -105z" />
<glyph unicode="&#x112;" horiz-adv-x="1249" d="M178 0v1434h967v-217h-727v-369h663v-217h-663v-416h727v-215h-967zM397 1632v193h576v-193h-576z" />
<glyph unicode="&#x113;" horiz-adv-x="1134" d="M80 528q0 115 31 213.5t91 173.5t155.5 117.5t217.5 42.5q150 0 260 -68.5t164 -183.5t54 -262v-98h-731q0 -130 66.5 -207.5t191.5 -77.5q94 0 153 38.5t78 105.5h227q-22 -148 -147.5 -244t-310.5 -96q-234 0 -367 154t-133 392zM291 1255v193h575v-193h-575zM324 629 h489q-2 110 -62.5 179t-175.5 69q-121 0 -183.5 -69t-67.5 -179z" />
<glyph unicode="&#x114;" horiz-adv-x="1249" d="M178 0v1434h967v-217h-727v-369h663v-217h-663v-416h727v-215h-967zM369 1872h180q6 -121 131 -121q126 0 133 121h180q0 -138 -81 -217.5t-232 -79.5q-147 0 -229 80t-82 217z" />
<glyph unicode="&#x115;" horiz-adv-x="1134" d="M80 528q0 115 31 213.5t91 173.5t155.5 117.5t217.5 42.5q150 0 260 -68.5t164 -183.5t54 -262v-98h-731q0 -130 66.5 -207.5t191.5 -77.5q94 0 153 38.5t78 105.5h227q-22 -148 -147.5 -244t-310.5 -96q-234 0 -367 154t-133 392zM264 1495h180q6 -121 131 -121 q127 0 134 121h180q0 -138 -81.5 -217.5t-232.5 -79.5q-147 0 -229 80t-82 217zM324 629h489q-2 110 -62.5 179t-175.5 69q-121 0 -183.5 -69t-67.5 -179z" />
<glyph unicode="&#x116;" horiz-adv-x="1249" d="M178 0v1434h967v-217h-727v-369h663v-217h-663v-416h727v-215h-967zM530 1743q0 68 38.5 106.5t111.5 38.5q71 0 110 -38.5t39 -106.5t-39 -108t-110 -40q-72 0 -111 39.5t-39 108.5z" />
<glyph unicode="&#x117;" horiz-adv-x="1134" d="M80 528q0 115 31 213.5t91 173.5t155.5 117.5t217.5 42.5q150 0 260 -68.5t164 -183.5t54 -262v-98h-731q0 -130 66.5 -207.5t191.5 -77.5q94 0 153 38.5t78 105.5h227q-22 -148 -147.5 -244t-310.5 -96q-234 0 -367 154t-133 392zM324 629h489q-2 110 -62.5 179 t-175.5 69q-121 0 -183.5 -69t-67.5 -179zM426 1366q0 68 38 106.5t111 38.5q71 0 110.5 -38.5t39.5 -106.5t-39.5 -107.5t-110.5 -39.5q-72 0 -110.5 39t-38.5 108z" />
<glyph unicode="&#x118;" horiz-adv-x="1249" d="M178 0v1434h967v-217h-727v-369h663v-217h-663v-416h727v-215h-6q-73 -32 -123.5 -83t-50.5 -114q0 -45 29.5 -68.5t74.5 -23.5q38 0 70 8v-155q-56 -17 -121 -17q-103 0 -177.5 56t-74.5 155q0 151 147 242h-735z" />
<glyph unicode="&#x119;" horiz-adv-x="1134" d="M80 528q0 115 31 213.5t91 173.5t155.5 117.5t217.5 42.5q150 0 260 -68.5t164 -183.5t54 -262v-98h-731q0 -130 66.5 -207.5t191.5 -77.5q94 0 153 38.5t78 105.5h227q-17 -115 -99 -201t-210 -121h4q-73 -32 -123.5 -83t-50.5 -114q0 -45 29.5 -68.5t75.5 -23.5 q37 0 69 8v-155q-56 -17 -121 -17q-103 0 -177.5 56t-74.5 155q0 141 129 230q-193 30 -301 178.5t-108 361.5zM324 629h489q-2 110 -62.5 179t-175.5 69q-121 0 -183.5 -69t-67.5 -179z" />
<glyph unicode="&#x11a;" horiz-adv-x="1249" d="M178 0v1434h967v-217h-727v-369h663v-217h-663v-416h727v-215h-967zM346 1853v21h201l131 -141h8l135 141h201v-21l-201 -278h-274z" />
<glyph unicode="&#x11b;" horiz-adv-x="1134" d="M80 528q0 115 31 213.5t91 173.5t155.5 117.5t217.5 42.5q150 0 260 -68.5t164 -183.5t54 -262v-98h-731q0 -130 66.5 -207.5t191.5 -77.5q94 0 153 38.5t78 105.5h227q-22 -148 -147.5 -244t-310.5 -96q-234 0 -367 154t-133 392zM240 1477v20h200l131 -141h9l135 141 h200v-20l-200 -279h-275zM324 629h489q-2 110 -62.5 179t-175.5 69q-121 0 -183.5 -69t-67.5 -179z" />
<glyph unicode="&#x11c;" horiz-adv-x="1470" d="M96 713q0 162 42.5 297t123.5 233.5t206.5 153.5t283.5 55q260 0 421 -138.5t183 -357.5h-246q-16 123 -106.5 199t-251.5 76q-107 0 -187.5 -40t-128 -111.5t-71 -163t-23.5 -203.5q0 -111 23.5 -202t71.5 -161.5t128 -109.5t187 -39q176 0 273.5 97.5t107.5 250.5h-340 v213h581v-137q0 -294 -168.5 -468.5t-453.5 -174.5q-159 0 -285 54.5t-206.5 152.5t-122.5 231t-42 293zM422 1575v20l201 279h274l201 -279v-20h-201l-133 141h-8l-133 -141h-201z" />
<glyph unicode="&#x11d;" d="M80 528q2 249 120 398t320 149q207 0 303 -145h8l27 127h207v-1114q0 -191 -134 -310.5t-356 -119.5q-205 0 -332 103t-132 269h227q7 -72 68.5 -122t168.5 -50q125 0 190.5 65t65.5 169v180h-8q-96 -145 -303 -145q-208 0 -323 151t-117 395zM240 1198v21l200 278h275 l200 -278v-21h-200l-133 141h-9l-133 -141h-200zM317 528q0 -72 14 -131.5t43.5 -107t81.5 -74.5t122 -27q90 0 150.5 48t86 122t25.5 170q0 56 -9 105.5t-29.5 93t-50.5 74.5t-74.5 49t-98.5 18q-134 0 -197.5 -95t-63.5 -245z" />
<glyph unicode="&#x11e;" horiz-adv-x="1470" d="M96 713q0 162 42.5 297t123.5 233.5t206.5 153.5t283.5 55q260 0 421 -138.5t183 -357.5h-246q-16 123 -106.5 199t-251.5 76q-107 0 -187.5 -40t-128 -111.5t-71 -163t-23.5 -203.5q0 -111 23.5 -202t71.5 -161.5t128 -109.5t187 -39q176 0 273.5 97.5t107.5 250.5h-340 v213h581v-137q0 -294 -168.5 -468.5t-453.5 -174.5q-159 0 -285 54.5t-206.5 152.5t-122.5 231t-42 293zM440 1872h181q6 -121 131 -121q126 0 133 121h180q0 -138 -81 -217.5t-232 -79.5q-147 0 -229.5 80t-82.5 217z" />
<glyph unicode="&#x11f;" d="M80 528q2 249 120 398t320 149q207 0 303 -145h8l27 127h207v-1114q0 -191 -134 -310.5t-356 -119.5q-205 0 -332 103t-132 269h227q7 -72 68.5 -122t168.5 -50q125 0 190.5 65t65.5 169v180h-8q-96 -145 -303 -145q-208 0 -323 151t-117 395zM258 1495h180 q6 -121 131 -121q126 0 133 121h181q0 -138 -81.5 -217.5t-232.5 -79.5q-147 0 -229 80t-82 217zM317 528q0 -72 14 -131.5t43.5 -107t81.5 -74.5t122 -27q90 0 150.5 48t86 122t25.5 170q0 56 -9 105.5t-29.5 93t-50.5 74.5t-74.5 49t-98.5 18q-134 0 -197.5 -95 t-63.5 -245z" />
<glyph unicode="&#x120;" horiz-adv-x="1470" d="M96 713q0 162 42.5 297t123.5 233.5t206.5 153.5t283.5 55q260 0 421 -138.5t183 -357.5h-246q-16 123 -106.5 199t-251.5 76q-107 0 -187.5 -40t-128 -111.5t-71 -163t-23.5 -203.5q0 -111 23.5 -202t71.5 -161.5t128 -109.5t187 -39q176 0 273.5 97.5t107.5 250.5h-340 v213h581v-137q0 -294 -168.5 -468.5t-453.5 -174.5q-159 0 -285 54.5t-206.5 152.5t-122.5 231t-42 293zM604 1743q0 68 38.5 106.5t111.5 38.5q71 0 110 -38.5t39 -106.5t-39 -108t-110 -40q-72 0 -111 39.5t-39 108.5z" />
<glyph unicode="&#x121;" d="M80 528q2 249 120 398t320 149q207 0 303 -145h8l27 127h207v-1114q0 -191 -134 -310.5t-356 -119.5q-205 0 -332 103t-132 269h227q7 -72 68.5 -122t168.5 -50q125 0 190.5 65t65.5 169v180h-8q-96 -145 -303 -145q-208 0 -323 151t-117 395zM317 528q0 -72 14 -131.5 t43.5 -107t81.5 -74.5t122 -27q90 0 150.5 48t86 122t25.5 170q0 56 -9 105.5t-29.5 93t-50.5 74.5t-74.5 49t-98.5 18q-134 0 -197.5 -95t-63.5 -245zM420 1366q0 68 38 106.5t111 38.5q71 0 110.5 -38.5t39.5 -106.5t-39.5 -107.5t-110.5 -39.5q-72 0 -110.5 39t-38.5 108 z" />
<glyph unicode="&#x122;" horiz-adv-x="1470" d="M96 713q0 162 42.5 297t123.5 233.5t206.5 153.5t283.5 55q260 0 421 -138.5t183 -357.5h-246q-16 123 -106.5 199t-251.5 76q-107 0 -187.5 -40t-128 -111.5t-71 -163t-23.5 -203.5q0 -111 23.5 -202t71.5 -161.5t128 -109.5t187 -39q176 0 273.5 97.5t107.5 250.5h-340 v213h581v-137q0 -294 -168.5 -468.5t-453.5 -174.5q-159 0 -285 54.5t-206.5 152.5t-122.5 231t-42 293zM606 -418l41 314h242v-21l-121 -313h-162v20z" />
<glyph unicode="&#x123;" d="M80 528q2 249 120 398t320 149q207 0 303 -145h8l27 127h207v-1114q0 -191 -134 -310.5t-356 -119.5q-205 0 -332 103t-132 269h227q7 -72 68.5 -122t168.5 -50q125 0 190.5 65t65.5 169v180h-8q-96 -145 -303 -145q-208 0 -323 151t-117 395zM317 528q0 -72 14 -131.5 t43.5 -107t81.5 -74.5t122 -27q90 0 150.5 48t86 122t25.5 170q0 56 -9 105.5t-29.5 93t-50.5 74.5t-74.5 49t-98.5 18q-134 0 -197.5 -95t-63.5 -245zM451 1182v20l120 311h162v-20l-41 -311h-241z" />
<glyph unicode="&#x124;" horiz-adv-x="1505" d="M178 0v1434h240v-584h669v584h240v-1434h-240v631h-669v-631h-240zM416 1575v20l200 279h275l201 -279v-20h-201l-133 141h-8l-134 -141h-200z" />
<glyph unicode="&#x125;" horiz-adv-x="1210" d="M-66 1622v20l201 279h275l200 -279v-20h-200l-134 141h-8l-133 -141h-201zM150 0v1516h233v-596h8q98 155 307 155q178 0 280.5 -102.5t102.5 -282.5v-690h-233v633q0 112 -54 171.5t-163 59.5q-111 0 -179.5 -76t-68.5 -206v-582h-233z" />
<glyph unicode="&#x126;" horiz-adv-x="1593" d="M106 1061v199h117v174h240v-174h670v174h239v-174h111v-199h-111v-1061h-239v631h-670v-631h-240v1061h-117zM463 850h670v211h-670v-211z" />
<glyph unicode="&#x127;" horiz-adv-x="1210" d="M23 1210v164h127v142h233v-142h233v-164h-233v-290h8q98 155 307 155q178 0 280.5 -102.5t102.5 -282.5v-690h-233v633q0 112 -54 171.5t-163 59.5q-111 0 -179.5 -76t-68.5 -206v-582h-233v1210h-127z" />
<glyph unicode="&#x128;" horiz-adv-x="598" d="M-59 1593v31q0 109 57.5 168t151.5 59q69 0 139 -41l30 -18q52 -27 78 -27q32 0 49 21.5t17 60.5h147v-30q0 -111 -54 -169.5t-153 -58.5q-67 0 -137 41l-28 19q-47 28 -80 28q-29 0 -48.5 -23t-19.5 -61h-149zM178 0v1434h242v-1434h-242z" />
<glyph unicode="&#x129;" horiz-adv-x="512" d="M-94 1217v30q0 109 57.5 168.5t151.5 59.5q69 0 139 -41l31 -19q50 -26 77 -26q32 0 49 21t17 60h147v-30q0 -112 -53.5 -170t-152.5 -58q-68 0 -138 41l-28 19q-47 28 -80 28q-29 0 -48.5 -22.5t-19.5 -60.5h-149zM150 0v1057h233v-1057h-233z" />
<glyph unicode="&#x12a;" horiz-adv-x="598" d="M16 1632v193h576v-193h-576zM178 0v1434h242v-1434h-242z" />
<glyph unicode="&#x12b;" horiz-adv-x="512" d="M-18 1255v193h575v-193h-575zM150 0v1057h233v-1057h-233z" />
<glyph unicode="&#x12c;" horiz-adv-x="598" d="M-10 1872h180q6 -121 131 -121q126 0 133 121h180q0 -138 -81 -217.5t-232 -79.5q-147 0 -229 80t-82 217zM178 0v1434h242v-1434h-242z" />
<glyph unicode="&#x12d;" horiz-adv-x="512" d="M-47 1495h180q6 -121 131 -121q126 0 133 121h181q0 -138 -81.5 -217.5t-232.5 -79.5q-147 0 -229 80t-82 217zM150 0v1057h233v-1057h-233z" />
<glyph unicode="&#x12e;" horiz-adv-x="598" d="M47 -242q0 150 148 242h-17v1434h242v-1434q-73 -32 -123.5 -83t-50.5 -114q0 -45 29.5 -68.5t74.5 -23.5q38 0 70 8v-155q-56 -17 -121 -17q-103 0 -177.5 56t-74.5 155z" />
<glyph unicode="&#x12f;" horiz-adv-x="512" d="M10 -242q0 150 148 242h-8v1057h233v-1057q-73 -32 -123.5 -83t-50.5 -114q0 -45 29.5 -68.5t74.5 -23.5q38 0 70 8v-155q-56 -17 -121 -17q-103 0 -177.5 56t-74.5 155zM117 1366q0 68 38.5 106.5t110.5 38.5q71 0 110.5 -38.5t39.5 -106.5t-39.5 -107.5t-110.5 -39.5 q-72 0 -110.5 39t-38.5 108z" />
<glyph unicode="&#x130;" horiz-adv-x="598" d="M152 1743q0 69 38 107t111 38q71 0 110.5 -38.5t39.5 -106.5t-39.5 -108t-110.5 -40q-72 0 -110.5 39.5t-38.5 108.5zM178 0v1434h242v-1434h-242z" />
<glyph unicode="&#x131;" horiz-adv-x="512" d="M150 0v1057h233v-1057h-233z" />
<glyph unicode="&#x132;" horiz-adv-x="1701" d="M178 0v1434h242v-1434h-242zM641 418h238q2 -99 55.5 -156t157.5 -57q105 0 156.5 60.5t51.5 164.5v1004h242v-1004q0 -202 -121 -325t-334 -123q-210 0 -328 121.5t-118 314.5z" />
<glyph unicode="&#x133;" horiz-adv-x="1042" d="M117 1366q0 68 38.5 106.5t110.5 38.5q71 0 110.5 -38.5t39.5 -106.5t-39.5 -107.5t-110.5 -39.5q-72 0 -110.5 39t-38.5 108zM150 0v1057h233v-1057h-233zM469 -268q40 -6 78 -6q135 0 135 149v1182h233v-1215q0 -162 -89.5 -245.5t-250.5 -83.5q-52 0 -106 14v205z M649 1366q0 68 38.5 106.5t111.5 38.5q71 0 110 -38.5t39 -106.5t-39 -107.5t-110 -39.5q-72 0 -111 39t-39 108z" />
<glyph unicode="&#x134;" horiz-adv-x="1101" d="M43 418h238q2 -99 55.5 -156t157.5 -57q105 0 156.5 60.5t51.5 164.5v1004h242v-1004q0 -202 -121 -325t-334 -123q-210 0 -328 121.5t-118 314.5zM483 1575v20l201 279h274l201 -279v-20h-201l-133 141h-8l-133 -141h-201z" />
<glyph unicode="&#x135;" horiz-adv-x="530" d="M-51 1198v21l201 278h274l201 -278v-21h-201l-133 141h-8l-133 -141h-201zM-43 -268q40 -6 78 -6q135 0 135 149v1182h233v-1215q0 -162 -89.5 -245.5t-250.5 -83.5q-52 0 -106 14v205z" />
<glyph unicode="&#x136;" horiz-adv-x="1331" d="M178 0v1434h240v-617l588 617h282v-21l-631 -661l654 -732v-20h-285l-608 682v-682h-240zM565 -418l41 314h242v-21l-121 -313h-162v20z" />
<glyph unicode="&#x137;" horiz-adv-x="1095" d="M150 0v1516h225v-889l397 430h275v-21l-429 -458l445 -558v-20h-277l-411 520v-520h-225zM422 -418l41 314h242v-21l-121 -313h-162v20z" />
<glyph unicode="&#x138;" horiz-adv-x="1095" d="M150 0v1057h225v-441l397 441h275v-21l-429 -469l445 -547v-20h-277l-411 512v-512h-225z" />
<glyph unicode="&#x139;" horiz-adv-x="1130" d="M176 1571v20l148 287h274v-20l-238 -287h-184zM178 0v1434h240v-1217h676v-217h-916z" />
<glyph unicode="&#x13a;" horiz-adv-x="512" d="M141 1618v20l148 287h274v-20l-237 -287h-185zM150 0v1516h233v-1516h-233z" />
<glyph unicode="&#x13b;" horiz-adv-x="1130" d="M178 0v1434h240v-1217h676v-217h-916zM477 -418l41 314h242v-21l-121 -313h-162v20z" />
<glyph unicode="&#x13c;" horiz-adv-x="512" d="M102 -418l41 314h242v-21l-121 -313h-162v20zM150 0v1516h233v-1516h-233z" />
<glyph unicode="&#x13d;" horiz-adv-x="1130" d="M178 0v1434h240v-1217h676v-217h-916zM664 1085v349h241v-21l-84 -328h-157z" />
<glyph unicode="&#x13e;" horiz-adv-x="595" d="M150 0v1516h233v-1516h-233zM483 1167v349h242v-21l-84 -328h-158z" />
<glyph unicode="&#x13f;" horiz-adv-x="1228" d="M178 0v1434h240v-1217h676v-217h-916zM657 758q0 69 39 109t111 40q70 0 108.5 -40.5t38.5 -108.5q0 -69 -39 -109.5t-108 -40.5q-72 0 -111 40.5t-39 109.5z" />
<glyph unicode="&#x140;" horiz-adv-x="825" d="M150 0v1516h233v-1516h-233zM487 756q0 69 38.5 109t109.5 40t110 -40t39 -109t-39 -109.5t-110 -40.5t-109.5 40.5t-38.5 109.5z" />
<glyph unicode="&#x141;" horiz-adv-x="1273" d="M178 471v203l144 55v705h239v-611l361 142h20v-205l-381 -148v-395h676v-217h-915v518l-123 -47h-21z" />
<glyph unicode="&#x142;" horiz-adv-x="731" d="M84 479v195l166 80v762h233v-648l164 80h21v-198l-185 -88v-662h-233v549l-146 -70h-20z" />
<glyph unicode="&#x143;" horiz-adv-x="1521" d="M178 0v1434h275l645 -1053h8v1053h237v-1434h-276l-645 1047h-8v-1047h-236zM678 1571v20l147 287h275v-20l-238 -287h-184z" />
<glyph unicode="&#x144;" horiz-adv-x="1202" d="M150 0v1057h206l19 -137h8q98 155 309 155q177 0 279 -102.5t102 -282.5v-690h-233v633q0 231 -215 231q-111 0 -176.5 -74.5t-65.5 -205.5v-584h-233zM545 1194v20l147 287h275v-20l-238 -287h-184z" />
<glyph unicode="&#x145;" horiz-adv-x="1521" d="M178 0v1434h275l645 -1053h8v1053h237v-1434h-276l-645 1047h-8v-1047h-236zM592 -418l41 314h241v-21l-120 -313h-162v20z" />
<glyph unicode="&#x146;" horiz-adv-x="1202" d="M150 0v1057h206l19 -137h8q98 155 309 155q177 0 279 -102.5t102 -282.5v-690h-233v633q0 231 -215 231q-111 0 -176.5 -74.5t-65.5 -205.5v-584h-233zM465 -418l41 314h242v-21l-121 -313h-162v20z" />
<glyph unicode="&#x147;" horiz-adv-x="1521" d="M178 0v1434h275l645 -1053h8v1053h237v-1434h-276l-645 1047h-8v-1047h-236zM463 1853v21h201l131 -141h8l135 141h201v-21l-201 -278h-274z" />
<glyph unicode="&#x148;" horiz-adv-x="1202" d="M150 0v1057h206l19 -137h8q98 155 309 155q177 0 279 -102.5t102 -282.5v-690h-233v633q0 231 -215 231q-111 0 -176.5 -74.5t-65.5 -205.5v-584h-233zM332 1477v20h200l132 -141h8l135 141h201v-20l-201 -279h-275z" />
<glyph unicode="&#x149;" horiz-adv-x="1228" d="M-158 948v21l64 483h264v-20l-145 -484h-183zM150 0v1057h206l19 -137h8q98 155 309 155q177 0 279 -102.5t102 -282.5v-690h-233v633q0 231 -215 231q-111 0 -176.5 -74.5t-65.5 -205.5v-584h-233z" />
<glyph unicode="&#x14a;" horiz-adv-x="1521" d="M178 0v1434h275l645 -1053h8v1053h237v-1475q0 -202 -120.5 -325t-333.5 -123v223q107 0 162 61t55 164v41h-39l-645 1047h-8v-1047h-236z" />
<glyph unicode="&#x14b;" horiz-adv-x="1202" d="M150 0v1057h206l19 -137h8q98 155 309 155q177 0 279 -102.5t102 -282.5v-848q0 -162 -88.5 -245.5t-249.5 -83.5q-50 0 -108 14v205q41 -6 78 -6q135 0 135 149v758q0 231 -215 231q-111 0 -176.5 -74.5t-65.5 -205.5v-584h-233z" />
<glyph unicode="&#x14c;" horiz-adv-x="1515" d="M96 717q0 157 40.5 289t120.5 232.5t208 157t293 56.5q164 0 292 -56.5t207.5 -157t120.5 -232.5t41 -289q0 -156 -41 -288t-120.5 -232.5t-207.5 -157.5t-292 -57q-165 0 -293 57t-207.5 157.5t-120.5 232.5t-41 288zM342 717q0 -111 23.5 -202.5t72.5 -162.5 t130.5 -110t189.5 -39t189.5 39t130.5 110t72.5 162.5t23.5 202.5t-23.5 202.5t-72.5 162.5t-130.5 110t-189.5 39q-109 0 -190.5 -39t-130 -110t-72 -162t-23.5 -203zM479 1632v193h576v-193h-576z" />
<glyph unicode="&#x14d;" horiz-adv-x="1159" d="M80 528q0 117 32 216t93 173t157 116t218 42q161 0 275.5 -73t169 -194.5t54.5 -279.5t-53.5 -279t-168 -194t-277.5 -73q-123 0 -219.5 41.5t-157 115.5t-92 172.5t-31.5 216.5zM297 1255v193h575v-193h-575zM317 528q0 -162 66.5 -251t196.5 -89q131 0 196.5 88.5 t65.5 251.5q0 162 -65.5 251t-196.5 89t-197 -89.5t-66 -250.5z" />
<glyph unicode="&#x14e;" horiz-adv-x="1515" d="M96 717q0 157 40.5 289t120.5 232.5t208 157t293 56.5q164 0 292 -56.5t207.5 -157t120.5 -232.5t41 -289q0 -156 -41 -288t-120.5 -232.5t-207.5 -157.5t-292 -57q-165 0 -293 57t-207.5 157.5t-120.5 232.5t-41 288zM342 717q0 -111 23.5 -202.5t72.5 -162.5 t130.5 -110t189.5 -39t189.5 39t130.5 110t72.5 162.5t23.5 202.5t-23.5 202.5t-72.5 162.5t-130.5 110t-189.5 39q-109 0 -190.5 -39t-130 -110t-72 -162t-23.5 -203zM451 1872h180q6 -121 131 -121q126 0 133 121h180q0 -138 -81 -217.5t-232 -79.5q-147 0 -229 80 t-82 217z" />
<glyph unicode="&#x14f;" horiz-adv-x="1159" d="M80 528q0 117 32 216t93 173t157 116t218 42q161 0 275.5 -73t169 -194.5t54.5 -279.5t-53.5 -279t-168 -194t-277.5 -73q-123 0 -219.5 41.5t-157 115.5t-92 172.5t-31.5 216.5zM268 1495h181q6 -121 131 -121q126 0 133 121h180q0 -138 -81 -217.5t-232 -79.5 q-147 0 -229.5 80t-82.5 217zM317 528q0 -162 66.5 -251t196.5 -89q131 0 196.5 88.5t65.5 251.5q0 162 -65.5 251t-196.5 89t-197 -89.5t-66 -250.5z" />
<glyph unicode="&#x150;" horiz-adv-x="1515" d="M96 717q0 157 40.5 289t120.5 232.5t208 157t293 56.5q164 0 292 -56.5t207.5 -157t120.5 -232.5t41 -289q0 -156 -41 -288t-120.5 -232.5t-207.5 -157.5t-292 -57q-165 0 -293 57t-207.5 157.5t-120.5 232.5t-41 288zM342 717q0 -111 23.5 -202.5t72.5 -162.5 t130.5 -110t189.5 -39t189.5 39t130.5 110t72.5 162.5t23.5 202.5t-23.5 202.5t-72.5 162.5t-130.5 110t-189.5 39q-109 0 -190.5 -39t-130 -110t-72 -162t-23.5 -203zM485 1571v20l103 287h260v-20l-201 -287h-162zM821 1571v20l105 287h260v-20l-203 -287h-162z" />
<glyph unicode="&#x151;" horiz-adv-x="1159" d="M80 528q0 117 32 216t93 173t157 116t218 42q161 0 275.5 -73t169 -194.5t54.5 -279.5t-53.5 -279t-168 -194t-277.5 -73q-123 0 -219.5 41.5t-157 115.5t-92 172.5t-31.5 216.5zM301 1194v20l102 287h261v-20l-201 -287h-162zM317 528q0 -162 66.5 -251t196.5 -89 q131 0 196.5 88.5t65.5 251.5q0 162 -65.5 251t-196.5 89t-197 -89.5t-66 -250.5zM637 1194v20l104 287h260v-20l-202 -287h-162z" />
<glyph unicode="&#x152;" horiz-adv-x="2246" d="M96 717q0 157 40.5 289t120.5 232.5t208 157t293 56.5q256 0 418 -137v119h966v-217h-727v-369h664v-217h-664v-416h727v-215h-966v119q-162 -137 -418 -137q-165 0 -293 57t-207.5 157.5t-120.5 232.5t-41 288zM342 717q0 -111 23.5 -202.5t72.5 -162.5t130.5 -110 t189.5 -39t189.5 39t130.5 110t72.5 162.5t23.5 202.5t-23.5 202.5t-72.5 162.5t-130.5 110t-189.5 39q-109 0 -190.5 -39t-130 -110t-72 -162t-23.5 -203z" />
<glyph unicode="&#x153;" horiz-adv-x="1896" d="M80 528q0 117 32 216t93 173t157 116t218 42q247 0 383 -168q129 168 374 168q150 0 260 -68.5t164 -183.5t54 -262v-98h-732q0 -131 65.5 -208t192.5 -77q93 0 152.5 39t77.5 105h229q-22 -148 -148 -244t-311 -96q-239 0 -376 170q-132 -170 -385 -170 q-123 0 -219.5 41.5t-157 115.5t-92 172.5t-31.5 216.5zM317 528q0 -162 66.5 -251t196.5 -89q131 0 196.5 88.5t65.5 251.5q0 162 -65.5 251t-196.5 89t-197 -89.5t-66 -250.5zM1085 629h490q-2 110 -62.5 179t-175.5 69q-121 0 -184 -69t-68 -179z" />
<glyph unicode="&#x154;" horiz-adv-x="1372" d="M178 0v1434h606q109 0 198.5 -35t148 -95t90.5 -140.5t32 -172.5q0 -155 -80 -266t-217 -156l367 -549v-20h-272l-346 541h-287v-541h-240zM418 758h352q116 0 176 63t60 168q0 103 -60.5 165.5t-175.5 62.5h-352v-459zM573 1571v20l148 287h274v-20l-237 -287h-185z" />
<glyph unicode="&#x155;" horiz-adv-x="798" d="M150 0v1057h196l21 -168h8q33 84 104.5 133t169.5 49h86v-217h-90q-132 0 -201 -87.5t-69 -250.5v-516h-225zM322 1194v20l147 287h274v-20l-237 -287h-184z" />
<glyph unicode="&#x156;" horiz-adv-x="1372" d="M178 0v1434h606q109 0 198.5 -35t148 -95t90.5 -140.5t32 -172.5q0 -155 -80 -266t-217 -156l367 -549v-20h-272l-346 541h-287v-541h-240zM418 758h352q116 0 176 63t60 168q0 103 -60.5 165.5t-175.5 62.5h-352v-459zM565 -418l41 314h242v-21l-121 -313h-162v20z" />
<glyph unicode="&#x157;" horiz-adv-x="798" d="M150 0v1057h196l21 -168h8q33 84 104.5 133t169.5 49h86v-217h-90q-132 0 -201 -87.5t-69 -250.5v-516h-225zM166 -418l41 314h242v-21l-121 -313h-162v20z" />
<glyph unicode="&#x158;" horiz-adv-x="1372" d="M178 0v1434h606q109 0 198.5 -35t148 -95t90.5 -140.5t32 -172.5q0 -155 -80 -266t-217 -156l367 -549v-20h-272l-346 541h-287v-541h-240zM360 1853v21h201l131 -141h8l136 141h200v-21l-200 -278h-275zM418 758h352q116 0 176 63t60 168q0 103 -60.5 165.5t-175.5 62.5 h-352v-459z" />
<glyph unicode="&#x159;" horiz-adv-x="798" d="M106 1477v20h201l131 -141h8l136 141h200v-20l-200 -279h-275zM150 0v1057h196l21 -168h8q33 84 104.5 133t169.5 49h86v-217h-90q-132 0 -201 -87.5t-69 -250.5v-516h-225z" />
<glyph unicode="&#x15a;" horiz-adv-x="1294" d="M76 457h243q9 -125 94 -192.5t232 -67.5q316 0 316 204q0 82 -55 128.5t-167 70.5l-209 45q-198 42 -302.5 137.5t-104.5 268.5q0 183 140.5 292t383.5 109q156 0 278 -55.5t190 -157t69 -231.5h-244q-6 104 -80 165.5t-217 61.5q-133 0 -202.5 -47t-69.5 -137 q0 -134 209 -179l194 -41q210 -43 322 -145.5t112 -279.5q0 -197 -144 -310.5t-419 -113.5q-266 0 -413 127.5t-156 347.5zM528 1571v20l148 287h274v-20l-237 -287h-185z" />
<glyph unicode="&#x15b;" horiz-adv-x="1046" d="M80 352h233q0 -78 58 -124t157 -46t151 31.5t52 87.5q0 92 -139 121l-186 35q-136 28 -214.5 105t-78.5 206q0 134 109.5 220.5t297.5 86.5q190 0 306 -96t116 -250h-229q-3 73 -55 115.5t-142 42.5q-80 0 -128 -32t-48 -89q0 -93 139 -115l180 -35q151 -32 229.5 -102.5 t78.5 -212.5q0 -149 -124 -234t-315 -85q-210 0 -326.5 99.5t-121.5 270.5zM410 1194v20l147 287h274v-20l-237 -287h-184z" />
<glyph unicode="&#x15c;" horiz-adv-x="1294" d="M76 457h243q9 -125 94 -192.5t232 -67.5q316 0 316 204q0 82 -55 128.5t-167 70.5l-209 45q-198 42 -302.5 137.5t-104.5 268.5q0 183 140.5 292t383.5 109q156 0 278 -55.5t190 -157t69 -231.5h-244q-6 104 -80 165.5t-217 61.5q-133 0 -202.5 -47t-69.5 -137 q0 -134 209 -179l194 -41q210 -43 322 -145.5t112 -279.5q0 -197 -144 -310.5t-419 -113.5q-266 0 -413 127.5t-156 347.5zM317 1575v20l201 279h275l200 -279v-20h-200l-134 141h-8l-133 -141h-201z" />
<glyph unicode="&#x15d;" horiz-adv-x="1046" d="M80 352h233q0 -78 58 -124t157 -46t151 31.5t52 87.5q0 92 -139 121l-186 35q-136 28 -214.5 105t-78.5 206q0 134 109.5 220.5t297.5 86.5q190 0 306 -96t116 -250h-229q-3 73 -55 115.5t-142 42.5q-80 0 -128 -32t-48 -89q0 -93 139 -115l180 -35q151 -32 229.5 -102.5 t78.5 -212.5q0 -149 -124 -234t-315 -85q-210 0 -326.5 99.5t-121.5 270.5zM199 1198v21l200 278h275l200 -278v-21h-200l-133 141h-9l-133 -141h-200z" />
<glyph unicode="&#x15e;" horiz-adv-x="1294" d="M76 457h243q9 -125 94 -192.5t232 -67.5q316 0 316 204q0 82 -55 128.5t-167 70.5l-209 45q-198 42 -302.5 137.5t-104.5 268.5q0 183 140.5 292t383.5 109q156 0 278 -55.5t190 -157t69 -231.5h-244q-6 104 -80 165.5t-217 61.5q-133 0 -202.5 -47t-69.5 -137 q0 -134 209 -179l194 -41q210 -43 322 -145.5t112 -279.5q0 -182 -123.5 -293.5t-361.5 -128.5l-45 -70q89 -3 144 -51.5t55 -124.5q0 -83 -69 -138t-198 -55q-106 0 -177 51.5t-71 143.5h150q0 -28 26.5 -47t69.5 -19q40 0 68.5 17t28.5 49q0 28 -24.5 45.5t-66.5 17.5h-65 l-51 64l59 119q-225 21 -349 146t-132 325z" />
<glyph unicode="&#x15f;" horiz-adv-x="1046" d="M80 352h233q0 -78 58 -124t157 -46t151 31.5t52 87.5q0 92 -139 121l-186 35q-136 28 -214.5 105t-78.5 206q0 134 109.5 220.5t297.5 86.5q190 0 306 -96t116 -250h-229q-3 73 -55 115.5t-142 42.5q-80 0 -128 -32t-48 -89q0 -93 139 -115l180 -35q151 -32 229.5 -102.5 t78.5 -212.5q0 -134 -101.5 -216.5t-265.5 -98.5l-45 -72q89 -3 144 -51.5t55 -124.5q0 -83 -69 -138t-198 -55q-106 0 -176.5 51.5t-70.5 143.5h149q0 -28 26.5 -47t69.5 -19q40 0 68.5 17t28.5 49q0 28 -24 45.5t-66 17.5h-66l-51 64l61 121q-168 21 -259.5 117t-96.5 247 z" />
<glyph unicode="&#x160;" horiz-adv-x="1294" d="M76 457h243q9 -125 94 -192.5t232 -67.5q316 0 316 204q0 82 -55 128.5t-167 70.5l-209 45q-198 42 -302.5 137.5t-104.5 268.5q0 183 140.5 292t383.5 109q156 0 278 -55.5t190 -157t69 -231.5h-244q-6 104 -80 165.5t-217 61.5q-133 0 -202.5 -47t-69.5 -137 q0 -134 209 -179l194 -41q210 -43 322 -145.5t112 -279.5q0 -197 -144 -310.5t-419 -113.5q-266 0 -413 127.5t-156 347.5zM313 1853v21h201l131 -141h8l135 141h201v-21l-201 -278h-274z" />
<glyph unicode="&#x161;" horiz-adv-x="1046" d="M80 352h233q0 -78 58 -124t157 -46t151 31.5t52 87.5q0 92 -139 121l-186 35q-136 28 -214.5 105t-78.5 206q0 134 109.5 220.5t297.5 86.5q190 0 306 -96t116 -250h-229q-3 73 -55 115.5t-142 42.5q-80 0 -128 -32t-48 -89q0 -93 139 -115l180 -35q151 -32 229.5 -102.5 t78.5 -212.5q0 -149 -124 -234t-315 -85q-210 0 -326.5 99.5t-121.5 270.5zM195 1477v20h200l131 -141h9l135 141h200v-20l-200 -279h-275z" />
<glyph unicode="&#x162;" horiz-adv-x="1212" d="M53 1217v217h1106v-217h-432v-1217h-43l-55 -86q89 -3 143.5 -51.5t54.5 -124.5q0 -83 -68.5 -138t-197.5 -55q-106 0 -177 51.5t-71 143.5h150q0 -28 26.5 -47t69.5 -19q40 0 68 17t28 49q0 28 -24 45.5t-66 17.5h-65l-51 64l67 133h-31v1217h-432z" />
<glyph unicode="&#x163;" horiz-adv-x="823" d="M63 858v199h185v223l203 57h20v-280h256v-199h-256v-528q0 -75 33 -109.5t104 -34.5q52 0 103 15h20v-197q-59 -19 -168 -22l-43 -68q89 -3 144 -51.5t55 -124.5q0 -83 -68.5 -138t-197.5 -55q-106 0 -177 51.5t-71 143.5h149q0 -28 27 -47t70 -19q40 0 68 17t28 49 q0 28 -24 45.5t-66 17.5h-66l-51 64l70 137q-172 60 -172 285v569h-175z" />
<glyph unicode="&#x164;" horiz-adv-x="1212" d="M53 1217v217h1106v-217h-432v-1217h-242v1217h-432zM279 1853v21h200l131 -141h8l136 141h200v-21l-200 -278h-275z" />
<glyph unicode="&#x165;" horiz-adv-x="823" d="M63 858v199h185v223l203 57h20v-280h256v-199h-256v-528q0 -75 33 -109.5t104 -34.5q52 0 103 15h20v-197q-73 -22 -180 -22q-162 0 -237.5 81.5t-75.5 225.5v569h-175zM592 1167v349h242v-21l-86 -328h-156z" />
<glyph unicode="&#x166;" horiz-adv-x="1218" d="M53 1217v217h1106v-217h-432v-347h350v-202h-350v-668h-242v668h-344v202h344v347h-432z" />
<glyph unicode="&#x167;" horiz-adv-x="823" d="M63 535v172h175v151h-175v199h185v223l203 57h20v-280h256v-199h-256v-151h240v-172h-240v-205q0 -75 33 -109.5t104 -34.5q52 0 103 15h20v-197q-73 -22 -180 -22q-162 0 -237.5 81.5t-75.5 225.5v246h-175z" />
<glyph unicode="&#x168;" horiz-adv-x="1462" d="M158 532v902h239v-897q0 -155 81 -246.5t251 -91.5q173 0 253.5 91t80.5 247v897h242v-902q0 -262 -157 -406t-419 -144q-258 0 -414.5 144.5t-156.5 405.5zM365 1593v31q0 109 57 168t151 59q70 0 140 -41l30 -18q52 -27 78 -27q32 0 49 21.5t17 60.5h147v-30 q0 -111 -54 -169.5t-153 -58.5q-67 0 -137 41l-28 19q-47 28 -80 28q-29 0 -48.5 -23t-19.5 -61h-149z" />
<glyph unicode="&#x169;" horiz-adv-x="1183" d="M137 401v656h234v-619q0 -239 221 -239t221 239v619h234v-656q0 -184 -119.5 -300.5t-335.5 -116.5q-215 0 -335 117t-120 300zM238 1217v30q0 109 57 168.5t151 59.5q70 0 140 -41l30 -19q50 -26 78 -26q32 0 49 21t17 60h147v-30q0 -111 -54 -169.5t-153 -58.5 q-67 0 -137 41l-28 19q-47 28 -80 28q-29 0 -48.5 -22.5t-19.5 -60.5h-149z" />
<glyph unicode="&#x16a;" horiz-adv-x="1462" d="M158 532v902h239v-897q0 -155 81 -246.5t251 -91.5q173 0 253.5 91t80.5 247v897h242v-902q0 -262 -157 -406t-419 -144q-258 0 -414.5 144.5t-156.5 405.5zM442 1632v193h576v-193h-576z" />
<glyph unicode="&#x16b;" horiz-adv-x="1183" d="M137 401v656h234v-619q0 -239 221 -239t221 239v619h234v-656q0 -184 -119.5 -300.5t-335.5 -116.5q-215 0 -335 117t-120 300zM313 1255v193h576v-193h-576z" />
<glyph unicode="&#x16c;" horiz-adv-x="1462" d="M158 532v902h239v-897q0 -155 81 -246.5t251 -91.5q173 0 253.5 91t80.5 247v897h242v-902q0 -262 -157 -406t-419 -144q-258 0 -414.5 144.5t-156.5 405.5zM414 1872h180q6 -121 131 -121q126 0 133 121h180q0 -138 -81 -217.5t-232 -79.5q-147 0 -229 80t-82 217z" />
<glyph unicode="&#x16d;" horiz-adv-x="1183" d="M137 401v656h234v-619q0 -239 221 -239t221 239v619h234v-656q0 -184 -119.5 -300.5t-335.5 -116.5q-215 0 -335 117t-120 300zM287 1495h180q6 -121 131 -121q126 0 133 121h180q0 -138 -81 -217.5t-232 -79.5q-147 0 -229 80t-82 217z" />
<glyph unicode="&#x16e;" horiz-adv-x="1462" d="M158 532v902h239v-897q0 -155 81 -246.5t251 -91.5q173 0 253.5 91t80.5 247v897h242v-902q0 -262 -157 -406t-419 -144q-258 0 -414.5 144.5t-156.5 405.5zM492 1772q0 101 65.5 165t165.5 64q104 0 169.5 -64t65.5 -165q0 -100 -65.5 -164t-169.5 -64 q-100 0 -165.5 64.5t-65.5 163.5zM629 1772q0 -40 25.5 -66.5t66.5 -26.5q44 0 71 26.5t27 66.5t-27 67t-71 27q-41 0 -66.5 -27t-25.5 -67z" />
<glyph unicode="&#x16f;" horiz-adv-x="1183" d="M137 401v656h234v-619q0 -239 221 -239t221 239v619h234v-656q0 -184 -119.5 -300.5t-335.5 -116.5q-215 0 -335 117t-120 300zM365 1395q0 101 65.5 165t165.5 64q104 0 169.5 -64t65.5 -165q0 -100 -65.5 -164t-169.5 -64q-100 0 -165.5 64.5t-65.5 163.5zM502 1395 q0 -40 25.5 -66t66.5 -26q44 0 71 26t27 66t-27 67t-71 27q-41 0 -66.5 -27t-25.5 -67z" />
<glyph unicode="&#x170;" horiz-adv-x="1462" d="M158 532v902h239v-897q0 -155 81 -246.5t251 -91.5q173 0 253.5 91t80.5 247v897h242v-902q0 -262 -157 -406t-419 -144q-258 0 -414.5 144.5t-156.5 405.5zM446 1571v20l103 287h260v-20l-201 -287h-162zM782 1571v20l105 287h260v-20l-203 -287h-162z" />
<glyph unicode="&#x171;" horiz-adv-x="1183" d="M137 401v656h234v-619q0 -239 221 -239t221 239v619h234v-656q0 -184 -119.5 -300.5t-335.5 -116.5q-215 0 -335 117t-120 300zM319 1194v20l103 287h260v-20l-201 -287h-162zM655 1194v20l105 287h260v-20l-203 -287h-162z" />
<glyph unicode="&#x172;" horiz-adv-x="1462" d="M158 532v902h239v-897q0 -155 81 -246.5t251 -91.5q173 0 253.5 91t80.5 247v897h242v-902q0 -221 -113 -359t-311 -177q-69 -32 -116.5 -82t-47.5 -111q0 -45 29.5 -68.5t74.5 -23.5q38 0 70 8v-155q-56 -17 -121 -17q-103 0 -177.5 56t-74.5 155q0 140 127 228 q-224 24 -355.5 165.5t-131.5 380.5z" />
<glyph unicode="&#x173;" horiz-adv-x="1183" d="M137 401v656h234v-619q0 -239 221 -239t221 239v619h234v-656q0 -148 -80.5 -256t-229.5 -145h2q-73 -32 -123.5 -83t-50.5 -114q0 -45 29.5 -68.5t75.5 -23.5q37 0 69 8v-155q-56 -17 -121 -17q-102 0 -176.5 56t-74.5 155q0 143 133 232q-173 26 -268 138t-95 273z" />
<glyph unicode="&#x174;" horiz-adv-x="1892" d="M43 1413v21h248l239 -1084h9l278 1084h258l283 -1084h8l236 1084h247v-21l-344 -1413h-280l-273 1061h-8l-278 -1061h-281zM612 1575v20l201 279h274l201 -279v-20h-201l-133 141h-8l-133 -141h-201z" />
<glyph unicode="&#x175;" horiz-adv-x="1609" d="M33 1036v21h233l189 -778h8l203 778h280l203 -778h8l189 778h231v-21l-281 -1036h-280l-203 778h-8l-211 -778h-281zM481 1186v20l201 279h274l201 -279v-20h-201l-133 141h-8l-133 -141h-201z" />
<glyph unicode="&#x176;" horiz-adv-x="1372" d="M43 1413v21h276l367 -611h8l361 611h274v-21l-520 -825v-588h-242v586zM367 1575v20l200 279h275l200 -279v-20h-200l-133 141h-9l-133 -141h-200z" />
<glyph unicode="&#x177;" horiz-adv-x="1114" d="M33 1036v21h243l275 -795h8l275 795h247v-21l-561 -1505h-246v20l168 453l-24 2zM240 1198v21l200 278h275l200 -278v-21h-200l-133 141h-9l-133 -141h-200z" />
<glyph unicode="&#x178;" horiz-adv-x="1372" d="M43 1413v21h276l367 -611h8l361 611h274v-21l-520 -825v-588h-242v586zM381 1743q0 61 35 97t98 36q62 0 97.5 -36t35.5 -97q0 -62 -35 -97.5t-98 -35.5q-64 0 -98.5 35.5t-34.5 97.5zM764 1743q0 61 34 97t99 36q62 0 97.5 -36t35.5 -97q0 -62 -35 -97.5t-98 -35.5 q-65 0 -99 35t-34 98z" />
<glyph unicode="&#x179;" horiz-adv-x="1222" d="M74 0v211l764 995v8h-746v220h1045v-215l-762 -994v-8h774v-217h-1075zM489 1571v20l148 287h274v-20l-237 -287h-185z" />
<glyph unicode="&#x17a;" horiz-adv-x="1028" d="M94 0v195l553 655v8h-551v199h834v-197l-551 -653v-8h555v-199h-840zM401 1194v20l148 287h274v-20l-237 -287h-185z" />
<glyph unicode="&#x17b;" horiz-adv-x="1222" d="M74 0v211l764 995v8h-746v220h1045v-215l-762 -994v-8h774v-217h-1075zM461 1743q0 69 38.5 107t110.5 38q71 0 110.5 -38.5t39.5 -106.5t-39.5 -108t-110.5 -40q-72 0 -110.5 39.5t-38.5 108.5z" />
<glyph unicode="&#x17c;" horiz-adv-x="1028" d="M94 0v195l553 655v8h-551v199h834v-197l-551 -653v-8h555v-199h-840zM373 1366q0 68 38.5 106.5t110.5 38.5q71 0 110.5 -38.5t39.5 -106.5t-39.5 -107.5t-110.5 -39.5q-72 0 -110.5 39t-38.5 108z" />
<glyph unicode="&#x17d;" horiz-adv-x="1222" d="M74 0v211l764 995v8h-746v220h1045v-215l-762 -994v-8h774v-217h-1075zM276 1853v21h201l131 -141h8l136 141h200v-21l-200 -278h-275z" />
<glyph unicode="&#x17e;" horiz-adv-x="1028" d="M94 0v195l553 655v8h-551v199h834v-197l-551 -653v-8h555v-199h-840zM188 1477v20h201l131 -141h8l136 141h200v-20l-200 -279h-275z" />
<glyph unicode="&#x192;" horiz-adv-x="931" d="M66 647v197h215l41 276q56 363 403 363q77 0 143 -19v-198q-59 16 -123 16q-85 0 -133 -48.5t-61 -133.5l-39 -256h270v-197h-299l-168 -1116h-233v20l168 1096h-184z" />
<glyph unicode="&#x1cd;" horiz-adv-x="1415" d="M43 0v20l512 1414h301l514 -1414v-20h-262l-113 332h-585l-113 -332h-254zM371 1853v21h200l131 -141h9l135 141h201v-21l-201 -278h-275zM481 543h443l-217 639h-9z" />
<glyph unicode="&#x1ce;" horiz-adv-x="1118" d="M80 311q0 147 107.5 237.5t324.5 90.5q126 0 246 -35v98q0 79 -52.5 130t-156.5 51q-93 0 -145 -45t-54 -113h-221q0 154 114 252t310 98q204 0 320 -104t116 -266v-705h-205l-16 125h-8q-46 -68 -126 -105.5t-185 -37.5q-171 0 -270 93t-99 236zM225 1477v20h201 l131 -141h8l135 141h201v-20l-201 -279h-274zM313 319q0 -67 48.5 -109t140.5 -42q114 0 185 67t71 164v35q-107 37 -230 37q-104 0 -159.5 -40t-55.5 -112z" />
<glyph unicode="&#x1cf;" horiz-adv-x="598" d="M-35 1853v21h201l131 -141h8l135 141h201v-21l-201 -278h-274zM178 0v1434h242v-1434h-242z" />
<glyph unicode="&#x1d0;" horiz-adv-x="512" d="M-70 1477v20h201l131 -141h8l136 141h200v-20l-200 -279h-275zM150 0v1057h233v-1057h-233z" />
<glyph unicode="&#x1d1;" horiz-adv-x="1515" d="M96 717q0 157 40.5 289t120.5 232.5t208 157t293 56.5q164 0 292 -56.5t207.5 -157t120.5 -232.5t41 -289q0 -156 -41 -288t-120.5 -232.5t-207.5 -157.5t-292 -57q-165 0 -293 57t-207.5 157.5t-120.5 232.5t-41 288zM342 717q0 -111 23.5 -202.5t72.5 -162.5 t130.5 -110t189.5 -39t189.5 39t130.5 110t72.5 162.5t23.5 202.5t-23.5 202.5t-72.5 162.5t-130.5 110t-189.5 39q-109 0 -190.5 -39t-130 -110t-72 -162t-23.5 -203zM428 1853v21h201l131 -141h8l135 141h201v-21l-201 -278h-274z" />
<glyph unicode="&#x1d2;" horiz-adv-x="1159" d="M80 528q0 117 32 216t93 173t157 116t218 42q161 0 275.5 -73t169 -194.5t54.5 -279.5t-53.5 -279t-168 -194t-277.5 -73q-123 0 -219.5 41.5t-157 115.5t-92 172.5t-31.5 216.5zM246 1477v20h200l132 -141h8l135 141h201v-20l-201 -279h-275zM317 528q0 -162 66.5 -251 t196.5 -89q131 0 196.5 88.5t65.5 251.5q0 162 -65.5 251t-196.5 89t-197 -89.5t-66 -250.5z" />
<glyph unicode="&#x1e6;" horiz-adv-x="1470" d="M96 713q0 162 42.5 297t123.5 233.5t206.5 153.5t283.5 55q260 0 421 -138.5t183 -357.5h-246q-16 123 -106.5 199t-251.5 76q-107 0 -187.5 -40t-128 -111.5t-71 -163t-23.5 -203.5q0 -111 23.5 -202t71.5 -161.5t128 -109.5t187 -39q176 0 273.5 97.5t107.5 250.5h-340 v213h581v-137q0 -294 -168.5 -468.5t-453.5 -174.5q-159 0 -285 54.5t-206.5 152.5t-122.5 231t-42 293zM418 1853v21h200l132 -141h8l135 141h201v-21l-201 -278h-275z" />
<glyph unicode="&#x1e7;" d="M80 528q2 249 120 398t320 149q207 0 303 -145h8l27 127h207v-1114q0 -191 -134 -310.5t-356 -119.5q-205 0 -332 103t-132 269h227q7 -72 68.5 -122t168.5 -50q125 0 190.5 65t65.5 169v180h-8q-96 -145 -303 -145q-208 0 -323 151t-117 395zM236 1477v20h200l131 -141 h8l136 141h200v-20l-200 -279h-275zM317 528q0 -72 14 -131.5t43.5 -107t81.5 -74.5t122 -27q90 0 150.5 48t86 122t25.5 170q0 56 -9 105.5t-29.5 93t-50.5 74.5t-74.5 49t-98.5 18q-134 0 -197.5 -95t-63.5 -245z" />
<glyph unicode="&#x218;" horiz-adv-x="1294" d="M76 457h243q9 -125 94 -192.5t232 -67.5q316 0 316 204q0 82 -55 128.5t-167 70.5l-209 45q-198 42 -302.5 137.5t-104.5 268.5q0 183 140.5 292t383.5 109q156 0 278 -55.5t190 -157t69 -231.5h-244q-6 104 -80 165.5t-217 61.5q-133 0 -202.5 -47t-69.5 -137 q0 -134 209 -179l194 -41q210 -43 322 -145.5t112 -279.5q0 -197 -144 -310.5t-419 -113.5q-266 0 -413 127.5t-156 347.5zM487 -418l41 314h242v-21l-121 -313h-162v20z" />
<glyph unicode="&#x219;" horiz-adv-x="1046" d="M80 352h233q0 -78 58 -124t157 -46t151 31.5t52 87.5q0 92 -139 121l-186 35q-136 28 -214.5 105t-78.5 206q0 134 109.5 220.5t297.5 86.5q190 0 306 -96t116 -250h-229q-3 73 -55 115.5t-142 42.5q-80 0 -128 -32t-48 -89q0 -93 139 -115l180 -35q151 -32 229.5 -102.5 t78.5 -212.5q0 -149 -124 -234t-315 -85q-210 0 -326.5 99.5t-121.5 270.5zM365 -418l41 314h241v-21l-121 -313h-161v20z" />
<glyph unicode="&#x21a;" horiz-adv-x="1212" d="M53 1217v217h1106v-217h-432v-1217h-242v1217h-432zM438 -418l41 314h242v-21l-121 -313h-162v20z" />
<glyph unicode="&#x21b;" horiz-adv-x="823" d="M63 858v199h185v223l203 57h20v-280h256v-199h-256v-528q0 -75 33 -109.5t104 -34.5q52 0 103 15h20v-197q-73 -22 -180 -22q-162 0 -237.5 81.5t-75.5 225.5v569h-175zM332 -418l41 314h241v-21l-120 -313h-162v20z" />
<glyph unicode="&#x237;" horiz-adv-x="530" d="M-43 -268q40 -6 78 -6q135 0 135 149v1182h233v-1215q0 -162 -89.5 -245.5t-250.5 -83.5q-52 0 -106 14v205z" />
<glyph unicode="&#x2c6;" horiz-adv-x="802" d="M63 1198v21l201 278h275l200 -278v-21h-200l-133 141h-9l-133 -141h-201z" />
<glyph unicode="&#x2c7;" horiz-adv-x="802" d="M63 1477v20h201l131 -141h8l136 141h200v-20l-200 -279h-275z" />
<glyph unicode="&#x2d8;" horiz-adv-x="768" d="M72 1495h180q6 -121 131 -121q126 0 133 121h180q0 -138 -81 -217.5t-232 -79.5q-147 0 -229 80t-82 217z" />
<glyph unicode="&#x2d9;" horiz-adv-x="421" d="M61 1366q0 68 38.5 106.5t111.5 38.5q71 0 110 -38.5t39 -106.5t-39 -107.5t-110 -39.5q-72 0 -111 39t-39 108z" />
<glyph unicode="&#x2da;" horiz-adv-x="602" d="M68 1395q0 101 65.5 165t165.5 64q104 0 170 -64t66 -165q0 -100 -66 -164t-170 -64q-100 0 -165.5 64.5t-65.5 163.5zM205 1395q0 -40 25.5 -66t66.5 -26q44 0 71 26t27 66t-27 67t-71 27q-41 0 -66.5 -27t-25.5 -67z" />
<glyph unicode="&#x2db;" horiz-adv-x="507" d="M68 -242q0 53 19 99.5t51.5 79.5t65.5 56t72 40l164 -33q-73 -32 -123.5 -83t-50.5 -114q0 -45 29.5 -68.5t75.5 -23.5q37 0 69 8v-155q-56 -17 -121 -17q-102 0 -176.5 56t-74.5 155z" />
<glyph unicode="&#x2dc;" horiz-adv-x="788" d="M59 1217v30q0 109 57.5 168.5t151.5 59.5q70 0 140 -41l30 -19q50 -26 78 -26q32 0 49 21t17 60h147v-30q0 -111 -54 -169.5t-153 -58.5q-67 0 -137 41l-29 19q-47 28 -80 28q-29 0 -48 -22t-19 -61h-150z" />
<glyph unicode="&#x2dd;" horiz-adv-x="835" d="M68 1194v20l102 287h260v-20l-201 -287h-161zM403 1194v20l105 287h260v-20l-203 -287h-162z" />
<glyph unicode="&#x326;" horiz-adv-x="0" d="M-367 -418l41 314h242v-21l-121 -313h-162v20z" />
<glyph unicode="&#x1e80;" horiz-adv-x="1892" d="M43 1413v21h248l239 -1084h9l278 1084h258l283 -1084h8l236 1084h247v-21l-344 -1413h-280l-273 1061h-8l-278 -1061h-281zM662 1858v20h274l147 -287v-20h-184z" />
<glyph unicode="&#x1e81;" horiz-adv-x="1609" d="M33 1036v21h233l189 -778h8l203 778h280l203 -778h8l189 778h231v-21l-281 -1036h-280l-203 778h-8l-211 -778h-281zM532 1468v21h275l147 -287v-20h-184z" />
<glyph unicode="&#x1e82;" horiz-adv-x="1892" d="M43 1413v21h248l239 -1084h9l278 1084h258l283 -1084h8l236 1084h247v-21l-344 -1413h-280l-273 1061h-8l-278 -1061h-281zM823 1571v20l148 287h274v-20l-237 -287h-185z" />
<glyph unicode="&#x1e83;" horiz-adv-x="1609" d="M33 1036v21h233l189 -778h8l203 778h280l203 -778h8l189 778h231v-21l-281 -1036h-280l-203 778h-8l-211 -778h-281zM692 1182v20l148 287h274v-21l-237 -286h-185z" />
<glyph unicode="&#x1e84;" horiz-adv-x="1892" d="M43 1413v21h248l239 -1084h9l278 1084h258l283 -1084h8l236 1084h247v-21l-344 -1413h-280l-273 1061h-8l-278 -1061h-281zM625 1743q0 61 35 97t98 36q62 0 97.5 -36t35.5 -97q0 -62 -35 -97.5t-98 -35.5q-64 0 -98.5 35.5t-34.5 97.5zM1008 1743q0 61 34 97t99 36 q62 0 97.5 -36t35.5 -97q0 -62 -35 -97.5t-98 -35.5q-65 0 -99 35t-34 98z" />
<glyph unicode="&#x1e85;" horiz-adv-x="1609" d="M33 1036v21h233l189 -778h8l203 778h280l203 -778h8l189 778h231v-21l-281 -1036h-280l-203 778h-8l-211 -778h-281zM494 1354q0 61 35 97t98 36q62 0 97.5 -36t35.5 -97q0 -62 -35 -97.5t-98 -35.5q-64 0 -98.5 35.5t-34.5 97.5zM877 1354q0 61 34 97t99 36 q62 0 97.5 -36t35.5 -97q0 -62 -35 -97.5t-98 -35.5q-65 0 -99 35t-34 98z" />
<glyph unicode="&#x1ebc;" horiz-adv-x="1249" d="M178 0v1434h967v-217h-727v-369h663v-217h-663v-416h727v-215h-967zM319 1593v31q0 109 57.5 168t151.5 59q70 0 140 -41l30 -18q52 -27 78 -27q32 0 49 21.5t17 60.5h147v-30q0 -111 -54 -169.5t-153 -58.5q-67 0 -137 41l-29 19q-47 28 -79 28q-29 0 -48.5 -23 t-19.5 -61h-150z" />
<glyph unicode="&#x1ebd;" horiz-adv-x="1134" d="M80 528q0 115 31 213.5t91 173.5t155.5 117.5t217.5 42.5q150 0 260 -68.5t164 -183.5t54 -262v-98h-731q0 -130 66.5 -207.5t191.5 -77.5q94 0 153 38.5t78 105.5h227q-22 -148 -147.5 -244t-310.5 -96q-234 0 -367 154t-133 392zM215 1217v30q0 109 57.5 168.5 t151.5 59.5q69 0 139 -41l31 -19q50 -26 78 -26q65 0 65 81h148v-30q0 -111 -54 -169.5t-153 -58.5q-67 0 -137 41l-29 19q-47 28 -80 28q-29 0 -48 -22t-19 -61h-150zM324 629h489q-2 110 -62.5 179t-175.5 69q-121 0 -183.5 -69t-67.5 -179z" />
<glyph unicode="&#x1ef2;" horiz-adv-x="1372" d="M43 1413v21h276l367 -611h8l361 611h274v-21l-520 -825v-588h-242v586zM418 1858v20h274l148 -287v-20h-185z" />
<glyph unicode="&#x1ef3;" horiz-adv-x="1114" d="M33 1036v21h243l275 -795h8l275 795h247v-21l-561 -1505h-246v20l168 453l-24 2zM291 1481v20h274l148 -287v-20h-185z" />
<glyph unicode="&#x2000;" horiz-adv-x="1000" />
<glyph unicode="&#x2001;" horiz-adv-x="2001" />
<glyph unicode="&#x2002;" horiz-adv-x="1000" />
<glyph unicode="&#x2003;" horiz-adv-x="2001" />
<glyph unicode="&#x2004;" horiz-adv-x="667" />
<glyph unicode="&#x2005;" horiz-adv-x="500" />
<glyph unicode="&#x2006;" horiz-adv-x="333" />
<glyph unicode="&#x2007;" horiz-adv-x="333" />
<glyph unicode="&#x2008;" horiz-adv-x="250" />
<glyph unicode="&#x2009;" horiz-adv-x="400" />
<glyph unicode="&#x200a;" horiz-adv-x="111" />
<glyph unicode="&#x2010;" horiz-adv-x="954" d="M164 494v213h627v-213h-627z" />
<glyph unicode="&#x2011;" horiz-adv-x="954" d="M164 494v213h627v-213h-627z" />
<glyph unicode="&#x2012;" horiz-adv-x="954" d="M164 494v213h627v-213h-627z" />
<glyph unicode="&#x2013;" horiz-adv-x="1273" d="M123 494v213h1028v-213h-1028z" />
<glyph unicode="&#x2014;" horiz-adv-x="2256" d="M123 494v213h2011v-213h-2011z" />
<glyph unicode="&#x2018;" horiz-adv-x="460" d="M68 930v20l143 484h184v-21l-63 -483h-264z" />
<glyph unicode="&#x2019;" horiz-adv-x="460" d="M68 930v20l63 484h264v-21l-145 -483h-182z" />
<glyph unicode="&#x201a;" horiz-adv-x="460" d="M68 -262l63 481h264v-20l-145 -482h-182v21z" />
<glyph unicode="&#x201c;" horiz-adv-x="843" d="M68 930v20l143 484h184v-21l-63 -483h-264zM451 930v20l143 484h184v-21l-63 -483h-264z" />
<glyph unicode="&#x201d;" horiz-adv-x="843" d="M68 930v20l63 484h264v-21l-145 -483h-182zM451 930v20l63 484h264v-21l-145 -483h-182z" />
<glyph unicode="&#x201e;" horiz-adv-x="843" d="M68 -262l63 481h264v-20l-145 -482h-182v21zM451 -262l63 481h264v-20l-145 -482h-182v21z" />
<glyph unicode="&#x2020;" horiz-adv-x="976" d="M162 975v192h225v267h203v-267h225v-192h-225v-287l-29 -338h-145l-29 338v287h-225z" />
<glyph unicode="&#x2021;" horiz-adv-x="976" d="M162 268v191h231l23 258l-21 258h-233v192h225v267h203v-267h225v-192h-233l-21 -258l23 -258h231v-191h-225v-266h-203v266h-225z" />
<glyph unicode="&#x2022;" horiz-adv-x="790" d="M123 602q0 124 70.5 200.5t201.5 76.5q128 0 200.5 -77t72.5 -200q0 -127 -72.5 -205t-200.5 -78q-131 0 -201.5 77.5t-70.5 205.5z" />
<glyph unicode="&#x2026;" horiz-adv-x="1671" d="M109 131q0 69 37.5 109.5t109.5 40.5q69 0 108 -40.5t39 -109.5q0 -68 -38.5 -108.5t-108.5 -40.5q-72 0 -109.5 40t-37.5 109zM688 131q0 69 38 109.5t110 40.5q69 0 108 -40.5t39 -109.5q0 -68 -38.5 -108.5t-108.5 -40.5q-72 0 -110 40t-38 109zM1266 131 q0 69 38.5 109.5t110.5 40.5q70 0 109 -41t39 -109t-39 -108.5t-109 -40.5q-72 0 -110.5 40t-38.5 109z" />
<glyph unicode="&#x202f;" horiz-adv-x="400" />
<glyph unicode="&#x2030;" horiz-adv-x="2484" d="M117 1085q0 168 82 270.5t237 102.5q153 0 235.5 -103t82.5 -270q0 -168 -81.5 -270t-236.5 -102t-237 102t-82 270zM279 0v20l970 1414h203v-21l-967 -1413h-206zM291 1085q0 -211 145 -211q144 0 144 211t-144 211q-145 0 -145 -211zM985 354q0 167 82.5 270t237.5 103 q153 0 236 -103t83 -270q0 -168 -82 -270t-237 -102t-237.5 102.5t-82.5 269.5zM1161 354q0 -211 144 -211q143 0 143 211t-143 211q-144 0 -144 -211zM1729 354q0 168 82 270.5t237 102.5q153 0 235 -103t82 -270q0 -168 -81 -270t-236 -102t-237 102t-82 270zM1903 354 q0 -211 145 -211q143 0 143 211t-143 211q-145 0 -145 -211z" />
<glyph unicode="&#x2039;" horiz-adv-x="718" d="M63 569v21l340 434h218v-20l-287 -424l287 -424v-21h-218z" />
<glyph unicode="&#x203a;" horiz-adv-x="718" d="M96 135v21l287 424l-287 424v20h217l340 -434v-21l-340 -434h-217z" />
<glyph unicode="&#x2044;" horiz-adv-x="1114" d="M-20 -184l935 1822h220v-20l-932 -1823h-223v21z" />
<glyph unicode="&#x205f;" horiz-adv-x="500" />
<glyph unicode="&#x20ac;" horiz-adv-x="1548" d="M96 463v172h99q-2 27 -2 80q0 45 2 65h-99v172h123q54 232 216.5 366t416.5 134q260 0 419.5 -145.5t178.5 -378.5h-246q-13 136 -102.5 219.5t-249.5 83.5q-148 0 -243 -74t-138 -205h502l-41 -172h-492q-2 -20 -2 -65q0 -26 4 -80h459l-41 -172h-383 q43 -123 137 -192.5t238 -69.5q155 0 243 78.5t111 212.5h244q-26 -228 -183.5 -369t-414.5 -141q-250 0 -411 128.5t-218 352.5h-127z" />
<glyph unicode="&#x2116;" horiz-adv-x="2371" d="M178 0v1434h275l645 -1053h8v1053h237v-1434h-276l-645 1047h-8v-1047h-236zM1483 1065q0 172 92 279.5t264 107.5q171 0 262.5 -107.5t91.5 -279.5q0 -171 -90.5 -278t-263.5 -107q-175 0 -265.5 106.5t-90.5 278.5zM1524 399v181h645v-181h-645zM1671 1067 q0 -103 42 -160t124 -57q84 0 126 56.5t42 160.5q0 102 -42 158.5t-126 56.5q-83 0 -124.5 -57t-41.5 -158z" />
<glyph unicode="&#x2122;" horiz-adv-x="1499" d="M68 1300v134h546v-134h-200v-536h-146v536h-200zM717 764v670h162l196 -332h6l195 332h158v-670h-136v450h-6l-205 -337h-20l-209 340h-6v-453h-135z" />
<glyph unicode="&#x2212;" horiz-adv-x="993" d="M10 541v200h973v-200h-973z" />
<glyph unicode="&#x2260;" horiz-adv-x="993" d="M10 322v200h326l131 215h-457v201h578l86 141h174v-20l-74 -121h209v-201h-330l-131 -215h461v-200h-584l-80 -134h-174v21l68 113h-203z" />
<glyph unicode="&#x2264;" horiz-adv-x="1067" d="M84 0v201h897v-201h-897zM84 651v250l897 350v-219l-688 -252v-8l688 -252v-219z" />
<glyph unicode="&#x2265;" horiz-adv-x="1067" d="M84 0v201h897v-201h-897zM84 301v219l688 252v8l-688 252v219l897 -350v-250z" />
<glyph unicode="&#x25fc;" horiz-adv-x="1054" d="M0 0v1055h1055v-1055h-1055z" />
<glyph horiz-adv-x="512" d="M117 1366q0 68 38.5 106.5t110.5 38.5q71 0 110.5 -38.5t39.5 -106.5t-39.5 -107.5t-110.5 -39.5q-72 0 -110.5 39t-38.5 108zM150 0v1057h233v-1057h-233z" />
<glyph d="M80 526q0 159 49.5 282t150.5 195t240 72q207 0 303 -145h8l27 127h207v-1057h-207l-22 127h-9q-94 -145 -305 -145q-140 0 -241 72t-151 194t-50 278zM317 528q0 -152 63.5 -246t197.5 -94q89 0 149.5 47.5t86.5 122t26 170.5q0 71 -15 131t-45.5 107.5t-82 74.5 t-119.5 27q-70 0 -122 -27t-81.5 -74.5t-43.5 -107t-14 -131.5z" />
<glyph d="M80 526q0 159 49.5 282t150.5 195t240 72q207 0 303 -145h8l27 127h207v-1057h-207l-22 127h-9q-94 -145 -305 -145q-140 0 -241 72t-151 194t-50 278zM317 528q0 -152 63.5 -246t197.5 -94q89 0 149.5 47.5t86.5 122t26 170.5q0 71 -15 131t-45.5 107.5t-82 74.5 t-119.5 27q-70 0 -122 -27t-81.5 -74.5t-43.5 -107t-14 -131.5zM471 1194v20l147 287h275v-20l-238 -287h-184z" />
<glyph d="M80 526q0 159 49.5 282t150.5 195t240 72q207 0 303 -145h8l27 127h207v-1057h-207l-22 127h-9q-94 -145 -305 -145q-140 0 -241 72t-151 194t-50 278zM279 1495h180q6 -121 131 -121q126 0 133 121h180q0 -138 -81 -217.5t-232 -79.5q-147 0 -229 80t-82 217zM317 528 q0 -152 63.5 -246t197.5 -94q89 0 149.5 47.5t86.5 122t26 170.5q0 71 -15 131t-45.5 107.5t-82 74.5t-119.5 27q-70 0 -122 -27t-81.5 -74.5t-43.5 -107t-14 -131.5z" />
<glyph d="M80 526q0 159 49.5 282t150.5 195t240 72q207 0 303 -145h8l27 127h207v-1057h-207l-22 127h-9q-94 -145 -305 -145q-140 0 -241 72t-151 194t-50 278zM256 1477v20h201l131 -141h8l135 141h201v-20l-201 -279h-274zM317 528q0 -152 63.5 -246t197.5 -94q89 0 149.5 47.5 t86.5 122t26 170.5q0 71 -15 131t-45.5 107.5t-82 74.5t-119.5 27q-70 0 -122 -27t-81.5 -74.5t-43.5 -107t-14 -131.5z" />
<glyph d="M80 526q0 159 49.5 282t150.5 195t240 72q207 0 303 -145h8l27 127h207v-1057h-207l-22 127h-9q-94 -145 -305 -145q-140 0 -241 72t-151 194t-50 278zM260 1198v21l201 278h274l201 -278v-21h-201l-133 141h-8l-133 -141h-201zM317 528q0 -152 63.5 -246t197.5 -94 q89 0 149.5 47.5t86.5 122t26 170.5q0 71 -15 131t-45.5 107.5t-82 74.5t-119.5 27q-70 0 -122 -27t-81.5 -74.5t-43.5 -107t-14 -131.5z" />
<glyph d="M80 526q0 159 49.5 282t150.5 195t240 72q207 0 303 -145h8l27 127h207v-1057h-207l-22 127h-9q-94 -145 -305 -145q-140 0 -241 72t-151 194t-50 278zM274 1366q0 61 35 97t99 36q62 0 97.5 -36t35.5 -97q0 -62 -35 -97.5t-98 -35.5q-64 0 -99 35.5t-35 97.5zM317 528 q0 -152 63.5 -246t197.5 -94q89 0 149.5 47.5t86.5 122t26 170.5q0 71 -15 131t-45.5 107.5t-82 74.5t-119.5 27q-70 0 -122 -27t-81.5 -74.5t-43.5 -107t-14 -131.5zM657 1366q0 61 34.5 97t99.5 36q62 0 97.5 -36t35.5 -97q0 -62 -35 -97.5t-98 -35.5q-65 0 -99.5 35.5 t-34.5 97.5z" />
<glyph d="M80 526q0 159 49.5 282t150.5 195t240 72q207 0 303 -145h8l27 127h207v-1057h-207l-22 127h-9q-94 -145 -305 -145q-140 0 -241 72t-151 194t-50 278zM311 1481v20h275l147 -287v-20h-184zM317 528q0 -152 63.5 -246t197.5 -94q89 0 149.5 47.5t86.5 122t26 170.5 q0 71 -15 131t-45.5 107.5t-82 74.5t-119.5 27q-70 0 -122 -27t-81.5 -74.5t-43.5 -107t-14 -131.5z" />
<glyph d="M80 526q0 159 49.5 282t150.5 195t240 72q207 0 303 -145h8l27 127h207v-1057h-207l-22 127h-9q-94 -145 -305 -145q-140 0 -241 72t-151 194t-50 278zM307 1255v193h576v-193h-576zM317 528q0 -152 63.5 -246t197.5 -94q89 0 149.5 47.5t86.5 122t26 170.5q0 71 -15 131 t-45.5 107.5t-82 74.5t-119.5 27q-70 0 -122 -27t-81.5 -74.5t-43.5 -107t-14 -131.5z" />
<glyph d="M80 526q0 159 49.5 282t150.5 195t240 72q207 0 303 -145h8l27 127h207v-1057q-73 -32 -123.5 -83t-50.5 -114q0 -45 29.5 -68.5t74.5 -23.5q38 0 70 8v-155q-56 -17 -121 -17q-103 0 -177.5 56t-74.5 155q0 158 164 252l-20 117h-9q-94 -145 -305 -145q-140 0 -241 72 t-151 194t-50 278zM317 528q0 -152 63.5 -246t197.5 -94q89 0 149.5 47.5t86.5 122t26 170.5q0 71 -15 131t-45.5 107.5t-82 74.5t-119.5 27q-70 0 -122 -27t-81.5 -74.5t-43.5 -107t-14 -131.5z" />
<glyph d="M80 526q0 159 49.5 282t150.5 195t240 72q207 0 303 -145h8l27 127h207v-1057h-207l-22 127h-9q-94 -145 -305 -145q-140 0 -241 72t-151 194t-50 278zM317 528q0 -152 63.5 -246t197.5 -94q89 0 149.5 47.5t86.5 122t26 170.5q0 71 -15 131t-45.5 107.5t-82 74.5 t-119.5 27q-70 0 -122 -27t-81.5 -74.5t-43.5 -107t-14 -131.5zM358 1395q0 101 66 165t166 64q104 0 169.5 -64t65.5 -165q0 -100 -65.5 -164t-169.5 -64q-100 0 -166 64.5t-66 163.5zM496 1395q0 -40 25.5 -66t66.5 -26q44 0 71 26t27 66t-27 67t-71 27q-41 0 -66.5 -27 t-25.5 -67z" />
<glyph d="M80 526q0 159 49.5 282t150.5 195t240 72q207 0 303 -145h8l27 127h207v-1057h-207l-22 127h-9q-94 -145 -305 -145q-140 0 -241 72t-151 194t-50 278zM231 1217v30q0 109 57.5 168.5t151.5 59.5q70 0 140 -41l30 -19q50 -26 78 -26q32 0 49 21t17 60h147v-30 q0 -111 -54 -169.5t-153 -58.5q-67 0 -137 41l-29 19q-47 28 -79 28q-29 0 -48.5 -22.5t-19.5 -60.5h-150zM317 528q0 -152 63.5 -246t197.5 -94q89 0 149.5 47.5t86.5 122t26 170.5q0 71 -15 131t-45.5 107.5t-82 74.5t-119.5 27q-70 0 -122 -27t-81.5 -74.5t-43.5 -107 t-14 -131.5z" />
<glyph horiz-adv-x="387" d="M74 1085v349h241v-21l-86 -328h-155z" />
</font>
</defs>
</svg>
